<svg width="257" height="56" viewBox="0 0 257 56" fill="none" xmlns="http://www.w3.org/2000/svg">
<path d="M0.999999 28L0.249999 28L0.249999 28.75L0.999999 28.75L0.999999 28ZM256 28L256 28.75L256.75 28.75L256.75 28L256 28ZM128.5 56L132.83 48.5L124.17 48.5L128.5 56ZM0.25 2.0599e-05L0.249999 28L1.75 28L1.75 2.06646e-05L0.25 2.0599e-05ZM256.75 28C256.75 17.0093 256.75 10.9908 256.75 1.11792e-05L255.25 1.11136e-05C255.25 10.9908 255.25 17.0093 255.25 28L256.75 28ZM0.999999 28.75L128.5 28.75L128.5 27.25L0.999999 27.25L0.999999 28.75ZM128.5 28.75L256 28.75L256 27.25L128.5 27.25L128.5 28.75ZM127.75 28L127.75 42L129.25 42L129.25 28L127.75 28ZM127.75 42L127.75 49.25L129.25 49.25L129.25 42L127.75 42Z" fill="#DFE3EC"/>
</svg>
