<svg width="257" height="56" viewBox="0 0 257 56" fill="none" xmlns="http://www.w3.org/2000/svg">
<path d="M0.999999 28L0.249999 28L0.249999 27.25L0.999999 27.25L0.999999 28ZM256 28L256 27.25L256.75 27.25L256.75 28L256 28ZM128.5 5.87089e-06L132.83 7.50001L124.17 7.50001L128.5 5.87089e-06ZM0.25 56L0.249999 28L1.75 28L1.75 56L0.25 56ZM256.75 28C256.75 38.9907 256.75 45.0092 256.75 56L255.25 56C255.25 45.0092 255.25 38.9907 255.25 28L256.75 28ZM0.999999 27.25L128.5 27.25L128.5 28.75L0.999999 28.75L0.999999 27.25ZM128.5 27.25L256 27.25L256 28.75L128.5 28.75L128.5 27.25ZM127.75 28L127.75 14L129.25 14L129.25 28L127.75 28ZM127.75 14L127.75 6.75L129.25 6.75L129.25 14L127.75 14Z" fill="#DFE3EC"/>
</svg>
