<svg width="1010" height="112" viewBox="0 0 1010 112" fill="none" xmlns="http://www.w3.org/2000/svg">
<path d="M0.999998 56L-2.44784e-06 56L-2.49155e-06 57L0.999998 57L0.999998 56ZM1009 56L1009 57L1010 57L1010 56L1009 56ZM505 112L510.773 102L499.226 102L505 112ZM0 4.12198e-05L-2.44784e-06 56L2 56L2 4.13072e-05L0 4.12198e-05ZM1010 56C1010 34.1307 1010 21.8694 1010 4.41048e-05L1008 4.40174e-05C1008 21.8694 1008 34.1307 1008 56L1010 56ZM0.999998 57L505 57L505 55L0.999998 55L0.999998 57ZM505 57L1009 57L1009 55L505 55L505 57ZM504 56L504 103L506 103L506 56L504 56Z" fill="#B8BFD0"/>
</svg>
