<svg width="26" height="26" viewBox="0 0 26 26" fill="none" xmlns="http://www.w3.org/2000/svg">
<path d="M0 13C0 5.82055 5.82055 0 13 0C20.1795 0 26 5.82105 26 13C26 20.1789 20.1789 26 13 26C5.82105 26 0 20.1795 0 13Z" fill="#0086CD"/>
<path d="M17.6616 7.18555H11.6446C11.2228 7.18542 10.8142 7.33244 10.4892 7.60127C10.1642 7.8701 9.94314 8.24389 9.86418 8.65821H8.47328C7.95708 8.65901 7.46229 8.86457 7.09747 9.22977C6.73265 9.59497 6.52761 10.09 6.52734 10.6062V14.5163C6.52761 15.0325 6.73267 15.5274 7.0975 15.8926C7.46233 16.2577 7.95713 16.4631 8.47328 16.4638H9.51734C9.44219 17.1488 8.7927 18.0446 8.52 18.3625L8.13508 18.8099L8.72465 18.7886C10.2852 18.7317 11.609 17.3525 12.3052 16.4633H14.0826C14.3521 16.4641 14.6188 16.4085 14.8656 16.3003C15.5689 16.9274 16.4454 17.4682 17.4047 17.5053C17.4047 17.5053 16.1479 16.0454 16.2662 15.0094H17.6642C17.9022 15.0094 18.1379 14.9625 18.3578 14.8714C18.5777 14.7803 18.7775 14.6467 18.9457 14.4784C19.114 14.31 19.2474 14.1102 19.3384 13.8902C19.4294 13.6703 19.4762 13.4346 19.4761 13.1965V8.99793C19.4762 8.75972 19.4293 8.52382 19.3382 8.30374C19.247 8.08365 19.1133 7.88372 18.9448 7.71537C18.7763 7.54702 18.5762 7.41357 18.356 7.32265C18.1358 7.23174 17.8999 7.18515 17.6616 7.18555ZM12.3469 10.2421C12.4826 10.2419 12.6153 10.2819 12.7283 10.3572C12.8412 10.4324 12.9293 10.5395 12.9814 10.6648C13.0335 10.7901 13.0472 10.928 13.0209 11.0612C12.9946 11.1943 12.9294 11.3166 12.8335 11.4127C12.7377 11.5088 12.6155 11.5743 12.4824 11.6009C12.3493 11.6275 12.2114 11.614 12.0859 11.5622C11.9605 11.5104 11.8533 11.4225 11.7778 11.3098C11.7023 11.197 11.6619 11.0643 11.6618 10.9286C11.6617 10.7468 11.7338 10.5723 11.8622 10.4436C11.9907 10.3148 12.165 10.2423 12.3469 10.2421ZM14.0805 15.9509H12.0493L11.9726 16.0525C11.4475 16.7441 10.4614 17.8415 9.30711 18.1792C9.66258 17.6622 10.1084 16.8548 10.0318 16.182L10.0054 15.9534H8.47328C8.09392 15.9528 7.7303 15.8017 7.46214 15.5334C7.19399 15.265 7.04318 14.9013 7.04277 14.5219V10.6118C7.04318 10.2324 7.19399 9.86867 7.46214 9.60032C7.7303 9.33198 8.09392 9.18091 8.47328 9.18024H9.83168V13.2006C9.83148 13.4387 9.87823 13.6745 9.96927 13.8946C10.0603 14.1146 10.1938 14.3146 10.3622 14.4829C10.5306 14.6513 10.7305 14.7849 10.9506 14.8759C11.1706 14.9669 11.4064 15.0137 11.6446 15.0135H13.686C13.923 15.3253 14.1782 15.6229 14.4502 15.9047C14.3295 15.9361 14.2053 15.9516 14.0805 15.9509ZM14.8387 11.6142C14.7031 11.6139 14.5706 11.5734 14.4579 11.4978C14.3453 11.4222 14.2576 11.3149 14.2059 11.1895C14.1542 11.0641 14.1409 10.9262 14.1676 10.7932C14.1943 10.6602 14.2598 10.5381 14.3558 10.4423C14.4519 10.3465 14.5742 10.2814 14.7073 10.2551C14.8403 10.2288 14.9782 10.2425 15.1035 10.2946C15.2287 10.3466 15.3358 10.4347 15.411 10.5475C15.4863 10.6604 15.5264 10.793 15.5263 10.9286C15.5264 11.0189 15.5086 11.1083 15.474 11.1917C15.4394 11.2751 15.3887 11.3509 15.3248 11.4146C15.2608 11.4784 15.1849 11.5289 15.1014 11.5632C15.0179 11.5975 14.9285 11.615 14.8382 11.6147L14.8387 11.6142ZM17.33 11.6142C17.1943 11.6143 17.0616 11.5741 16.9487 11.4988C16.8358 11.4234 16.7478 11.3163 16.6958 11.1909C16.6438 11.0655 16.6302 10.9275 16.6566 10.7944C16.6831 10.6613 16.7484 10.539 16.8444 10.443C16.9404 10.347 17.0627 10.2817 17.1958 10.2552C17.3289 10.2288 17.4669 10.2424 17.5923 10.2944C17.7177 10.3464 17.8248 10.4344 17.9002 10.5473C17.9755 10.6602 18.0157 10.7929 18.0156 10.9286C18.0157 11.0187 17.998 11.1079 17.9635 11.1911C17.9291 11.2744 17.8786 11.35 17.815 11.4137C17.7513 11.4774 17.6757 11.528 17.5925 11.5625C17.5093 11.5969 17.4201 11.6147 17.33 11.6147V11.6142Z" fill="white"/>
</svg>
