<svg width="48" height="48" viewBox="0 0 48 48" fill="none" xmlns="http://www.w3.org/2000/svg">
<path d="M36.6328 11.3672H11.3672V36.6328H36.6328V11.3672Z" fill="white"/>
<path d="M36.6328 48L48 36.6328H36.6328V48Z" fill="#F72A25"/>
<path d="M48 11.3672H36.6328V36.6328H48V11.3672Z" fill="#FBBC04"/>
<path d="M36.6328 36.6328H11.3672V48H36.6328V36.6328Z" fill="#34A853"/>
<path d="M0 36.6328V44.2109C0 46.3047 1.69531 48 3.78906 48H11.3672V36.6328H0Z" fill="#188038"/>
<path d="M48 11.3672V3.78906C48 1.69531 46.3047 0 44.2109 0H36.6328V11.3672H48Z" fill="#1967D2"/>
<path d="M36.6328 0H3.78906C1.69531 0 0 1.69531 0 3.78906V36.6328H11.3672V11.3672H36.6289V0H36.6328Z" fill="#4285F4"/>
<path d="M16.5508 30.9648C15.6055 30.3281 14.9531 29.3945 14.5977 28.1641L16.7891 27.2617C16.9883 28.0195 17.3359 28.6055 17.832 29.0234C18.3242 29.4414 18.9258 29.6445 19.625 29.6445C20.3438 29.6445 20.957 29.4258 21.4727 28.9922C21.9883 28.5547 22.2461 28 22.2461 27.3281C22.2461 26.6406 21.9727 26.0781 21.4297 25.6406C20.8867 25.2031 20.2031 24.9883 19.3906 24.9883H18.125V22.8203H19.2617C19.9609 22.8203 20.5547 22.6328 21.0352 22.25C21.5156 21.8711 21.7539 21.3516 21.7539 20.6914C21.7539 20.1055 21.5391 19.6367 21.1094 19.2852C20.6797 18.9336 20.1367 18.7578 19.4766 18.7578C18.832 18.7578 18.3203 18.9297 17.9414 19.2734C17.5625 19.6172 17.2773 20.0547 17.1133 20.5391L14.9453 19.6367C15.2344 18.8203 15.7617 18.1016 16.5352 17.4805C17.3086 16.8594 18.2969 16.5469 19.4961 16.5469C20.3828 16.5469 21.1836 16.7187 21.8906 17.0625C22.5977 17.4062 23.1523 17.8828 23.5547 18.4883C23.957 19.0977 24.1562 19.7813 24.1562 20.5391C24.1562 21.3125 23.9688 21.9648 23.5977 22.5039C23.2266 23.0391 22.7656 23.4531 22.2227 23.7383V23.8672C22.9219 24.1562 23.5352 24.6328 23.9844 25.2422C24.4414 25.8594 24.6719 26.5937 24.6719 27.4531C24.6719 28.3125 24.4531 29.0781 24.0195 29.75C23.582 30.4219 22.9805 30.9531 22.2148 31.3398C21.4492 31.7266 20.5859 31.9219 19.6289 31.9219C18.5195 31.9219 17.4961 31.6055 16.5508 30.9648ZM30.0117 20.0898L27.6055 21.8281L26.4023 20.0039L30.7188 16.8906H32.375V31.5781H30.0117V20.0898Z" fill="#1A73E8"/>
</svg>
