<svg width="54" height="46" viewBox="0 0 54 46" fill="none" xmlns="http://www.w3.org/2000/svg">
<path d="M17.5703 0H36.3437L53.9992 29.9H35.1836L17.5703 0Z" fill="url(#paint0_linear_913_2546)"/>
<path d="M53.9996 29.9004L44.5918 45.8761H9.36523L18.7941 29.9004H53.9996Z" fill="url(#paint1_linear_913_2546)"/>
<path d="M9.36563 45.8757L0 29.9L17.5711 0L27 16.0171L9.36563 45.8757Z" fill="url(#paint2_linear_913_2546)"/>
<path opacity="0.1" d="M9.36523 45.8761L26.8941 29.9004H18.7941L9.36523 45.8761Z" fill="black"/>
<path opacity="0.1" d="M53.9992 29.9001H35.2047L31.0703 22.8965L53.9992 29.9001Z" fill="black"/>
<path opacity="0.1" d="M17.5703 0L22.9914 22.7928L26.9992 16.0171L17.5703 0Z" fill="black"/>
<defs>
<linearGradient id="paint0_linear_913_2546" x1="17.5703" y1="0" x2="46.8965" y2="35.7298" gradientUnits="userSpaceOnUse">
<stop stop-color="#F6C338"/>
<stop offset="0.522782" stop-color="#FFD351"/>
<stop offset="1" stop-color="#F6C338"/>
</linearGradient>
<linearGradient id="paint1_linear_913_2546" x1="53.9996" y1="29.9004" x2="43.8622" y2="58.2233" gradientUnits="userSpaceOnUse">
<stop stop-color="#286EE6"/>
<stop offset="0.521046" stop-color="#4286FB"/>
<stop offset="1" stop-color="#286EE6"/>
</linearGradient>
<linearGradient id="paint2_linear_913_2546" x1="17.6281" y1="-8.42472e-07" x2="-2.24242" y2="39.9222" gradientUnits="userSpaceOnUse">
<stop stop-color="#069B5A"/>
<stop offset="0.531031" stop-color="#11AA62"/>
<stop offset="1" stop-color="#069B5A"/>
</linearGradient>
</defs>
</svg>
