<svg width="28" height="20" viewBox="0 0 28 20" fill="none" xmlns="http://www.w3.org/2000/svg">
<path d="M2.77097 19.1401H6.90769V9.64152L0.998047 5.45117V17.4642C0.998376 18.3897 1.79211 19.1401 2.77097 19.1401Z" fill="#4285F4"/>
<path d="M21.0918 19.1405H25.2288C26.208 19.1405 27.0018 18.39 27.0018 17.4642V5.45117L21.0918 9.64183V19.1405Z" fill="#34A853"/>
<path d="M21.0918 2.37908V9.64185L27.0014 5.4515V3.21721C27.0014 1.82882 25.8108 0.703125 24.342 0.703125C23.7666 0.703125 23.207 0.879705 22.7467 1.20613L21.0918 2.37908Z" fill="#FBBC04"/>
<path d="M6.9082 9.64199V2.37922L13.9992 7.40739L21.0903 2.37891V9.64199L13.9992 14.6702L6.9082 9.64199Z" fill="#EA4335"/>
<path d="M0.998047 3.21724V5.45153L6.90769 9.64219V2.37942L5.2528 1.20616C4.07798 0.372999 2.41126 0.598076 1.53006 1.70885C1.18448 2.14408 0.998047 2.67351 0.998047 3.21724Z" fill="#C5221F"/>
</svg>
