<svg width="52" height="38" viewBox="0 0 52 38" fill="none" xmlns="http://www.w3.org/2000/svg">
<path d="M3.5456 37.2901H11.8184V18.2942L0 9.91406V33.9384C0.000657566 35.7892 1.58802 37.2901 3.5456 37.2901Z" fill="#4285F4"/>
<path d="M40.1816 37.2907H48.4551C50.4134 37.2907 52.0007 35.7899 52.0007 33.9384V9.91406L40.1816 18.2948V37.2907Z" fill="#34A853"/>
<path d="M40.1816 3.76964V18.2942L52.0001 9.91405V5.44578C52.0001 2.6692 49.619 0.417969 46.6817 0.417969C45.5309 0.417969 44.4118 0.771103 43.4912 1.4239L40.1816 3.76964Z" fill="#FBBC04"/>
<path d="M11.8184 18.2947V3.77015L25.9994 13.8258L40.1805 3.76953V18.2947L25.9994 28.3503L11.8184 18.2947Z" fill="#EA4335"/>
<path d="M0 5.44584V9.91411L11.8184 18.2948V3.77031L8.50891 1.42396C6.15943 -0.242237 2.82622 0.207885 1.06394 2.42927C0.37284 3.29968 0 4.35846 0 5.44584Z" fill="#C5221F"/>
</svg>
