<svg width="40" height="40" viewBox="0 0 40 40" fill="none" xmlns="http://www.w3.org/2000/svg">
<path d="M30.5273 9.47266H9.47266V30.5273H30.5273V9.47266Z" fill="white"/>
<path d="M30.5273 40L40 30.5273H30.5273V40Z" fill="#F72A25"/>
<path d="M40 9.47266H30.5273V30.5273H40V9.47266Z" fill="#FBBC04"/>
<path d="M30.5273 30.5273H9.47266V40H30.5273V30.5273Z" fill="#34A853"/>
<path d="M0 30.5273V36.8424C0 38.5872 1.41276 40 3.15755 40H9.47266V30.5273H0Z" fill="#188038"/>
<path d="M40 9.47266V3.15755C40 1.41276 38.5872 0 36.8424 0H30.5273V9.47266H40Z" fill="#1967D2"/>
<path d="M30.5273 0H3.15755C1.41276 0 0 1.41276 0 3.15755V30.5273H9.47266V9.47266H30.5241V0H30.5273Z" fill="#4285F4"/>
<path d="M13.7917 25.804C13.0039 25.2734 12.4603 24.4954 12.1641 23.4701L13.9902 22.7181C14.1563 23.3496 14.446 23.8379 14.8594 24.1862C15.2695 24.5345 15.7708 24.7038 16.3535 24.7038C16.9525 24.7038 17.4635 24.5215 17.8932 24.1602C18.3229 23.7956 18.5378 23.3333 18.5378 22.7734C18.5378 22.2005 18.3099 21.7318 17.8574 21.3672C17.4049 21.0026 16.8353 20.8236 16.1582 20.8236H15.1035V19.0169H16.0508C16.6335 19.0169 17.1283 18.8607 17.5286 18.5417C17.929 18.2259 18.1276 17.793 18.1276 17.2428C18.1276 16.7546 17.9486 16.3639 17.5905 16.071C17.2324 15.778 16.7799 15.6315 16.2298 15.6315C15.6927 15.6315 15.2663 15.7747 14.9505 16.0612C14.6348 16.3477 14.3971 16.7122 14.2604 17.1159L12.4538 16.3639C12.6947 15.6836 13.1341 15.0846 13.7786 14.5671C14.4232 14.0495 15.2467 13.7891 16.2461 13.7891C16.985 13.7891 17.6523 13.9323 18.2415 14.2187C18.8307 14.5052 19.293 14.9023 19.6283 15.4069C19.9635 15.9147 20.1296 16.4844 20.1296 17.1159C20.1296 17.7604 19.9733 18.304 19.6641 18.7533C19.3548 19.1992 18.9707 19.5443 18.5182 19.7819V19.8893C19.1009 20.1302 19.612 20.5273 19.9863 21.0352C20.3672 21.5495 20.5592 22.1615 20.5592 22.8776C20.5592 23.5937 20.377 24.2318 20.0156 24.7917C19.651 25.3516 19.1497 25.7943 18.5117 26.1165C17.8737 26.4388 17.1543 26.6016 16.3568 26.6016C15.4323 26.6016 14.5794 26.3379 13.7917 25.804ZM25.0091 16.7415L23.0039 18.1901L22.0013 16.6699L25.5983 14.0755H26.9785V26.3151H25.0091V16.7415Z" fill="#1A73E8"/>
</svg>
