<svg width="17" height="16" viewBox="0 0 17 16" fill="none" xmlns="http://www.w3.org/2000/svg">
<path d="M0.833333 0.5H15.8333C16.0543 0.5 16.2663 0.587797 16.4226 0.744078C16.5789 0.900358 16.6667 1.11232 16.6667 1.33333V14.6667C16.6667 14.8877 16.5789 15.0996 16.4226 15.2559C16.2663 15.4122 16.0543 15.5 15.8333 15.5H0.833333C0.61232 15.5 0.400358 15.4122 0.244078 15.2559C0.0877973 15.0996 0 14.8877 0 14.6667V1.33333C0 1.11232 0.0877973 0.900358 0.244078 0.744078C0.400358 0.587797 0.61232 0.5 0.833333 0.5ZM15 7.16667H1.66667V13.8333H15V7.16667ZM15 5.5V2.16667H1.66667V5.5H15ZM10 10.5H13.3333V12.1667H10V10.5Z" fill="#878CA6"/>
</svg>
