<svg width="54" height="36" viewBox="0 0 54 36" fill="none" xmlns="http://www.w3.org/2000/svg">
<path d="M18.5762 13.5647C18.4115 12.9529 17.9291 12.4706 17.3173 12.3059C16.1997 12 11.7291 12 11.7291 12C11.7291 12 7.25848 12 6.14084 12.2941C5.54083 12.4588 5.04672 12.9529 4.88201 13.5647C4.58789 14.6824 4.58789 17 4.58789 17C4.58789 17 4.58789 19.3294 4.88201 20.4353C5.04672 21.0471 5.52907 21.5294 6.14084 21.6941C7.27025 22 11.7291 22 11.7291 22C11.7291 22 16.1997 22 17.3173 21.7059C17.9291 21.5412 18.4115 21.0588 18.5762 20.4471C18.8703 19.3294 18.8703 17.0118 18.8703 17.0118C18.8703 17.0118 18.882 14.6824 18.5762 13.5647Z" fill="#B8BFD0"/>
<path d="M10.3066 14.8589V19.1412L14.0243 17.0001L10.3066 14.8589Z" fill="#161729"/>
<path d="M25.3312 21.106C25.0488 20.9178 24.8488 20.6237 24.7312 20.2119C24.6135 19.8119 24.5547 19.2707 24.5547 18.6119V17.706C24.5547 17.0354 24.6253 16.4942 24.7547 16.0825C24.8959 15.6707 25.1076 15.3766 25.39 15.1884C25.6841 15.0001 26.0606 14.906 26.5312 14.906C26.99 14.906 27.3665 15.0001 27.6488 15.1884C27.9312 15.3766 28.1312 15.6825 28.2606 16.0825C28.39 16.4825 28.4606 17.0237 28.4606 17.706V18.6119C28.4606 19.2825 28.4018 19.8119 28.2723 20.2237C28.1429 20.6237 27.9429 20.9295 27.6606 21.1178C27.3782 21.306 26.99 21.4001 26.5076 21.4001C26.0135 21.3884 25.6135 21.2943 25.3312 21.106ZM26.9194 20.1178C27.0018 19.9178 27.0371 19.5766 27.0371 19.1178V17.1648C27.0371 16.7178 27.0018 16.3884 26.9194 16.1766C26.837 15.9648 26.7076 15.8707 26.5076 15.8707C26.3194 15.8707 26.1782 15.9766 26.1076 16.1766C26.0253 16.3884 25.99 16.7178 25.99 17.1648V19.1178C25.99 19.5766 26.0253 19.9178 26.1076 20.1178C26.1782 20.3178 26.3194 20.4237 26.5194 20.4237C26.7076 20.4237 26.837 20.3295 26.9194 20.1178Z" fill="#B8BFD0"/>
<path d="M47.0483 18.6235V18.9412C47.0483 19.3412 47.0601 19.647 47.0836 19.847C47.1071 20.047 47.1542 20.2 47.2365 20.2823C47.3071 20.3765 47.4248 20.4235 47.5895 20.4235C47.8012 20.4235 47.9424 20.3412 48.0248 20.1765C48.1071 20.0117 48.1424 19.7412 48.1542 19.3529L49.366 19.4235C49.3777 19.4823 49.3777 19.5529 49.3777 19.647C49.3777 20.2235 49.2248 20.6588 48.9071 20.9412C48.5895 21.2235 48.1424 21.3647 47.5659 21.3647C46.8718 21.3647 46.3895 21.1412 46.1071 20.7059C45.8248 20.2706 45.6836 19.6 45.6836 18.6823V17.5882C45.6836 16.647 45.8248 15.9647 46.1189 15.5294C46.413 15.0941 46.9071 14.8823 47.6012 14.8823C48.0836 14.8823 48.4601 14.9764 48.7189 15.1529C48.9777 15.3294 49.1542 15.6117 49.2601 15.9764C49.366 16.3529 49.413 16.8706 49.413 17.5294V18.6H47.0483V18.6235ZM47.2248 15.9882C47.1542 16.0823 47.1071 16.2235 47.0836 16.4235C47.0601 16.6235 47.0483 16.9294 47.0483 17.3412V17.7882H48.0836V17.3412C48.0836 16.9412 48.0718 16.6353 48.0483 16.4235C48.0248 16.2117 47.966 16.0706 47.8954 15.9882C47.8248 15.9059 47.7071 15.8588 47.5659 15.8588C47.4012 15.847 47.2954 15.8941 47.2248 15.9882Z" fill="#B8BFD0"/>
<path d="M21.8949 18.5058L20.2949 12.7058H21.6949L22.2596 15.3293C22.4008 15.9764 22.5067 16.5293 22.5773 16.9882H22.6126C22.6596 16.6588 22.7655 16.1176 22.9302 15.3411L23.5185 12.7058H24.9185L23.2949 18.5058V21.2823H21.9067V18.5058H21.8949Z" fill="#B8BFD0"/>
<path d="M33.013 15.0234V21.294H31.9071L31.7895 20.5293H31.7542C31.46 21.1058 31.0012 21.3999 30.4012 21.3999C29.9895 21.3999 29.6836 21.2587 29.4836 20.9882C29.2836 20.7176 29.1895 20.294 29.1895 19.7058V15.0234H30.6012V19.6234C30.6012 19.9058 30.6365 20.1058 30.6953 20.2234C30.7542 20.3411 30.86 20.3999 31.0012 20.3999C31.1189 20.3999 31.2365 20.3646 31.3542 20.2823C31.4718 20.2117 31.5542 20.1176 31.6012 19.9999V15.0234H33.013Z" fill="#B8BFD0"/>
<path d="M40.2474 15.0234V21.294H39.1415L39.0238 20.5293H38.9885C38.6944 21.1058 38.2356 21.3999 37.6356 21.3999C37.2238 21.3999 36.9179 21.2587 36.7179 20.9882C36.5179 20.7176 36.4238 20.294 36.4238 19.7058V15.0234H37.8356V19.6234C37.8356 19.9058 37.8709 20.1058 37.9297 20.2234C37.9885 20.3411 38.0944 20.3999 38.2356 20.3999C38.3533 20.3999 38.4709 20.3646 38.5885 20.2823C38.7062 20.2117 38.7885 20.1176 38.8356 19.9999V15.0234H40.2474Z" fill="#B8BFD0"/>
<path d="M36.8484 13.847H35.4484V21.2823H34.0719V13.847H32.6719V12.7058H36.8484V13.847Z" fill="#B8BFD0"/>
<path d="M44.9192 16.0235C44.8369 15.6235 44.6957 15.3411 44.5075 15.1647C44.3192 14.9882 44.0487 14.8941 43.7192 14.8941C43.4604 14.8941 43.2134 14.9647 42.9898 15.1176C42.7663 15.2588 42.5898 15.4588 42.4722 15.6941H42.4604V12.3882H41.0957V21.2823H42.2604L42.4016 20.6941H42.4369C42.5428 20.9058 42.7075 21.0706 42.931 21.2C43.1545 21.3176 43.3898 21.3882 43.6604 21.3882C44.1428 21.3882 44.484 21.1647 44.7075 20.7294C44.931 20.2941 45.0487 19.6 45.0487 18.6705V17.6823C45.0369 16.9647 45.0016 16.4117 44.9192 16.0235ZM43.6251 18.5764C43.6251 19.0353 43.6016 19.3882 43.5663 19.647C43.531 19.9058 43.4604 20.0941 43.3781 20.2C43.2839 20.3058 43.1663 20.3647 43.0251 20.3647C42.9075 20.3647 42.8016 20.3411 42.7075 20.2823C42.6134 20.2235 42.531 20.1411 42.4722 20.0353V16.4823C42.5192 16.3176 42.6016 16.1764 42.7192 16.0588C42.8369 15.9529 42.9663 15.8941 43.0957 15.8941C43.2369 15.8941 43.3545 15.9529 43.4251 16.0588C43.5075 16.1764 43.5545 16.3647 43.5898 16.6235C43.6251 16.8941 43.6369 17.2705 43.6369 17.7529V18.5764H43.6251Z" fill="#B8BFD0"/>
</svg>
