<svg width="70" height="88" viewBox="0 0 70 88" fill="none" xmlns="http://www.w3.org/2000/svg">
<g clip-path="url(#clip0_493_766)">
<path d="M6.07031 64.8459L35.3451 79.3443L63.5083 64.8459V8.15082H6.07031V64.8459Z" fill="white"/>
<path d="M64.1003 8.36722L5.47656 65.8557L35.8631 80.4984L64.1003 66.4328V8.36722Z" fill="#F2F3F2"/>
<path d="M4.14258 27.0492V66.0721L5.18017 66.5771L34.455 81.0754L35.3444 81.5082L36.2337 81.0754L64.4709 66.5771L65.5085 66.0721V6.27541H4.14258V27.0492ZM6.06953 64.9902V8.15082H63.5816V64.9902L35.3444 79.4885L6.06953 64.9902Z" fill="#DCDEDC"/>
<path d="M34.8258 9.08852C35.1223 9.08852 35.4187 9.08852 35.7152 9.16065L34.8258 10.8197C33.4918 10.7475 32.306 11.7574 32.2319 13.0557C32.1577 14.3541 33.1953 15.5082 34.5294 15.5803H34.8258C35.4187 15.5803 36.0116 15.3639 36.4563 15.0033L37.4198 16.5902C36.6787 17.0951 35.7893 17.3836 34.8258 17.3836C32.4542 17.4557 30.4531 15.7246 30.379 13.4164C30.3049 11.1082 32.0836 9.16065 34.4553 9.08852H34.8258ZM37.8645 12.6229L38.9762 14.4262L37.8645 16.1574L36.8269 14.4262H34.6776L35.7893 12.6229H37.8645ZM36.0858 11.9738C36.0858 11.6852 36.1599 11.3967 36.3081 11.1803C36.4563 10.9639 36.7528 10.7475 36.9751 10.6033L37.1233 10.5311C37.4198 10.3869 37.4939 10.3148 37.4939 10.1705C37.4939 10.0262 37.2716 9.88196 37.1233 9.88196C36.8269 9.88196 36.6046 10.0262 36.4563 10.3148L36.0858 9.9541C36.1599 9.80983 36.3081 9.66557 36.4563 9.52131C36.6787 9.37705 36.901 9.37705 37.1233 9.37705C37.3457 9.37705 37.6421 9.44918 37.7904 9.59344C37.9386 9.7377 38.0868 9.9541 38.0868 10.1705C38.0868 10.5311 37.8645 10.8197 37.4198 10.9639L37.1975 11.1082C36.9751 11.2525 36.8269 11.3246 36.7528 11.541H38.0868V12.0459L36.0858 11.9738ZM34.8258 20.9902L41.8666 17.0951V6.27541H27.7109V17.0229L34.8258 20.9902Z" fill="#FF492C"/>
<path d="M66.9172 46.5246H2.73491L0.363281 51.5738L2.73491 56.623H66.9172L69.2147 51.5738L66.9172 46.5246Z" fill="#2690CE"/>
<path d="M9.16706 43.2787C9.14236 43.2787 9.12259 43.2691 9.10777 43.2498C9.08801 43.2354 9.07812 43.2162 9.07812 43.1921V38.3161C9.07812 38.292 9.08801 38.2728 9.10777 38.2584C9.12259 38.2391 9.14236 38.2295 9.16706 38.2295H10.0342C10.0589 38.2295 10.0811 38.2391 10.1009 38.2584C10.1157 38.2728 10.1231 38.292 10.1231 38.3161V43.1921C10.1231 43.2162 10.1157 43.2354 10.1009 43.2498C10.0811 43.2691 10.0589 43.2787 10.0342 43.2787H9.16706ZM15.1851 39.5134C15.5705 39.5134 15.8719 39.6264 16.0893 39.8524C16.3067 40.0785 16.4154 40.3958 16.4154 40.8046V43.1921C16.4154 43.2162 16.4055 43.2354 16.3857 43.2498C16.3709 43.2691 16.3511 43.2787 16.3264 43.2787H15.4593C15.4346 43.2787 15.4124 43.2691 15.3926 43.2498C15.3778 43.2354 15.3704 43.2162 15.3704 43.1921V41.0282C15.3704 40.831 15.3185 40.6747 15.2147 40.5593C15.111 40.4439 14.9726 40.3862 14.7997 40.3862C14.6268 40.3862 14.4859 40.4439 14.3772 40.5593C14.2685 40.6747 14.2142 40.8286 14.2142 41.021V43.1921C14.2142 43.2162 14.2043 43.2354 14.1845 43.2498C14.1697 43.2691 14.15 43.2787 14.1253 43.2787H13.2655C13.2408 43.2787 13.2186 43.2691 13.1988 43.2498C13.184 43.2354 13.1766 43.2162 13.1766 43.1921V41.0282C13.1766 40.8358 13.1222 40.6796 13.0135 40.5593C12.9048 40.4439 12.764 40.3862 12.5911 40.3862C12.433 40.3862 12.2996 40.4319 12.1909 40.5233C12.0871 40.6146 12.0254 40.7421 12.0056 40.9056V43.1921C12.0056 43.2162 11.9982 43.2354 11.9834 43.2498C11.9636 43.2691 11.9414 43.2787 11.9167 43.2787H11.0495C11.0248 43.2787 11.0051 43.2691 10.9903 43.2498C10.9705 43.2354 10.9606 43.2162 10.9606 43.1921V39.6577C10.9606 39.6337 10.9705 39.612 10.9903 39.5928C11.0051 39.5784 11.0248 39.5711 11.0495 39.5711H11.9167C11.9414 39.5711 11.9636 39.5784 11.9834 39.5928C11.9982 39.612 12.0056 39.6337 12.0056 39.6577V39.939C12.0056 39.9534 12.0105 39.963 12.0204 39.9679C12.0303 39.9727 12.0402 39.9679 12.0501 39.9534C12.2527 39.6601 12.5664 39.5134 12.9913 39.5134C13.2384 39.5134 13.4533 39.5639 13.6361 39.6649C13.8239 39.7659 13.9671 39.9102 14.066 40.0977C14.0808 40.1265 14.0981 40.1265 14.1178 40.0977C14.2265 39.9005 14.3723 39.7539 14.5551 39.6577C14.7429 39.5615 14.9529 39.5134 15.1851 39.5134ZM20.5509 40.5665C20.6398 40.8118 20.6843 41.1003 20.6843 41.4321C20.6843 41.7639 20.6374 42.0645 20.5435 42.3338C20.4298 42.6415 20.252 42.8868 20.0099 43.0695C19.7628 43.2474 19.459 43.3364 19.0983 43.3364C18.7425 43.3364 18.4658 43.2162 18.2682 42.9757C18.2583 42.9613 18.2484 42.9565 18.2385 42.9613C18.2287 42.9661 18.2237 42.9757 18.2237 42.9902V44.5338C18.2237 44.5578 18.2163 44.577 18.2015 44.5915C18.1817 44.6107 18.1595 44.6203 18.1348 44.6203H17.2677C17.243 44.6203 17.2232 44.6107 17.2084 44.5915C17.1886 44.577 17.1787 44.5578 17.1787 44.5338V39.6577C17.1787 39.6337 17.1886 39.612 17.2084 39.5928C17.2232 39.5784 17.243 39.5711 17.2677 39.5711H18.1348C18.1595 39.5711 18.1817 39.5784 18.2015 39.5928C18.2163 39.612 18.2237 39.6337 18.2237 39.6577V39.8957C18.2237 39.9102 18.2287 39.9174 18.2385 39.9174C18.2484 39.9222 18.2583 39.9198 18.2682 39.9102C18.4757 39.6457 18.7623 39.5134 19.1279 39.5134C19.4688 39.5134 19.7653 39.6072 20.0173 39.7947C20.2643 39.9775 20.4422 40.2347 20.5509 40.5665ZM19.417 42.1823C19.5405 41.9947 19.6022 41.7399 19.6022 41.4177C19.6022 41.1147 19.5504 40.8743 19.4466 40.6964C19.333 40.4896 19.1501 40.3862 18.8982 40.3862C18.6709 40.3862 18.5004 40.4896 18.3868 40.6964C18.283 40.8695 18.2311 41.1123 18.2311 41.4249C18.2311 41.7471 18.2855 41.9971 18.3942 42.1751C18.5078 42.3674 18.6758 42.4636 18.8982 42.4636C19.1205 42.4636 19.2934 42.3698 19.417 42.1823ZM21.4477 43.2787C21.423 43.2787 21.4007 43.2691 21.381 43.2498C21.3661 43.2354 21.3587 43.2162 21.3587 43.1921V38.3161C21.3587 38.292 21.3661 38.2728 21.381 38.2584C21.4007 38.2391 21.423 38.2295 21.4477 38.2295H22.3148C22.3395 38.2295 22.3593 38.2391 22.3741 38.2584C22.3938 38.2728 22.4037 38.292 22.4037 38.3161V43.1921C22.4037 43.2162 22.3938 43.2354 22.3741 43.2498C22.3593 43.2691 22.3395 43.2787 22.3148 43.2787H21.4477ZM26.5393 41.0426C26.5689 41.2253 26.5788 41.4297 26.5689 41.6557C26.564 41.7134 26.5318 41.7423 26.4726 41.7423H24.1825C24.1528 41.7423 24.1429 41.7543 24.1528 41.7783C24.1676 41.8745 24.1948 41.9707 24.2343 42.0669C24.3628 42.3362 24.6247 42.4708 25.0199 42.4708C25.3361 42.466 25.5857 42.341 25.7685 42.0957C25.7882 42.0669 25.8105 42.0524 25.8352 42.0524C25.85 42.0524 25.8673 42.0621 25.8871 42.0813L26.4207 42.5934C26.4454 42.6175 26.4577 42.6391 26.4577 42.6583C26.4577 42.668 26.4479 42.6872 26.4281 42.7161C26.265 42.9132 26.055 43.0671 25.7981 43.1777C25.5412 43.2835 25.2596 43.3364 24.9532 43.3364C24.5283 43.3364 24.1701 43.2426 23.8786 43.0551C23.5821 42.8675 23.3697 42.6055 23.2412 42.2688C23.1374 42.0284 23.0856 41.7134 23.0856 41.3239C23.0856 41.0594 23.1226 40.8262 23.1967 40.6243C23.3104 40.2828 23.508 40.0111 23.7896 39.8092C24.0762 39.6072 24.4147 39.5062 24.805 39.5062C25.2991 39.5062 25.6968 39.6457 25.9982 39.9246C26.2947 40.2035 26.475 40.5762 26.5393 41.0426ZM24.8124 40.3862C24.5011 40.3862 24.2961 40.5281 24.1973 40.8118C24.1775 40.8743 24.1602 40.9512 24.1454 41.0426C24.1454 41.0667 24.1577 41.0787 24.1825 41.0787H25.4646C25.4943 41.0787 25.5041 41.0667 25.4943 41.0426C25.4696 40.9032 25.4572 40.8358 25.4572 40.8406C25.4127 40.6964 25.3361 40.5834 25.2274 40.5016C25.1138 40.4247 24.9755 40.3862 24.8124 40.3862ZM31.4382 39.5134C31.8235 39.5134 32.1249 39.6264 32.3423 39.8524C32.5597 40.0785 32.6684 40.3958 32.6684 40.8046V43.1921C32.6684 43.2162 32.661 43.2354 32.6462 43.2498C32.6264 43.2691 32.6042 43.2787 32.5795 43.2787H31.7124C31.6877 43.2787 31.6679 43.2691 31.6531 43.2498C31.6333 43.2354 31.6234 43.2162 31.6234 43.1921V41.0282C31.6234 40.831 31.5716 40.6747 31.4678 40.5593C31.364 40.4439 31.2257 40.3862 31.0528 40.3862C30.8798 40.3862 30.739 40.4439 30.6303 40.5593C30.5216 40.6747 30.4673 40.8286 30.4673 41.021V43.1921C30.4673 43.2162 30.4599 43.2354 30.445 43.2498C30.4253 43.2691 30.403 43.2787 30.3783 43.2787H29.5186C29.4939 43.2787 29.4741 43.2691 29.4593 43.2498C29.4396 43.2354 29.4297 43.2162 29.4297 43.1921V41.0282C29.4297 40.8358 29.3753 40.6796 29.2666 40.5593C29.1579 40.4439 29.0171 40.3862 28.8442 40.3862C28.6861 40.3862 28.5551 40.4319 28.4514 40.5233C28.3427 40.6146 28.2785 40.7421 28.2587 40.9056V43.1921C28.2587 43.2162 28.2513 43.2354 28.2365 43.2498C28.2167 43.2691 28.1945 43.2787 28.1698 43.2787H27.3026C27.2779 43.2787 27.2582 43.2691 27.2433 43.2498C27.2236 43.2354 27.2137 43.2162 27.2137 43.1921V39.6577C27.2137 39.6337 27.2236 39.612 27.2433 39.5928C27.2582 39.5784 27.2779 39.5711 27.3026 39.5711H28.1698C28.1945 39.5711 28.2167 39.5784 28.2365 39.5928C28.2513 39.612 28.2587 39.6337 28.2587 39.6577V39.939C28.2587 39.9534 28.2636 39.963 28.2735 39.9679C28.2834 39.9727 28.2933 39.9679 28.3032 39.9534C28.5057 39.6601 28.8195 39.5134 29.2444 39.5134C29.4914 39.5134 29.7088 39.5639 29.8966 39.6649C30.0794 39.7659 30.2202 39.9102 30.319 40.0977C30.3339 40.1265 30.3512 40.1265 30.3709 40.0977C30.4796 39.9005 30.6279 39.7539 30.8156 39.6577C30.9984 39.5615 31.2059 39.5134 31.4382 39.5134ZM36.7521 41.0426C36.7817 41.2253 36.7916 41.4297 36.7817 41.6557C36.7768 41.7134 36.7447 41.7423 36.6854 41.7423H34.3953C34.3656 41.7423 34.3558 41.7543 34.3656 41.7783C34.3805 41.8745 34.4076 41.9707 34.4472 42.0669C34.5756 42.3362 34.8375 42.4708 35.2328 42.4708C35.549 42.466 35.7985 42.341 35.9813 42.0957C36.0011 42.0669 36.0233 42.0524 36.048 42.0524C36.0628 42.0524 36.0801 42.0621 36.0999 42.0813L36.6335 42.5934C36.6582 42.6175 36.6706 42.6391 36.6706 42.6583C36.6706 42.668 36.6607 42.6872 36.6409 42.7161C36.4779 42.9132 36.2679 43.0671 36.011 43.1777C35.754 43.2835 35.4724 43.3364 35.1661 43.3364C34.7411 43.3364 34.3829 43.2426 34.0914 43.0551C33.795 42.8675 33.5825 42.6055 33.454 42.2688C33.3503 42.0284 33.2984 41.7134 33.2984 41.3239C33.2984 41.0594 33.3355 40.8262 33.4096 40.6243C33.5232 40.2828 33.7233 40.0111 34.0099 39.8092C34.2915 39.6072 34.6275 39.5062 35.0178 39.5062C35.5119 39.5062 35.9097 39.6457 36.2111 39.9246C36.5075 40.2035 36.6879 40.5762 36.7521 41.0426ZM35.0252 40.3862C34.714 40.3862 34.5089 40.5281 34.4101 40.8118C34.3903 40.8743 34.3731 40.9512 34.3582 41.0426C34.3582 41.0667 34.3706 41.0787 34.3953 41.0787H35.6774C35.7071 41.0787 35.717 41.0667 35.7071 41.0426C35.6824 40.9032 35.67 40.8358 35.67 40.8406C35.6256 40.6964 35.549 40.5834 35.4403 40.5016C35.3266 40.4247 35.1883 40.3862 35.0252 40.3862ZM39.4128 39.5134C39.808 39.5134 40.1267 39.6312 40.3688 39.8669C40.6109 40.1025 40.732 40.4223 40.732 40.8262V43.1921C40.732 43.2162 40.7246 43.2354 40.7098 43.2498C40.69 43.2691 40.6678 43.2787 40.643 43.2787H39.7759C39.7512 43.2787 39.7315 43.2691 39.7166 43.2498C39.6969 43.2354 39.687 43.2162 39.687 43.1921V41.0354C39.687 40.843 39.6326 40.6868 39.5239 40.5665C39.4103 40.4463 39.2621 40.3862 39.0793 40.3862C38.8964 40.3862 38.7507 40.4463 38.642 40.5665C38.5283 40.6868 38.4715 40.843 38.4715 41.0354V43.1921C38.4715 43.2162 38.4641 43.2354 38.4493 43.2498C38.4295 43.2691 38.4073 43.2787 38.3826 43.2787H37.5155C37.4908 43.2787 37.471 43.2691 37.4562 43.2498C37.4364 43.2354 37.4265 43.2162 37.4265 43.1921V39.6577C37.4265 39.6337 37.4364 39.612 37.4562 39.5928C37.471 39.5784 37.4908 39.5711 37.5155 39.5711H38.3826C38.4073 39.5711 38.4295 39.5784 38.4493 39.5928C38.4641 39.612 38.4715 39.6337 38.4715 39.6577V39.9102C38.4715 39.9246 38.4765 39.9342 38.4863 39.939C38.4962 39.9438 38.5036 39.9414 38.5086 39.9318C38.7112 39.6529 39.0126 39.5134 39.4128 39.5134ZM43.6669 40.2997C43.6669 40.3237 43.6595 40.3453 43.6446 40.3646C43.6249 40.379 43.6026 40.3862 43.5779 40.3862H42.8665C42.8417 40.3862 42.8294 40.3982 42.8294 40.4223V41.9515C42.8294 42.1102 42.864 42.228 42.9332 42.3049C42.9974 42.3818 43.1036 42.4203 43.2518 42.4203H43.4964C43.5211 42.4203 43.5434 42.4275 43.5631 42.442C43.5779 42.4612 43.5854 42.4828 43.5854 42.5069V43.1921C43.5854 43.245 43.5557 43.2763 43.4964 43.2859C43.2889 43.2955 43.1407 43.3003 43.0517 43.3003C42.6416 43.3003 42.3353 43.2354 42.1327 43.1056C41.9302 42.9709 41.8264 42.7209 41.8215 42.3554V40.4223C41.8215 40.3982 41.8091 40.3862 41.7844 40.3862H41.3619C41.3372 40.3862 41.3175 40.379 41.3027 40.3646C41.2829 40.3453 41.273 40.3237 41.273 40.2997V39.6577C41.273 39.6337 41.2829 39.612 41.3027 39.5928C41.3175 39.5784 41.3372 39.5711 41.3619 39.5711H41.7844C41.8091 39.5711 41.8215 39.5591 41.8215 39.5351V38.6767C41.8215 38.6527 41.8313 38.6334 41.8511 38.619C41.8659 38.5998 41.8857 38.5902 41.9104 38.5902H42.7405C42.7652 38.5902 42.7874 38.5998 42.8072 38.619C42.822 38.6334 42.8294 38.6527 42.8294 38.6767V39.5351C42.8294 39.5591 42.8417 39.5711 42.8665 39.5711H43.5779C43.6026 39.5711 43.6249 39.5784 43.6446 39.5928C43.6595 39.612 43.6669 39.6337 43.6669 39.6577V40.2997ZM45.8162 39.5134C46.1373 39.5134 46.4239 39.5663 46.6759 39.6721C46.9279 39.7827 47.123 39.9318 47.2614 40.1193C47.4047 40.3069 47.4763 40.5161 47.4763 40.7469V43.1921C47.4763 43.2162 47.4664 43.2354 47.4467 43.2498C47.4318 43.2691 47.4121 43.2787 47.3874 43.2787H46.5202C46.4955 43.2787 46.4758 43.2691 46.461 43.2498C46.4412 43.2354 46.4313 43.2162 46.4313 43.1921V42.9541C46.4313 42.9397 46.4264 42.93 46.4165 42.9252C46.4066 42.9204 46.3967 42.9252 46.3868 42.9397C46.1793 43.2041 45.8458 43.3364 45.3863 43.3364C45.0009 43.3364 44.6896 43.245 44.4525 43.0623C44.2153 42.8796 44.0967 42.6103 44.0967 42.2544C44.0967 41.8841 44.2301 41.5956 44.497 41.3888C44.7638 41.1869 45.1442 41.0859 45.6383 41.0859H46.3943C46.419 41.0859 46.4313 41.0739 46.4313 41.0498V40.8911C46.4313 40.7324 46.3819 40.6074 46.2831 40.5161C46.1843 40.4295 46.036 40.3862 45.8384 40.3862C45.6852 40.3862 45.5592 40.4127 45.4604 40.4656C45.3567 40.5185 45.29 40.593 45.2603 40.6892C45.2455 40.7421 45.2134 40.7661 45.164 40.7613L44.2672 40.6459C44.2079 40.6363 44.1807 40.6146 44.1857 40.581C44.2054 40.379 44.287 40.1963 44.4302 40.0328C44.5785 39.8693 44.7712 39.7418 45.0083 39.6505C45.2504 39.5591 45.5197 39.5134 45.8162 39.5134ZM45.6679 42.579C45.8804 42.579 46.0607 42.5237 46.209 42.4131C46.3572 42.3025 46.4313 42.1606 46.4313 41.9875V41.7279C46.4313 41.7038 46.419 41.6918 46.3943 41.6918H45.8606C45.6383 41.6918 45.4629 41.7327 45.3344 41.8144C45.2109 41.8962 45.1492 42.0116 45.1492 42.1606C45.1492 42.2905 45.1961 42.3915 45.29 42.4636C45.3838 42.5405 45.5098 42.579 45.6679 42.579ZM50.3149 40.2997C50.3149 40.3237 50.3074 40.3453 50.2926 40.3646C50.2729 40.379 50.2506 40.3862 50.2259 40.3862H49.5144C49.4897 40.3862 49.4774 40.3982 49.4774 40.4223V41.9515C49.4774 42.1102 49.512 42.228 49.5811 42.3049C49.6454 42.3818 49.7516 42.4203 49.8998 42.4203H50.1444C50.1691 42.4203 50.1913 42.4275 50.2111 42.442C50.2259 42.4612 50.2333 42.4828 50.2333 42.5069V43.1921C50.2333 43.245 50.2037 43.2763 50.1444 43.2859C49.9369 43.2955 49.7887 43.3003 49.6997 43.3003C49.2896 43.3003 48.9833 43.2354 48.7807 43.1056C48.5781 42.9709 48.4744 42.7209 48.4694 42.3554V40.4223C48.4694 40.3982 48.4571 40.3862 48.4324 40.3862H48.0099C47.9852 40.3862 47.963 40.379 47.9432 40.3646C47.9284 40.3453 47.921 40.3237 47.921 40.2997V39.6577C47.921 39.6337 47.9284 39.612 47.9432 39.5928C47.963 39.5784 47.9852 39.5711 48.0099 39.5711H48.4324C48.4571 39.5711 48.4694 39.5591 48.4694 39.5351V38.6767C48.4694 38.6527 48.4793 38.6334 48.4991 38.619C48.5139 38.5998 48.5337 38.5902 48.5584 38.5902H49.3884C49.4131 38.5902 49.4354 38.5998 49.4551 38.619C49.47 38.6334 49.4774 38.6527 49.4774 38.6767V39.5351C49.4774 39.5591 49.4897 39.5711 49.5144 39.5711H50.2259C50.2506 39.5711 50.2729 39.5784 50.2926 39.5928C50.3074 39.612 50.3149 39.6337 50.3149 39.6577V40.2997ZM51.5081 39.1528C51.3401 39.1528 51.2017 39.0975 51.093 38.9869C50.9794 38.8811 50.9226 38.7464 50.9226 38.5829C50.9226 38.4146 50.9769 38.2776 51.0856 38.1718C51.1943 38.066 51.3352 38.0131 51.5081 38.0131C51.681 38.0131 51.8218 38.066 51.9305 38.1718C52.0392 38.2776 52.0936 38.4146 52.0936 38.5829C52.0936 38.7464 52.0368 38.8811 51.9231 38.9869C51.8144 39.0975 51.6761 39.1528 51.5081 39.1528ZM51.0634 43.2787C51.0387 43.2787 51.0165 43.2691 50.9967 43.2498C50.9819 43.2354 50.9745 43.2162 50.9745 43.1921V39.6505C50.9745 39.6264 50.9819 39.6048 50.9967 39.5856C51.0165 39.5711 51.0387 39.5639 51.0634 39.5639H51.9305C51.9552 39.5639 51.9775 39.5711 51.9972 39.5856C52.0121 39.6048 52.0195 39.6264 52.0195 39.6505V43.1921C52.0195 43.2162 52.0121 43.2354 51.9972 43.2498C51.9775 43.2691 51.9552 43.2787 51.9305 43.2787H51.0634ZM54.5171 43.3364C54.1021 43.3364 53.7463 43.2306 53.4499 43.019C53.1534 42.8074 52.9508 42.5189 52.8421 42.1534C52.773 41.9274 52.7384 41.6822 52.7384 41.4177C52.7384 41.134 52.773 40.8791 52.8421 40.6531C52.9558 40.2973 53.1608 40.0184 53.4573 39.8164C53.7537 39.6144 54.1095 39.5134 54.5245 39.5134C54.9297 39.5134 55.2755 39.6144 55.5621 39.8164C55.8487 40.0135 56.0512 40.29 56.1698 40.6459C56.2489 40.8863 56.2884 41.1388 56.2884 41.4033C56.2884 41.6629 56.2538 41.9058 56.1846 42.1318C56.0759 42.5069 55.8734 42.8026 55.5769 43.019C55.2854 43.2306 54.9321 43.3364 54.5171 43.3364ZM54.5171 42.4636C54.6801 42.4636 54.8185 42.4155 54.9321 42.3193C55.0458 42.2232 55.1273 42.0909 55.1767 41.9226C55.2162 41.7687 55.236 41.6004 55.236 41.4177C55.236 41.2157 55.2162 41.045 55.1767 40.9056C55.1223 40.7421 55.0384 40.6146 54.9247 40.5233C54.8111 40.4319 54.6727 40.3862 54.5097 40.3862C54.3417 40.3862 54.2009 40.4319 54.0872 40.5233C53.9785 40.6146 53.8995 40.7421 53.8501 40.9056C53.8105 41.021 53.7908 41.1917 53.7908 41.4177C53.7908 41.6341 53.8081 41.8024 53.8427 41.9226C53.8921 42.0909 53.9736 42.2232 54.0872 42.3193C54.2058 42.4155 54.3491 42.4636 54.5171 42.4636ZM58.9491 39.5134C59.3443 39.5134 59.663 39.6312 59.9051 39.8669C60.1472 40.1025 60.2683 40.4223 60.2683 40.8262V43.1921C60.2683 43.2162 60.2584 43.2354 60.2386 43.2498C60.2238 43.2691 60.2041 43.2787 60.1794 43.2787H59.3122C59.2875 43.2787 59.2653 43.2691 59.2455 43.2498C59.2307 43.2354 59.2233 43.2162 59.2233 43.1921V41.0354C59.2233 40.843 59.1665 40.6868 59.0528 40.5665C58.9441 40.4463 58.7984 40.3862 58.6156 40.3862C58.4327 40.3862 58.2845 40.4463 58.1709 40.5665C58.0622 40.6868 58.0078 40.843 58.0078 41.0354V43.1921C58.0078 43.2162 57.9979 43.2354 57.9782 43.2498C57.9634 43.2691 57.9436 43.2787 57.9189 43.2787H57.0518C57.0271 43.2787 57.0048 43.2691 56.9851 43.2498C56.9702 43.2354 56.9628 43.2162 56.9628 43.1921V39.6577C56.9628 39.6337 56.9702 39.612 56.9851 39.5928C57.0048 39.5784 57.0271 39.5711 57.0518 39.5711H57.9189C57.9436 39.5711 57.9634 39.5784 57.9782 39.5928C57.9979 39.612 58.0078 39.6337 58.0078 39.6577V39.9102C58.0078 39.9246 58.0128 39.9342 58.0227 39.939C58.0325 39.9438 58.04 39.9414 58.0449 39.9318C58.2475 39.6529 58.5489 39.5134 58.9491 39.5134ZM26.265 31.8026C26.265 31.8267 26.2552 31.8459 26.2354 31.8603C26.2206 31.8796 26.2008 31.8892 26.1761 31.8892H23.7526C23.7279 31.8892 23.7155 31.9012 23.7155 31.9252V33.0433C23.7155 33.0673 23.7279 33.0793 23.7526 33.0793H25.346C25.3707 33.0793 25.3905 33.0866 25.4053 33.101C25.4251 33.1202 25.435 33.1419 25.435 33.1659V33.8656C25.435 33.8896 25.4251 33.9113 25.4053 33.9305C25.3905 33.9449 25.3707 33.9521 25.346 33.9521H23.7526C23.7279 33.9521 23.7155 33.9641 23.7155 33.9882V35.979C23.7155 36.0031 23.7081 36.0223 23.6933 36.0367C23.6735 36.0559 23.6513 36.0656 23.6266 36.0656H22.7595C22.7348 36.0656 22.715 36.0559 22.7002 36.0367C22.6804 36.0223 22.6705 36.0031 22.6705 35.979V31.1029C22.6705 31.0789 22.6804 31.0597 22.7002 31.0452C22.715 31.026 22.7348 31.0164 22.7595 31.0164H26.1761C26.2008 31.0164 26.2206 31.026 26.2354 31.0452C26.2552 31.0597 26.265 31.0789 26.265 31.1029V31.8026ZM27.9104 32.3003C28.2315 32.3003 28.5181 32.3532 28.7701 32.459C29.0221 32.5696 29.2197 32.7187 29.363 32.9062C29.5013 33.0938 29.5705 33.3029 29.5705 33.5338V35.979C29.5705 36.0031 29.5631 36.0223 29.5483 36.0367C29.5285 36.0559 29.5063 36.0656 29.4816 36.0656H28.6144C28.5897 36.0656 28.5675 36.0559 28.5477 36.0367C28.5329 36.0223 28.5255 36.0031 28.5255 35.979V35.741C28.5255 35.7265 28.5206 35.7169 28.5107 35.7121C28.5008 35.7073 28.4909 35.7121 28.481 35.7265C28.2735 35.991 27.94 36.1233 27.4805 36.1233C27.0951 36.1233 26.7838 36.0319 26.5467 35.8492C26.3095 35.6664 26.1909 35.3972 26.1909 35.0413C26.1909 34.671 26.3243 34.3825 26.5911 34.1757C26.8579 33.9738 27.2384 33.8728 27.7325 33.8728H28.4884C28.5131 33.8728 28.5255 33.8608 28.5255 33.8367V33.678C28.5255 33.5193 28.4761 33.3943 28.3773 33.3029C28.2785 33.2164 28.1302 33.1731 27.9326 33.1731C27.7794 33.1731 27.6534 33.1996 27.5546 33.2525C27.4509 33.3053 27.3842 33.3799 27.3545 33.4761C27.3397 33.529 27.3076 33.553 27.2582 33.5482L26.3614 33.4328C26.3021 33.4232 26.2749 33.4015 26.2799 33.3679C26.2996 33.1659 26.3836 32.9832 26.5318 32.8197C26.6751 32.6562 26.8678 32.5287 27.1099 32.4374C27.3471 32.346 27.6139 32.3003 27.9104 32.3003ZM27.7621 35.3659C27.9746 35.3659 28.1549 35.3106 28.3032 35.2C28.4514 35.0894 28.5255 34.9475 28.5255 34.7744V34.5147C28.5255 34.4907 28.5131 34.4787 28.4884 34.4787H27.9548C27.7325 34.4787 27.5596 34.5196 27.436 34.6013C27.3076 34.6831 27.2433 34.7985 27.2433 34.9475C27.2433 35.0774 27.2903 35.1784 27.3842 35.2505C27.478 35.3274 27.604 35.3659 27.7621 35.3659ZM31.8235 36.1161C31.4925 36.1161 31.2035 36.0704 30.9564 35.979C30.7094 35.8876 30.5191 35.7602 30.3857 35.5967C30.2474 35.4332 30.1782 35.2481 30.1782 35.0413V34.9692C30.1782 34.9451 30.1881 34.9259 30.2079 34.9115C30.2227 34.8922 30.2425 34.8826 30.2672 34.8826H31.0898C31.1145 34.8826 31.1343 34.8922 31.1491 34.9115C31.1689 34.9259 31.1788 34.9451 31.1788 34.9692V34.9764C31.1788 35.0822 31.2405 35.1711 31.364 35.2433C31.4826 35.3202 31.6333 35.3587 31.8161 35.3587C31.9841 35.3587 32.12 35.3274 32.2238 35.2649C32.3275 35.1976 32.3794 35.1158 32.3794 35.0197C32.3794 34.9331 32.3349 34.8682 32.246 34.8249C32.1571 34.7816 32.0113 34.7359 31.8087 34.6879C31.5765 34.6302 31.3937 34.5749 31.2603 34.522C30.9441 34.4162 30.6921 34.2863 30.5043 34.1325C30.3166 33.9786 30.2227 33.7574 30.2227 33.4688C30.2227 33.113 30.366 32.8293 30.6526 32.6177C30.9342 32.4109 31.3097 32.3075 31.7791 32.3075C32.0953 32.3075 32.372 32.358 32.6091 32.459C32.8463 32.5552 33.0316 32.6922 33.165 32.8702C33.2935 33.0481 33.3577 33.25 33.3577 33.4761C33.3577 33.5001 33.3503 33.5217 33.3355 33.541C33.3157 33.5554 33.2935 33.5626 33.2688 33.5626H32.4757C32.451 33.5626 32.4313 33.5554 32.4165 33.541C32.3967 33.5217 32.3868 33.5001 32.3868 33.4761C32.3868 33.3703 32.3325 33.2813 32.2238 33.2092C32.1101 33.137 31.9619 33.101 31.7791 33.101C31.616 33.101 31.4826 33.1298 31.3789 33.1875C31.2751 33.2452 31.2232 33.3246 31.2232 33.4256C31.2232 33.5217 31.2751 33.5939 31.3789 33.642C31.4777 33.69 31.6457 33.7405 31.8828 33.7934L32.0681 33.8439C32.1373 33.8584 32.2114 33.8776 32.2905 33.9016C32.6413 34.0026 32.918 34.1325 33.1205 34.2911C33.3231 34.4498 33.4244 34.6806 33.4244 34.9836C33.4244 35.3394 33.2811 35.6159 32.9945 35.8131C32.703 36.0151 32.3127 36.1161 31.8235 36.1161ZM36.2037 33.0865C36.2037 33.1106 36.1962 33.1322 36.1814 33.1515C36.1617 33.1659 36.1394 33.1731 36.1147 33.1731H35.4032C35.3785 33.1731 35.3662 33.1851 35.3662 33.2092V34.7384C35.3662 34.897 35.4008 35.0149 35.4699 35.0918C35.5342 35.1687 35.6404 35.2072 35.7886 35.2072H36.0332C36.0579 35.2072 36.0801 35.2144 36.0999 35.2288C36.1147 35.2481 36.1221 35.2697 36.1221 35.2938V35.979C36.1221 36.0319 36.0925 36.0632 36.0332 36.0728C35.8257 36.0824 35.6774 36.0872 35.5885 36.0872C35.1784 36.0872 34.8721 36.0223 34.6695 35.8924C34.4669 35.7578 34.3632 35.5078 34.3582 35.1423V33.2092C34.3582 33.1851 34.3459 33.1731 34.3212 33.1731H33.8987C33.874 33.1731 33.8543 33.1659 33.8394 33.1515C33.8197 33.1322 33.8098 33.1106 33.8098 33.0865V32.4446C33.8098 32.4205 33.8197 32.3989 33.8394 32.3797C33.8543 32.3652 33.874 32.358 33.8987 32.358H34.3212C34.3459 32.358 34.3582 32.346 34.3582 32.322V31.4636C34.3582 31.4396 34.3656 31.4203 34.3805 31.4059C34.4002 31.3867 34.4225 31.377 34.4472 31.377H35.2772C35.3019 31.377 35.3242 31.3867 35.3439 31.4059C35.3588 31.4203 35.3662 31.4396 35.3662 31.4636V32.322C35.3662 32.346 35.3785 32.358 35.4032 32.358H36.1147C36.1394 32.358 36.1617 32.3652 36.1814 32.3797C36.1962 32.3989 36.2037 32.4205 36.2037 32.4446V33.0865ZM40.1539 33.8295C40.1835 34.0122 40.1934 34.2166 40.1835 34.4426C40.1786 34.5003 40.1465 34.5292 40.0872 34.5292H37.7971C37.7674 34.5292 37.7576 34.5412 37.7674 34.5652C37.7823 34.6614 37.8094 34.7576 37.849 34.8538C37.9774 35.1231 38.2393 35.2577 38.6346 35.2577C38.9508 35.2529 39.2003 35.1279 39.3831 34.8826C39.4029 34.8538 39.4251 34.8393 39.4498 34.8393C39.4646 34.8393 39.4819 34.849 39.5017 34.8682L40.0353 35.3803C40.06 35.4044 40.0724 35.426 40.0724 35.4452C40.0724 35.4549 40.0625 35.4741 40.0427 35.5029C39.8797 35.7001 39.6697 35.854 39.4128 35.9646C39.1558 36.0704 38.8742 36.1233 38.5679 36.1233C38.143 36.1233 37.7847 36.0295 37.4932 35.842C37.1968 35.6544 36.9843 35.3923 36.8559 35.0557C36.7521 34.8153 36.7002 34.5003 36.7002 34.1108C36.7002 33.8463 36.7373 33.6131 36.8114 33.4111C36.925 33.0697 37.1227 32.798 37.4043 32.5961C37.6909 32.3941 38.0293 32.2931 38.4196 32.2931C38.9137 32.2931 39.309 32.4326 39.6055 32.7115C39.9069 32.9904 40.0897 33.3631 40.1539 33.8295ZM38.4271 33.1731C38.1158 33.1731 37.9107 33.315 37.8119 33.5987C37.7922 33.6612 37.7749 33.7381 37.76 33.8295C37.76 33.8535 37.7724 33.8656 37.7971 33.8656H39.0793C39.1089 33.8656 39.1188 33.8535 39.1089 33.8295C39.0842 33.69 39.0718 33.6227 39.0718 33.6275C39.0274 33.4833 38.9483 33.3703 38.8347 33.2885C38.726 33.2116 38.5901 33.1731 38.4271 33.1731ZM42.2958 36.1161C41.9647 36.1161 41.6757 36.0704 41.4287 35.979C41.1816 35.8876 40.9889 35.7602 40.8506 35.5967C40.7172 35.4332 40.6505 35.2481 40.6505 35.0413V34.9692C40.6505 34.9451 40.6603 34.9259 40.6801 34.9115C40.6949 34.8922 40.7147 34.8826 40.7394 34.8826H41.5621C41.5868 34.8826 41.6065 34.8922 41.6213 34.9115C41.6411 34.9259 41.651 34.9451 41.651 34.9692V34.9764C41.651 35.0822 41.7103 35.1711 41.8289 35.2433C41.9524 35.3202 42.1056 35.3587 42.2884 35.3587C42.4564 35.3587 42.5922 35.3274 42.696 35.2649C42.7998 35.1976 42.8516 35.1158 42.8516 35.0197C42.8516 34.9331 42.8072 34.8682 42.7182 34.8249C42.6293 34.7816 42.4835 34.7359 42.281 34.6879C42.0487 34.6302 41.8659 34.5749 41.7325 34.522C41.4163 34.4162 41.1643 34.2863 40.9766 34.1325C40.7888 33.9786 40.6949 33.7574 40.6949 33.4688C40.6949 33.113 40.8357 32.8293 41.1174 32.6177C41.4039 32.4109 41.7819 32.3075 42.2513 32.3075C42.5675 32.3075 42.8442 32.358 43.0814 32.459C43.3185 32.5552 43.5014 32.6922 43.6298 32.8702C43.7632 33.0481 43.8299 33.25 43.8299 33.4761C43.8299 33.5001 43.8225 33.5217 43.8077 33.541C43.7879 33.5554 43.7657 33.5626 43.741 33.5626H42.948C42.9233 33.5626 42.901 33.5554 42.8813 33.541C42.8665 33.5217 42.859 33.5001 42.859 33.4761C42.859 33.3703 42.8047 33.2813 42.696 33.2092C42.5824 33.137 42.4341 33.101 42.2513 33.101C42.0883 33.101 41.9549 33.1298 41.8511 33.1875C41.7473 33.2452 41.6955 33.3246 41.6955 33.4256C41.6955 33.5217 41.7449 33.5939 41.8437 33.642C41.9474 33.69 42.1179 33.7405 42.3551 33.7934L42.5404 33.8439C42.6095 33.8584 42.6836 33.8776 42.7627 33.9016C43.1135 34.0026 43.3902 34.1325 43.5928 34.2911C43.7953 34.4498 43.8966 34.6806 43.8966 34.9836C43.8966 35.3394 43.7509 35.6159 43.4594 35.8131C43.1728 36.0151 42.7849 36.1161 42.2958 36.1161ZM46.6759 33.0865C46.6759 33.1106 46.666 33.1322 46.6462 33.1515C46.6314 33.1659 46.6117 33.1731 46.5869 33.1731H45.8755C45.8508 33.1731 45.8384 33.1851 45.8384 33.2092V34.7384C45.8384 34.897 45.8705 35.0149 45.9347 35.0918C46.0039 35.1687 46.1126 35.2072 46.2609 35.2072H46.5054C46.5301 35.2072 46.5499 35.2144 46.5647 35.2288C46.5845 35.2481 46.5944 35.2697 46.5944 35.2938V35.979C46.5944 36.0319 46.5647 36.0632 46.5054 36.0728C46.2979 36.0824 46.1497 36.0872 46.0607 36.0872C45.6507 36.0872 45.3443 36.0223 45.1417 35.8924C44.9392 35.7578 44.8354 35.5078 44.8305 35.1423V33.2092C44.8305 33.1851 44.8181 33.1731 44.7934 33.1731H44.371C44.3463 33.1731 44.324 33.1659 44.3043 33.1515C44.2894 33.1322 44.282 33.1106 44.282 33.0865V32.4446C44.282 32.4205 44.2894 32.3989 44.3043 32.3797C44.324 32.3652 44.3463 32.358 44.371 32.358H44.7934C44.8181 32.358 44.8305 32.346 44.8305 32.322V31.4636C44.8305 31.4396 44.8379 31.4203 44.8527 31.4059C44.8725 31.3867 44.8947 31.377 44.9194 31.377H45.7495C45.7742 31.377 45.7939 31.3867 45.8088 31.4059C45.8285 31.4203 45.8384 31.4396 45.8384 31.4636V32.322C45.8384 32.346 45.8508 32.358 45.8755 32.358H46.5869C46.6117 32.358 46.6314 32.3652 46.6462 32.3797C46.666 32.3989 46.6759 32.4205 46.6759 32.4446V33.0865Z" fill="#252530"/>
<path d="M23.1905 54.3869C23.1362 54.3869 23.1016 54.3628 23.0867 54.3148L21.7379 49.4315L21.7305 49.4026C21.7305 49.3593 21.7576 49.3377 21.812 49.3377H22.5383C22.5927 49.3377 22.6272 49.3618 22.6421 49.4098L23.487 52.699C23.4919 52.7134 23.4993 52.7207 23.5092 52.7207C23.5191 52.7207 23.5265 52.7134 23.5314 52.699L24.3393 49.4098C24.3541 49.3618 24.3862 49.3377 24.4356 49.3377H25.1471C25.2015 49.3377 25.236 49.3618 25.2509 49.4098L26.1106 52.7062C26.1155 52.7207 26.1229 52.7279 26.1328 52.7279C26.1427 52.7279 26.1501 52.7207 26.155 52.7062L26.9851 49.4098C26.9999 49.3618 27.0345 49.3377 27.0889 49.3377H27.7781C27.8473 49.3377 27.8745 49.369 27.8597 49.4315L26.5775 54.3148C26.5627 54.3628 26.5281 54.3869 26.4737 54.3869H25.7845C25.7301 54.3869 25.6955 54.3628 25.6807 54.3148L24.8136 50.8741C24.8086 50.8597 24.8012 50.8501 24.7914 50.8452C24.7815 50.8452 24.7741 50.8549 24.7691 50.8741L23.939 54.3148C23.9242 54.3628 23.8921 54.3869 23.8427 54.3869H23.1905ZM28.6823 54.3869C28.6576 54.3869 28.6354 54.3773 28.6156 54.358C28.6008 54.3436 28.5934 54.3244 28.5934 54.3003V49.4243C28.5934 49.4002 28.6008 49.381 28.6156 49.3666C28.6354 49.3473 28.6576 49.3377 28.6823 49.3377H29.3642C29.3889 49.3377 29.4086 49.3473 29.4234 49.3666C29.4432 49.381 29.4531 49.4002 29.4531 49.4243V54.3003C29.4531 54.3244 29.4432 54.3436 29.4234 54.358C29.4086 54.3773 29.3889 54.3869 29.3642 54.3869H28.6823ZM33.5516 49.4243C33.5516 49.4002 33.559 49.381 33.5738 49.3666C33.5936 49.3473 33.6158 49.3377 33.6405 49.3377H34.3223C34.3471 49.3377 34.3668 49.3473 34.3816 49.3666C34.4014 49.381 34.4113 49.4002 34.4113 49.4243V54.3003C34.4113 54.3244 34.4014 54.3436 34.3816 54.358C34.3668 54.3773 34.3471 54.3869 34.3223 54.3869H33.6627C33.6133 54.3869 33.5787 54.3677 33.559 54.3292L31.4245 50.9246C31.4146 50.9102 31.4047 50.903 31.3949 50.903C31.385 50.9078 31.38 50.9198 31.38 50.939L31.3949 54.3003C31.3949 54.3244 31.385 54.3436 31.3652 54.358C31.3504 54.3773 31.3306 54.3869 31.3059 54.3869H30.6241C30.5994 54.3869 30.5771 54.3773 30.5574 54.358C30.5426 54.3436 30.5352 54.3244 30.5352 54.3003V49.4243C30.5352 49.4002 30.5426 49.381 30.5574 49.3666C30.5771 49.3473 30.5994 49.3377 30.6241 49.3377H31.2837C31.3331 49.3377 31.3677 49.3569 31.3875 49.3954L33.5145 52.8C33.5244 52.8144 33.5343 52.8192 33.5442 52.8144C33.554 52.8144 33.559 52.8048 33.559 52.7856L33.5516 49.4243ZM38.9026 49.3377C38.9273 49.3377 38.947 49.3473 38.9619 49.3666C38.9816 49.381 38.9915 49.4002 38.9915 49.4243V49.9797C38.9915 50.0037 38.9816 50.023 38.9619 50.0374C38.947 50.0566 38.9273 50.0662 38.9026 50.0662H37.5389C37.5142 50.0662 37.5018 50.0783 37.5018 50.1023V54.3003C37.5018 54.3244 37.4944 54.3436 37.4796 54.358C37.4598 54.3773 37.4376 54.3869 37.4129 54.3869H36.731C36.7063 54.3869 36.6866 54.3773 36.6717 54.358C36.652 54.3436 36.6421 54.3244 36.6421 54.3003V50.1023C36.6421 50.0783 36.6297 50.0662 36.605 50.0662H35.2932C35.2685 50.0662 35.2463 50.0566 35.2265 50.0374C35.2117 50.023 35.2043 50.0037 35.2043 49.9797V49.4243C35.2043 49.4002 35.2117 49.381 35.2265 49.3666C35.2463 49.3473 35.2685 49.3377 35.2932 49.3377H38.9026ZM43.2975 49.9725C43.2975 49.9965 43.2876 50.0157 43.2678 50.0302C43.253 50.0494 43.2333 50.059 43.2086 50.059H40.6813C40.6566 50.059 40.6442 50.071 40.6442 50.0951V51.4439C40.6442 51.468 40.6566 51.48 40.6813 51.48H42.3785C42.4032 51.48 42.4254 51.4872 42.4452 51.5016C42.46 51.5209 42.4674 51.5425 42.4674 51.5666V52.1148C42.4674 52.1388 42.46 52.1604 42.4452 52.1797C42.4254 52.1941 42.4032 52.2013 42.3785 52.2013H40.6813C40.6566 52.2013 40.6442 52.2133 40.6442 52.2374V53.6295C40.6442 53.6536 40.6566 53.6656 40.6813 53.6656H43.2086C43.2333 53.6656 43.253 53.6752 43.2678 53.6944C43.2876 53.7089 43.2975 53.7281 43.2975 53.7521V54.3003C43.2975 54.3244 43.2876 54.3436 43.2678 54.358C43.253 54.3773 43.2333 54.3869 43.2086 54.3869H39.8734C39.8487 54.3869 39.8265 54.3773 39.8067 54.358C39.7919 54.3436 39.7845 54.3244 39.7845 54.3003V49.4243C39.7845 49.4002 39.7919 49.381 39.8067 49.3666C39.8265 49.3473 39.8487 49.3377 39.8734 49.3377H43.2086C43.2333 49.3377 43.253 49.3473 43.2678 49.3666C43.2876 49.381 43.2975 49.4002 43.2975 49.4243V49.9725ZM47.0847 54.3869C47.0353 54.3869 47.0007 54.3652 46.9809 54.322L46.0026 52.2446C45.9928 52.2254 45.9779 52.2157 45.9582 52.2157H45.0688C45.0441 52.2157 45.0317 52.2278 45.0317 52.2518V54.3003C45.0317 54.3244 45.0219 54.3436 45.0021 54.358C44.9873 54.3773 44.9675 54.3869 44.9428 54.3869H44.261C44.2363 54.3869 44.214 54.3773 44.1943 54.358C44.1794 54.3436 44.172 54.3244 44.172 54.3003V49.4243C44.172 49.4002 44.1794 49.381 44.1943 49.3666C44.214 49.3473 44.2363 49.3377 44.261 49.3377H46.2991C46.6005 49.3377 46.8673 49.3978 47.0995 49.518C47.3317 49.6431 47.5121 49.8162 47.6405 50.0374C47.769 50.2634 47.8332 50.5207 47.8332 50.8092C47.8332 51.141 47.7443 51.4223 47.5664 51.6531C47.3935 51.8887 47.1514 52.0522 46.8401 52.1436C46.8302 52.1436 46.8228 52.1484 46.8179 52.158C46.8129 52.1676 46.8129 52.1773 46.8179 52.1869L47.8629 54.2859C47.8728 54.3051 47.8777 54.3196 47.8777 54.3292C47.8777 54.3677 47.8505 54.3869 47.7962 54.3869H47.0847ZM45.0688 50.059C45.0441 50.059 45.0317 50.071 45.0317 50.0951V51.5305C45.0317 51.5545 45.0441 51.5666 45.0688 51.5666H46.1805C46.4177 51.5666 46.6104 51.4968 46.7586 51.3574C46.9019 51.2227 46.9735 51.0424 46.9735 50.8164C46.9735 50.5904 46.9019 50.4077 46.7586 50.2682C46.6104 50.1287 46.4177 50.059 46.1805 50.059H45.0688Z" fill="white"/>
<path d="M25.0951 67.4138C25.0803 67.4282 25.0753 67.4426 25.0803 67.457C25.0902 67.4715 25.105 67.4787 25.1248 67.4787H28.0374C28.072 67.4787 28.1016 67.4907 28.1264 67.5148C28.156 67.5388 28.1708 67.5677 28.1708 67.6013V68.6184C28.1708 68.652 28.156 68.6809 28.1264 68.7049C28.1016 68.729 28.072 68.741 28.0374 68.741H23.2052C23.1657 68.741 23.1336 68.729 23.1089 68.7049C23.0842 68.6809 23.0718 68.652 23.0718 68.6184V67.6518C23.0718 67.5893 23.094 67.5364 23.1385 67.4931C23.4893 67.1613 23.8475 66.7983 24.2132 66.4039C24.5788 66.0096 24.8085 65.7644 24.9024 65.6682C25.1 65.4374 25.3026 65.2162 25.5101 65.0046C26.1623 64.3025 26.4884 63.7808 26.4884 63.4393C26.4884 63.1941 26.3995 62.9921 26.2216 62.8334C26.0438 62.6796 25.8115 62.6026 25.525 62.6026C25.2384 62.6026 25.0062 62.6796 24.8283 62.8334C24.6455 62.9921 24.5541 63.2013 24.5541 63.461V63.7207C24.5541 63.7543 24.5417 63.7832 24.517 63.8072C24.4923 63.8313 24.4627 63.8433 24.4281 63.8433H23.1607C23.1262 63.8433 23.0965 63.8313 23.0718 63.8072C23.0422 63.7832 23.0273 63.7543 23.0273 63.7207V63.2302C23.052 62.8551 23.1756 62.5209 23.3979 62.2275C23.6203 61.939 23.9142 61.7178 24.2799 61.5639C24.6504 61.4101 25.0655 61.3331 25.525 61.3331C26.0339 61.3331 26.4761 61.4269 26.8516 61.6144C27.2271 61.7972 27.5162 62.0448 27.7187 62.3574C27.9262 62.6748 28.03 63.0234 28.03 63.4033C28.03 63.6966 27.9534 63.9972 27.8003 64.3049C27.652 64.6127 27.4272 64.9445 27.1258 65.3003C26.9035 65.5696 26.6638 65.8389 26.4069 66.1082C26.15 66.3727 25.7671 66.755 25.2582 67.2551L25.0951 67.4138ZM31.6616 68.8564C30.871 68.8564 30.2485 68.6424 29.7939 68.2144C29.3344 67.7865 29.1046 67.2022 29.1046 66.4616V63.699C29.1046 62.9729 29.3344 62.3983 29.7939 61.9751C30.2485 61.5471 30.871 61.3331 31.6616 61.3331C32.4472 61.3331 33.0722 61.5471 33.5366 61.9751C33.9961 62.3983 34.2259 62.9729 34.2259 63.699V66.4616C34.2259 67.2022 33.9961 67.7865 33.5366 68.2144C33.0722 68.6424 32.4472 68.8564 31.6616 68.8564ZM31.6616 67.5941C31.9827 67.5941 32.2372 67.4979 32.4249 67.3056C32.6176 67.1132 32.714 66.856 32.714 66.5338V63.6557C32.714 63.3384 32.6176 63.0835 32.4249 62.8912C32.2372 62.6988 31.9827 62.6026 31.6616 62.6026C31.3453 62.6026 31.0934 62.6988 30.9056 62.8912C30.7129 63.0835 30.6166 63.3384 30.6166 63.6557V66.5338C30.6166 66.856 30.7129 67.1132 30.9056 67.3056C31.0934 67.4979 31.3453 67.5941 31.6616 67.5941ZM37.2349 67.4138C37.2201 67.4282 37.2176 67.4426 37.2275 67.457C37.2324 67.4715 37.2472 67.4787 37.272 67.4787H40.1846C40.2192 67.4787 40.2488 67.4907 40.2735 67.5148C40.2983 67.5388 40.3106 67.5677 40.3106 67.6013V68.6184C40.3106 68.652 40.2983 68.6809 40.2735 68.7049C40.2488 68.729 40.2192 68.741 40.1846 68.741H35.345C35.3104 68.741 35.2808 68.729 35.2561 68.7049C35.2314 68.6809 35.219 68.652 35.219 68.6184V67.6518C35.219 67.5893 35.2388 67.5364 35.2783 67.4931C35.634 67.1613 35.9923 66.7983 36.3529 66.4039C36.7186 66.0096 36.9483 65.7644 37.0422 65.6682C37.2448 65.4374 37.4498 65.2162 37.6573 65.0046C38.3095 64.3025 38.6356 63.7808 38.6356 63.4393C38.6356 63.1941 38.5467 62.9921 38.3688 62.8334C38.186 62.6796 37.9513 62.6026 37.6648 62.6026C37.3782 62.6026 37.146 62.6796 36.9681 62.8334C36.7902 62.9921 36.7013 63.2013 36.7013 63.461V63.7207C36.7013 63.7543 36.6889 63.7832 36.6642 63.8072C36.6395 63.8313 36.6074 63.8433 36.5679 63.8433H35.3005C35.2659 63.8433 35.2363 63.8313 35.2116 63.8072C35.1869 63.7832 35.1745 63.7543 35.1745 63.7207V63.2302C35.1943 62.8551 35.3154 62.5209 35.5377 62.2275C35.76 61.939 36.0565 61.7178 36.4271 61.5639C36.7976 61.4101 37.2102 61.3331 37.6648 61.3331C38.1737 61.3331 38.6159 61.4269 38.9914 61.6144C39.3718 61.7972 39.6633 62.0448 39.8659 62.3574C40.0685 62.6748 40.1698 63.0234 40.1698 63.4033C40.1698 63.6966 40.0957 63.9972 39.9475 64.3049C39.7943 64.6127 39.567 64.9445 39.2656 65.3003C39.0433 65.5696 38.8036 65.8389 38.5467 66.1082C38.2898 66.3727 37.9069 66.755 37.3979 67.2551L37.2349 67.4138ZM43.2529 67.4138C43.2381 67.4282 43.2356 67.4426 43.2455 67.457C43.2504 67.4715 43.2653 67.4787 43.29 67.4787H46.2026C46.2372 67.4787 46.2669 67.4907 46.2916 67.5148C46.3163 67.5388 46.3286 67.5677 46.3286 67.6013V68.6184C46.3286 68.652 46.3163 68.6809 46.2916 68.7049C46.2669 68.729 46.2372 68.741 46.2026 68.741H41.363C41.3284 68.741 41.2988 68.729 41.2741 68.7049C41.2494 68.6809 41.237 68.652 41.237 68.6184V67.6518C41.237 67.5893 41.2568 67.5364 41.2963 67.4931C41.6521 67.1613 42.0103 66.7983 42.371 66.4039C42.7366 66.0096 42.9663 65.7644 43.0602 65.6682C43.2628 65.4374 43.4678 65.2162 43.6754 65.0046C44.3276 64.3025 44.6537 63.7808 44.6537 63.4393C44.6537 63.1941 44.5647 62.9921 44.3868 62.8334C44.204 62.6796 43.9693 62.6026 43.6828 62.6026C43.3962 62.6026 43.164 62.6796 42.9861 62.8334C42.8082 62.9921 42.7193 63.2013 42.7193 63.461V63.7207C42.7193 63.7543 42.7069 63.7832 42.6822 63.8072C42.6575 63.8313 42.6254 63.8433 42.5859 63.8433H41.3185C41.284 63.8433 41.2543 63.8313 41.2296 63.8072C41.2049 63.7832 41.1926 63.7543 41.1926 63.7207V63.2302C41.2123 62.8551 41.3334 62.5209 41.5557 62.2275C41.7781 61.939 42.0745 61.7178 42.4451 61.5639C42.8156 61.4101 43.2282 61.3331 43.6828 61.3331C44.1917 61.3331 44.6339 61.4269 45.0094 61.6144C45.3898 61.7972 45.6814 62.0448 45.8839 62.3574C46.0865 62.6748 46.1878 63.0234 46.1878 63.4033C46.1878 63.6966 46.1137 63.9972 45.9655 64.3049C45.8123 64.6127 45.585 64.9445 45.2836 65.3003C45.0613 65.5696 44.8216 65.8389 44.5647 66.1082C44.3078 66.3727 43.9249 66.755 43.416 67.2551L43.2529 67.4138Z" fill="#252530"/>
</g>
<defs>
<clipPath id="clip0_493_766">
<rect width="69.6667" height="88" fill="white" transform="translate(0.0664062)"/>
</clipPath>
</defs>
</svg>
