<svg width="34" height="34" viewBox="0 0 34 34" fill="none" xmlns="http://www.w3.org/2000/svg">
<path d="M17.0007 33.6668C7.79565 33.6668 0.333984 26.2052 0.333984 17.0002C0.333984 7.79516 7.79565 0.333496 17.0007 0.333496C26.2057 0.333496 33.6673 7.79516 33.6673 17.0002C33.6673 26.2052 26.2057 33.6668 17.0007 33.6668ZM17.0007 30.3335C20.5369 30.3335 23.9283 28.9287 26.4287 26.4283C28.9292 23.9278 30.334 20.5364 30.334 17.0002C30.334 13.4639 28.9292 10.0726 26.4287 7.57207C23.9283 5.07159 20.5369 3.66683 17.0007 3.66683C13.4644 3.66683 10.073 5.07159 7.57256 7.57207C5.07208 10.0726 3.66732 13.4639 3.66732 17.0002C3.66732 20.5364 5.07208 23.9278 7.57256 26.4283C10.073 28.9287 13.4644 30.3335 17.0007 30.3335ZM11.1673 20.3335H20.334C20.555 20.3335 20.767 20.2457 20.9232 20.0894C21.0795 19.9331 21.1673 19.7212 21.1673 19.5002C21.1673 19.2792 21.0795 19.0672 20.9232 18.9109C20.767 18.7546 20.555 18.6668 20.334 18.6668H13.6673C12.5622 18.6668 11.5024 18.2278 10.721 17.4464C9.93964 16.665 9.50065 15.6052 9.50065 14.5002C9.50065 13.3951 9.93964 12.3353 10.721 11.5539C11.5024 10.7725 12.5622 10.3335 13.6673 10.3335H15.334V7.00016H18.6673V10.3335H22.834V13.6668H13.6673C13.4463 13.6668 13.2343 13.7546 13.0781 13.9109C12.9218 14.0672 12.834 14.2792 12.834 14.5002C12.834 14.7212 12.9218 14.9331 13.0781 15.0894C13.2343 15.2457 13.4463 15.3335 13.6673 15.3335H20.334C21.4391 15.3335 22.4989 15.7725 23.2803 16.5539C24.0617 17.3353 24.5007 18.3951 24.5007 19.5002C24.5007 20.6052 24.0617 21.665 23.2803 22.4464C22.4989 23.2278 21.4391 23.6668 20.334 23.6668H18.6673V27.0002H15.334V23.6668H11.1673V20.3335Z" fill="white"/>
</svg>
