<svg width="19" height="17" viewBox="0 0 19 17" fill="none" xmlns="http://www.w3.org/2000/svg">
<path d="M8.40553 7.66258L4.27136 1.17991L6.04145 0.705078L12.4132 6.59008L17.2367 5.29758C17.589 5.20325 17.9643 5.25272 18.2801 5.43512C18.5959 5.61751 18.8263 5.91789 18.9206 6.27016C19.0149 6.62243 18.9655 6.99775 18.7831 7.31355C18.6007 7.62934 18.3003 7.85975 17.948 7.95408L4.2237 11.6299L3.51236 8.97341L3.73328 8.91383L5.9947 11.1551L3.58753 11.8004C3.39014 11.8533 3.18072 11.8388 2.99255 11.7591C2.80438 11.6793 2.64824 11.539 2.54895 11.3604L0.144531 7.02824L1.47278 6.67258L3.73328 8.91383L8.40553 7.66258ZM2.46736 14.4166H17.134V16.2499H2.46736V14.4166Z" fill="#DFE3EC"/>
</svg>
