<svg width="36" height="36" viewBox="0 0 36 36" fill="none" xmlns="http://www.w3.org/2000/svg">
<path d="M0.333008 35.6665C0.333008 32.1303 1.73777 28.7389 4.23825 26.2384C6.73874 23.7379 10.1301 22.3332 13.6663 22.3332C17.2026 22.3332 20.5939 23.7379 23.0944 26.2384C25.5949 28.7389 26.9997 32.1303 26.9997 35.6665H23.6663C23.6663 33.0143 22.6128 30.4708 20.7374 28.5954C18.862 26.7201 16.3185 25.6665 13.6663 25.6665C11.0142 25.6665 8.47064 26.7201 6.59527 28.5954C4.71991 30.4708 3.66634 33.0143 3.66634 35.6665H0.333008ZM13.6663 20.6665C8.14134 20.6665 3.66634 16.1915 3.66634 10.6665C3.66634 5.1415 8.14134 0.666504 13.6663 0.666504C19.1913 0.666504 23.6663 5.1415 23.6663 10.6665C23.6663 16.1915 19.1913 20.6665 13.6663 20.6665ZM13.6663 17.3332C17.3497 17.3332 20.333 14.3498 20.333 10.6665C20.333 6.98317 17.3497 3.99984 13.6663 3.99984C9.98301 3.99984 6.99967 6.98317 6.99967 10.6665C6.99967 14.3498 9.98301 17.3332 13.6663 17.3332ZM27.473 23.5048C29.8152 24.5597 31.803 26.2686 33.1973 28.426C34.5917 30.5835 35.3333 33.0977 35.333 35.6665H31.9997C32.0001 33.7398 31.4439 31.854 30.3982 30.2358C29.3524 28.6176 27.8615 27.3359 26.1047 26.5448L27.4713 23.5048H27.473ZM26.3263 4.68817C28.0055 5.38033 29.4413 6.55573 30.4514 8.06522C31.4615 9.57471 32.0003 11.3502 31.9997 13.1665C32.0004 15.4537 31.1458 17.6585 29.6039 19.3479C28.062 21.0372 25.9441 22.089 23.6663 22.2965V18.9415C24.9012 18.7646 26.0469 18.1965 26.9352 17.3206C27.8234 16.4447 28.4075 15.307 28.6016 14.0747C28.7957 12.8424 28.5896 11.5803 28.0136 10.4738C27.4377 9.36719 26.5221 8.47441 25.4013 7.9265L26.3263 4.68817Z" fill="#07081B"/>
</svg>
