<svg width="19" height="19" viewBox="0 0 19 19" fill="none" xmlns="http://www.w3.org/2000/svg">
<path d="M15.6663 10.8333V13.5833H18.4163V15.4166H15.6654L15.6663 18.1667H13.833L13.832 15.4166H11.083V13.5833H13.833V10.8333H15.6663ZM16.8057 2.36057C18.8792 4.43957 18.9507 7.75057 17.022 9.90932L15.7204 8.60948C16.9405 7.21248 16.8763 5.02165 15.5077 3.65582C14.13 2.28173 11.9144 2.22307 10.4752 3.51557L9.25145 4.61373L8.02679 3.51648C6.58304 2.22215 4.36837 2.27898 2.99062 3.65765C1.62479 5.02348 1.55604 7.20973 2.81462 8.6544L10.544 16.3966L9.24962 17.6946L1.47629 9.91023C-0.45238 7.75057 -0.379963 4.43407 1.69262 2.36057C3.76887 0.285232 7.08995 0.215565 9.24962 2.15156C11.4029 0.218315 14.7304 0.282482 16.8048 2.36057H16.8057Z" fill="white"/>
</svg>
