<svg width="36" height="36" viewBox="0 0 36 36" fill="none" xmlns="http://www.w3.org/2000/svg">
<path d="M16.1671 0.5L32.6654 2.85833L35.0221 19.3583L19.7021 34.6783C19.3895 34.9908 18.9657 35.1663 18.5237 35.1663C18.0818 35.1663 17.6579 34.9908 17.3454 34.6783L0.845399 18.1783C0.532948 17.8658 0.357422 17.4419 0.357422 17C0.357422 16.5581 0.532948 16.1342 0.845399 15.8217L16.1671 0.5ZM17.3454 4.03667L4.3804 17L18.5237 31.1417L31.4871 18.1783L29.7204 5.80333L17.3454 4.03667ZM20.8787 14.6433C20.2535 14.0179 19.9023 13.1696 19.9025 12.2852C19.9025 11.8473 19.9889 11.4137 20.1565 11.0092C20.3242 10.6047 20.5699 10.2371 20.8796 9.9275C21.1893 9.61791 21.5569 9.37235 21.9615 9.20484C22.3661 9.03733 22.7998 8.95116 23.2377 8.95124C24.122 8.95139 24.9702 9.30286 25.5954 9.92833C26.2206 10.5538 26.5718 11.402 26.5717 12.2864C26.5715 13.1708 26.22 14.0189 25.5946 14.6442C24.9691 15.2694 24.1209 15.6206 23.2365 15.6204C22.3521 15.6203 21.504 15.2688 20.8787 14.6433Z" fill="#07081B"/>
</svg>
