<svg width="17" height="22" viewBox="0 0 17 22" fill="none" xmlns="http://www.w3.org/2000/svg">
<path d="M1.21775 2.59058L8.75 0.916748L16.2822 2.59058C16.4858 2.63583 16.6679 2.74913 16.7983 2.91179C16.9288 3.07444 17 3.27672 17 3.48525V12.64C16.9999 13.5454 16.7763 14.4368 16.3491 15.2351C15.9218 16.0334 15.304 16.7138 14.5507 17.216L8.75 21.0834L2.94933 17.216C2.19608 16.7139 1.57842 16.0336 1.15115 15.2355C0.723883 14.4374 0.500217 13.5462 0.5 12.6409V3.48525C0.500036 3.27672 0.571168 3.07444 0.701657 2.91179C0.832146 2.74913 1.01419 2.63583 1.21775 2.59058ZM2.33333 4.22042V12.64C2.33334 13.2436 2.48236 13.8378 2.76716 14.37C3.05195 14.9022 3.46372 15.3558 3.96592 15.6907L8.75 18.8807L13.5341 15.6907C14.0361 15.3559 14.4478 14.9024 14.7326 14.3704C15.0174 13.8384 15.1665 13.2443 15.1667 12.6409V4.22042L8.75 2.79591L2.33333 4.22042ZM9.66667 9.16675H12.4167L7.83333 15.5834V11.0001H5.08333L9.66667 4.58342V9.16675Z" fill="#B8BFD0"/>
</svg>
