<svg width="40" height="40" viewBox="0 0 40 40" fill="none" xmlns="http://www.w3.org/2000/svg">
<path d="M11.6673 8.33341V3.33341C11.6673 2.89139 11.8429 2.46746 12.1555 2.1549C12.468 1.84234 12.892 1.66675 13.334 1.66675H26.6673C27.1093 1.66675 27.5333 1.84234 27.8458 2.1549C28.1584 2.46746 28.334 2.89139 28.334 3.33341V8.33341H35.0007C35.4427 8.33341 35.8666 8.50901 36.1792 8.82157C36.4917 9.13413 36.6673 9.55805 36.6673 10.0001V33.3334C36.6673 33.7754 36.4917 34.1994 36.1792 34.5119C35.8666 34.8245 35.4427 35.0001 35.0007 35.0001H5.00065C4.55862 35.0001 4.1347 34.8245 3.82214 34.5119C3.50958 34.1994 3.33398 33.7754 3.33398 33.3334V10.0001C3.33398 9.55805 3.50958 9.13413 3.82214 8.82157C4.1347 8.50901 4.55862 8.33341 5.00065 8.33341H11.6673ZM6.66732 26.6667V31.6667H33.334V26.6667H6.66732ZM6.66732 23.3334H33.334V11.6667H6.66732V23.3334ZM15.0007 5.00008V8.33341H25.0007V5.00008H15.0007ZM18.334 18.3334H21.6673V21.6667H18.334V18.3334Z" fill="black"/>
</svg>
