<svg width="54" height="36" viewBox="0 0 54 36" fill="none" xmlns="http://www.w3.org/2000/svg">
<path d="M24.0076 18.359C24.0076 20.3262 22.4687 21.7759 20.58 21.7759C18.6913 21.7759 17.1523 20.3262 17.1523 18.359C17.1523 16.3779 18.6913 14.9421 20.58 14.9421C22.4687 14.9421 24.0076 16.3779 24.0076 18.359ZM22.5072 18.359C22.5072 17.1297 21.6152 16.2885 20.58 16.2885C19.5448 16.2885 18.6528 17.1297 18.6528 18.359C18.6528 19.576 19.5448 20.4295 20.58 20.4295C21.6152 20.4295 22.5072 19.5745 22.5072 18.359Z" fill="#B8BFD0"/>
<path d="M31.4022 18.359C31.4022 20.3262 29.8632 21.7759 27.9745 21.7759C26.0858 21.7759 24.5469 20.3262 24.5469 18.359C24.5469 16.3794 26.0858 14.9421 27.9745 14.9421C29.8632 14.9421 31.4022 16.3779 31.4022 18.359ZM29.9017 18.359C29.9017 17.1297 29.0097 16.2885 27.9745 16.2885C26.9393 16.2885 26.0473 17.1297 26.0473 18.359C26.0473 19.576 26.9393 20.4295 27.9745 20.4295C29.0097 20.4295 29.9017 19.5745 29.9017 18.359Z" fill="#B8BFD0"/>
<path d="M38.4878 15.1486V21.2829C38.4878 23.8063 36.9996 24.8369 35.2404 24.8369C33.5843 24.8369 32.5876 23.7292 32.2117 22.8234L33.5181 22.2796C33.7507 22.8357 34.3207 23.492 35.2388 23.492C36.3649 23.492 37.0628 22.7972 37.0628 21.4893V20.9979H37.0104C36.6746 21.4123 36.0276 21.7743 35.2111 21.7743C33.5027 21.7743 31.9375 20.2862 31.9375 18.3713C31.9375 16.4426 33.5027 14.9421 35.2111 14.9421C36.026 14.9421 36.673 15.3042 37.0104 15.7062H37.0628V15.1501H38.4878V15.1486ZM37.1691 18.3713C37.1691 17.1682 36.3665 16.2885 35.3451 16.2885C34.3099 16.2885 33.4426 17.1682 33.4426 18.3713C33.4426 19.5621 34.3099 20.4295 35.3451 20.4295C36.3665 20.4295 37.1691 19.5621 37.1691 18.3713Z" fill="#B8BFD0"/>
<path d="M40.8365 11.553V21.5663H39.373V11.553H40.8365Z" fill="#B8BFD0"/>
<path d="M46.5397 19.4834L47.7044 20.2598C47.3285 20.816 46.4227 21.7742 44.8575 21.7742C42.9164 21.7742 41.4668 20.2737 41.4668 18.3573C41.4668 16.3254 42.9288 14.9404 44.6896 14.9404C46.4627 14.9404 47.33 16.3515 47.6135 17.1141L47.7691 17.5023L43.2014 19.3941C43.5511 20.0796 44.0949 20.4293 44.8575 20.4293C45.6216 20.4293 46.1515 20.0534 46.5397 19.4834ZM42.9549 18.2541L46.0083 16.9862C45.8403 16.5595 45.335 16.2622 44.7404 16.2622C43.9778 16.2622 42.9164 16.9354 42.9549 18.2541Z" fill="#B8BFD0"/>
<path d="M11.6115 17.47V16.0203H16.4965C16.5442 16.273 16.5689 16.5718 16.5689 16.8953C16.5689 17.983 16.2715 19.3278 15.3133 20.286C14.3813 21.2565 13.1905 21.7742 11.613 21.7742C8.68913 21.7742 6.23047 19.3925 6.23047 16.4686C6.23047 13.5447 8.68913 11.1631 11.613 11.1631C13.2306 11.1631 14.3829 11.7978 15.2486 12.625L14.2257 13.6479C13.6049 13.0656 12.7638 12.6127 11.6115 12.6127C9.47633 12.6127 7.80642 14.3335 7.80642 16.4686C7.80642 18.6038 9.47633 20.3245 11.6115 20.3245C12.9964 20.3245 13.7852 19.7684 14.2904 19.2631C14.7002 18.8533 14.9698 18.2679 15.0761 17.4684L11.6115 17.47Z" fill="#B8BFD0"/>
</svg>
