<svg width="18" height="20" viewBox="0 0 18 20" fill="none" xmlns="http://www.w3.org/2000/svg">
<path d="M14.1825 0.55835L11.6323 2.88027C12.8194 3.23886 13.9121 3.85658 14.8315 4.68885C18.0508 7.62218 18.0508 12.3779 14.8315 15.3112C12.4555 17.4745 8.78332 18.8513 3.81682 19.4417L6.36698 17.1198C5.17985 16.7612 4.08717 16.1434 3.16782 15.3112C-0.0515154 12.3779 -0.0707653 7.6396 3.16782 4.68885C5.54382 2.52552 9.2169 1.14868 14.1834 0.55835H14.1825ZM8.99965 4.50002C5.45582 4.50002 2.58298 6.96218 2.58298 10C2.58298 13.0379 5.45582 15.5 8.99965 15.5C12.5435 15.5 15.4163 13.0379 15.4163 10C15.4163 6.96218 12.5435 4.50002 8.99965 4.50002ZM8.99965 6.60835C11.0255 6.60835 12.6663 8.12727 12.6663 10C12.6663 11.8728 11.0255 13.3917 8.99965 13.3917C6.97382 13.3917 5.33298 11.8728 5.33298 10C5.33298 8.12727 6.97382 6.60835 8.99965 6.60835ZM8.99965 8.44168C7.95648 8.44168 7.16632 9.17227 7.16632 10C7.16632 10.8278 7.95648 11.5584 8.99965 11.5584C10.0428 11.5584 10.833 10.8278 10.833 10C10.833 9.17227 10.0428 8.44168 8.99965 8.44168Z" fill="#B8BFD0"/>
</svg>
