<svg width="28" height="36" viewBox="0 0 28 36" fill="none" xmlns="http://www.w3.org/2000/svg">
<path d="M0.666992 35.6667C0.666992 32.1304 2.07175 28.7391 4.57223 26.2386C7.07272 23.7381 10.4641 22.3333 14.0003 22.3333C17.5365 22.3333 20.9279 23.7381 23.4284 26.2386C25.9289 28.7391 27.3337 32.1304 27.3337 35.6667H24.0003C24.0003 33.0145 22.9468 30.471 21.0714 28.5956C19.196 26.7202 16.6525 25.6667 14.0003 25.6667C11.3482 25.6667 8.80462 26.7202 6.92926 28.5956C5.05389 30.471 4.00033 33.0145 4.00033 35.6667H0.666992ZM14.0003 20.6667C8.47532 20.6667 4.00033 16.1917 4.00033 10.6667C4.00033 5.14166 8.47532 0.666664 14.0003 0.666664C19.5253 0.666664 24.0003 5.14166 24.0003 10.6667C24.0003 16.1917 19.5253 20.6667 14.0003 20.6667ZM14.0003 17.3333C17.6837 17.3333 20.667 14.35 20.667 10.6667C20.667 6.98333 17.6837 4 14.0003 4C10.317 4 7.33366 6.98333 7.33366 10.6667C7.33366 14.35 10.317 17.3333 14.0003 17.3333Z" fill="#07081B"/>
</svg>
