<svg width="34" height="34" viewBox="0 0 34 34" fill="none" xmlns="http://www.w3.org/2000/svg">
<path d="M16.9997 33.6668C7.79468 33.6668 0.333008 26.2052 0.333008 17.0002C0.333008 7.79516 7.79468 0.333496 16.9997 0.333496C26.2047 0.333496 33.6663 7.79516 33.6663 17.0002C33.6663 26.2052 26.2047 33.6668 16.9997 33.6668ZM16.9997 30.3335C20.5359 30.3335 23.9273 28.9287 26.4278 26.4283C28.9283 23.9278 30.333 20.5364 30.333 17.0002C30.333 13.4639 28.9283 10.0726 26.4278 7.57207C23.9273 5.07159 20.5359 3.66683 16.9997 3.66683C13.4635 3.66683 10.0721 5.07159 7.57158 7.57207C5.0711 10.0726 3.66634 13.4639 3.66634 17.0002C3.66634 20.5364 5.0711 23.9278 7.57158 26.4283C10.0721 28.9287 13.4635 30.3335 16.9997 30.3335ZM18.6663 17.0002H25.333V20.3335H15.333V8.66683H18.6663V17.0002Z" fill="white"/>
</svg>
