<svg width="70" height="88" viewBox="0 0 70 88" fill="none" xmlns="http://www.w3.org/2000/svg">
<g clip-path="url(#clip0_493_758)">
<path d="M6.00391 64.8459L35.2787 79.3443L63.4418 64.8459V8.15082H6.00391V64.8459Z" fill="white"/>
<path d="M64.0339 8.36722L5.41016 65.8557L35.7967 80.4984L64.0339 66.4328V8.36722Z" fill="#F2F3F2"/>
<path d="M4.07617 27.0492V66.0721L5.11376 66.5771L34.3886 81.0754L35.2779 81.5082L36.1673 81.0754L64.4045 66.5771L65.4421 66.0721V6.27541H4.07617V27.0492ZM6.00312 64.9902V8.15082H63.5152V64.9902L35.2779 79.4885L6.00312 64.9902Z" fill="#DCDEDC"/>
<path d="M34.7596 9.08852C35.0561 9.08852 35.3525 9.08852 35.649 9.16065L34.7596 10.8197C33.4256 10.7475 32.2398 11.7574 32.1657 13.0557C32.0916 14.3541 33.1291 15.5082 34.4632 15.5803H34.7596C35.3525 15.5803 35.9455 15.3639 36.3901 15.0033L37.3536 16.5902C36.6125 17.0951 35.7231 17.3836 34.7596 17.3836C32.388 17.4557 30.3869 15.7246 30.3128 13.4164C30.2387 11.1082 32.0174 9.16065 34.3891 9.08852H34.7596ZM37.7983 12.6229L38.91 14.4262L37.7983 16.1574L36.7607 14.4262H34.6114L35.7231 12.6229H37.7983ZM36.0196 11.9738C36.0196 11.6852 36.0937 11.3967 36.2419 11.1803C36.3901 10.9639 36.6866 10.7475 36.9089 10.6033L37.0572 10.5311C37.3536 10.3869 37.4277 10.3148 37.4277 10.1705C37.4277 10.0262 37.2054 9.88196 37.0572 9.88196C36.7607 9.88196 36.5384 10.0262 36.3901 10.3148L36.0196 9.95409C36.0937 9.80983 36.2419 9.66557 36.3901 9.52131C36.6125 9.37705 36.8348 9.37705 37.0572 9.37705C37.2795 9.37705 37.576 9.44918 37.7242 9.59344C37.8724 9.7377 38.0206 9.95409 38.0206 10.1705C38.0206 10.5311 37.7983 10.8197 37.3536 10.9639L37.1313 11.1082C36.9089 11.2525 36.7607 11.3246 36.6866 11.541H38.0206V12.0459L36.0196 11.9738ZM34.7596 20.9902L41.8004 17.0951V6.27541H27.6447V17.0229L34.7596 20.9902ZM66.8508 46.5246H2.66851L0.296875 51.5738L2.66851 56.623H66.8508L69.1483 51.5738L66.8508 46.5246Z" fill="#FF492C"/>
<path d="M12.8211 35.6977C13.3103 35.6977 13.7401 35.7939 14.1107 35.9862C14.4813 36.1786 14.7679 36.4551 14.9704 36.8157C15.173 37.1716 15.2743 37.5803 15.2743 38.042C15.2743 38.4988 15.1705 38.9003 14.963 39.2466C14.7506 39.588 14.4541 39.8549 14.0737 40.0472C13.6932 40.2396 13.2535 40.3357 12.7544 40.3357H11.1758C11.1412 40.3357 11.1239 40.355 11.1239 40.3934V43.1489C11.1239 43.1873 11.1091 43.2186 11.0795 43.2426C11.0548 43.2667 11.0227 43.2787 10.9831 43.2787H9.68614C9.64661 43.2787 9.6145 43.2667 9.58979 43.2426C9.56509 43.2186 9.55273 43.1873 9.55273 43.1489V35.8275C9.55273 35.7891 9.56509 35.7578 9.58979 35.7338C9.6145 35.7097 9.64661 35.6977 9.68614 35.6977H12.8211ZM12.584 39.1167C12.9298 39.1167 13.2041 39.0205 13.4066 38.8282C13.6142 38.6358 13.7179 38.3858 13.7179 38.078C13.7179 37.7558 13.6142 37.4986 13.4066 37.3062C13.2041 37.1091 12.9298 37.0105 12.584 37.0105H11.1758C11.1412 37.0105 11.1239 37.0297 11.1239 37.0682V39.059C11.1239 39.0975 11.1412 39.1167 11.1758 39.1167H12.584ZM20.8847 39.9246C20.9242 40.1987 20.9366 40.504 20.9217 40.8407C20.9168 40.932 20.8699 40.9777 20.7809 40.9777H17.3495C17.305 40.9777 17.2877 40.9945 17.2976 41.0282C17.3223 41.1725 17.3643 41.3167 17.4236 41.461C17.6163 41.8649 18.0091 42.0669 18.602 42.0669C19.0763 42.0621 19.4494 41.8745 19.7211 41.5043C19.7557 41.461 19.7903 41.4393 19.8249 41.4393C19.8446 41.4393 19.8693 41.4538 19.899 41.4826L20.6994 42.2472C20.7389 42.2857 20.7587 42.3193 20.7587 42.3482C20.7587 42.3626 20.7439 42.3915 20.7142 42.4348C20.4672 42.7329 20.1534 42.9613 19.773 43.12C19.3827 43.2835 18.9577 43.3652 18.4982 43.3652C17.8658 43.3652 17.3272 43.2258 16.8826 42.9469C16.4428 42.6632 16.1266 42.2689 15.9339 41.7639C15.7758 41.4033 15.6967 40.932 15.6967 40.3502C15.6967 39.951 15.7536 39.6 15.8672 39.297C16.0401 38.7873 16.3391 38.381 16.764 38.078C17.1889 37.7751 17.6929 37.6236 18.2759 37.6236C19.017 37.6236 19.6124 37.8328 20.062 38.2511C20.5116 38.6695 20.7859 39.2273 20.8847 39.9246ZM18.2907 38.9436C17.8213 38.9436 17.5125 39.1552 17.3643 39.5784C17.3346 39.6745 17.3099 39.7899 17.2902 39.9246C17.2902 39.9582 17.3099 39.9751 17.3495 39.9751H19.269C19.3135 39.9751 19.3283 39.9582 19.3135 39.9246C19.2739 39.7178 19.2542 39.6168 19.2542 39.6216C19.19 39.4052 19.0738 39.2369 18.9059 39.1167C18.7428 39.0013 18.5378 38.9436 18.2907 38.9436ZM24.7386 37.6452C25.0054 37.6452 25.2179 37.6957 25.376 37.7967C25.4303 37.8256 25.4501 37.8785 25.4353 37.9554L25.2055 39.1889C25.2006 39.2754 25.1487 39.3019 25.0499 39.2682C24.9362 39.2297 24.8078 39.2105 24.6645 39.2105C24.6052 39.2105 24.5212 39.2177 24.4125 39.2321C24.1506 39.2562 23.9258 39.3523 23.7381 39.5207C23.5552 39.689 23.4638 39.915 23.4638 40.1987V43.1489C23.4638 43.1873 23.449 43.2186 23.4194 43.2426C23.3947 43.2667 23.365 43.2787 23.3304 43.2787H22.026C21.9914 43.2787 21.9593 43.2667 21.9297 43.2426C21.905 43.2186 21.8926 43.1873 21.8926 43.1489V37.8472C21.8926 37.8136 21.905 37.7823 21.9297 37.7534C21.9593 37.7294 21.9914 37.7174 22.026 37.7174H23.3304C23.365 37.7174 23.3947 37.7294 23.4194 37.7534C23.449 37.7823 23.4638 37.8136 23.4638 37.8472V38.2584C23.4638 38.2776 23.4712 38.292 23.4861 38.3016C23.4959 38.3113 23.5058 38.3064 23.5157 38.2872C23.822 37.8592 24.2297 37.6452 24.7386 37.6452ZM29.4744 37.7102C29.514 37.7102 29.5461 37.7222 29.5708 37.7462C29.5955 37.7703 29.6078 37.8015 29.6078 37.84V38.8643C29.6078 38.9027 29.5955 38.934 29.5708 38.958C29.5461 38.9821 29.514 38.9941 29.4744 38.9941H28.3998C28.3603 38.9941 28.3405 39.0109 28.3405 39.0446V43.1489C28.3405 43.1873 28.3281 43.2186 28.3034 43.2426C28.2787 43.2667 28.2466 43.2787 28.2071 43.2787H26.9101C26.8706 43.2787 26.8385 43.2667 26.8138 43.2426C26.7891 43.2186 26.7767 43.1873 26.7767 43.1489V39.0446C26.7767 39.0109 26.7569 38.9941 26.7174 38.9941H26.0652C26.0257 38.9941 25.9936 38.9821 25.9689 38.958C25.9442 38.934 25.9318 38.9027 25.9318 38.8643V37.84C25.9318 37.8015 25.9442 37.7703 25.9689 37.7462C25.9936 37.7222 26.0257 37.7102 26.0652 37.7102H26.7174C26.7569 37.7102 26.7767 37.6909 26.7767 37.6525V37.4144C26.7767 36.9672 26.8459 36.6186 26.9842 36.3685C27.1275 36.1233 27.3548 35.9478 27.6661 35.842C27.9823 35.7362 28.4196 35.6905 28.9779 35.7049H29.4003C29.4349 35.7049 29.4646 35.7169 29.4893 35.741C29.5189 35.7698 29.5337 35.8011 29.5337 35.8348V36.7075C29.5337 36.746 29.5189 36.7773 29.4893 36.8013C29.4646 36.8302 29.4349 36.8446 29.4003 36.8446H29.0298C28.7728 36.8494 28.5925 36.8999 28.4887 36.9961C28.3899 37.097 28.3405 37.2774 28.3405 37.537V37.6525C28.3405 37.6909 28.3603 37.7102 28.3998 37.7102H29.4744ZM32.6984 43.3652C32.0758 43.3652 31.5422 43.2066 31.0975 42.8892C30.6528 42.5718 30.349 42.139 30.1859 41.5908C30.0822 41.2542 30.0303 40.8863 30.0303 40.4872C30.0303 40.064 30.0822 39.6817 30.1859 39.3403C30.3589 38.8066 30.6677 38.3882 31.1123 38.0852C31.557 37.7823 32.0906 37.6308 32.7132 37.6308C33.316 37.6308 33.8348 37.7799 34.2696 38.078C34.6945 38.381 34.9959 38.7993 35.1738 39.3331C35.2973 39.6938 35.359 40.0713 35.359 40.4656C35.359 40.8551 35.3072 41.2205 35.2034 41.562C35.0404 42.1246 34.7365 42.5646 34.2918 42.882C33.8521 43.2042 33.3209 43.3652 32.6984 43.3652ZM32.6984 42.0597C32.9405 42.0597 33.148 41.9875 33.3209 41.8433C33.4939 41.699 33.6174 41.4995 33.6915 41.2446C33.7458 41.0138 33.773 40.7613 33.773 40.4872C33.773 40.1843 33.7458 39.9294 33.6915 39.7226C33.6075 39.4774 33.4815 39.285 33.3135 39.1456C33.1406 39.0109 32.9306 38.9436 32.6835 38.9436C32.4365 38.9436 32.229 39.0109 32.061 39.1456C31.893 39.285 31.772 39.4774 31.6978 39.7226C31.6385 39.8909 31.6089 40.1458 31.6089 40.4872C31.6089 40.8142 31.6361 41.0667 31.6904 41.2446C31.7645 41.4995 31.8881 41.699 32.061 41.8433C32.2339 41.9875 32.4464 42.0597 32.6984 42.0597ZM39.2129 37.6452C39.4798 37.6452 39.6922 37.6957 39.8503 37.7967C39.9096 37.8256 39.9294 37.8785 39.9096 37.9554L39.6799 39.1889C39.6749 39.2754 39.623 39.3019 39.5242 39.2682C39.4106 39.2297 39.2821 39.2105 39.1388 39.2105C39.0795 39.2105 38.998 39.2177 38.8943 39.2321C38.6274 39.2562 38.4002 39.3523 38.2124 39.5207C38.0296 39.689 37.9382 39.915 37.9382 40.1987V43.1489C37.9382 43.1873 37.9234 43.2186 37.8937 43.2426C37.869 43.2667 37.8369 43.2787 37.7974 43.2787H36.5004C36.4658 43.2787 36.4337 43.2667 36.404 43.2426C36.3793 43.2186 36.367 43.1873 36.367 43.1489V37.8472C36.367 37.8136 36.3793 37.7823 36.404 37.7534C36.4337 37.7294 36.4658 37.7174 36.5004 37.7174H37.7974C37.8369 37.7174 37.869 37.7294 37.8937 37.7534C37.9234 37.7823 37.9382 37.8136 37.9382 37.8472V38.2584C37.9382 38.2776 37.9431 38.292 37.953 38.3016C37.9728 38.3113 37.9851 38.3064 37.9901 38.2872C38.2964 37.8592 38.704 37.6452 39.2129 37.6452ZM46.9578 37.6308C47.5359 37.6308 47.988 37.7991 48.3141 38.1357C48.6402 38.4772 48.8032 38.9556 48.8032 39.5711V43.1489C48.8032 43.1873 48.7909 43.2186 48.7662 43.2426C48.7415 43.2667 48.7118 43.2787 48.6772 43.2787H47.3728C47.3382 43.2787 47.3061 43.2667 47.2765 43.2426C47.2518 43.2186 47.2394 43.1873 47.2394 43.1489V39.903C47.2394 39.6096 47.1628 39.3764 47.0097 39.2033C46.8516 39.0302 46.6416 38.9436 46.3797 38.9436C46.1228 38.9436 45.9128 39.0302 45.7498 39.2033C45.5867 39.3764 45.5052 39.6072 45.5052 39.8957V43.1489C45.5052 43.1873 45.4928 43.2186 45.4681 43.2426C45.4385 43.2667 45.4064 43.2787 45.3718 43.2787H44.0822C44.0427 43.2787 44.0106 43.2667 43.9858 43.2426C43.9611 43.2186 43.9488 43.1873 43.9488 43.1489V39.903C43.9488 39.6144 43.8673 39.3812 43.7042 39.2033C43.5412 39.0302 43.3287 38.9436 43.0668 38.9436C42.8346 38.9436 42.637 39.0109 42.4739 39.1456C42.3158 39.285 42.222 39.4774 42.1923 39.7226V43.1489C42.1923 43.1873 42.18 43.2186 42.1552 43.2426C42.1256 43.2667 42.0935 43.2787 42.0589 43.2787H40.7619C40.7224 43.2787 40.6903 43.2667 40.6656 43.2426C40.6409 43.2186 40.6285 43.1873 40.6285 43.1489V37.8472C40.6285 37.8136 40.6409 37.7823 40.6656 37.7534C40.6903 37.7294 40.7224 37.7174 40.7619 37.7174H42.0589C42.0935 37.7174 42.1256 37.7294 42.1552 37.7534C42.18 37.7823 42.1923 37.8136 42.1923 37.8472V38.2728C42.1923 38.292 42.1997 38.3064 42.2145 38.3161C42.2294 38.3209 42.2442 38.3113 42.259 38.2872C42.5653 37.8496 43.0372 37.6308 43.6746 37.6308C44.0451 37.6308 44.3688 37.7078 44.6455 37.8616C44.9222 38.0107 45.1346 38.2271 45.2828 38.5108C45.3026 38.5541 45.3298 38.5541 45.3644 38.5108C45.5225 38.2127 45.7423 37.9915 46.024 37.8472C46.3007 37.703 46.6119 37.6308 46.9578 37.6308ZM54.9324 39.9246C54.9769 40.1987 54.9917 40.504 54.9769 40.8407C54.967 40.932 54.9176 40.9777 54.8287 40.9777H51.3972C51.3527 40.9777 51.3379 40.9945 51.3527 41.0282C51.3725 41.1725 51.412 41.3167 51.4713 41.461C51.664 41.8649 52.0568 42.0669 52.6497 42.0669C53.124 42.0621 53.4995 41.8745 53.7762 41.5043C53.8059 41.461 53.838 41.4393 53.8726 41.4393C53.8973 41.4393 53.9245 41.4538 53.9541 41.4826L54.7545 42.2472C54.7891 42.2857 54.8064 42.3193 54.8064 42.3482C54.8064 42.3626 54.7916 42.3915 54.7619 42.4348C54.5198 42.7329 54.2061 42.9613 53.8207 43.12C53.4353 43.2835 53.0129 43.3652 52.5534 43.3652C51.916 43.3652 51.3774 43.2258 50.9377 42.9469C50.493 42.6632 50.1743 42.2689 49.9816 41.7639C49.8285 41.4033 49.7519 40.932 49.7519 40.3502C49.7519 39.951 49.8062 39.6 49.9149 39.297C50.0879 38.7873 50.3868 38.381 50.8117 38.078C51.2366 37.7751 51.7431 37.6236 52.331 37.6236C53.0722 37.6236 53.6675 37.8328 54.1172 38.2511C54.5668 38.6695 54.8385 39.2273 54.9324 39.9246ZM52.3384 38.9436C51.874 38.9436 51.5677 39.1552 51.4194 39.5784C51.3898 39.6745 51.3626 39.7899 51.3379 39.9246C51.3379 39.9582 51.3577 39.9751 51.3972 39.9751H53.3167C53.3612 39.9751 53.376 39.9582 53.3612 39.9246C53.3266 39.7178 53.3093 39.6168 53.3093 39.6216C53.2402 39.4052 53.124 39.2369 52.961 39.1167C52.793 39.0013 52.5855 38.9436 52.3384 38.9436ZM58.7863 37.6452C59.0531 37.6452 59.2656 37.6957 59.4237 37.7967C59.483 37.8256 59.5052 37.8785 59.4904 37.9554L59.2606 39.1889C59.2508 39.2754 59.1964 39.3019 59.0976 39.2682C58.9889 39.2297 58.8604 39.2105 58.7122 39.2105C58.6529 39.2105 58.5714 39.2177 58.4676 39.2321C58.2008 39.2562 57.9735 39.3523 57.7858 39.5207C57.603 39.689 57.5116 39.915 57.5116 40.1987V43.1489C57.5116 43.1873 57.4992 43.2186 57.4745 43.2426C57.4449 43.2667 57.4127 43.2787 57.3782 43.2787H56.0738C56.0392 43.2787 56.0095 43.2667 55.9848 43.2426C55.9552 43.2186 55.9404 43.1873 55.9404 43.1489V37.8472C55.9404 37.8136 55.9552 37.7823 55.9848 37.7534C56.0095 37.7294 56.0392 37.7174 56.0738 37.7174H57.3782C57.4127 37.7174 57.4449 37.7294 57.4745 37.7534C57.4992 37.7823 57.5116 37.8136 57.5116 37.8472V38.2584C57.5116 38.2776 57.519 38.292 57.5338 38.3016C57.5486 38.3113 57.561 38.3064 57.5709 38.2872C57.8722 37.8592 58.2774 37.6452 58.7863 37.6452ZM28.2071 25.0151C28.2071 24.9814 28.2194 24.9502 28.2442 24.9213C28.2689 24.8973 28.2985 24.8852 28.3331 24.8852H29.6375C29.6721 24.8852 29.7042 24.8973 29.7338 24.9213C29.7585 24.9502 29.7709 24.9814 29.7709 25.0151V32.3292C29.7709 32.3676 29.7585 32.3989 29.7338 32.423C29.7042 32.447 29.6721 32.459 29.6375 32.459H28.3331C28.2985 32.459 28.2689 32.447 28.2442 32.423C28.2194 32.3989 28.2071 32.3676 28.2071 32.3292V29.3429C28.2071 29.3093 28.1873 29.2925 28.1478 29.2925H25.6872C25.6526 29.2925 25.6354 29.3093 25.6354 29.3429V32.3292C25.6354 32.3676 25.623 32.3989 25.5983 32.423C25.5687 32.447 25.5365 32.459 25.502 32.459H24.1976C24.163 32.459 24.1333 32.447 24.1086 32.423C24.079 32.3989 24.0642 32.3676 24.0642 32.3292V25.0151C24.0642 24.9814 24.079 24.9502 24.1086 24.9213C24.1333 24.8973 24.163 24.8852 24.1976 24.8852H25.502C25.5365 24.8852 25.5687 24.8973 25.5983 24.9213C25.623 24.9502 25.6354 24.9814 25.6354 25.0151V27.922C25.6354 27.9604 25.6526 27.9797 25.6872 27.9797H28.1478C28.1873 27.9797 28.2071 27.9604 28.2071 27.922V25.0151ZM31.7942 26.2702C31.5422 26.2702 31.3322 26.1884 31.1642 26.0249C30.9962 25.8662 30.9122 25.6643 30.9122 25.419C30.9122 25.1642 30.9938 24.9574 31.1568 24.7987C31.3199 24.64 31.5323 24.5607 31.7942 24.5607C32.0561 24.5607 32.2685 24.64 32.4316 24.7987C32.5946 24.9574 32.6761 25.1642 32.6761 25.419C32.6761 25.6643 32.5921 25.8662 32.4242 26.0249C32.2562 26.1884 32.0462 26.2702 31.7942 26.2702ZM31.1272 32.459C31.0926 32.459 31.0605 32.447 31.0308 32.423C31.0061 32.3989 30.9938 32.3676 30.9938 32.3292V27.0203C30.9938 26.9819 31.0061 26.9506 31.0308 26.9266C31.0605 26.9025 31.0926 26.8905 31.1272 26.8905H32.4316C32.4661 26.8905 32.4958 26.9025 32.5205 26.9266C32.5501 26.9506 32.565 26.9819 32.565 27.0203V32.3292C32.565 32.3676 32.5501 32.3989 32.5205 32.423C32.4958 32.447 32.4661 32.459 32.4316 32.459H31.1272ZM37.2712 27.0275C37.2712 26.9939 37.286 26.9626 37.3156 26.9338C37.3403 26.9097 37.37 26.8977 37.4046 26.8977H38.709C38.7436 26.8977 38.7757 26.9097 38.8053 26.9338C38.83 26.9626 38.8424 26.9939 38.8424 27.0275V31.9613C38.8424 32.9038 38.5632 33.577 38.0049 33.981C37.4466 34.3897 36.7252 34.5941 35.8408 34.5941C35.5789 34.5941 35.2899 34.5749 34.9737 34.5364C34.8995 34.5268 34.8625 34.4811 34.8625 34.3993L34.9069 33.2813C34.9069 33.1851 34.9588 33.1443 35.0626 33.1587C35.3294 33.202 35.574 33.2236 35.7963 33.2236C36.2706 33.2236 36.6363 33.125 36.8932 32.9279C37.1452 32.7211 37.2712 32.3965 37.2712 31.9541C37.2712 31.9301 37.2638 31.9156 37.2489 31.9108C37.2341 31.906 37.2193 31.9132 37.2045 31.9325C36.9228 32.2258 36.5127 32.3725 35.9742 32.3725C35.49 32.3725 35.0478 32.2595 34.6476 32.0334C34.2424 31.8074 33.9534 31.442 33.7804 30.937C33.6717 30.6052 33.6174 30.1749 33.6174 29.6459C33.6174 29.0833 33.6841 28.6264 33.8175 28.2754C33.9707 27.833 34.2325 27.4796 34.6031 27.2151C34.9737 26.9458 35.406 26.8111 35.9001 26.8111C36.4683 26.8111 36.9031 26.977 37.2045 27.3089C37.2193 27.3233 37.2341 27.3281 37.2489 27.3233C37.2638 27.3185 37.2712 27.3064 37.2712 27.2872V27.0275ZM37.1822 30.5187C37.2415 30.3071 37.2712 30.0114 37.2712 29.6315C37.2712 29.4103 37.2638 29.2396 37.2489 29.1193C37.2341 28.9943 37.2094 28.8765 37.1748 28.7659C37.1056 28.5736 36.9945 28.4173 36.8413 28.297C36.6881 28.1816 36.4954 28.1239 36.2632 28.1239C36.0409 28.1239 35.8531 28.1816 35.7 28.297C35.5419 28.4173 35.4257 28.5736 35.3516 28.7659C35.2479 28.9823 35.196 29.2756 35.196 29.6459C35.196 30.0498 35.2405 30.3384 35.3294 30.5115C35.3936 30.7086 35.5097 30.8649 35.6777 30.9803C35.8457 31.1005 36.0434 31.1607 36.2706 31.1607C36.5078 31.1607 36.7054 31.1005 36.8635 30.9803C37.0167 30.8649 37.1229 30.711 37.1822 30.5187ZM42.9483 26.8111C43.5412 26.8111 44.018 26.9891 44.3787 27.3449C44.7393 27.696 44.9197 28.1744 44.9197 28.7803V32.3292C44.9197 32.3676 44.9073 32.3989 44.8826 32.423C44.8579 32.447 44.8283 32.459 44.7937 32.459H43.4893C43.4547 32.459 43.4226 32.447 43.3929 32.423C43.3682 32.3989 43.3559 32.3676 43.3559 32.3292V29.0905C43.3559 28.8068 43.2719 28.5736 43.1039 28.3908C42.9408 28.2129 42.721 28.1239 42.4443 28.1239C42.1725 28.1239 41.9527 28.2129 41.7847 28.3908C41.6167 28.5736 41.5327 28.8068 41.5327 29.0905V32.3292C41.5327 32.3676 41.5203 32.3989 41.4956 32.423C41.4709 32.447 41.4388 32.459 41.3993 32.459H40.1023C40.0628 32.459 40.0307 32.447 40.006 32.423C39.9813 32.3989 39.9689 32.3676 39.9689 32.3292V25.0151C39.9689 24.9814 39.9813 24.9502 40.006 24.9213C40.0307 24.8973 40.0628 24.8852 40.1023 24.8852H41.3993C41.4388 24.8852 41.4709 24.8973 41.4956 24.9213C41.5203 24.9502 41.5327 24.9814 41.5327 25.0151V27.4098C41.5327 27.4291 41.5401 27.4435 41.5549 27.4531C41.5698 27.4579 41.5796 27.4531 41.5846 27.4387C41.8909 27.0203 42.3455 26.8111 42.9483 26.8111Z" fill="#252530"/>
<path d="M23.1241 54.3869C23.0697 54.3869 23.0352 54.3628 23.0203 54.3148L21.6715 49.4315L21.6641 49.4026C21.6641 49.3593 21.6912 49.3377 21.7456 49.3377H22.4719C22.5262 49.3377 22.5608 49.3618 22.5757 49.4098L23.4206 52.699C23.4255 52.7134 23.4329 52.7207 23.4428 52.7207C23.4527 52.7207 23.4601 52.7134 23.465 52.699L24.2729 49.4098C24.2877 49.3618 24.3198 49.3377 24.3692 49.3377H25.0807C25.135 49.3377 25.1696 49.3618 25.1845 49.4098L26.0442 52.7062C26.0491 52.7207 26.0565 52.7279 26.0664 52.7279C26.0763 52.7279 26.0837 52.7207 26.0886 52.7062L26.9187 49.4098C26.9335 49.3618 26.9681 49.3377 27.0225 49.3377H27.7117C27.7809 49.3377 27.8081 49.369 27.7932 49.4315L26.5111 54.3148C26.4963 54.3628 26.4617 54.3869 26.4073 54.3869H25.7181C25.6637 54.3869 25.6291 54.3628 25.6143 54.3148L24.7472 50.8741C24.7422 50.8597 24.7348 50.8501 24.7249 50.8452C24.7151 50.8452 24.7077 50.8549 24.7027 50.8741L23.8726 54.3148C23.8578 54.3628 23.8257 54.3869 23.7763 54.3869H23.1241ZM28.6159 54.3869C28.5912 54.3869 28.569 54.3773 28.5492 54.358C28.5344 54.3436 28.527 54.3244 28.527 54.3003V49.4243C28.527 49.4002 28.5344 49.381 28.5492 49.3666C28.569 49.3473 28.5912 49.3377 28.6159 49.3377H29.2977C29.3225 49.3377 29.3422 49.3473 29.357 49.3666C29.3768 49.381 29.3867 49.4002 29.3867 49.4243V54.3003C29.3867 54.3244 29.3768 54.3436 29.357 54.358C29.3422 54.3773 29.3225 54.3869 29.2977 54.3869H28.6159ZM33.4852 49.4243C33.4852 49.4002 33.4926 49.381 33.5074 49.3666C33.5272 49.3473 33.5494 49.3377 33.5741 49.3377H34.2559C34.2806 49.3377 34.3004 49.3473 34.3152 49.3666C34.335 49.381 34.3449 49.4002 34.3449 49.4243V54.3003C34.3449 54.3244 34.335 54.3436 34.3152 54.358C34.3004 54.3773 34.2806 54.3869 34.2559 54.3869H33.5963C33.5469 54.3869 33.5123 54.3677 33.4926 54.3292L31.3581 50.9246C31.3482 50.9102 31.3383 50.903 31.3285 50.903C31.3186 50.9078 31.3136 50.9198 31.3136 50.939L31.3285 54.3003C31.3285 54.3244 31.3186 54.3436 31.2988 54.358C31.284 54.3773 31.2642 54.3869 31.2395 54.3869H30.5577C30.533 54.3869 30.5107 54.3773 30.491 54.358C30.4762 54.3436 30.4687 54.3244 30.4687 54.3003V49.4243C30.4687 49.4002 30.4762 49.381 30.491 49.3666C30.5107 49.3473 30.533 49.3377 30.5577 49.3377H31.2173C31.2667 49.3377 31.3013 49.3569 31.321 49.3954L33.4481 52.8C33.458 52.8144 33.4679 52.8192 33.4777 52.8144C33.4876 52.8144 33.4926 52.8048 33.4926 52.7856L33.4852 49.4243ZM38.8362 49.3377C38.8609 49.3377 38.8806 49.3473 38.8954 49.3666C38.9152 49.381 38.9251 49.4002 38.9251 49.4243V49.9797C38.9251 50.0037 38.9152 50.023 38.8954 50.0374C38.8806 50.0566 38.8609 50.0662 38.8362 50.0662H37.4725C37.4478 50.0662 37.4354 50.0783 37.4354 50.1023V54.3003C37.4354 54.3244 37.428 54.3436 37.4132 54.358C37.3934 54.3773 37.3712 54.3869 37.3465 54.3869H36.6646C36.6399 54.3869 36.6202 54.3773 36.6053 54.358C36.5856 54.3436 36.5757 54.3244 36.5757 54.3003V50.1023C36.5757 50.0783 36.5633 50.0662 36.5386 50.0662H35.2268C35.2021 50.0662 35.1799 50.0566 35.1601 50.0374C35.1453 50.023 35.1379 50.0037 35.1379 49.9797V49.4243C35.1379 49.4002 35.1453 49.381 35.1601 49.3666C35.1799 49.3473 35.2021 49.3377 35.2268 49.3377H38.8362ZM43.2311 49.9725C43.2311 49.9965 43.2212 50.0157 43.2014 50.0302C43.1866 50.0494 43.1669 50.059 43.1421 50.059H40.6149C40.5902 50.059 40.5778 50.071 40.5778 50.0951V51.4439C40.5778 51.468 40.5902 51.48 40.6149 51.48H42.3121C42.3368 51.48 42.359 51.4872 42.3788 51.5016C42.3936 51.5209 42.401 51.5425 42.401 51.5666V52.1148C42.401 52.1388 42.3936 52.1604 42.3788 52.1797C42.359 52.1941 42.3368 52.2013 42.3121 52.2013H40.6149C40.5902 52.2013 40.5778 52.2133 40.5778 52.2374V53.6295C40.5778 53.6536 40.5902 53.6656 40.6149 53.6656H43.1421C43.1669 53.6656 43.1866 53.6752 43.2014 53.6944C43.2212 53.7089 43.2311 53.7281 43.2311 53.7521V54.3003C43.2311 54.3244 43.2212 54.3436 43.2014 54.358C43.1866 54.3773 43.1669 54.3869 43.1421 54.3869H39.807C39.7823 54.3869 39.7601 54.3773 39.7403 54.358C39.7255 54.3436 39.7181 54.3244 39.7181 54.3003V49.4243C39.7181 49.4002 39.7255 49.381 39.7403 49.3666C39.7601 49.3473 39.7823 49.3377 39.807 49.3377H43.1421C43.1669 49.3377 43.1866 49.3473 43.2014 49.3666C43.2212 49.381 43.2311 49.4002 43.2311 49.4243V49.9725ZM47.0183 54.3869C46.9689 54.3869 46.9343 54.3652 46.9145 54.322L45.9362 52.2446C45.9263 52.2254 45.9115 52.2157 45.8918 52.2157H45.0024C44.9777 52.2157 44.9653 52.2278 44.9653 52.2518V54.3003C44.9653 54.3244 44.9555 54.3436 44.9357 54.358C44.9209 54.3773 44.9011 54.3869 44.8764 54.3869H44.1946C44.1699 54.3869 44.1476 54.3773 44.1279 54.358C44.113 54.3436 44.1056 54.3244 44.1056 54.3003V49.4243C44.1056 49.4002 44.113 49.381 44.1279 49.3666C44.1476 49.3473 44.1699 49.3377 44.1946 49.3377H46.2327C46.5341 49.3377 46.8009 49.3978 47.0331 49.518C47.2653 49.6431 47.4457 49.8162 47.5741 50.0374C47.7026 50.2634 47.7668 50.5207 47.7668 50.8092C47.7668 51.141 47.6779 51.4223 47.5 51.6531C47.3271 51.8887 47.085 52.0522 46.7737 52.1436C46.7638 52.1436 46.7564 52.1484 46.7515 52.158C46.7465 52.1676 46.7465 52.1773 46.7515 52.1869L47.7965 54.2859C47.8064 54.3051 47.8113 54.3196 47.8113 54.3292C47.8113 54.3677 47.7841 54.3869 47.7298 54.3869H47.0183ZM45.0024 50.059C44.9777 50.059 44.9653 50.071 44.9653 50.0951V51.5305C44.9653 51.5545 44.9777 51.5666 45.0024 51.5666H46.1141C46.3513 51.5666 46.544 51.4968 46.6922 51.3574C46.8355 51.2227 46.9071 51.0424 46.9071 50.8164C46.9071 50.5904 46.8355 50.4077 46.6922 50.2682C46.544 50.1287 46.3513 50.059 46.1141 50.059H45.0024Z" fill="white"/>
<path d="M25.0287 67.4138C25.0139 67.4282 25.0089 67.4426 25.0139 67.457C25.0238 67.4715 25.0386 67.4787 25.0584 67.4787H27.971C28.0056 67.4787 28.0352 67.4907 28.0599 67.5148C28.0896 67.5388 28.1044 67.5677 28.1044 67.6013V68.6184C28.1044 68.652 28.0896 68.6809 28.0599 68.7049C28.0352 68.729 28.0056 68.741 27.971 68.741H23.1388C23.0993 68.741 23.0672 68.729 23.0425 68.7049C23.0178 68.6809 23.0054 68.652 23.0054 68.6184V67.6518C23.0054 67.5893 23.0276 67.5364 23.0721 67.4931C23.4229 67.1613 23.7811 66.7983 24.1468 66.4039C24.5124 66.0096 24.7421 65.7644 24.836 65.6682C25.0336 65.4374 25.2362 65.2162 25.4437 65.0046C26.0959 64.3025 26.422 63.7808 26.422 63.4393C26.422 63.1941 26.3331 62.9921 26.1552 62.8334C25.9774 62.6796 25.7451 62.6026 25.4586 62.6026C25.172 62.6026 24.9398 62.6796 24.7619 62.8334C24.5791 62.9921 24.4877 63.2013 24.4877 63.461V63.7207C24.4877 63.7543 24.4753 63.7832 24.4506 63.8072C24.4259 63.8313 24.3963 63.8433 24.3617 63.8433H23.0943C23.0598 63.8433 23.0301 63.8313 23.0054 63.8072C22.9758 63.7832 22.9609 63.7543 22.9609 63.7207V63.2302C22.9856 62.8551 23.1092 62.5209 23.3315 62.2275C23.5538 61.939 23.8478 61.7178 24.2135 61.5639C24.584 61.4101 24.9991 61.3331 25.4586 61.3331C25.9675 61.3331 26.4097 61.4269 26.7852 61.6144C27.1607 61.7972 27.4497 62.0448 27.6523 62.3574C27.8598 62.6748 27.9636 63.0234 27.9636 63.4033C27.9636 63.6966 27.887 63.9972 27.7338 64.3049C27.5856 64.6127 27.3608 64.9445 27.0594 65.3003C26.8371 65.5696 26.5974 65.8389 26.3405 66.1082C26.0836 66.3727 25.7007 66.755 25.1918 67.2551L25.0287 67.4138ZM31.5952 68.8564C30.8046 68.8564 30.1821 68.6424 29.7275 68.2144C29.268 67.7865 29.0382 67.2022 29.0382 66.4616V63.699C29.0382 62.9729 29.268 62.3983 29.7275 61.9751C30.1821 61.5471 30.8046 61.3331 31.5952 61.3331C32.3808 61.3331 33.0058 61.5471 33.4702 61.9751C33.9297 62.3983 34.1595 62.9729 34.1595 63.699V66.4616C34.1595 67.2022 33.9297 67.7865 33.4702 68.2144C33.0058 68.6424 32.3808 68.8564 31.5952 68.8564ZM31.5952 67.5941C31.9163 67.5941 32.1708 67.4979 32.3585 67.3056C32.5512 67.1132 32.6476 66.856 32.6476 66.5338V63.6557C32.6476 63.3384 32.5512 63.0835 32.3585 62.8912C32.1708 62.6988 31.9163 62.6026 31.5952 62.6026C31.2789 62.6026 31.027 62.6988 30.8392 62.8912C30.6465 63.0835 30.5502 63.3384 30.5502 63.6557V66.5338C30.5502 66.856 30.6465 67.1132 30.8392 67.3056C31.027 67.4979 31.2789 67.5941 31.5952 67.5941ZM37.1685 67.4138C37.1537 67.4282 37.1512 67.4426 37.1611 67.457C37.166 67.4715 37.1808 67.4787 37.2055 67.4787H40.1182C40.1528 67.4787 40.1824 67.4907 40.2071 67.5148C40.2318 67.5388 40.2442 67.5677 40.2442 67.6013V68.6184C40.2442 68.652 40.2318 68.6809 40.2071 68.7049C40.1824 68.729 40.1528 68.741 40.1182 68.741H35.2786C35.244 68.741 35.2144 68.729 35.1897 68.7049C35.165 68.6809 35.1526 68.652 35.1526 68.6184V67.6518C35.1526 67.5893 35.1724 67.5364 35.2119 67.4931C35.5676 67.1613 35.9259 66.7983 36.2865 66.4039C36.6522 66.0096 36.8819 65.7644 36.9758 65.6682C37.1784 65.4374 37.3834 65.2162 37.5909 65.0046C38.2431 64.3025 38.5692 63.7808 38.5692 63.4393C38.5692 63.1941 38.4803 62.9921 38.3024 62.8334C38.1196 62.6796 37.8849 62.6026 37.5983 62.6026C37.3118 62.6026 37.0796 62.6796 36.9017 62.8334C36.7238 62.9921 36.6349 63.2013 36.6349 63.461V63.7207C36.6349 63.7543 36.6225 63.7832 36.5978 63.8072C36.5731 63.8313 36.541 63.8433 36.5015 63.8433H35.2341C35.1995 63.8433 35.1699 63.8313 35.1452 63.8072C35.1205 63.7832 35.1081 63.7543 35.1081 63.7207V63.2302C35.1279 62.8551 35.249 62.5209 35.4713 62.2275C35.6936 61.939 35.9901 61.7178 36.3607 61.5639C36.7312 61.4101 37.1438 61.3331 37.5983 61.3331C38.1073 61.3331 38.5495 61.4269 38.925 61.6144C39.3054 61.7972 39.5969 62.0448 39.7995 62.3574C40.0021 62.6748 40.1034 63.0234 40.1034 63.4033C40.1034 63.6966 40.0293 63.9972 39.881 64.3049C39.7279 64.6127 39.5006 64.9445 39.1992 65.3003C38.9769 65.5696 38.7372 65.8389 38.4803 66.1082C38.2234 66.3727 37.8405 66.755 37.3315 67.2551L37.1685 67.4138ZM43.1865 67.4138C43.1717 67.4282 43.1692 67.4426 43.1791 67.457C43.184 67.4715 43.1989 67.4787 43.2236 67.4787H46.1362C46.1708 67.4787 46.2005 67.4907 46.2252 67.5148C46.2499 67.5388 46.2622 67.5677 46.2622 67.6013V68.6184C46.2622 68.652 46.2499 68.6809 46.2252 68.7049C46.2005 68.729 46.1708 68.741 46.1362 68.741H41.2966C41.262 68.741 41.2324 68.729 41.2077 68.7049C41.183 68.6809 41.1706 68.652 41.1706 68.6184V67.6518C41.1706 67.5893 41.1904 67.5364 41.2299 67.4931C41.5857 67.1613 41.9439 66.7983 42.3046 66.4039C42.6702 66.0096 42.8999 65.7644 42.9938 65.6682C43.1964 65.4374 43.4014 65.2162 43.609 65.0046C44.2611 64.3025 44.5872 63.7808 44.5872 63.4393C44.5872 63.1941 44.4983 62.9921 44.3204 62.8334C44.1376 62.6796 43.9029 62.6026 43.6164 62.6026C43.3298 62.6026 43.0976 62.6796 42.9197 62.8334C42.7418 62.9921 42.6529 63.2013 42.6529 63.461V63.7207C42.6529 63.7543 42.6405 63.7832 42.6158 63.8072C42.5911 63.8313 42.559 63.8433 42.5195 63.8433H41.2521C41.2176 63.8433 41.1879 63.8313 41.1632 63.8072C41.1385 63.7832 41.1262 63.7543 41.1262 63.7207V63.2302C41.1459 62.8551 41.267 62.5209 41.4893 62.2275C41.7116 61.939 42.0081 61.7178 42.3787 61.5639C42.7492 61.4101 43.1618 61.3331 43.6164 61.3331C44.1253 61.3331 44.5675 61.4269 44.943 61.6144C45.3234 61.7972 45.615 62.0448 45.8175 62.3574C46.0201 62.6748 46.1214 63.0234 46.1214 63.4033C46.1214 63.6966 46.0473 63.9972 45.8991 64.3049C45.7459 64.6127 45.5186 64.9445 45.2172 65.3003C44.9949 65.5696 44.7552 65.8389 44.4983 66.1082C44.2414 66.3727 43.8585 66.755 43.3496 67.2551L43.1865 67.4138Z" fill="#252530"/>
</g>
<defs>
<clipPath id="clip0_493_758">
<rect width="69.6667" height="88" fill="white"/>
</clipPath>
</defs>
</svg>
