<svg width="20" height="20" viewBox="0 0 20 20" fill="none" xmlns="http://www.w3.org/2000/svg">
<g clip-path="url(#clip0_739_5296)">
<path d="M1.99805 10.3334H18.6647V17.8334C18.6647 18.0544 18.5769 18.2664 18.4206 18.4226C18.2644 18.5789 18.0524 18.6667 17.8314 18.6667H2.83138C2.61037 18.6667 2.3984 18.5789 2.24212 18.4226C2.08584 18.2664 1.99805 18.0544 1.99805 17.8334V10.3334ZM14.498 3.66673H17.8314C18.0524 3.66673 18.2644 3.75452 18.4206 3.9108C18.5769 4.06709 18.6647 4.27905 18.6647 4.50006V8.66673H1.99805V4.50006C1.99805 4.27905 2.08584 4.06709 2.24212 3.9108C2.3984 3.75452 2.61037 3.66673 2.83138 3.66673H6.16471V2.00006H7.83138V3.66673H12.8314V2.00006H14.498V3.66673Z" fill="#13296C"/>
</g>
<defs>
<clipPath id="clip0_739_5296">
<rect width="20" height="20" fill="white"/>
</clipPath>
</defs>
</svg>
