<svg width="38" height="28" viewBox="0 0 38 28" fill="none" xmlns="http://www.w3.org/2000/svg">
<path d="M2.9603 27.0645H8.86948V13.496L0.427734 7.51025V24.6705C0.428204 25.9925 1.56204 27.0645 2.9603 27.0645Z" fill="#4285F4"/>
<path d="M29.1289 27.065H35.0385C36.4373 27.065 37.5711 25.993 37.5711 24.6705V7.51025L29.1289 13.4965V27.065Z" fill="#34A853"/>
<path d="M29.1289 3.12159V13.4962L37.5706 7.51045V4.31883C37.5706 2.33556 35.8699 0.727539 33.7718 0.727539C32.9498 0.727539 32.1504 0.979778 31.4929 1.44606L29.1289 3.12159Z" fill="#FBBC04"/>
<path d="M8.86914 13.4962V3.12154L18.9985 10.3041L29.1278 3.12109V13.4962L18.9985 20.6788L8.86914 13.4962Z" fill="#EA4335"/>
<path d="M0.427734 4.31839V7.51001L8.86948 13.4962V3.12158L6.50553 1.44562C4.82732 0.255476 2.44646 0.576991 1.18769 2.1637C0.694049 2.78541 0.427734 3.54169 0.427734 4.31839Z" fill="#C5221F"/>
</svg>
