<svg width="22" height="26" viewBox="0 0 22 26" fill="none" xmlns="http://www.w3.org/2000/svg">
<path d="M11 25.6827L3.57534 18.2581C2.1069 16.7896 1.10688 14.9187 0.70175 12.8819C0.296615 10.8451 0.504558 8.73391 1.29928 6.81529C2.09401 4.89667 3.43982 3.2568 5.16653 2.10306C6.89324 0.949307 8.92331 0.333496 11 0.333496C13.0767 0.333496 15.1068 0.949307 16.8335 2.10306C18.5602 3.2568 19.906 4.89667 20.7007 6.81529C21.4955 8.73391 21.7034 10.8451 21.2983 12.8819C20.8931 14.9187 19.8931 16.7896 18.4247 18.2581L11 25.6827ZM16.775 16.6084C17.917 15.4662 18.6948 14.0111 19.0098 12.4269C19.3249 10.8428 19.1631 9.20077 18.5449 7.70855C17.9268 6.21634 16.8801 4.94093 15.5371 4.0436C14.1941 3.14627 12.6152 2.66733 11 2.66733C9.38483 2.66733 7.80592 3.14627 6.46293 4.0436C5.11995 4.94093 4.07321 6.21634 3.45507 7.70855C2.83693 9.20077 2.67515 10.8428 2.9902 12.4269C3.30524 14.0111 4.08296 15.4662 5.225 16.6084L11 22.3834L16.775 16.6084ZM11 13.1667C10.3812 13.1667 9.78767 12.9209 9.35009 12.4833C8.9125 12.0457 8.66667 11.4522 8.66667 10.8334C8.66667 10.2146 8.9125 9.62107 9.35009 9.18349C9.78767 8.7459 10.3812 8.50007 11 8.50007C11.6188 8.50007 12.2123 8.7459 12.6499 9.18349C13.0875 9.62107 13.3333 10.2146 13.3333 10.8334C13.3333 11.4522 13.0875 12.0457 12.6499 12.4833C12.2123 12.9209 11.6188 13.1667 11 13.1667Z" fill="white"/>
</svg>
