<svg width="70" height="88" viewBox="0 0 70 88" fill="none" xmlns="http://www.w3.org/2000/svg">
<g clip-path="url(#clip0_493_793)">
<path d="M6.26953 64.8459L35.5444 79.3443L63.7075 64.8459V8.15082H6.26953V64.8459Z" fill="white"/>
<path d="M64.2995 8.36722L5.67578 65.8557L36.0623 80.4984L64.2995 66.4328V8.36722Z" fill="#F2F3F2"/>
<path d="M4.3418 27.0492V66.0721L5.37939 66.5771L34.6542 81.0754L35.5436 81.5082L36.4329 81.0754L64.6702 66.5771L65.7078 66.0721V6.27541H4.3418V27.0492ZM6.26875 64.9902V8.15082H63.7808V64.9902L35.5436 79.4885L6.26875 64.9902Z" fill="#DCDEDC"/>
<path d="M35.0253 9.08852C35.3217 9.08852 35.6182 9.08852 35.9146 9.16065L35.0253 10.8197C33.6912 10.7475 32.5054 11.7574 32.4313 13.0557C32.3572 14.3541 33.3948 15.5082 34.7288 15.5803H35.0253C35.6182 15.5803 36.2111 15.3639 36.6558 15.0033L37.6192 16.5902C36.8781 17.0951 35.9887 17.3836 35.0253 17.3836C32.6536 17.4557 30.6526 15.7246 30.5785 13.4164C30.5043 11.1082 32.2831 9.16065 34.6547 9.08852H35.0253ZM38.0639 12.6229L39.1756 14.4262L38.0639 16.1574L37.0263 14.4262H34.877L35.9887 12.6229H38.0639ZM36.2852 11.9738C36.2852 11.6852 36.3593 11.3967 36.5075 11.1803C36.6558 10.9639 36.9522 10.7475 37.1746 10.6033L37.3228 10.5311C37.6192 10.3869 37.6933 10.3148 37.6933 10.1705C37.6933 10.0262 37.471 9.88196 37.3228 9.88196C37.0263 9.88196 36.804 10.0262 36.6558 10.3148L36.2852 9.95409C36.3593 9.80983 36.5075 9.66557 36.6558 9.52131C36.8781 9.37705 37.1004 9.37705 37.3228 9.37705C37.5451 9.37705 37.8416 9.44918 37.9898 9.59344C38.138 9.7377 38.2863 9.95409 38.2863 10.1705C38.2863 10.5311 38.0639 10.8197 37.6192 10.9639L37.3969 11.1082C37.1746 11.2525 37.0263 11.3246 36.9522 11.541H38.2863V12.0459L36.2852 11.9738ZM35.0253 20.9902L42.066 17.0951V6.27541H27.9104V17.0229L35.0253 20.9902ZM67.1164 46.5246H2.93413L0.5625 51.5738L2.93413 56.623H67.1164L69.4139 51.5738L67.1164 46.5246Z" fill="#FF492C"/>
<path d="M13.0868 35.6977C13.5759 35.6977 14.0058 35.7939 14.3763 35.9862C14.7469 36.1786 15.0335 36.4551 15.2361 36.8157C15.4386 37.1716 15.5399 37.5803 15.5399 38.042C15.5399 38.4988 15.4362 38.9003 15.2286 39.2466C15.0162 39.588 14.7197 39.8549 14.3393 40.0472C13.9588 40.2396 13.5191 40.3357 13.0201 40.3357H11.4414C11.4069 40.3357 11.3896 40.355 11.3896 40.3934V43.1489C11.3896 43.1873 11.3747 43.2186 11.3451 43.2426C11.3204 43.2667 11.2883 43.2787 11.2487 43.2787H9.95176C9.91224 43.2787 9.88012 43.2667 9.85542 43.2426C9.83071 43.2186 9.81836 43.1873 9.81836 43.1489V35.8275C9.81836 35.7891 9.83071 35.7578 9.85542 35.7338C9.88012 35.7097 9.91224 35.6977 9.95176 35.6977H13.0868ZM12.8496 39.1167C13.1955 39.1167 13.4697 39.0205 13.6723 38.8282C13.8798 38.6358 13.9835 38.3858 13.9835 38.078C13.9835 37.7558 13.8798 37.4986 13.6723 37.3062C13.4697 37.1091 13.1955 37.0105 12.8496 37.0105H11.4414C11.4069 37.0105 11.3896 37.0297 11.3896 37.0682V39.059C11.3896 39.0975 11.4069 39.1167 11.4414 39.1167H12.8496ZM21.1503 39.9246C21.1898 40.1987 21.2022 40.504 21.1874 40.8407C21.1824 40.932 21.1355 40.9777 21.0465 40.9777H17.6151C17.5706 40.9777 17.5533 40.9945 17.5632 41.0282C17.5879 41.1725 17.6299 41.3167 17.6892 41.461C17.8819 41.8649 18.2747 42.0669 18.8676 42.0669C19.3419 42.0621 19.715 41.8745 19.9867 41.5043C20.0213 41.461 20.0559 41.4393 20.0905 41.4393C20.1102 41.4393 20.135 41.4538 20.1646 41.4826L20.965 42.2472C21.0046 42.2857 21.0243 42.3193 21.0243 42.3482C21.0243 42.3626 21.0095 42.3915 20.9798 42.4348C20.7328 42.7329 20.4191 42.9613 20.0386 43.12C19.6483 43.2835 19.2234 43.3652 18.7639 43.3652C18.1314 43.3652 17.5929 43.2258 17.1482 42.9469C16.7084 42.6632 16.3922 42.2689 16.1995 41.7639C16.0414 41.4033 15.9624 40.932 15.9624 40.3502C15.9624 39.951 16.0192 39.6 16.1328 39.297C16.3058 38.7873 16.6047 38.381 17.0296 38.078C17.4545 37.7751 17.9585 37.6236 18.5415 37.6236C19.2826 37.6236 19.878 37.8328 20.3276 38.2511C20.7773 38.6695 21.0515 39.2273 21.1503 39.9246ZM18.5563 38.9436C18.087 38.9436 17.7781 39.1552 17.6299 39.5784C17.6003 39.6745 17.5756 39.7899 17.5558 39.9246C17.5558 39.9582 17.5756 39.9751 17.6151 39.9751H19.5346C19.5791 39.9751 19.5939 39.9582 19.5791 39.9246C19.5396 39.7178 19.5198 39.6168 19.5198 39.6216C19.4556 39.4052 19.3395 39.2369 19.1715 39.1167C19.0084 39.0013 18.8034 38.9436 18.5563 38.9436ZM25.0042 37.6452C25.271 37.6452 25.4835 37.6957 25.6416 37.7967C25.6959 37.8256 25.7157 37.8785 25.7009 37.9554L25.4711 39.1889C25.4662 39.2754 25.4143 39.3019 25.3155 39.2682C25.2018 39.2297 25.0734 39.2105 24.9301 39.2105C24.8708 39.2105 24.7868 39.2177 24.6781 39.2321C24.4162 39.2562 24.1914 39.3523 24.0037 39.5207C23.8209 39.689 23.7295 39.915 23.7295 40.1987V43.1489C23.7295 43.1873 23.7146 43.2186 23.685 43.2426C23.6603 43.2667 23.6306 43.2787 23.5961 43.2787H22.2917C22.2571 43.2787 22.225 43.2667 22.1953 43.2426C22.1706 43.2186 22.1583 43.1873 22.1583 43.1489V37.8472C22.1583 37.8136 22.1706 37.7823 22.1953 37.7534C22.225 37.7294 22.2571 37.7174 22.2917 37.7174H23.5961C23.6306 37.7174 23.6603 37.7294 23.685 37.7534C23.7146 37.7823 23.7295 37.8136 23.7295 37.8472V38.2584C23.7295 38.2776 23.7369 38.292 23.7517 38.3016C23.7616 38.3113 23.7715 38.3064 23.7813 38.2872C24.0877 37.8592 24.4953 37.6452 25.0042 37.6452ZM29.7401 37.7102C29.7796 37.7102 29.8117 37.7222 29.8364 37.7462C29.8611 37.7703 29.8735 37.8015 29.8735 37.84V38.8643C29.8735 38.9027 29.8611 38.934 29.8364 38.958C29.8117 38.9821 29.7796 38.9941 29.7401 38.9941H28.6654C28.6259 38.9941 28.6061 39.0109 28.6061 39.0446V43.1489C28.6061 43.1873 28.5938 43.2186 28.5691 43.2426C28.5444 43.2667 28.5122 43.2787 28.4727 43.2787H27.1757C27.1362 43.2787 27.1041 43.2667 27.0794 43.2426C27.0547 43.2186 27.0423 43.1873 27.0423 43.1489V39.0446C27.0423 39.0109 27.0226 38.9941 26.983 38.9941H26.3308C26.2913 38.9941 26.2592 38.9821 26.2345 38.958C26.2098 38.934 26.1974 38.9027 26.1974 38.8643V37.84C26.1974 37.8015 26.2098 37.7703 26.2345 37.7462C26.2592 37.7222 26.2913 37.7102 26.3308 37.7102H26.983C27.0226 37.7102 27.0423 37.6909 27.0423 37.6525V37.4144C27.0423 36.9672 27.1115 36.6186 27.2498 36.3685C27.3931 36.1233 27.6204 35.9478 27.9317 35.842C28.2479 35.7362 28.6852 35.6905 29.2435 35.7049H29.6659C29.7005 35.7049 29.7302 35.7169 29.7549 35.741C29.7845 35.7698 29.7993 35.8011 29.7993 35.8348V36.7075C29.7993 36.746 29.7845 36.7773 29.7549 36.8013C29.7302 36.8302 29.7005 36.8446 29.6659 36.8446H29.2954C29.0385 36.8494 28.8581 36.8999 28.7543 36.9961C28.6555 37.097 28.6061 37.2774 28.6061 37.537V37.6525C28.6061 37.6909 28.6259 37.7102 28.6654 37.7102H29.7401ZM32.964 43.3652C32.3414 43.3652 31.8078 43.2066 31.3631 42.8892C30.9185 42.5718 30.6146 42.139 30.4515 41.5908C30.3478 41.2542 30.2959 40.8863 30.2959 40.4872C30.2959 40.064 30.3478 39.6817 30.4515 39.3403C30.6245 38.8066 30.9333 38.3882 31.378 38.0852C31.8226 37.7823 32.3563 37.6308 32.9788 37.6308C33.5816 37.6308 34.1004 37.7799 34.5352 38.078C34.9601 38.381 35.2615 38.7993 35.4394 39.3331C35.5629 39.6938 35.6247 40.0713 35.6247 40.4656C35.6247 40.8551 35.5728 41.2205 35.469 41.562C35.306 42.1246 35.0021 42.5646 34.5574 42.882C34.1177 43.2042 33.5865 43.3652 32.964 43.3652ZM32.964 42.0597C33.2061 42.0597 33.4136 41.9875 33.5865 41.8433C33.7595 41.699 33.883 41.4995 33.9571 41.2446C34.0115 41.0138 34.0386 40.7613 34.0386 40.4872C34.0386 40.1843 34.0115 39.9294 33.9571 39.7226C33.8731 39.4774 33.7471 39.285 33.5791 39.1456C33.4062 39.0109 33.1962 38.9436 32.9492 38.9436C32.7021 38.9436 32.4946 39.0109 32.3266 39.1456C32.1586 39.285 32.0376 39.4774 31.9635 39.7226C31.9042 39.8909 31.8745 40.1458 31.8745 40.4872C31.8745 40.8142 31.9017 41.0667 31.9561 41.2446C32.0302 41.4995 32.1537 41.699 32.3266 41.8433C32.4995 41.9875 32.712 42.0597 32.964 42.0597ZM39.4786 37.6452C39.7454 37.6452 39.9578 37.6957 40.1159 37.7967C40.1752 37.8256 40.195 37.8785 40.1752 37.9554L39.9455 39.1889C39.9405 39.2754 39.8887 39.3019 39.7898 39.2682C39.6762 39.2297 39.5477 39.2105 39.4045 39.2105C39.3452 39.2105 39.2636 39.2177 39.1599 39.2321C38.8931 39.2562 38.6658 39.3523 38.478 39.5207C38.2952 39.689 38.2038 39.915 38.2038 40.1987V43.1489C38.2038 43.1873 38.189 43.2186 38.1593 43.2426C38.1346 43.2667 38.1025 43.2787 38.063 43.2787H36.766C36.7314 43.2787 36.6993 43.2667 36.6697 43.2426C36.645 43.2186 36.6326 43.1873 36.6326 43.1489V37.8472C36.6326 37.8136 36.645 37.7823 36.6697 37.7534C36.6993 37.7294 36.7314 37.7174 36.766 37.7174H38.063C38.1025 37.7174 38.1346 37.7294 38.1593 37.7534C38.189 37.7823 38.2038 37.8136 38.2038 37.8472V38.2584C38.2038 38.2776 38.2088 38.292 38.2186 38.3016C38.2384 38.3113 38.2508 38.3064 38.2557 38.2872C38.562 37.8592 38.9697 37.6452 39.4786 37.6452ZM47.2234 37.6308C47.8015 37.6308 48.2536 37.7991 48.5797 38.1357C48.9058 38.4772 49.0688 38.9556 49.0688 39.5711V43.1489C49.0688 43.1873 49.0565 43.2186 49.0318 43.2426C49.0071 43.2667 48.9774 43.2787 48.9429 43.2787H47.6385C47.6039 43.2787 47.5718 43.2667 47.5421 43.2426C47.5174 43.2186 47.5051 43.1873 47.5051 43.1489V39.903C47.5051 39.6096 47.4285 39.3764 47.2753 39.2033C47.1172 39.0302 46.9072 38.9436 46.6453 38.9436C46.3884 38.9436 46.1784 39.0302 46.0154 39.2033C45.8523 39.3764 45.7708 39.6072 45.7708 39.8957V43.1489C45.7708 43.1873 45.7584 43.2186 45.7337 43.2426C45.7041 43.2667 45.672 43.2787 45.6374 43.2787H44.3478C44.3083 43.2787 44.2762 43.2667 44.2515 43.2426C44.2268 43.2186 44.2144 43.1873 44.2144 43.1489V39.903C44.2144 39.6144 44.1329 39.3812 43.9698 39.2033C43.8068 39.0302 43.5943 38.9436 43.3325 38.9436C43.1002 38.9436 42.9026 39.0109 42.7396 39.1456C42.5815 39.285 42.4876 39.4774 42.4579 39.7226V43.1489C42.4579 43.1873 42.4456 43.2186 42.4209 43.2426C42.3912 43.2667 42.3591 43.2787 42.3245 43.2787H41.0275C40.988 43.2787 40.9559 43.2667 40.9312 43.2426C40.9065 43.2186 40.8941 43.1873 40.8941 43.1489V37.8472C40.8941 37.8136 40.9065 37.7823 40.9312 37.7534C40.9559 37.7294 40.988 37.7174 41.0275 37.7174H42.3245C42.3591 37.7174 42.3912 37.7294 42.4209 37.7534C42.4456 37.7823 42.4579 37.8136 42.4579 37.8472V38.2728C42.4579 38.292 42.4653 38.3064 42.4802 38.3161C42.495 38.3209 42.5098 38.3113 42.5246 38.2872C42.831 37.8496 43.3028 37.6308 43.9402 37.6308C44.3108 37.6308 44.6344 37.7078 44.9111 37.8616C45.1878 38.0107 45.4002 38.2271 45.5485 38.5108C45.5682 38.5541 45.5954 38.5541 45.63 38.5108C45.7881 38.2127 46.008 37.9915 46.2896 37.8472C46.5663 37.703 46.8776 37.6308 47.2234 37.6308ZM55.198 39.9246C55.2425 40.1987 55.2573 40.504 55.2425 40.8407C55.2326 40.932 55.1832 40.9777 55.0943 40.9777H51.6628C51.6184 40.9777 51.6035 40.9945 51.6184 41.0282C51.6381 41.1725 51.6776 41.3167 51.7369 41.461C51.9296 41.8649 52.3224 42.0669 52.9153 42.0669C53.3897 42.0621 53.7652 41.8745 54.0419 41.5043C54.0715 41.461 54.1036 41.4393 54.1382 41.4393C54.1629 41.4393 54.1901 41.4538 54.2197 41.4826L55.0202 42.2472C55.0547 42.2857 55.072 42.3193 55.072 42.3482C55.072 42.3626 55.0572 42.3915 55.0276 42.4348C54.7855 42.7329 54.4717 42.9613 54.0863 43.12C53.7009 43.2835 53.2785 43.3652 52.819 43.3652C52.1816 43.3652 51.6431 43.2258 51.2033 42.9469C50.7586 42.6632 50.44 42.2689 50.2473 41.7639C50.0941 41.4033 50.0175 40.932 50.0175 40.3502C50.0175 39.951 50.0718 39.6 50.1805 39.297C50.3535 38.7873 50.6524 38.381 51.0773 38.078C51.5022 37.7751 52.0087 37.6236 52.5967 37.6236C53.3378 37.6236 53.9332 37.8328 54.3828 38.2511C54.8324 38.6695 55.1042 39.2273 55.198 39.9246ZM52.6041 38.9436C52.1396 38.9436 51.8333 39.1552 51.6851 39.5784C51.6554 39.6745 51.6282 39.7899 51.6035 39.9246C51.6035 39.9582 51.6233 39.9751 51.6628 39.9751H53.5824C53.6268 39.9751 53.6417 39.9582 53.6268 39.9246C53.5922 39.7178 53.575 39.6168 53.575 39.6216C53.5058 39.4052 53.3897 39.2369 53.2266 39.1167C53.0586 39.0013 52.8511 38.9436 52.6041 38.9436ZM59.0519 37.6452C59.3187 37.6452 59.5312 37.6957 59.6893 37.7967C59.7486 37.8256 59.7708 37.8785 59.756 37.9554L59.5263 39.1889C59.5164 39.2754 59.462 39.3019 59.3632 39.2682C59.2545 39.2297 59.126 39.2105 58.9778 39.2105C58.9185 39.2105 58.837 39.2177 58.7332 39.2321C58.4664 39.2562 58.2392 39.3523 58.0514 39.5207C57.8686 39.689 57.7772 39.915 57.7772 40.1987V43.1489C57.7772 43.1873 57.7648 43.2186 57.7401 43.2426C57.7105 43.2667 57.6784 43.2787 57.6438 43.2787H56.3394C56.3048 43.2787 56.2752 43.2667 56.2504 43.2426C56.2208 43.2186 56.206 43.1873 56.206 43.1489V37.8472C56.206 37.8136 56.2208 37.7823 56.2504 37.7534C56.2752 37.7294 56.3048 37.7174 56.3394 37.7174H57.6438C57.6784 37.7174 57.7105 37.7294 57.7401 37.7534C57.7648 37.7823 57.7772 37.8136 57.7772 37.8472V38.2584C57.7772 38.2776 57.7846 38.292 57.7994 38.3016C57.8142 38.3113 57.8266 38.3064 57.8365 38.2872C58.1379 37.8592 58.543 37.6452 59.0519 37.6452ZM28.4727 25.0151C28.4727 24.9814 28.4851 24.9502 28.5098 24.9213C28.5345 24.8973 28.5641 24.8852 28.5987 24.8852H29.9031C29.9377 24.8852 29.9698 24.8973 29.9995 24.9213C30.0242 24.9502 30.0365 24.9814 30.0365 25.0151V32.3292C30.0365 32.3676 30.0242 32.3989 29.9995 32.423C29.9698 32.447 29.9377 32.459 29.9031 32.459H28.5987C28.5641 32.459 28.5345 32.447 28.5098 32.423C28.4851 32.3989 28.4727 32.3676 28.4727 32.3292V29.3429C28.4727 29.3093 28.453 29.2925 28.4134 29.2925H25.9529C25.9183 29.2925 25.901 29.3093 25.901 29.3429V32.3292C25.901 32.3676 25.8886 32.3989 25.8639 32.423C25.8343 32.447 25.8022 32.459 25.7676 32.459H24.4632C24.4286 32.459 24.3989 32.447 24.3742 32.423C24.3446 32.3989 24.3298 32.3676 24.3298 32.3292V25.0151C24.3298 24.9814 24.3446 24.9502 24.3742 24.9213C24.3989 24.8973 24.4286 24.8852 24.4632 24.8852H25.7676C25.8022 24.8852 25.8343 24.8973 25.8639 24.9213C25.8886 24.9502 25.901 24.9814 25.901 25.0151V27.922C25.901 27.9604 25.9183 27.9797 25.9529 27.9797H28.4134C28.453 27.9797 28.4727 27.9604 28.4727 27.922V25.0151ZM32.0598 26.2702C31.8078 26.2702 31.5978 26.1884 31.4298 26.0249C31.2619 25.8662 31.1779 25.6643 31.1779 25.419C31.1779 25.1642 31.2594 24.9574 31.4224 24.7987C31.5855 24.64 31.7979 24.5607 32.0598 24.5607C32.3217 24.5607 32.5341 24.64 32.6972 24.7987C32.8602 24.9574 32.9418 25.1642 32.9418 25.419C32.9418 25.6643 32.8578 25.8662 32.6898 26.0249C32.5218 26.1884 32.3118 26.2702 32.0598 26.2702ZM31.3928 32.459C31.3582 32.459 31.3261 32.447 31.2964 32.423C31.2717 32.3989 31.2594 32.3676 31.2594 32.3292V27.0203C31.2594 26.9819 31.2717 26.9506 31.2964 26.9266C31.3261 26.9025 31.3582 26.8905 31.3928 26.8905H32.6972C32.7318 26.8905 32.7614 26.9025 32.7861 26.9266C32.8158 26.9506 32.8306 26.9819 32.8306 27.0203V32.3292C32.8306 32.3676 32.8158 32.3989 32.7861 32.423C32.7614 32.447 32.7318 32.459 32.6972 32.459H31.3928ZM37.5368 27.0275C37.5368 26.9939 37.5516 26.9626 37.5813 26.9338C37.606 26.9097 37.6356 26.8977 37.6702 26.8977H38.9746C39.0092 26.8977 39.0413 26.9097 39.0709 26.9338C39.0956 26.9626 39.108 26.9939 39.108 27.0275V31.9613C39.108 32.9038 38.8288 33.577 38.2705 33.981C37.7122 34.3897 36.9908 34.5941 36.1064 34.5941C35.8445 34.5941 35.5555 34.5749 35.2393 34.5364C35.1652 34.5268 35.1281 34.4811 35.1281 34.3993L35.1726 33.2813C35.1726 33.1851 35.2245 33.1443 35.3282 33.1587C35.595 33.202 35.8396 33.2236 36.0619 33.2236C36.5363 33.2236 36.9019 33.125 37.1588 32.9279C37.4108 32.7211 37.5368 32.3965 37.5368 31.9541C37.5368 31.9301 37.5294 31.9156 37.5146 31.9108C37.4997 31.906 37.4849 31.9132 37.4701 31.9325C37.1885 32.2258 36.7784 32.3725 36.2398 32.3725C35.7556 32.3725 35.3134 32.2595 34.9132 32.0334C34.508 31.8074 34.219 31.442 34.0461 30.937C33.9374 30.6052 33.883 30.1749 33.883 29.6459C33.883 29.0833 33.9497 28.6264 34.0831 28.2754C34.2363 27.833 34.4981 27.4796 34.8687 27.2151C35.2393 26.9458 35.6716 26.8111 36.1657 26.8111C36.7339 26.8111 37.1687 26.977 37.4701 27.3089C37.4849 27.3233 37.4997 27.3281 37.5146 27.3233C37.5294 27.3185 37.5368 27.3064 37.5368 27.2872V27.0275ZM37.4479 30.5187C37.5071 30.3071 37.5368 30.0114 37.5368 29.6315C37.5368 29.4103 37.5294 29.2396 37.5146 29.1193C37.4997 28.9943 37.475 28.8765 37.4404 28.7659C37.3713 28.5736 37.2601 28.4173 37.1069 28.297C36.9538 28.1816 36.7611 28.1239 36.5289 28.1239C36.3065 28.1239 36.1188 28.1816 35.9656 28.297C35.8075 28.4173 35.6914 28.5736 35.6173 28.7659C35.5135 28.9823 35.4616 29.2756 35.4616 29.6459C35.4616 30.0498 35.5061 30.3384 35.595 30.5115C35.6593 30.7086 35.7754 30.8649 35.9434 30.9803C36.1113 31.1005 36.309 31.1607 36.5363 31.1607C36.7734 31.1607 36.9711 31.1005 37.1292 30.9803C37.2823 30.8649 37.3886 30.711 37.4479 30.5187ZM43.2139 26.8111C43.8068 26.8111 44.2836 26.9891 44.6443 27.3449C45.005 27.696 45.1853 28.1744 45.1853 28.7803V32.3292C45.1853 32.3676 45.173 32.3989 45.1483 32.423C45.1235 32.447 45.0939 32.459 45.0593 32.459H43.7549C43.7203 32.459 43.6882 32.447 43.6586 32.423C43.6339 32.3989 43.6215 32.3676 43.6215 32.3292V29.0905C43.6215 28.8068 43.5375 28.5736 43.3695 28.3908C43.2065 28.2129 42.9866 28.1239 42.7099 28.1239C42.4382 28.1239 42.2183 28.2129 42.0503 28.3908C41.8823 28.5736 41.7983 28.8068 41.7983 29.0905V32.3292C41.7983 32.3676 41.786 32.3989 41.7613 32.423C41.7366 32.447 41.7044 32.459 41.6649 32.459H40.3679C40.3284 32.459 40.2963 32.447 40.2716 32.423C40.2469 32.3989 40.2345 32.3676 40.2345 32.3292V25.0151C40.2345 24.9814 40.2469 24.9502 40.2716 24.9213C40.2963 24.8973 40.3284 24.8852 40.3679 24.8852H41.6649C41.7044 24.8852 41.7366 24.8973 41.7613 24.9213C41.786 24.9502 41.7983 24.9814 41.7983 25.0151V27.4098C41.7983 27.4291 41.8057 27.4435 41.8206 27.4531C41.8354 27.4579 41.8453 27.4531 41.8502 27.4387C42.1565 27.0203 42.6111 26.8111 43.2139 26.8111Z" fill="#252530"/>
<path d="M23.3897 54.3869C23.3354 54.3869 23.3008 54.3628 23.286 54.3148L21.9371 49.4315L21.9297 49.4026C21.9297 49.3593 21.9569 49.3377 22.0112 49.3377H22.7375C22.7919 49.3377 22.8265 49.3618 22.8413 49.4098L23.6862 52.699C23.6911 52.7134 23.6985 52.7207 23.7084 52.7207C23.7183 52.7207 23.7257 52.7134 23.7306 52.699L24.5385 49.4098C24.5533 49.3618 24.5854 49.3377 24.6348 49.3377H25.3463C25.4007 49.3377 25.4353 49.3618 25.4501 49.4098L26.3098 52.7062C26.3147 52.7207 26.3221 52.7279 26.332 52.7279C26.3419 52.7279 26.3493 52.7207 26.3543 52.7062L27.1843 49.4098C27.1992 49.3618 27.2337 49.3377 27.2881 49.3377H27.9773C28.0465 49.3377 28.0737 49.369 28.0589 49.4315L26.7767 54.3148C26.7619 54.3628 26.7273 54.3869 26.673 54.3869H25.9837C25.9293 54.3869 25.8948 54.3628 25.8799 54.3148L25.0128 50.8741C25.0079 50.8597 25.0005 50.8501 24.9906 50.8452C24.9807 50.8452 24.9733 50.8549 24.9683 50.8741L24.1383 54.3148C24.1234 54.3628 24.0913 54.3869 24.0419 54.3869H23.3897ZM28.8815 54.3869C28.8568 54.3869 28.8346 54.3773 28.8148 54.358C28.8 54.3436 28.7926 54.3244 28.7926 54.3003V49.4243C28.7926 49.4002 28.8 49.381 28.8148 49.3666C28.8346 49.3473 28.8568 49.3377 28.8815 49.3377H29.5634C29.5881 49.3377 29.6078 49.3473 29.6227 49.3666C29.6424 49.381 29.6523 49.4002 29.6523 49.4243V54.3003C29.6523 54.3244 29.6424 54.3436 29.6227 54.358C29.6078 54.3773 29.5881 54.3869 29.5634 54.3869H28.8815ZM33.7508 49.4243C33.7508 49.4002 33.7582 49.381 33.773 49.3666C33.7928 49.3473 33.815 49.3377 33.8397 49.3377H34.5216C34.5463 49.3377 34.566 49.3473 34.5809 49.3666C34.6006 49.381 34.6105 49.4002 34.6105 49.4243V54.3003C34.6105 54.3244 34.6006 54.3436 34.5809 54.358C34.566 54.3773 34.5463 54.3869 34.5216 54.3869H33.862C33.8125 54.3869 33.778 54.3677 33.7582 54.3292L31.6237 50.9246C31.6138 50.9102 31.604 50.903 31.5941 50.903C31.5842 50.9078 31.5793 50.9198 31.5793 50.939L31.5941 54.3003C31.5941 54.3244 31.5842 54.3436 31.5644 54.358C31.5496 54.3773 31.5299 54.3869 31.5051 54.3869H30.8233C30.7986 54.3869 30.7764 54.3773 30.7566 54.358C30.7418 54.3436 30.7344 54.3244 30.7344 54.3003V49.4243C30.7344 49.4002 30.7418 49.381 30.7566 49.3666C30.7764 49.3473 30.7986 49.3377 30.8233 49.3377H31.4829C31.5323 49.3377 31.5669 49.3569 31.5867 49.3954L33.7137 52.8C33.7236 52.8144 33.7335 52.8192 33.7434 52.8144C33.7533 52.8144 33.7582 52.8048 33.7582 52.7856L33.7508 49.4243ZM39.1018 49.3377C39.1265 49.3377 39.1462 49.3473 39.1611 49.3666C39.1808 49.381 39.1907 49.4002 39.1907 49.4243V49.9797C39.1907 50.0037 39.1808 50.023 39.1611 50.0374C39.1462 50.0566 39.1265 50.0662 39.1018 50.0662H37.7381C37.7134 50.0662 37.701 50.0783 37.701 50.1023V54.3003C37.701 54.3244 37.6936 54.3436 37.6788 54.358C37.659 54.3773 37.6368 54.3869 37.6121 54.3869H36.9303C36.9056 54.3869 36.8858 54.3773 36.871 54.358C36.8512 54.3436 36.8413 54.3244 36.8413 54.3003V50.1023C36.8413 50.0783 36.829 50.0662 36.8043 50.0662H35.4925C35.4677 50.0662 35.4455 50.0566 35.4258 50.0374C35.4109 50.023 35.4035 50.0037 35.4035 49.9797V49.4243C35.4035 49.4002 35.4109 49.381 35.4258 49.3666C35.4455 49.3473 35.4677 49.3377 35.4925 49.3377H39.1018ZM43.4967 49.9725C43.4967 49.9965 43.4868 50.0157 43.4671 50.0302C43.4522 50.0494 43.4325 50.059 43.4078 50.059H40.8805C40.8558 50.059 40.8434 50.071 40.8434 50.0951V51.4439C40.8434 51.468 40.8558 51.48 40.8805 51.48H42.5777C42.6024 51.48 42.6246 51.4872 42.6444 51.5016C42.6592 51.5209 42.6666 51.5425 42.6666 51.5666V52.1148C42.6666 52.1388 42.6592 52.1604 42.6444 52.1797C42.6246 52.1941 42.6024 52.2013 42.5777 52.2013H40.8805C40.8558 52.2013 40.8434 52.2133 40.8434 52.2374V53.6295C40.8434 53.6536 40.8558 53.6656 40.8805 53.6656H43.4078C43.4325 53.6656 43.4522 53.6752 43.4671 53.6944C43.4868 53.7089 43.4967 53.7281 43.4967 53.7521V54.3003C43.4967 54.3244 43.4868 54.3436 43.4671 54.358C43.4522 54.3773 43.4325 54.3869 43.4078 54.3869H40.0727C40.048 54.3869 40.0257 54.3773 40.006 54.358C39.9911 54.3436 39.9837 54.3244 39.9837 54.3003V49.4243C39.9837 49.4002 39.9911 49.381 40.006 49.3666C40.0257 49.3473 40.048 49.3377 40.0727 49.3377H43.4078C43.4325 49.3377 43.4522 49.3473 43.4671 49.3666C43.4868 49.381 43.4967 49.4002 43.4967 49.4243V49.9725ZM47.2839 54.3869C47.2345 54.3869 47.1999 54.3652 47.1801 54.322L46.2019 52.2446C46.192 52.2254 46.1771 52.2157 46.1574 52.2157H45.268C45.2433 52.2157 45.231 52.2278 45.231 52.2518V54.3003C45.231 54.3244 45.2211 54.3436 45.2013 54.358C45.1865 54.3773 45.1667 54.3869 45.142 54.3869H44.4602C44.4355 54.3869 44.4132 54.3773 44.3935 54.358C44.3787 54.3436 44.3712 54.3244 44.3712 54.3003V49.4243C44.3712 49.4002 44.3787 49.381 44.3935 49.3666C44.4132 49.3473 44.4355 49.3377 44.4602 49.3377H46.4983C46.7997 49.3377 47.0665 49.3978 47.2987 49.518C47.531 49.6431 47.7113 49.8162 47.8398 50.0374C47.9682 50.2634 48.0325 50.5207 48.0325 50.8092C48.0325 51.141 47.9435 51.4223 47.7656 51.6531C47.5927 51.8887 47.3506 52.0522 47.0393 52.1436C47.0295 52.1436 47.022 52.1484 47.0171 52.158C47.0122 52.1676 47.0122 52.1773 47.0171 52.1869L48.0621 54.2859C48.072 54.3051 48.0769 54.3196 48.0769 54.3292C48.0769 54.3677 48.0497 54.3869 47.9954 54.3869H47.2839ZM45.268 50.059C45.2433 50.059 45.231 50.071 45.231 50.0951V51.5305C45.231 51.5545 45.2433 51.5666 45.268 51.5666H46.3797C46.6169 51.5666 46.8096 51.4968 46.9578 51.3574C47.1011 51.2227 47.1727 51.0424 47.1727 50.8164C47.1727 50.5904 47.1011 50.4077 46.9578 50.2682C46.8096 50.1287 46.6169 50.059 46.3797 50.059H45.268Z" fill="white"/>
<path d="M25.2943 67.4138C25.2795 67.4282 25.2746 67.4426 25.2795 67.457C25.2894 67.4715 25.3042 67.4787 25.324 67.4787H28.2366C28.2712 67.4787 28.3009 67.4907 28.3256 67.5148C28.3552 67.5388 28.37 67.5677 28.37 67.6013V68.6184C28.37 68.652 28.3552 68.6809 28.3256 68.7049C28.3009 68.729 28.2712 68.741 28.2366 68.741H23.4044C23.3649 68.741 23.3328 68.729 23.3081 68.7049C23.2834 68.6809 23.271 68.652 23.271 68.6184V67.6518C23.271 67.5893 23.2933 67.5364 23.3377 67.4931C23.6885 67.1613 24.0468 66.7983 24.4124 66.4039C24.778 66.0096 25.0078 65.7644 25.1016 65.6682C25.2993 65.4374 25.5018 65.2162 25.7094 65.0046C26.3616 64.3025 26.6877 63.7808 26.6877 63.4393C26.6877 63.1941 26.5987 62.9921 26.4209 62.8334C26.243 62.6796 26.0108 62.6026 25.7242 62.6026C25.4376 62.6026 25.2054 62.6796 25.0275 62.8334C24.8447 62.9921 24.7533 63.2013 24.7533 63.461V63.7207C24.7533 63.7543 24.7409 63.7832 24.7162 63.8072C24.6915 63.8313 24.6619 63.8433 24.6273 63.8433H23.36C23.3254 63.8433 23.2957 63.8313 23.271 63.8072C23.2414 63.7832 23.2266 63.7543 23.2266 63.7207V63.2302C23.2513 62.8551 23.3748 62.5209 23.5971 62.2275C23.8195 61.939 24.1135 61.7178 24.4791 61.5639C24.8496 61.4101 25.2647 61.3331 25.7242 61.3331C26.2331 61.3331 26.6753 61.4269 27.0508 61.6144C27.4263 61.7972 27.7154 62.0448 27.9179 62.3574C28.1255 62.6748 28.2292 63.0234 28.2292 63.4033C28.2292 63.6966 28.1526 63.9972 27.9995 64.3049C27.8512 64.6127 27.6264 64.9445 27.325 65.3003C27.1027 65.5696 26.8631 65.8389 26.6061 66.1082C26.3492 66.3727 25.9663 66.755 25.4574 67.2551L25.2943 67.4138ZM31.8608 68.8564C31.0702 68.8564 30.4477 68.6424 29.9931 68.2144C29.5336 67.7865 29.3039 67.2022 29.3039 66.4616V63.699C29.3039 62.9729 29.5336 62.3983 29.9931 61.9751C30.4477 61.5471 31.0702 61.3331 31.8608 61.3331C32.6464 61.3331 33.2714 61.5471 33.7359 61.9751C34.1954 62.3983 34.4251 62.9729 34.4251 63.699V66.4616C34.4251 67.2022 34.1954 67.7865 33.7359 68.2144C33.2714 68.6424 32.6464 68.8564 31.8608 68.8564ZM31.8608 67.5941C32.1819 67.5941 32.4364 67.4979 32.6242 67.3056C32.8168 67.1132 32.9132 66.856 32.9132 66.5338V63.6557C32.9132 63.3384 32.8168 63.0835 32.6242 62.8912C32.4364 62.6988 32.1819 62.6026 31.8608 62.6026C31.5446 62.6026 31.2926 62.6988 31.1048 62.8912C30.9121 63.0835 30.8158 63.3384 30.8158 63.6557V66.5338C30.8158 66.856 30.9121 67.1132 31.1048 67.3056C31.2926 67.4979 31.5446 67.5941 31.8608 67.5941ZM37.4341 67.4138C37.4193 67.4282 37.4168 67.4426 37.4267 67.457C37.4316 67.4715 37.4465 67.4787 37.4712 67.4787H40.3838C40.4184 67.4787 40.4481 67.4907 40.4728 67.5148C40.4975 67.5388 40.5098 67.5677 40.5098 67.6013V68.6184C40.5098 68.652 40.4975 68.6809 40.4728 68.7049C40.4481 68.729 40.4184 68.741 40.3838 68.741H35.5442C35.5096 68.741 35.48 68.729 35.4553 68.7049C35.4306 68.6809 35.4182 68.652 35.4182 68.6184V67.6518C35.4182 67.5893 35.438 67.5364 35.4775 67.4931C35.8333 67.1613 36.1915 66.7983 36.5522 66.4039C36.9178 66.0096 37.1475 65.7644 37.2414 65.6682C37.444 65.4374 37.649 65.2162 37.8566 65.0046C38.5088 64.3025 38.8349 63.7808 38.8349 63.4393C38.8349 63.1941 38.7459 62.9921 38.5681 62.8334C38.3852 62.6796 38.1505 62.6026 37.864 62.6026C37.5774 62.6026 37.3452 62.6796 37.1673 62.8334C36.9894 62.9921 36.9005 63.2013 36.9005 63.461V63.7207C36.9005 63.7543 36.8881 63.7832 36.8634 63.8072C36.8387 63.8313 36.8066 63.8433 36.7671 63.8433H35.4998C35.4652 63.8433 35.4355 63.8313 35.4108 63.8072C35.3861 63.7832 35.3738 63.7543 35.3738 63.7207V63.2302C35.3935 62.8551 35.5146 62.5209 35.7369 62.2275C35.9593 61.939 36.2557 61.7178 36.6263 61.5639C36.9968 61.4101 37.4094 61.3331 37.864 61.3331C38.3729 61.3331 38.8151 61.4269 39.1906 61.6144C39.5711 61.7972 39.8626 62.0448 40.0651 62.3574C40.2677 62.6748 40.369 63.0234 40.369 63.4033C40.369 63.6966 40.2949 63.9972 40.1467 64.3049C39.9935 64.6127 39.7662 64.9445 39.4648 65.3003C39.2425 65.5696 39.0028 65.8389 38.7459 66.1082C38.489 66.3727 38.1061 66.755 37.5972 67.2551L37.4341 67.4138ZM43.4521 67.4138C43.4373 67.4282 43.4348 67.4426 43.4447 67.457C43.4497 67.4715 43.4645 67.4787 43.4892 67.4787H46.4018C46.4364 67.4787 46.4661 67.4907 46.4908 67.5148C46.5155 67.5388 46.5278 67.5677 46.5278 67.6013V68.6184C46.5278 68.652 46.5155 68.6809 46.4908 68.7049C46.4661 68.729 46.4364 68.741 46.4018 68.741H41.5622C41.5277 68.741 41.498 68.729 41.4733 68.7049C41.4486 68.6809 41.4362 68.652 41.4362 68.6184V67.6518C41.4362 67.5893 41.456 67.5364 41.4955 67.4931C41.8513 67.1613 42.2095 66.7983 42.5702 66.4039C42.9358 66.0096 43.1656 65.7644 43.2594 65.6682C43.462 65.4374 43.6671 65.2162 43.8746 65.0046C44.5268 64.3025 44.8529 63.7808 44.8529 63.4393C44.8529 63.1941 44.7639 62.9921 44.5861 62.8334C44.4033 62.6796 44.1686 62.6026 43.882 62.6026C43.5954 62.6026 43.3632 62.6796 43.1853 62.8334C43.0074 62.9921 42.9185 63.2013 42.9185 63.461V63.7207C42.9185 63.7543 42.9062 63.7832 42.8815 63.8072C42.8568 63.8313 42.8246 63.8433 42.7851 63.8433H41.5178C41.4832 63.8433 41.4535 63.8313 41.4288 63.8072C41.4041 63.7832 41.3918 63.7543 41.3918 63.7207V63.2302C41.4115 62.8551 41.5326 62.5209 41.7549 62.2275C41.9773 61.939 42.2737 61.7178 42.6443 61.5639C43.0149 61.4101 43.4274 61.3331 43.882 61.3331C44.3909 61.3331 44.8331 61.4269 45.2086 61.6144C45.5891 61.7972 45.8806 62.0448 46.0832 62.3574C46.2857 62.6748 46.387 63.0234 46.387 63.4033C46.387 63.6966 46.3129 63.9972 46.1647 64.3049C46.0115 64.6127 45.7842 64.9445 45.4828 65.3003C45.2605 65.5696 45.0209 65.8389 44.7639 66.1082C44.507 66.3727 44.1241 66.755 43.6152 67.2551L43.4521 67.4138Z" fill="#252530"/>
</g>
<defs>
<clipPath id="clip0_493_793">
<rect width="69.6667" height="88" fill="white" transform="translate(0.265625)"/>
</clipPath>
</defs>
</svg>
