<svg width="15" height="21" viewBox="0 0 15 21" fill="none" xmlns="http://www.w3.org/2000/svg">
<path d="M12.0827 13.9745V20.2738C12.0827 20.3549 12.0612 20.4346 12.0204 20.5046C11.9796 20.5747 11.9209 20.6327 11.8503 20.6727C11.7798 20.7126 11.6999 20.7332 11.6188 20.7322C11.5377 20.7312 11.4583 20.7087 11.3888 20.6671L7.49935 18.3332L3.60993 20.6671C3.5403 20.7088 3.46085 20.7313 3.37968 20.7322C3.29851 20.7332 3.21855 20.7125 3.14797 20.6724C3.07739 20.6323 3.01873 20.5742 2.97797 20.504C2.93722 20.4338 2.91584 20.3541 2.91602 20.2729V13.9754C1.72998 13.0258 0.868175 11.7313 0.449686 10.2707C0.0311975 8.81016 0.0766919 7.25567 0.579883 5.82208C1.08307 4.38849 2.01911 3.14658 3.25865 2.26798C4.49819 1.38939 5.98001 0.91748 7.49935 0.91748C9.01869 0.91748 10.5005 1.38939 11.74 2.26798C12.9796 3.14658 13.9156 4.38849 14.4188 5.82208C14.922 7.25567 14.9675 8.81016 14.549 10.2707C14.1305 11.7313 13.2687 13.0258 12.0827 13.9754V13.9745ZM4.74935 15.0497V17.8456L7.49935 16.1956L10.2493 17.8456V15.0497C9.37562 15.4031 8.44183 15.5843 7.49935 15.5832C6.55687 15.5843 5.62308 15.4031 4.74935 15.0497ZM7.49935 13.7499C8.95804 13.7499 10.357 13.1704 11.3884 12.139C12.4199 11.1075 12.9993 9.70859 12.9993 8.2499C12.9993 6.79121 12.4199 5.39226 11.3884 4.36081C10.357 3.32936 8.95804 2.7499 7.49935 2.7499C6.04066 2.7499 4.64171 3.32936 3.61026 4.36081C2.57881 5.39226 1.99935 6.79121 1.99935 8.2499C1.99935 9.70859 2.57881 11.1075 3.61026 12.139C4.64171 13.1704 6.04066 13.7499 7.49935 13.7499Z" fill="#B8BFD0"/>
</svg>
