<svg width="34" height="23" viewBox="0 0 34 23" fill="none" xmlns="http://www.w3.org/2000/svg">
<path d="M0.694393 10.4114L15.9327 0.28724C16.5966 -0.0957466 17.41 -0.0957466 18.074 0.28724L33.3123 10.4114C33.9099 10.7111 34.1754 11.4272 33.8767 12.0433C33.7605 12.293 33.5613 12.4929 33.3123 12.6094L31.2705 13.9582C26.2741 6.04869 15.8497 3.70081 7.96494 8.69629C5.85682 10.0451 4.06408 11.8268 2.71952 13.9582L0.661194 12.6094C0.0636143 12.293 -0.168778 11.5604 0.130012 10.9609C0.262808 10.7278 0.462001 10.528 0.694393 10.4114ZM16.9784 10.2948C12.6128 10.3115 8.54592 12.5595 6.222 16.2728L9.72448 18.604C12.1314 14.591 17.327 13.3088 21.3109 15.7233C22.4894 16.4393 23.4688 17.4217 24.1826 18.604L27.6851 16.2728C25.3943 12.5428 21.3441 10.2782 16.9784 10.2948ZM16.9784 18.7538C15.4347 18.7705 14.0237 19.6031 13.2602 20.9519L15.6173 22.5005C15.9991 22.8335 16.4805 23 16.9784 23C17.4764 23 17.9744 22.8168 18.3396 22.5005L20.6967 20.9519C19.9497 19.5864 18.5222 18.7538 16.9784 18.7538Z" fill="url(#paint0_linear_750_1856)"/>
<defs>
<linearGradient id="paint0_linear_750_1856" x1="16.9924" y1="22.9941" x2="16.9924" y2="0.00275448" gradientUnits="userSpaceOnUse">
<stop stop-color="#EFC119"/>
<stop offset="0.3314" stop-color="#92C84E"/>
<stop offset="0.4859" stop-color="#71BF5B"/>
<stop offset="0.7506" stop-color="#15B158"/>
<stop offset="0.903" stop-color="#23AC69"/>
<stop offset="1" stop-color="#23AC69"/>
</linearGradient>
</defs>
</svg>
