<svg width="54" height="36" viewBox="0 0 54 36" fill="none" xmlns="http://www.w3.org/2000/svg">
<path fill-rule="evenodd" clip-rule="evenodd" d="M31.9997 22.5304C29.5859 24.3096 26.0871 25.2588 23.0748 25.2588C18.8509 25.2588 15.0484 23.6966 12.1716 21.0983C11.9457 20.8939 12.1482 20.6155 12.4194 20.7747C15.5239 22.581 19.3626 23.6677 23.3279 23.6677C26.0022 23.6677 28.944 23.1144 31.649 21.9662C32.0576 21.7926 32.3993 22.2338 31.9997 22.5304Z" fill="#FAB721"/>
<path fill-rule="evenodd" clip-rule="evenodd" d="M33.004 21.3823C32.6966 20.9881 30.9644 21.196 30.1869 21.2882C29.95 21.3172 29.9139 21.111 30.1272 20.9628C31.5068 19.9918 33.7706 20.2721 34.0346 20.5975C34.2986 20.9248 33.9659 23.194 32.6695 24.2771C32.4706 24.4434 32.2807 24.3548 32.3693 24.1342C32.6604 23.4074 33.3132 21.7782 33.004 21.3823Z" fill="#FAB721"/>
<path fill-rule="evenodd" clip-rule="evenodd" d="M30.2408 14.1082V13.1643C30.2408 13.0215 30.3493 12.9256 30.4795 12.9256H34.7051C34.8407 12.9256 34.9492 13.0233 34.9492 13.1643V13.9725C34.9474 14.1082 34.8335 14.2854 34.631 14.5656L32.4413 17.6919C33.255 17.672 34.1138 17.7932 34.8515 18.209C35.0179 18.303 35.0631 18.4405 35.0758 18.5761V19.5832C35.0758 19.7206 34.9239 19.8815 34.7648 19.7984C33.4647 19.1167 31.7379 19.0426 30.3005 19.8056C30.154 19.8852 30.0003 19.7261 30.0003 19.5887V18.6322C30.0003 18.4785 30.0021 18.2163 30.1558 17.983L32.6926 14.3451H30.4849C30.3493 14.3451 30.2408 14.2492 30.2408 14.1082ZM14.8264 19.9973H13.5408C13.4178 19.9883 13.3202 19.896 13.3112 19.7785V13.1806C13.3112 13.0486 13.4214 12.9437 13.5588 12.9437H14.7576C14.8824 12.9491 14.9819 13.045 14.9909 13.1643V14.0268H15.0144C15.3272 13.1933 15.9149 12.8046 16.7068 12.8046C17.5114 12.8046 18.0141 13.1933 18.3758 14.0268C18.6868 13.1933 19.3938 12.8046 20.1514 12.8046C20.6902 12.8046 21.2796 13.027 21.6394 13.526C22.0463 14.0811 21.9631 14.8875 21.9631 15.5945L21.9613 19.7586C21.9613 19.8906 21.851 19.9973 21.7136 19.9973H20.4298C20.3015 19.9883 20.1984 19.8852 20.1984 19.7586V16.2617C20.1984 15.9832 20.2237 15.2888 20.1622 15.0249C20.0664 14.5819 19.7789 14.4571 19.4064 14.4571C19.0954 14.4571 18.7699 14.6651 18.6379 14.9978C18.506 15.3305 18.5186 15.8874 18.5186 16.2617V19.7586C18.5186 19.8906 18.4083 19.9973 18.2709 19.9973H16.9871C16.8569 19.9883 16.7556 19.8852 16.7556 19.7586L16.7539 16.2617C16.7539 15.5257 16.875 14.4427 15.9619 14.4427C15.038 14.4427 15.0741 15.4986 15.0741 16.2617V19.7586C15.0741 19.8906 14.9638 19.9973 14.8264 19.9973ZM38.5872 12.8045C40.4948 12.8045 41.5272 14.4427 41.5272 16.5257C41.5272 18.5381 40.3863 20.1347 38.5871 20.1347C36.7139 20.1347 35.6942 18.4965 35.6942 16.4551C35.6942 14.4011 36.7266 12.8045 38.5872 12.8045ZM38.598 14.1516C37.6505 14.1516 37.5909 15.4426 37.5909 16.2472C37.5909 17.0536 37.5783 18.775 38.5872 18.775C39.5835 18.775 39.6305 17.3863 39.6305 16.5401C39.6305 15.9832 39.6069 15.3178 39.4388 14.7898C39.2942 14.3306 39.0067 14.1516 38.5981 14.1516H38.598ZM44.0008 19.9973H42.7206C42.5922 19.9883 42.4891 19.8852 42.4891 19.7586L42.4874 13.1589C42.4981 13.0378 42.6049 12.9437 42.735 12.9437H43.9266C44.0387 12.9491 44.1309 13.0251 44.1562 13.1281V14.1371H44.1798C44.5396 13.2349 45.044 12.8045 45.9318 12.8045C46.5086 12.8045 47.071 13.0124 47.4326 13.582C47.7689 14.1099 47.7689 14.9978 47.7689 15.6361V19.7893C47.7545 19.9051 47.6478 19.9973 47.5212 19.9973H46.232C46.1144 19.9883 46.0168 19.9014 46.0042 19.7893V16.2056C46.0042 15.4842 46.0874 14.4282 45.1996 14.4282C44.8868 14.4282 44.5992 14.6379 44.4564 14.9562C44.2756 15.3594 44.2521 15.7608 44.2521 16.2056V19.7586C44.2503 19.8906 44.1382 19.9973 44.0008 19.9973ZM26.8722 16.8457C26.8722 17.3465 26.8849 17.7642 26.6317 18.209C26.4274 18.5707 26.102 18.793 25.7421 18.793C25.2485 18.793 24.9592 18.417 24.9592 17.8619C24.9592 16.7661 25.941 16.5672 26.8722 16.5672V16.8457ZM28.1686 19.9792C28.0837 20.0551 27.9607 20.0606 27.8649 20.0099C27.4382 19.6555 27.3604 19.491 27.1272 19.1529C26.422 19.8725 25.9212 20.0877 25.008 20.0877C23.9249 20.0877 23.0842 19.4205 23.0842 18.0843C23.0842 17.041 23.6483 16.3304 24.4547 15.9832C25.1527 15.6758 26.1273 15.6216 26.8723 15.5366V15.3703C26.8723 15.0647 26.8957 14.703 26.7149 14.4391C26.5594 14.2022 26.2592 14.1045 25.9935 14.1045C25.5034 14.1045 25.0677 14.3559 24.961 14.8766C24.9393 14.9923 24.8543 15.1062 24.7368 15.1117L23.491 14.9779C23.3861 14.9544 23.2686 14.8694 23.2993 14.7085C23.585 13.1969 24.952 12.7412 26.1743 12.7412C26.7999 12.7412 27.6172 12.9076 28.1108 13.3813C28.7364 13.9653 28.6768 14.7446 28.6768 15.5927V17.5961C28.6768 18.1982 28.9263 18.4621 29.1614 18.7876C29.2428 18.9034 29.2608 19.0426 29.156 19.1294C28.8938 19.3481 28.4272 19.755 28.1705 19.9828L28.1687 19.9792H28.1686ZM10.0185 16.8457C10.0185 17.3465 10.0312 17.7642 9.77802 18.209C9.57373 18.5707 9.25007 18.793 8.88843 18.793C8.39483 18.793 8.1073 18.417 8.1073 17.8619C8.1073 16.7661 9.08915 16.5672 10.0185 16.5672V16.8457ZM11.3149 19.9792C11.23 20.0551 11.107 20.0606 11.0112 20.0099C10.5845 19.6555 10.5085 19.491 10.2735 19.1529C9.56829 19.8725 9.06929 20.0877 8.15432 20.0877C7.07308 20.0877 6.23047 19.4205 6.23047 18.0843C6.23047 17.041 6.79643 16.3304 7.60103 15.9832C8.299 15.6758 9.27358 15.6216 10.0185 15.5366V15.3703C10.0185 15.0647 10.042 14.703 9.86301 14.4391C9.7057 14.2022 9.40559 14.1045 9.14157 14.1045C8.65158 14.1045 8.21401 14.3559 8.1073 14.8766C8.08562 14.9923 8.00063 15.1062 7.8849 15.1117L6.6373 14.9779C6.53241 14.9544 6.41673 14.8694 6.44564 14.7085C6.73313 13.1969 8.09829 12.7412 9.3206 12.7412C9.94617 12.7412 10.7635 12.9076 11.2571 13.3813C11.8827 13.9653 11.823 14.7446 11.823 15.5927V17.5961C11.823 18.1982 12.0726 18.4621 12.3076 18.7876C12.3908 18.9034 12.4089 19.0426 12.304 19.1294C12.0418 19.3481 11.5753 19.755 11.3186 19.9828L11.315 19.9792" fill="white"/>
</svg>
