<svg width="34" height="34" viewBox="0 0 34 34" fill="none" xmlns="http://www.w3.org/2000/svg">
<path d="M17.0007 33.6667C7.79565 33.6667 0.333984 26.205 0.333984 17C0.333984 7.795 7.79565 0.333336 17.0007 0.333336C26.2057 0.333336 33.6673 7.795 33.6673 17C33.6673 26.205 26.2057 33.6667 17.0007 33.6667ZM17.0007 30.3333C20.5369 30.3333 23.9283 28.9286 26.4287 26.4281C28.9292 23.9276 30.334 20.5362 30.334 17C30.334 13.4638 28.9292 10.0724 26.4287 7.57191C23.9283 5.07143 20.5369 3.66667 17.0007 3.66667C13.4644 3.66667 10.073 5.07143 7.57256 7.57191C5.07208 10.0724 3.66732 13.4638 3.66732 17C3.66732 20.5362 5.07208 23.9276 7.57256 26.4281C10.073 28.9286 13.4644 30.3333 17.0007 30.3333ZM18.6673 17H25.334V20.3333H15.334V8.66667H18.6673V17Z" fill="#07081B"/>
</svg>
