<svg width="30" height="36" viewBox="0 0 30 36" fill="none" xmlns="http://www.w3.org/2000/svg">
<path d="M16.6667 5.75841C24.1667 6.58675 30 12.9451 30 20.6667V35.6667H0V20.6667C0 12.9451 5.83333 6.58675 13.3333 5.75841V0.666748H16.6667V5.75841ZM26.6667 32.3334V20.6667C26.6667 17.5726 25.4375 14.6051 23.2496 12.4172C21.0617 10.2292 18.0942 9.00008 15 9.00008C11.9058 9.00008 8.93834 10.2292 6.75042 12.4172C4.5625 14.6051 3.33333 17.5726 3.33333 20.6667V32.3334H26.6667ZM15 29.0001C12.7899 29.0001 10.6702 28.1221 9.10744 26.5593C7.54464 24.9965 6.66667 22.8769 6.66667 20.6667C6.66667 18.4566 7.54464 16.337 9.10744 14.7742C10.6702 13.2114 12.7899 12.3334 15 12.3334C17.2101 12.3334 19.3298 13.2114 20.8926 14.7742C22.4554 16.337 23.3333 18.4566 23.3333 20.6667C23.3333 22.8769 22.4554 24.9965 20.8926 26.5593C19.3298 28.1221 17.2101 29.0001 15 29.0001V29.0001ZM15 25.6667C16.3261 25.6667 17.5979 25.14 18.5355 24.2023C19.4732 23.2646 20 21.9928 20 20.6667C20 19.3407 19.4732 18.0689 18.5355 17.1312C17.5979 16.1935 16.3261 15.6667 15 15.6667C13.6739 15.6667 12.4021 16.1935 11.4645 17.1312C10.5268 18.0689 10 19.3407 10 20.6667C10 21.9928 10.5268 23.2646 11.4645 24.2023C12.4021 25.14 13.6739 25.6667 15 25.6667V25.6667ZM15 22.3334C14.558 22.3334 14.134 22.1578 13.8215 21.8453C13.5089 21.5327 13.3333 21.1088 13.3333 20.6667C13.3333 20.2247 13.5089 19.8008 13.8215 19.4882C14.134 19.1757 14.558 19.0001 15 19.0001C15.442 19.0001 15.8659 19.1757 16.1785 19.4882C16.4911 19.8008 16.6667 20.2247 16.6667 20.6667C16.6667 21.1088 16.4911 21.5327 16.1785 21.8453C15.8659 22.1578 15.442 22.3334 15 22.3334Z" fill="black"/>
</svg>
