<svg width="30" height="38" viewBox="0 0 30 38" fill="none" xmlns="http://www.w3.org/2000/svg">
<path d="M17.9365 0.927246C13.7266 0.927246 11.2855 2.75141 10.118 3.96752C9.97652 2.88653 9.23359 1.50152 6.33261 1.50152H0V7.78475H2.58257C3.00711 7.78475 3.14862 7.91987 3.14862 8.32524V37.0727H10.6487V25.5197C11.8162 26.5331 14.045 27.9519 17.5473 27.9519C24.8705 27.9519 30.0003 22.4118 30.0003 14.4396C30.0357 6.36596 25.1536 0.927246 17.9365 0.927246ZM16.4153 21.7024C12.3822 21.7024 10.5426 18.0203 10.5426 14.5747C10.5426 9.16976 13.6204 7.24426 16.5214 7.24426C20.0592 7.24426 22.4649 10.1494 22.4649 14.5071C22.4295 19.5067 19.387 21.7024 16.4153 21.7024Z" fill="#203232"/>
</svg>
