<svg width="34" height="34" viewBox="0 0 34 34" fill="none" xmlns="http://www.w3.org/2000/svg">
<path d="M0.333984 17.0001C0.333984 15.5584 0.517318 14.1618 0.860651 12.8268C1.78143 12.8752 2.69766 12.668 3.50805 12.2282C4.31845 11.7884 4.99145 11.1331 5.45266 10.3347C5.91387 9.53627 6.14533 8.62588 6.12144 7.70414C6.09756 6.7824 5.81926 5.88522 5.31732 5.11177C7.33222 3.12938 9.81864 1.69259 12.5423 0.936768C12.9606 1.75922 13.5984 2.44988 14.385 2.93228C15.1715 3.41469 16.0763 3.67003 16.999 3.67003C17.9217 3.67003 18.8264 3.41469 19.613 2.93228C20.3996 2.44988 21.0373 1.75922 21.4557 0.936768C24.1793 1.69259 26.6657 3.12938 28.6807 5.11177C28.1781 5.88536 27.8994 6.78288 27.8754 7.70504C27.8513 8.6272 28.0828 9.53804 28.5443 10.3368C29.0058 11.1355 29.6792 11.791 30.4901 12.2308C31.3011 12.6705 32.2178 12.8774 33.139 12.8284C33.4823 14.1618 33.6657 15.5584 33.6657 17.0001C33.6657 18.4418 33.4823 19.8384 33.139 21.1734C32.2181 21.1247 31.3016 21.3316 30.491 21.7713C29.6803 22.211 29.0071 22.8663 28.5457 23.6647C28.0842 24.4632 27.8526 25.3737 27.8765 26.2956C27.9003 27.2175 28.1786 28.1149 28.6807 28.8884C26.6657 30.8708 24.1793 32.3076 21.4557 33.0634C21.0373 32.241 20.3996 31.5503 19.613 31.0679C18.8264 30.5855 17.9217 30.3302 16.999 30.3302C16.0763 30.3302 15.1715 30.5855 14.385 31.0679C13.5984 31.5503 12.9606 32.241 12.5423 33.0634C9.81864 32.3076 7.33222 30.8708 5.31732 28.8884C5.81983 28.1148 6.09853 27.2173 6.1226 26.2952C6.14666 25.373 5.91515 24.4622 5.45367 23.6634C4.99219 22.8647 4.31874 22.2092 3.50783 21.7694C2.69692 21.3297 1.78016 21.1228 0.858984 21.1718C0.517318 19.8401 0.333984 18.4434 0.333984 17.0001ZM8.34065 22.0001C9.39065 23.8184 9.69065 25.9101 9.28065 27.8734C9.96065 28.3568 10.684 28.7751 11.4423 29.1234C12.9701 27.7548 14.9495 26.9987 17.0007 27.0001C19.1007 27.0001 21.064 27.7851 22.559 29.1234C23.3173 28.7751 24.0407 28.3568 24.7207 27.8734C24.2997 25.8667 24.6344 23.7752 25.6607 22.0001C26.685 20.2241 28.329 18.8887 30.2773 18.2501C30.3544 17.4186 30.3544 16.5817 30.2773 15.7501C28.3284 15.1119 26.6838 13.7765 25.659 12.0001C24.6328 10.225 24.298 8.13349 24.719 6.12677C24.0392 5.64331 23.3154 5.2248 22.5573 4.87677C21.03 6.24499 19.0512 7.00112 17.0007 7.0001C14.9495 7.00153 12.9701 6.24537 11.4423 4.87677C10.6842 5.22481 9.96047 5.64331 9.28065 6.12677C9.70159 8.13349 9.36686 10.225 8.34065 12.0001C7.31627 13.7761 5.67229 15.1115 3.72398 15.7501C3.64691 16.5817 3.64691 17.4186 3.72398 18.2501C5.67291 18.8883 7.31753 20.2237 8.34232 22.0001H8.34065ZM17.0007 22.0001C15.6746 22.0001 14.4028 21.4733 13.4651 20.5356C12.5274 19.598 12.0007 18.3262 12.0007 17.0001C12.0007 15.674 12.5274 14.4022 13.4651 13.4646C14.4028 12.5269 15.6746 12.0001 17.0007 12.0001C18.3267 12.0001 19.5985 12.5269 20.5362 13.4646C21.4739 14.4022 22.0007 15.674 22.0007 17.0001C22.0007 18.3262 21.4739 19.598 20.5362 20.5356C19.5985 21.4733 18.3267 22.0001 17.0007 22.0001ZM17.0007 18.6668C17.4427 18.6668 17.8666 18.4912 18.1792 18.1786C18.4917 17.8661 18.6673 17.4421 18.6673 17.0001C18.6673 16.5581 18.4917 16.1342 18.1792 15.8216C17.8666 15.509 17.4427 15.3334 17.0007 15.3334C16.5586 15.3334 16.1347 15.509 15.8221 15.8216C15.5096 16.1342 15.334 16.5581 15.334 17.0001C15.334 17.4421 15.5096 17.8661 15.8221 18.1786C16.1347 18.4912 16.5586 18.6668 17.0007 18.6668Z" fill="#07081B"/>
</svg>
