<svg width="70" height="88" viewBox="0 0 70 88" fill="none" xmlns="http://www.w3.org/2000/svg">
<g clip-path="url(#clip0_493_775)">
<path d="M6.13672 64.8459L35.4115 79.3443L63.5747 64.8459V8.15082H6.13672V64.8459Z" fill="white"/>
<path d="M64.1667 8.36722L5.54297 65.8557L35.9295 80.4984L64.1667 66.4328V8.36722Z" fill="#F2F3F2"/>
<path d="M4.20898 27.0492V66.0721L5.24657 66.5771L34.5214 81.0754L35.4108 81.5082L36.3001 81.0754L64.5374 66.5771L65.5749 66.0721V6.27541H4.20898V27.0492ZM6.13594 64.9902V8.15082H63.648V64.9902L35.4108 79.4885L6.13594 64.9902Z" fill="#DCDEDC"/>
<path d="M34.8922 9.08852C35.1887 9.08852 35.4851 9.08852 35.7816 9.16065L34.8922 10.8197C33.5582 10.7475 32.3724 11.7574 32.2983 13.0557C32.2242 14.3541 33.2617 15.5082 34.5958 15.5803H34.8922C35.4851 15.5803 36.0781 15.3639 36.5227 15.0033L37.4862 16.5902C36.7451 17.0951 35.8557 17.3836 34.8922 17.3836C32.5206 17.4557 30.5195 15.7246 30.4454 13.4164C30.3713 11.1082 32.15 9.16065 34.5217 9.08852H34.8922ZM37.9309 12.6229L39.0426 14.4262L37.9309 16.1574L36.8933 14.4262H34.744L35.8557 12.6229H37.9309ZM36.1522 11.9738C36.1522 11.6852 36.2263 11.3967 36.3745 11.1803C36.5227 10.9639 36.8192 10.7475 37.0415 10.6033L37.1898 10.5311C37.4862 10.3869 37.5603 10.3148 37.5603 10.1705C37.5603 10.0262 37.338 9.88196 37.1898 9.88196C36.8933 9.88196 36.671 10.0262 36.5227 10.3148L36.1522 9.9541C36.2263 9.80983 36.3745 9.66557 36.5227 9.52131C36.7451 9.37705 36.9674 9.37705 37.1898 9.37705C37.4121 9.37705 37.7086 9.44918 37.8568 9.59344C38.005 9.7377 38.1532 9.9541 38.1532 10.1705C38.1532 10.5311 37.9309 10.8197 37.4862 10.9639L37.2639 11.1082C37.0415 11.2525 36.8933 11.3246 36.8192 11.541H38.1532V12.0459L36.1522 11.9738ZM34.8922 20.9902L41.933 17.0951V6.27541H27.7773V17.0229L34.8922 20.9902Z" fill="#FF492C"/>
<path d="M66.9836 46.5246H2.80132L0.429688 51.5738L2.80132 56.623H66.9836L69.2811 51.5738L66.9836 46.5246Z" fill="#5A39A2"/>
<path d="M21.6329 36.8807C21.6329 36.9191 21.6181 36.9504 21.5885 36.9744C21.5638 36.9985 21.5341 37.0105 21.4995 37.0105H17.8457C17.8112 37.0105 17.7939 37.0297 17.7939 37.0682V38.7416C17.7939 38.7801 17.8112 38.7993 17.8457 38.7993H20.2396C20.2742 38.7993 20.3063 38.8114 20.336 38.8354C20.3607 38.8643 20.373 38.8955 20.373 38.9292V39.9751C20.373 40.0135 20.3607 40.0448 20.336 40.0689C20.3063 40.0977 20.2742 40.1121 20.2396 40.1121H17.8457C17.8112 40.1121 17.7939 40.129 17.7939 40.1626V41.9154C17.7939 41.9539 17.8112 41.9731 17.8457 41.9731H21.4995C21.5341 41.9731 21.5638 41.9851 21.5885 42.0092C21.6181 42.0332 21.6329 42.0621 21.6329 42.0957V43.1489C21.6329 43.1873 21.6181 43.2186 21.5885 43.2426C21.5638 43.2667 21.5341 43.2787 21.4995 43.2787H16.3561C16.3215 43.2787 16.2918 43.2667 16.2671 43.2426C16.2375 43.2186 16.2227 43.1873 16.2227 43.1489V35.8348C16.2227 35.8011 16.2375 35.7698 16.2671 35.741C16.2918 35.7169 16.3215 35.7049 16.3561 35.7049H21.4995C21.5341 35.7049 21.5638 35.7169 21.5885 35.741C21.6181 35.7698 21.6329 35.8011 21.6329 35.8348V36.8807ZM24.9013 43.3508C24.4023 43.3508 23.9675 43.2835 23.5969 43.1489C23.2264 43.0142 22.9398 42.8243 22.7372 42.579C22.5347 42.3338 22.4334 42.0549 22.4334 41.7423V41.6341C22.4334 41.6004 22.4457 41.5692 22.4704 41.5403C22.4951 41.5163 22.5248 41.5043 22.5594 41.5043H23.7971C23.8366 41.5043 23.8687 41.5163 23.8934 41.5403C23.9181 41.5692 23.9305 41.6004 23.9305 41.6341V41.6413C23.9305 41.8048 24.0219 41.9419 24.2047 42.0525C24.3825 42.1631 24.6098 42.2184 24.8865 42.2184C25.1385 42.2184 25.3436 42.1703 25.5017 42.0741C25.6548 41.9731 25.7314 41.8529 25.7314 41.7134C25.7314 41.5836 25.6647 41.485 25.5313 41.4177C25.3979 41.3552 25.178 41.2879 24.8717 41.2157C24.5258 41.1292 24.2516 41.045 24.049 40.9633C23.5797 40.8046 23.2041 40.6098 22.9225 40.379C22.6409 40.1482 22.5001 39.8164 22.5001 39.3836C22.5001 38.8498 22.7125 38.4267 23.1374 38.1141C23.5624 37.8015 24.1256 37.6452 24.8272 37.6452C25.3016 37.6452 25.7166 37.7174 26.0723 37.8616C26.433 38.0107 26.7097 38.2199 26.9024 38.4892C27.1 38.7537 27.1989 39.0566 27.1989 39.398C27.1989 39.4317 27.1865 39.4605 27.1618 39.4846C27.1322 39.5086 27.1 39.5207 27.0655 39.5207H25.8722C25.8376 39.5207 25.808 39.5086 25.7833 39.4846C25.7536 39.4605 25.7388 39.4317 25.7388 39.398C25.7388 39.2393 25.6573 39.1047 25.4943 38.9941C25.3263 38.8835 25.1039 38.8282 24.8272 38.8282C24.5851 38.8282 24.385 38.8739 24.2269 38.9652C24.0737 39.0518 23.9972 39.1696 23.9972 39.3187C23.9972 39.4629 24.0737 39.5711 24.2269 39.6433C24.3801 39.7154 24.6321 39.7923 24.9829 39.8741L25.2645 39.939C25.3683 39.9631 25.4794 39.9943 25.598 40.0328C26.1267 40.1867 26.5417 40.3814 26.8431 40.617C27.1495 40.8575 27.3026 41.2037 27.3026 41.6557C27.3026 42.1895 27.0852 42.6055 26.6504 42.9036C26.2156 43.2017 25.6326 43.3508 24.9013 43.3508ZM31.4678 38.8138C31.4678 38.8474 31.4554 38.8763 31.4307 38.9003C31.406 38.9292 31.3739 38.9436 31.3344 38.9436H30.2672C30.2276 38.9436 30.2079 38.9604 30.2079 38.9941V41.2879C30.2079 41.5235 30.2597 41.7014 30.3635 41.8216C30.4623 41.937 30.6229 41.9948 30.8452 41.9948H31.2084C31.2479 41.9948 31.28 42.0068 31.3047 42.0308C31.3295 42.0549 31.3418 42.0861 31.3418 42.1246V43.1489C31.3418 43.2306 31.2973 43.2763 31.2084 43.2859C30.8971 43.3003 30.6748 43.3075 30.5414 43.3075C29.9287 43.3075 29.4717 43.209 29.1703 43.0118C28.8639 42.8146 28.7058 42.442 28.696 41.8938V38.9941C28.696 38.9604 28.6787 38.9436 28.6441 38.9436H28.0067C27.9721 38.9436 27.9425 38.9292 27.9178 38.9003C27.8881 38.8763 27.8733 38.8474 27.8733 38.8138V37.8472C27.8733 37.8135 27.8881 37.7823 27.9178 37.7534C27.9425 37.7294 27.9721 37.7174 28.0067 37.7174H28.6441C28.6787 37.7174 28.696 37.6981 28.696 37.6597V36.3757C28.696 36.3421 28.7108 36.3108 28.7404 36.282C28.7651 36.2579 28.7948 36.2459 28.8294 36.2459H30.0745C30.114 36.2459 30.1461 36.2579 30.1708 36.282C30.1955 36.3108 30.2079 36.3421 30.2079 36.3757V37.6597C30.2079 37.6981 30.2276 37.7174 30.2672 37.7174H31.3344C31.3739 37.7174 31.406 37.7294 31.4307 37.7534C31.4554 37.7823 31.4678 37.8135 31.4678 37.8472V38.8138ZM33.2762 43.322C33.0242 43.322 32.8167 43.2402 32.6536 43.0767C32.4856 42.918 32.4016 42.7137 32.4016 42.4636C32.4016 42.2136 32.4831 42.0092 32.6462 41.8505C32.8092 41.6918 33.0192 41.6125 33.2762 41.6125C33.538 41.6125 33.7505 41.6918 33.9135 41.8505C34.0766 42.0092 34.1581 42.2136 34.1581 42.4636C34.1581 42.7137 34.0741 42.918 33.9061 43.0767C33.7381 43.2402 33.5282 43.322 33.2762 43.322ZM42.0067 43.2787C41.9326 43.2787 41.8807 43.245 41.8511 43.1777L40.4578 40.1843C40.4479 40.1554 40.4256 40.141 40.3911 40.141H39.3609C39.3214 40.141 39.3016 40.1602 39.3016 40.1987V43.1489C39.3016 43.1873 39.2892 43.2186 39.2645 43.2426C39.2398 43.2667 39.2102 43.2787 39.1756 43.2787H37.8712C37.8317 43.2787 37.7996 43.2667 37.7749 43.2426C37.7501 43.2186 37.7378 43.1873 37.7378 43.1489V35.8348C37.7378 35.8011 37.7501 35.7698 37.7749 35.741C37.7996 35.7169 37.8317 35.7049 37.8712 35.7049H41.0507C41.525 35.7049 41.9425 35.7987 42.3032 35.9862C42.6589 36.1738 42.9356 36.4407 43.1333 36.7869C43.3309 37.1331 43.4297 37.5346 43.4297 37.9915C43.4297 38.482 43.3037 38.9003 43.0517 39.2466C42.7997 39.5976 42.4489 39.8452 41.9993 39.9895C41.9598 40.0039 41.9474 40.028 41.9623 40.0616L43.4742 43.1272C43.489 43.1561 43.4964 43.1777 43.4964 43.1921C43.4964 43.2498 43.4569 43.2787 43.3778 43.2787H42.0067ZM39.3609 37.0105C39.3214 37.0105 39.3016 37.0297 39.3016 37.0682V38.922C39.3016 38.9556 39.3214 38.9725 39.3609 38.9725H40.8135C41.1297 38.9725 41.3842 38.8835 41.5769 38.7056C41.7745 38.5228 41.8733 38.2872 41.8733 37.9987C41.8733 37.7102 41.7745 37.4745 41.5769 37.2918C41.3842 37.1043 41.1297 37.0105 40.8135 37.0105H39.3609ZM47.3281 43.3941C46.75 43.3941 46.2411 43.2787 45.8013 43.0479C45.3616 42.8219 45.0207 42.4997 44.7786 42.0813C44.5315 41.6678 44.408 41.1893 44.408 40.6459V38.3377C44.408 37.8039 44.5315 37.3303 44.7786 36.9167C45.0207 36.508 45.3616 36.1882 45.8013 35.9574C46.2411 35.7314 46.75 35.6184 47.3281 35.6184C47.916 35.6184 48.4299 35.7314 48.8696 35.9574C49.3094 36.1882 49.6528 36.508 49.8998 36.9167C50.1419 37.3303 50.263 37.8039 50.263 38.3377V40.6459C50.263 41.1893 50.1419 41.6702 49.8998 42.0885C49.6528 42.5069 49.3094 42.8291 48.8696 43.0551C48.4299 43.2811 47.916 43.3941 47.3281 43.3941ZM47.3281 42.0885C47.7382 42.0885 48.0692 41.9635 48.3212 41.7134C48.5732 41.4586 48.6992 41.122 48.6992 40.7036V38.3233C48.6992 37.9049 48.5756 37.5683 48.3286 37.3134C48.0816 37.0586 47.7481 36.9311 47.3281 36.9311C46.9229 36.9311 46.5968 37.0586 46.3498 37.3134C46.0978 37.5683 45.9718 37.9049 45.9718 38.3233V40.7036C45.9718 41.122 46.0978 41.4586 46.3498 41.7134C46.5968 41.9635 46.9229 42.0885 47.3281 42.0885ZM51.597 43.2787C51.5624 43.2787 51.5328 43.2667 51.5081 43.2426C51.4784 43.2186 51.4636 43.1873 51.4636 43.1489V35.8348C51.4636 35.8011 51.4784 35.7698 51.5081 35.741C51.5328 35.7169 51.5624 35.7049 51.597 35.7049H52.9014C52.936 35.7049 52.9681 35.7169 52.9978 35.741C53.0225 35.7698 53.0348 35.8011 53.0348 35.8348V43.1489C53.0348 43.1873 53.0225 43.2186 52.9978 43.2426C52.9681 43.2667 52.936 43.2787 52.9014 43.2787H51.597ZM28.4217 28.5134C28.3773 28.5327 28.3773 28.5543 28.4217 28.5784C29.1233 28.9294 29.4741 29.5161 29.4741 30.3384C29.4741 31.0404 29.2296 31.5694 28.7404 31.9252C28.2513 32.2811 27.6114 32.459 26.8209 32.459H23.9379C23.9033 32.459 23.8736 32.447 23.8489 32.4229C23.8193 32.3989 23.8045 32.3676 23.8045 32.3292V25.0151C23.8045 24.9814 23.8193 24.9502 23.8489 24.9213C23.8736 24.8973 23.9033 24.8852 23.9379 24.8852H26.7319C28.486 24.8852 29.363 25.5777 29.363 26.9626C29.363 27.6839 29.0492 28.2009 28.4217 28.5134ZM25.4275 26.1908C25.393 26.1908 25.3757 26.21 25.3757 26.2485V27.9364C25.3757 27.9749 25.393 27.9941 25.4275 27.9941H26.7319C27.0778 27.9941 27.3496 27.9147 27.5472 27.7561C27.7349 27.5974 27.8288 27.381 27.8288 27.1069C27.8288 26.8232 27.7349 26.5996 27.5472 26.4361C27.3496 26.2726 27.0778 26.1908 26.7319 26.1908H25.4275ZM26.8209 31.139C27.1618 31.139 27.4286 31.0549 27.6213 30.8866C27.814 30.7182 27.9103 30.485 27.9103 30.1869C27.9103 29.8935 27.814 29.6603 27.6213 29.4872C27.4286 29.3189 27.1569 29.2347 26.8061 29.2347H25.4275C25.393 29.2347 25.3757 29.254 25.3757 29.2925V31.0813C25.3757 31.1198 25.393 31.139 25.4275 31.139H26.8209ZM35.6552 29.1049C35.6997 29.379 35.7145 29.6844 35.6997 30.021C35.6947 30.1123 35.6478 30.158 35.5589 30.158H32.12C32.0755 30.158 32.0607 30.1749 32.0755 30.2085C32.1002 30.3528 32.1422 30.497 32.2015 30.6413C32.3942 31.0452 32.787 31.2472 33.3799 31.2472C33.8542 31.2424 34.2273 31.0549 34.499 30.6846C34.5287 30.6413 34.5633 30.6197 34.6028 30.6197C34.6226 30.6197 34.6473 30.6341 34.6769 30.6629L35.4773 31.4275C35.5169 31.466 35.5366 31.4997 35.5366 31.5285C35.5366 31.5429 35.5218 31.5718 35.4922 31.6151C35.2451 31.9132 34.9289 32.1416 34.5435 32.3003C34.1631 32.4638 33.7406 32.5456 33.2762 32.5456C32.6388 32.5456 32.1002 32.4061 31.6605 32.1272C31.2208 31.8435 30.9045 31.4492 30.7118 30.9443C30.5537 30.5836 30.4747 30.1123 30.4747 29.5305C30.4747 29.1314 30.5315 28.7803 30.6451 28.4774C30.8131 27.9676 31.1121 27.5613 31.5419 27.2584C31.9668 26.9554 32.4708 26.8039 33.0538 26.8039C33.795 26.8039 34.3903 27.0131 34.84 27.4315C35.2896 27.8498 35.5613 28.4076 35.6552 29.1049ZM33.0686 28.1239C32.5993 28.1239 32.2905 28.3355 32.1422 28.7587C32.1126 28.8549 32.0879 28.9703 32.0681 29.1049C32.0681 29.1386 32.0854 29.1554 32.12 29.1554H34.0469C34.0914 29.1554 34.1062 29.1386 34.0914 29.1049C34.0519 28.8981 34.0321 28.7972 34.0321 28.802C33.9679 28.5856 33.8518 28.4173 33.6838 28.297C33.5158 28.1816 33.3107 28.1239 33.0686 28.1239ZM38.8717 32.5311C38.3727 32.5311 37.9379 32.4638 37.5673 32.3292C37.1968 32.1945 36.9102 32.0046 36.7076 31.7593C36.505 31.5141 36.4038 31.2352 36.4038 30.9226V30.8144C36.4038 30.7808 36.4161 30.7495 36.4408 30.7207C36.4655 30.6966 36.4976 30.6846 36.5372 30.6846H37.7674C37.807 30.6846 37.8391 30.6966 37.8638 30.7207C37.8885 30.7495 37.9008 30.7808 37.9008 30.8144V30.8216C37.9008 30.9851 37.9923 31.1222 38.1751 31.2328C38.3579 31.3434 38.5852 31.3987 38.8569 31.3987C39.1089 31.3987 39.3139 31.3506 39.472 31.2544C39.6252 31.1534 39.7018 31.0332 39.7018 30.8938C39.7018 30.7639 39.6351 30.6653 39.5017 30.598C39.3683 30.5355 39.1509 30.4682 38.8495 30.3961C38.4987 30.3095 38.2245 30.2254 38.0268 30.1436C37.5525 29.9849 37.1745 29.7902 36.8929 29.5593C36.6113 29.3285 36.4705 28.9967 36.4705 28.5639C36.4705 28.0302 36.6829 27.607 37.1078 27.2944C37.5327 26.9819 38.0985 26.8256 38.805 26.8256C39.2794 26.8256 39.6944 26.8977 40.0501 27.042C40.4059 27.191 40.6826 27.4002 40.8802 27.6695C41.0729 27.934 41.1692 28.2369 41.1692 28.5784C41.1692 28.612 41.1569 28.6409 41.1322 28.6649C41.1075 28.689 41.0754 28.701 41.0358 28.701H39.85C39.8105 28.701 39.7784 28.689 39.7537 28.6649C39.729 28.6409 39.7166 28.612 39.7166 28.5784C39.7166 28.4197 39.6326 28.285 39.4646 28.1744C39.2966 28.0638 39.0768 28.0085 38.805 28.0085C38.558 28.0085 38.3579 28.0542 38.2047 28.1456C38.0466 28.2321 37.9675 28.3499 37.9675 28.499C37.9675 28.6433 38.0441 28.7515 38.1973 28.8236C38.3505 28.8957 38.6049 28.9727 38.9607 29.0544C39.0397 29.0737 39.1311 29.0953 39.2349 29.1193C39.3386 29.1434 39.4498 29.1746 39.5684 29.2131C40.0971 29.367 40.5121 29.5617 40.8135 29.7974C41.1198 30.0378 41.273 30.384 41.273 30.8361C41.273 31.3698 41.0556 31.7858 40.6208 32.0839C40.186 32.3821 39.603 32.5311 38.8717 32.5311ZM45.4382 27.9941C45.4382 28.0278 45.4258 28.0566 45.4011 28.0806C45.3764 28.1095 45.3443 28.1239 45.3048 28.1239H44.2375C44.203 28.1239 44.1857 28.1408 44.1857 28.1744V30.4682C44.1857 30.7038 44.2351 30.8817 44.3339 31.002C44.4327 31.1174 44.5958 31.1751 44.823 31.1751H45.1862C45.2208 31.1751 45.2529 31.1871 45.2825 31.2111C45.3072 31.2352 45.3196 31.2664 45.3196 31.3049V32.3292C45.3196 32.4109 45.2751 32.4566 45.1862 32.4662C44.8749 32.4806 44.6526 32.4879 44.5192 32.4879C43.9016 32.4879 43.4421 32.3893 43.1407 32.1921C42.8343 31.995 42.6787 31.6223 42.6738 31.0741V28.1744C42.6738 28.1408 42.654 28.1239 42.6145 28.1239H41.9845C41.945 28.1239 41.9129 28.1095 41.8881 28.0806C41.8634 28.0566 41.8511 28.0278 41.8511 27.9941V27.0275C41.8511 26.9939 41.8634 26.9626 41.8881 26.9338C41.9129 26.9097 41.945 26.8977 41.9845 26.8977H42.6145C42.654 26.8977 42.6738 26.8785 42.6738 26.84V25.5561C42.6738 25.5224 42.6861 25.4911 42.7108 25.4623C42.7355 25.4382 42.7676 25.4262 42.8072 25.4262H44.0523C44.0868 25.4262 44.119 25.4382 44.1486 25.4623C44.1733 25.4911 44.1857 25.5224 44.1857 25.5561V26.84C44.1857 26.8785 44.203 26.8977 44.2375 26.8977H45.3048C45.3443 26.8977 45.3764 26.9097 45.4011 26.9338C45.4258 26.9626 45.4382 26.9939 45.4382 27.0275V27.9941Z" fill="#252530"/>
<path d="M23.2569 54.3869C23.2026 54.3869 23.168 54.3628 23.1532 54.3148L21.8043 49.4315L21.7969 49.4026C21.7969 49.3593 21.8241 49.3377 21.8784 49.3377H22.6047C22.6591 49.3377 22.6936 49.3618 22.7085 49.4098L23.5534 52.699C23.5583 52.7134 23.5657 52.7207 23.5756 52.7207C23.5855 52.7207 23.5929 52.7134 23.5978 52.699L24.4057 49.4098C24.4205 49.3618 24.4526 49.3377 24.502 49.3377H25.2135C25.2679 49.3377 25.3024 49.3618 25.3173 49.4098L26.177 52.7062C26.1819 52.7207 26.1893 52.7279 26.1992 52.7279C26.2091 52.7279 26.2165 52.7207 26.2215 52.7062L27.0515 49.4098C27.0663 49.3618 27.1009 49.3377 27.1553 49.3377H27.8445C27.9137 49.3377 27.9409 49.369 27.9261 49.4315L26.6439 54.3148C26.6291 54.3628 26.5945 54.3869 26.5401 54.3869H25.8509C25.7965 54.3869 25.7619 54.3628 25.7471 54.3148L24.88 50.8741C24.8751 50.8597 24.8676 50.8501 24.8578 50.8452C24.8479 50.8452 24.8405 50.8549 24.8355 50.8741L24.0055 54.3148C23.9906 54.3628 23.9585 54.3869 23.9091 54.3869H23.2569ZM28.7487 54.3869C28.724 54.3869 28.7018 54.3773 28.682 54.358C28.6672 54.3436 28.6598 54.3244 28.6598 54.3003V49.4243C28.6598 49.4002 28.6672 49.381 28.682 49.3666C28.7018 49.3473 28.724 49.3377 28.7487 49.3377H29.4306C29.4553 49.3377 29.475 49.3473 29.4899 49.3666C29.5096 49.381 29.5195 49.4002 29.5195 49.4243V54.3003C29.5195 54.3244 29.5096 54.3436 29.4899 54.358C29.475 54.3773 29.4553 54.3869 29.4306 54.3869H28.7487ZM33.618 49.4243C33.618 49.4002 33.6254 49.381 33.6402 49.3666C33.66 49.3473 33.6822 49.3377 33.7069 49.3377H34.3888C34.4135 49.3377 34.4332 49.3473 34.448 49.3666C34.4678 49.381 34.4777 49.4002 34.4777 49.4243V54.3003C34.4777 54.3244 34.4678 54.3436 34.448 54.358C34.4332 54.3773 34.4135 54.3869 34.3888 54.3869H33.7291C33.6797 54.3869 33.6451 54.3677 33.6254 54.3292L31.4909 50.9246C31.481 50.9102 31.4712 50.903 31.4613 50.903C31.4514 50.9078 31.4465 50.9198 31.4465 50.939L31.4613 54.3003C31.4613 54.3244 31.4514 54.3436 31.4316 54.358C31.4168 54.3773 31.397 54.3869 31.3723 54.3869H30.6905C30.6658 54.3869 30.6436 54.3773 30.6238 54.358C30.609 54.3436 30.6016 54.3244 30.6016 54.3003V49.4243C30.6016 49.4002 30.609 49.381 30.6238 49.3666C30.6436 49.3473 30.6658 49.3377 30.6905 49.3377H31.3501C31.3995 49.3377 31.4341 49.3569 31.4539 49.3954L33.5809 52.8C33.5908 52.8144 33.6007 52.8192 33.6106 52.8144C33.6204 52.8144 33.6254 52.8048 33.6254 52.7856L33.618 49.4243ZM38.969 49.3377C38.9937 49.3377 39.0134 49.3473 39.0283 49.3666C39.048 49.381 39.0579 49.4002 39.0579 49.4243V49.9797C39.0579 50.0037 39.048 50.023 39.0283 50.0374C39.0134 50.0566 38.9937 50.0662 38.969 50.0662H37.6053C37.5806 50.0662 37.5682 50.0783 37.5682 50.1023V54.3003C37.5682 54.3244 37.5608 54.3436 37.546 54.358C37.5262 54.3773 37.504 54.3869 37.4793 54.3869H36.7974C36.7727 54.3869 36.753 54.3773 36.7382 54.358C36.7184 54.3436 36.7085 54.3244 36.7085 54.3003V50.1023C36.7085 50.0783 36.6962 50.0662 36.6714 50.0662H35.3596C35.3349 50.0662 35.3127 50.0566 35.2929 50.0374C35.2781 50.023 35.2707 50.0037 35.2707 49.9797V49.4243C35.2707 49.4002 35.2781 49.381 35.2929 49.3666C35.3127 49.3473 35.3349 49.3377 35.3596 49.3377H38.969ZM43.3639 49.9725C43.3639 49.9965 43.354 50.0157 43.3343 50.0302C43.3194 50.0494 43.2997 50.059 43.275 50.059H40.7477C40.723 50.059 40.7106 50.071 40.7106 50.0951V51.4439C40.7106 51.468 40.723 51.48 40.7477 51.48H42.4449C42.4696 51.48 42.4918 51.4872 42.5116 51.5016C42.5264 51.5209 42.5338 51.5425 42.5338 51.5666V52.1148C42.5338 52.1388 42.5264 52.1604 42.5116 52.1797C42.4918 52.1941 42.4696 52.2013 42.4449 52.2013H40.7477C40.723 52.2013 40.7106 52.2133 40.7106 52.2374V53.6295C40.7106 53.6536 40.723 53.6656 40.7477 53.6656H43.275C43.2997 53.6656 43.3194 53.6752 43.3343 53.6944C43.354 53.7089 43.3639 53.7281 43.3639 53.7521V54.3003C43.3639 54.3244 43.354 54.3436 43.3343 54.358C43.3194 54.3773 43.2997 54.3869 43.275 54.3869H39.9399C39.9151 54.3869 39.8929 54.3773 39.8732 54.358C39.8583 54.3436 39.8509 54.3244 39.8509 54.3003V49.4243C39.8509 49.4002 39.8583 49.381 39.8732 49.3666C39.8929 49.3473 39.9151 49.3377 39.9399 49.3377H43.275C43.2997 49.3377 43.3194 49.3473 43.3343 49.3666C43.354 49.381 43.3639 49.4002 43.3639 49.4243V49.9725ZM47.1511 54.3869C47.1017 54.3869 47.0671 54.3652 47.0473 54.322L46.069 52.2446C46.0592 52.2254 46.0443 52.2157 46.0246 52.2157H45.1352C45.1105 52.2157 45.0982 52.2278 45.0982 52.2518V54.3003C45.0982 54.3244 45.0883 54.3436 45.0685 54.358C45.0537 54.3773 45.0339 54.3869 45.0092 54.3869H44.3274C44.3027 54.3869 44.2804 54.3773 44.2607 54.358C44.2458 54.3436 44.2384 54.3244 44.2384 54.3003V49.4243C44.2384 49.4002 44.2458 49.381 44.2607 49.3666C44.2804 49.3473 44.3027 49.3377 44.3274 49.3377H46.3655C46.6669 49.3377 46.9337 49.3978 47.1659 49.518C47.3981 49.6431 47.5785 49.8162 47.7069 50.0374C47.8354 50.2634 47.8996 50.5207 47.8996 50.8092C47.8996 51.141 47.8107 51.4223 47.6328 51.6531C47.4599 51.8887 47.2178 52.0522 46.9065 52.1436C46.8966 52.1436 46.8892 52.1484 46.8843 52.158C46.8793 52.1676 46.8793 52.1773 46.8843 52.1869L47.9293 54.2859C47.9392 54.3051 47.9441 54.3196 47.9441 54.3292C47.9441 54.3677 47.9169 54.3869 47.8626 54.3869H47.1511ZM45.1352 50.059C45.1105 50.059 45.0982 50.071 45.0982 50.0951V51.5305C45.0982 51.5545 45.1105 51.5666 45.1352 51.5666H46.2469C46.4841 51.5666 46.6768 51.4968 46.825 51.3574C46.9683 51.2227 47.0399 51.0424 47.0399 50.8164C47.0399 50.5904 46.9683 50.4077 46.825 50.2682C46.6768 50.1287 46.4841 50.059 46.2469 50.059H45.1352Z" fill="white"/>
<path d="M25.1615 67.4138C25.1467 67.4282 25.1418 67.4426 25.1467 67.457C25.1566 67.4715 25.1714 67.4787 25.1912 67.4787H28.1038C28.1384 67.4787 28.1681 67.4907 28.1928 67.5148C28.2224 67.5388 28.2372 67.5677 28.2372 67.6013V68.6184C28.2372 68.652 28.2224 68.6809 28.1928 68.7049C28.1681 68.729 28.1384 68.741 28.1038 68.741H23.2716C23.2321 68.741 23.2 68.729 23.1753 68.7049C23.1506 68.6809 23.1382 68.652 23.1382 68.6184V67.6518C23.1382 67.5893 23.1605 67.5364 23.2049 67.4931C23.5557 67.1613 23.9139 66.7983 24.2796 66.4039C24.6452 66.0096 24.8749 65.7644 24.9688 65.6682C25.1665 65.4374 25.369 65.2162 25.5766 65.0046C26.2288 64.3025 26.5549 63.7808 26.5549 63.4393C26.5549 63.1941 26.4659 62.9921 26.288 62.8334C26.1102 62.6796 25.8779 62.6026 25.5914 62.6026C25.3048 62.6026 25.0726 62.6796 24.8947 62.8334C24.7119 62.9921 24.6205 63.2013 24.6205 63.461V63.7207C24.6205 63.7543 24.6081 63.7832 24.5834 63.8072C24.5587 63.8313 24.5291 63.8433 24.4945 63.8433H23.2272C23.1926 63.8433 23.1629 63.8313 23.1382 63.8072C23.1086 63.7832 23.0938 63.7543 23.0938 63.7207V63.2302C23.1185 62.8551 23.242 62.5209 23.4643 62.2275C23.6867 61.939 23.9806 61.7178 24.3463 61.5639C24.7168 61.4101 25.1319 61.3331 25.5914 61.3331C26.1003 61.3331 26.5425 61.4269 26.918 61.6144C27.2935 61.7972 27.5826 62.0448 27.7851 62.3574C27.9927 62.6748 28.0964 63.0234 28.0964 63.4033C28.0964 63.6966 28.0198 63.9972 27.8667 64.3049C27.7184 64.6127 27.4936 64.9445 27.1922 65.3003C26.9699 65.5696 26.7303 65.8389 26.4733 66.1082C26.2164 66.3727 25.8335 66.755 25.3246 67.2551L25.1615 67.4138ZM31.728 68.8564C30.9374 68.8564 30.3149 68.6424 29.8603 68.2144C29.4008 67.7865 29.1711 67.2022 29.1711 66.4616V63.699C29.1711 62.9729 29.4008 62.3983 29.8603 61.9751C30.3149 61.5471 30.9374 61.3331 31.728 61.3331C32.5136 61.3331 33.1386 61.5471 33.603 61.9751C34.0625 62.3983 34.2923 62.9729 34.2923 63.699V66.4616C34.2923 67.2022 34.0625 67.7865 33.603 68.2144C33.1386 68.6424 32.5136 68.8564 31.728 68.8564ZM31.728 67.5941C32.0491 67.5941 32.3036 67.4979 32.4913 67.3056C32.684 67.1132 32.7804 66.856 32.7804 66.5338V63.6557C32.7804 63.3384 32.684 63.0835 32.4913 62.8912C32.3036 62.6988 32.0491 62.6026 31.728 62.6026C31.4118 62.6026 31.1598 62.6988 30.972 62.8912C30.7793 63.0835 30.683 63.3384 30.683 63.6557V66.5338C30.683 66.856 30.7793 67.1132 30.972 67.3056C31.1598 67.4979 31.4118 67.5941 31.728 67.5941ZM37.3013 67.4138C37.2865 67.4282 37.284 67.4426 37.2939 67.457C37.2988 67.4715 37.3137 67.4787 37.3384 67.4787H40.251C40.2856 67.4787 40.3153 67.4907 40.34 67.5148C40.3647 67.5388 40.377 67.5677 40.377 67.6013V68.6184C40.377 68.652 40.3647 68.6809 40.34 68.7049C40.3153 68.729 40.2856 68.741 40.251 68.741H35.4114C35.3768 68.741 35.3472 68.729 35.3225 68.7049C35.2978 68.6809 35.2854 68.652 35.2854 68.6184V67.6518C35.2854 67.5893 35.3052 67.5364 35.3447 67.4931C35.7004 67.1613 36.0587 66.7983 36.4194 66.4039C36.785 66.0096 37.0147 65.7644 37.1086 65.6682C37.3112 65.4374 37.5162 65.2162 37.7238 65.0046C38.3759 64.3025 38.702 63.7808 38.702 63.4393C38.702 63.1941 38.6131 62.9921 38.4352 62.8334C38.2524 62.6796 38.0177 62.6026 37.7312 62.6026C37.4446 62.6026 37.2124 62.6796 37.0345 62.8334C36.8566 62.9921 36.7677 63.2013 36.7677 63.461V63.7207C36.7677 63.7543 36.7553 63.7832 36.7306 63.8072C36.7059 63.8313 36.6738 63.8433 36.6343 63.8433H35.3669C35.3324 63.8433 35.3027 63.8313 35.278 63.8072C35.2533 63.7832 35.2409 63.7543 35.2409 63.7207V63.2302C35.2607 62.8551 35.3818 62.5209 35.6041 62.2275C35.8264 61.939 36.1229 61.7178 36.4935 61.5639C36.864 61.4101 37.2766 61.3331 37.7312 61.3331C38.2401 61.3331 38.6823 61.4269 39.0578 61.6144C39.4382 61.7972 39.7298 62.0448 39.9323 62.3574C40.1349 62.6748 40.2362 63.0234 40.2362 63.4033C40.2362 63.6966 40.1621 63.9972 40.0139 64.3049C39.8607 64.6127 39.6334 64.9445 39.332 65.3003C39.1097 65.5696 38.87 65.8389 38.6131 66.1082C38.3562 66.3727 37.9733 66.755 37.4644 67.2551L37.3013 67.4138ZM43.3193 67.4138C43.3045 67.4282 43.302 67.4426 43.3119 67.457C43.3168 67.4715 43.3317 67.4787 43.3564 67.4787H46.269C46.3036 67.4787 46.3333 67.4907 46.358 67.5148C46.3827 67.5388 46.395 67.5677 46.395 67.6013V68.6184C46.395 68.652 46.3827 68.6809 46.358 68.7049C46.3333 68.729 46.3036 68.741 46.269 68.741H41.4294C41.3948 68.741 41.3652 68.729 41.3405 68.7049C41.3158 68.6809 41.3034 68.652 41.3034 68.6184V67.6518C41.3034 67.5893 41.3232 67.5364 41.3627 67.4931C41.7185 67.1613 42.0767 66.7983 42.4374 66.4039C42.803 66.0096 43.0327 65.7644 43.1266 65.6682C43.3292 65.4374 43.5342 65.2162 43.7418 65.0046C44.394 64.3025 44.7201 63.7808 44.7201 63.4393C44.7201 63.1941 44.6311 62.9921 44.4533 62.8334C44.2704 62.6796 44.0357 62.6026 43.7492 62.6026C43.4626 62.6026 43.2304 62.6796 43.0525 62.8334C42.8746 62.9921 42.7857 63.2013 42.7857 63.461V63.7207C42.7857 63.7543 42.7733 63.7832 42.7486 63.8072C42.7239 63.8313 42.6918 63.8433 42.6523 63.8433H41.385C41.3504 63.8433 41.3207 63.8313 41.296 63.8072C41.2713 63.7832 41.259 63.7543 41.259 63.7207V63.2302C41.2787 62.8551 41.3998 62.5209 41.6221 62.2275C41.8445 61.939 42.1409 61.7178 42.5115 61.5639C42.882 61.4101 43.2946 61.3331 43.7492 61.3331C44.2581 61.3331 44.7003 61.4269 45.0758 61.6144C45.4563 61.7972 45.7478 62.0448 45.9503 62.3574C46.1529 62.6748 46.2542 63.0234 46.2542 63.4033C46.2542 63.6966 46.1801 63.9972 46.0319 64.3049C45.8787 64.6127 45.6514 64.9445 45.35 65.3003C45.1277 65.5696 44.8881 65.8389 44.6311 66.1082C44.3742 66.3727 43.9913 66.755 43.4824 67.2551L43.3193 67.4138Z" fill="#252530"/>
</g>
<defs>
<clipPath id="clip0_493_775">
<rect width="69.6667" height="88" fill="white" transform="translate(0.132812)"/>
</clipPath>
</defs>
</svg>
