<svg width="30" height="30" viewBox="0 0 30 30" fill="none" xmlns="http://www.w3.org/2000/svg">
<path d="M6.66667 26.6667V16.6667H23.3333V26.6667H26.6667V8.04667L21.9533 3.33333H3.33333V26.6667H6.66667ZM1.66667 0H23.3333L30 6.66667V28.3333C30 28.7754 29.8244 29.1993 29.5118 29.5118C29.1993 29.8244 28.7754 30 28.3333 30H1.66667C1.22464 30 0.800716 29.8244 0.488155 29.5118C0.175595 29.1993 0 28.7754 0 28.3333V1.66667C0 1.22464 0.175595 0.800716 0.488155 0.488155C0.800716 0.175595 1.22464 0 1.66667 0ZM10 20V26.6667H20V20H10Z" fill="#07081B"/>
</svg>
