<svg width="40" height="40" viewBox="0 0 40 40" fill="none" xmlns="http://www.w3.org/2000/svg">
<path d="M26.944 27.9823H13.0561C12.2485 27.9823 11.5936 27.3274 11.5936 26.5198V20.9935H1.47513C0.979115 20.9935 0.517006 20.7422 0.247552 20.3259C-0.348072 19.4059 -0.354791 20.0373 5.99075 5.89195C6.22654 5.36633 6.74904 5.02812 7.32513 5.02812H32.675C33.2511 5.02812 33.7736 5.36633 34.0093 5.89195C40.3539 20.035 40.348 19.4063 39.7525 20.3259C39.4829 20.7422 39.0208 20.9935 38.5248 20.9935H28.4065V26.5198C28.4065 27.3275 27.7516 27.9823 26.944 27.9823Z" fill="#FDBF00"/>
<path d="M34.0092 5.89187C33.7734 5.36625 33.2511 5.02805 32.6749 5.02805H20V27.9823H26.9439C27.7516 27.9823 28.4064 27.3275 28.4064 26.5198V20.9936H38.5248C39.0208 20.9936 39.4829 20.7423 39.7525 20.3259C40.3479 19.4062 40.3537 20.035 34.0092 5.89187Z" fill="#FF9800"/>
<path d="M38.524 34.972H1.47422C0.666563 34.972 0.0117188 34.3171 0.0117188 33.5095V19.531C0.0117188 18.7234 0.666563 18.0685 1.47422 18.0685H13.0552C13.8629 18.0685 14.5177 18.7234 14.5177 19.531V25.0573H25.4806V19.531C25.4806 18.7234 26.1354 18.0685 26.9431 18.0685H38.5241C39.3317 18.0685 39.9866 18.7234 39.9866 19.531V33.5095C39.9865 34.3173 39.3317 34.972 38.524 34.972Z" fill="#FCE277"/>
<path d="M38.5248 18.0685H26.9439C26.1362 18.0685 25.4814 18.7234 25.4814 19.531V25.0573H20V34.972H38.5248C39.3325 34.972 39.9873 34.3171 39.9873 33.5095V19.531C39.9873 18.7233 39.3326 18.0685 38.5248 18.0685Z" fill="#FDDC55"/>
</svg>
