<svg width="40" height="34" viewBox="0 0 40 34" fill="none" xmlns="http://www.w3.org/2000/svg">
<path d="M13.0156 0H26.9219L40 22.1H26.0625L13.0156 0Z" fill="url(#paint0_linear_493_639)"/>
<path d="M40 22.1001L33.0313 33.9082H6.9375L13.9219 22.1001H40Z" fill="url(#paint1_linear_493_639)"/>
<path d="M6.9375 33.9081L0 22.1L13.0156 0L20 11.8387L6.9375 33.9081Z" fill="url(#paint2_linear_493_639)"/>
<path opacity="0.1" d="M6.9375 33.9082L19.9219 22.1001H13.9219L6.9375 33.9082Z" fill="#07081B"/>
<path opacity="0.1" d="M40 22.0999H26.0781L23.0156 16.9233L40 22.0999Z" fill="#07081B"/>
<path opacity="0.1" d="M13.0156 0L17.0312 16.8468L20 11.8387L13.0156 0Z" fill="#07081B"/>
<defs>
<linearGradient id="paint0_linear_493_639" x1="13.0156" y1="0" x2="34.6822" y2="26.4552" gradientUnits="userSpaceOnUse">
<stop stop-color="#F6C338"/>
<stop offset="0.522782" stop-color="#FFD351"/>
<stop offset="1" stop-color="#F6C338"/>
</linearGradient>
<linearGradient id="paint1_linear_493_639" x1="40" y1="22.1001" x2="32.5197" y2="43.0448" gradientUnits="userSpaceOnUse">
<stop stop-color="#286EE6"/>
<stop offset="0.521046" stop-color="#4286FB"/>
<stop offset="1" stop-color="#286EE6"/>
</linearGradient>
<linearGradient id="paint2_linear_493_639" x1="13.0579" y1="-6.22696e-07" x2="-1.60977" y2="29.5332" gradientUnits="userSpaceOnUse">
<stop stop-color="#069B5A"/>
<stop offset="0.531031" stop-color="#11AA62"/>
<stop offset="1" stop-color="#069B5A"/>
</linearGradient>
</defs>
</svg>
