<svg width="40" height="40" viewBox="0 0 40 40" fill="none" xmlns="http://www.w3.org/2000/svg">
<g clip-path="url(#clip0_493_590)">
<path d="M39.5094 18.8382L21.5002 0.97994L19.7552 -0.750488L6.19833 12.6927L-0.00090158 18.8382C-0.31055 19.1468 -0.484375 19.5645 -0.484375 19.9998C-0.484375 20.4352 -0.31055 20.8528 -0.00090158 21.1615L12.3845 33.4431L19.7552 40.7501L33.3102 27.3069L33.5213 27.0994L39.5094 21.1707C39.6646 21.018 39.7877 20.8363 39.8718 20.6361C39.9558 20.436 39.9991 20.2213 39.9991 20.0045C39.9991 19.7876 39.9558 19.573 39.8718 19.3728C39.7877 19.1726 39.6646 18.9909 39.5094 18.8382ZM19.7552 26.136L13.5672 19.9998L19.7552 13.8637L25.9413 19.9998L19.7552 26.136Z" fill="#2684FF"/>
<path d="M19.7568 13.8639C17.8106 11.9346 16.7135 9.31989 16.7051 6.59104C16.6967 3.86219 17.7777 1.24093 19.7119 -0.700195L6.17188 12.7208L13.5407 20.0279L19.7568 13.8639Z" fill="url(#paint0_linear_493_590)"/>
<path d="M25.9588 19.9834L19.7559 26.1362C21.7094 28.0739 22.8068 30.7016 22.8068 33.4415C22.8068 36.1813 21.7094 38.809 19.7559 40.7467L33.3333 27.2905L25.9588 19.9834Z" fill="url(#paint1_linear_493_590)"/>
</g>
<defs>
<linearGradient id="paint0_linear_493_590" x1="18.6488" y1="7.65552" x2="10.0803" y2="16.2945" gradientUnits="userSpaceOnUse">
<stop offset="0.18" stop-color="#0052CC"/>
<stop offset="1" stop-color="#2684FF"/>
</linearGradient>
<linearGradient id="paint1_linear_493_590" x1="1576.4" y1="1800.85" x2="2454.35" y2="2374.83" gradientUnits="userSpaceOnUse">
<stop offset="0.18" stop-color="#0052CC"/>
<stop offset="1" stop-color="#2684FF"/>
</linearGradient>
<clipPath id="clip0_493_590">
<rect width="40" height="42" fill="white" transform="translate(0 -1)"/>
</clipPath>
</defs>
</svg>
