<svg width="20" height="20" viewBox="0 0 20 20" fill="none" xmlns="http://www.w3.org/2000/svg">
<path d="M16.6156 6.66667H17.5006C17.9427 6.66667 18.3666 6.84226 18.6792 7.15482C18.9917 7.46738 19.1673 7.8913 19.1673 8.33333V11.6667C19.1673 12.1087 18.9917 12.5326 18.6792 12.8452C18.3666 13.1577 17.9427 13.3333 17.5006 13.3333H16.6156C16.4125 14.9444 15.6284 16.426 14.4104 17.5C13.1925 18.574 11.6245 19.1666 10.0007 19.1667V17.5C11.3267 17.5 12.5985 16.9732 13.5362 16.0355C14.4739 15.0979 15.0006 13.8261 15.0006 12.5V7.5C15.0006 6.17392 14.4739 4.90215 13.5362 3.96446C12.5985 3.02678 11.3267 2.5 10.0007 2.5C8.67457 2.5 7.4028 3.02678 6.46512 3.96446C5.52743 4.90215 5.00065 6.17392 5.00065 7.5V13.3333H2.50065C2.05862 13.3333 1.6347 13.1577 1.32214 12.8452C1.00958 12.5326 0.833984 12.1087 0.833984 11.6667V8.33333C0.833984 7.8913 1.00958 7.46738 1.32214 7.15482C1.6347 6.84226 2.05862 6.66667 2.50065 6.66667H3.38565C3.58901 5.05574 4.37322 3.57439 5.59113 2.50056C6.80904 1.42673 8.37694 0.834229 10.0007 0.834229C11.6244 0.834229 13.1923 1.42673 14.4102 2.50056C15.6281 3.57439 16.4123 5.05574 16.6156 6.66667ZM2.50065 8.33333V11.6667H3.33398V8.33333H2.50065ZM16.6673 8.33333V11.6667H17.5006V8.33333H16.6673ZM6.46732 13.1542L7.35065 11.7408C8.14488 12.2384 9.06346 12.5015 10.0007 12.5C10.9378 12.5015 11.8564 12.2384 12.6507 11.7408L13.534 13.1542C12.475 13.8176 11.2503 14.1686 10.0007 14.1667C8.75103 14.1686 7.52627 13.8176 6.46732 13.1542Z" fill="#07081B"/>
</svg>
