<svg width="30" height="33" viewBox="0 0 30 33" fill="none" xmlns="http://www.w3.org/2000/svg">
<path d="M29.2887 8.17692L29.2839 8.16728C29.2501 8.10943 29.2164 8.05641 29.1778 8.00338C29.1682 7.98892 29.1585 7.97446 29.1489 7.96481C29.12 7.92625 29.0862 7.88769 29.0525 7.84912C29.0332 7.82984 29.0139 7.80574 28.9946 7.78645C28.9657 7.75753 28.9416 7.73343 28.9127 7.7045C28.8355 7.63219 28.7488 7.56471 28.662 7.50204C28.6379 7.48758 28.6138 7.46829 28.5897 7.45383C28.5559 7.43455 28.5222 7.41045 28.4836 7.39117C28.421 7.35742 28.3583 7.32368 28.2956 7.29957C28.2715 7.28993 28.2426 7.27547 28.2185 7.26583C28.1799 7.25137 28.1366 7.23691 28.0932 7.22244C28.0691 7.2128 28.045 7.20798 28.0209 7.19834C27.9727 7.18388 27.9245 7.17424 27.8762 7.15978C27.857 7.15496 27.8425 7.15014 27.8232 7.15014C27.7606 7.14049 27.7027 7.13085 27.64 7.12121C27.6352 7.12121 27.6256 7.12121 27.6208 7.12121C27.1676 7.07301 26.7097 7.16942 26.3096 7.39117L14.7884 13.8845L6.55479 9.24227L14.798 4.59522L20.2935 7.69004C21.3395 8.27815 22.6748 7.93107 23.2774 6.90911C23.88 5.88714 23.5233 4.58558 22.4772 3.99747L15.8923 0.28562C15.2126 -0.0952066 14.3882 -0.0952066 13.7085 0.28562L1.14609 7.36706C0.794189 7.55024 0.495313 7.82984 0.292848 8.17692C-0.309726 9.19888 0.0469979 10.5004 1.09307 11.0886L13.6989 18.1941C13.6989 18.1941 13.7037 18.1941 13.7037 18.1989C13.7712 18.2375 13.8387 18.2664 13.9062 18.2953C13.9255 18.305 13.9448 18.3146 13.964 18.3243C14.0074 18.3387 14.0508 18.3532 14.0894 18.3676C14.3159 18.4448 14.5521 18.4833 14.7835 18.4833H14.7884C15.0246 18.4833 15.2656 18.44 15.497 18.3628C15.5355 18.3484 15.5741 18.3387 15.6079 18.3243C15.632 18.3146 15.6512 18.305 15.6705 18.2953C15.738 18.2664 15.8055 18.2375 15.8682 18.1989H15.873L25.2056 12.9348V22.2241L14.7932 28.1004L4.37106 22.2241V16.3478C4.37106 15.1716 3.39249 14.2171 2.18734 14.2171C0.982192 14.2171 0.00361262 15.1716 0.00361262 16.3478V23.4534C0.00361262 24.215 0.418183 24.9188 1.09307 25.2996L13.6989 32.4052C14.0315 32.5932 14.4075 32.6896 14.7884 32.6896C15.1644 32.6896 15.5404 32.5932 15.8826 32.4052L28.4885 25.2996C29.1633 24.9188 29.5779 24.215 29.5779 23.4534V9.24227C29.5827 8.8518 29.4719 8.49026 29.2887 8.17692Z" fill="#2470AF"/>
</svg>
