<svg width="40" height="40" viewBox="0 0 40 40" fill="none" xmlns="http://www.w3.org/2000/svg">
<path d="M15 3.33825V3.33325H33.33C34.25 3.33325 35 4.09159 35 4.98659V35.0133C34.9996 35.4519 34.825 35.8724 34.5147 36.1824C34.2044 36.4925 33.7837 36.6666 33.345 36.6666H6.65504C6.43617 36.6651 6.21974 36.6204 6.01812 36.5353C5.81649 36.4501 5.63362 36.326 5.47993 36.1702C5.32625 36.0143 5.20477 35.8298 5.12243 35.627C5.04009 35.4242 4.9985 35.2071 5.00004 34.9883V13.3333L15 3.33825ZM9.71671 13.3333H15V8.04992L9.71671 13.3333ZM18.3334 6.66659V14.9999C18.3334 15.4419 18.1578 15.8659 17.8452 16.1784C17.5327 16.491 17.1087 16.6666 16.6667 16.6666H8.33337V33.3333H31.6667V6.66659H18.3334Z" fill="white"/>
</svg>
