<svg width="28" height="24" viewBox="0 0 28 24" fill="none" xmlns="http://www.w3.org/2000/svg">
<path d="M2.00033 0H26.0003C26.3539 0 26.6931 0.140476 26.9431 0.390524C27.1932 0.640573 27.3337 0.979711 27.3337 1.33333V22.6667C27.3337 23.0203 27.1932 23.3594 26.9431 23.6095C26.6931 23.8595 26.3539 24 26.0003 24H2.00033C1.6467 24 1.30756 23.8595 1.05752 23.6095C0.807468 23.3594 0.666992 23.0203 0.666992 22.6667V1.33333C0.666992 0.979711 0.807468 0.640573 1.05752 0.390524C1.30756 0.140476 1.6467 0 2.00033 0ZM12.835 12H3.33366V21.3333H24.667V12H23.1657C22.8691 13.1443 22.2009 14.1578 21.266 14.8812C20.3311 15.6047 19.1825 15.9973 18.0003 15.9973C16.8182 15.9973 15.6695 15.6047 14.7346 14.8812C13.7998 14.1578 13.1316 13.1443 12.835 12ZM12.835 9.33333C13.1316 8.18901 13.7998 7.17557 14.7346 6.4521C15.6695 5.72862 16.8182 5.33607 18.0003 5.33607C19.1825 5.33607 20.3311 5.72862 21.266 6.4521C22.2009 7.17557 22.8691 8.18901 23.1657 9.33333H24.667V2.66667H3.33366V9.33333H12.835ZM18.0003 13.3333C18.7076 13.3333 19.3858 13.0524 19.8859 12.5523C20.386 12.0522 20.667 11.3739 20.667 10.6667C20.667 9.95942 20.386 9.28115 19.8859 8.78105C19.3858 8.28095 18.7076 8 18.0003 8C17.2931 8 16.6148 8.28095 16.1147 8.78105C15.6146 9.28115 15.3337 9.95942 15.3337 10.6667C15.3337 11.3739 15.6146 12.0522 16.1147 12.5523C16.6148 13.0524 17.2931 13.3333 18.0003 13.3333ZM6.00033 16H8.66699V18.6667H6.00033V16Z" fill="white"/>
</svg>
