<svg width="40" height="40" viewBox="0 0 40 40" fill="none" xmlns="http://www.w3.org/2000/svg">
<path d="M39.5053 16.5114H27.771L36.0166 8.26573C35.3822 7.31448 34.7478 6.6801 34.1135 5.72823C33.2008 5.06857 32.3515 4.32536 31.5766 3.50823L23.3322 11.7545V0.3376C22.2967 0.0754717 21.2279 -0.0313196 20.161 0.0207249C19.0932 -0.0481099 18.0215 0.0589407 16.9885 0.3376V12.072L8.42595 3.50948C7.44141 4.07381 6.57886 4.82822 5.88845 5.72885C5.25408 6.6801 4.30283 7.31448 3.66845 8.26635L11.9135 16.5114H0.497203L0.180328 19.6826C0.111631 20.7499 0.21868 21.8212 0.497203 22.8539H12.2322L3.6697 31.4164C4.92261 33.303 6.5399 34.9203 8.42658 36.1732L16.6722 27.9276V39.6626C17.7078 39.9247 18.7765 40.0315 19.8435 39.9795C20.9108 40.0482 21.9821 39.9411 23.0147 39.6626V27.9289L31.2597 36.1751C32.2441 35.6105 33.1064 34.8559 33.7966 33.9551C34.6137 33.1802 35.3569 32.3309 36.0166 31.4182L27.771 23.1714H39.5053C39.7677 22.1358 39.8747 21.0671 39.8228 20.0001C39.89 18.8279 39.7832 17.6522 39.506 16.5114H39.5053ZM24.9166 19.6826C24.8851 21.0787 24.6718 22.4647 24.2822 23.8057C22.9717 24.3196 21.5635 24.5363 20.1591 24.4401C18.763 24.4086 17.377 24.1953 16.036 23.8057C15.5221 22.4952 15.3054 21.087 15.4016 19.6826C15.4331 18.2865 15.6463 16.9005 16.036 15.5595C17.3465 15.0456 18.7547 14.8289 20.1591 14.9251C21.5552 14.9566 22.9412 15.1699 24.2822 15.5595C24.648 16.9056 24.8608 18.2887 24.9166 19.6826V19.6826Z" fill="#FF4A00"/>
</svg>
