<svg width="28" height="42" viewBox="0 0 28 42" fill="none" xmlns="http://www.w3.org/2000/svg">
<path d="M0.139194 0L0.472708 0.230092C1.51046 0.939317 25.868 17.6129 26.5474 18.1123C27.5094 18.7755 28 19.5957 28 20.5472V21.0196C27.989 21.7545 27.7202 22.7886 26.5474 23.6535L26.5433 23.6562C25.9782 24.0528 20.2272 27.9657 14.1385 32.11C13.6024 32.4749 13.0602 32.8439 12.5168 33.2137L12.1543 33.4604C6.77685 37.1203 1.38029 40.7944 0.65049 41.3015V41.9607L0.252203 41.3029C0.232908 41.2691 0.214992 41.2406 0.235665 41.1946H0.223261V37.7541C0.223261 36.5806 0.355564 36.0162 1.68549 35.1459C2.25199 34.7883 7.10279 31.4986 12.0301 28.1501L12.6098 27.7561C17.1502 24.6701 21.6154 21.6298 22.712 20.8842C20.3967 19.3047 3.04021 7.47123 1.85086 6.61583L1.71029 6.51567C0.831028 5.89036 0.139194 5.39769 0.139194 4.09564V0ZM2.3911 11.9621C3.56529 12.7038 14.9213 20.443 15.0357 20.5229L15.2934 20.6975L15.0316 20.8694C15.0316 20.8694 14.2639 21.3715 13.4122 21.9562C12.6832 22.4814 12.001 22.7439 11.3229 22.7439C10.7207 22.7439 10.1239 22.5382 9.4955 22.1281C8.82604 21.6892 6.9402 20.4115 5.0313 19.1135L4.77097 18.9365C2.42868 17.3433 0.133378 15.7757 0.0909583 15.7464L0 15.6842V13.0557C0 12.452 0.264606 11.9743 0.729045 11.7428C1.22656 11.4938 1.84811 11.575 2.3911 11.9621Z" fill="#004CFF"/>
</svg>
