<svg width="20" height="20" viewBox="0 0 20 20" fill="none" xmlns="http://www.w3.org/2000/svg">
<path d="M10.0007 19.1666C4.9379 19.1666 0.833984 15.0627 0.833984 9.99992C0.833984 5.89508 3.53173 2.42092 7.25065 1.25309V3.20008C5.67483 3.83996 4.3703 5.00748 3.56021 6.50294C2.75011 7.9984 2.48479 9.72887 2.80963 11.3983C3.13448 13.0678 4.02929 14.5725 5.34102 15.6551C6.65275 16.7377 8.29987 17.3309 10.0007 17.3333C11.4616 17.3332 12.8893 16.897 14.1008 16.0804C15.3122 15.2638 16.2523 14.1041 16.8005 12.7499H18.7475C17.5797 16.4688 14.1055 19.1666 10.0007 19.1666ZM19.1215 10.9166H9.08398V0.879085C9.38557 0.848835 9.69173 0.833252 10.0007 0.833252C15.0634 0.833252 19.1673 4.93717 19.1673 9.99992C19.1673 10.3088 19.1517 10.615 19.1215 10.9166ZM10.9173 2.72342V9.08325H17.2771C17.0731 7.46772 16.3374 5.96598 15.186 4.81455C14.0346 3.66313 12.5328 2.92746 10.9173 2.72342Z" fill="#B8BFD0"/>
</svg>
