<svg width="23" height="20" viewBox="0 0 23 20" fill="none" xmlns="http://www.w3.org/2000/svg">
<path d="M7.59961 18V12H15.5996V18H18.5996V2H4.59961V18H7.59961ZM9.59961 18H13.5996V14H9.59961V18ZM20.5996 18H22.5996V20H0.599609V18H2.59961V1C2.59961 0.734784 2.70497 0.48043 2.8925 0.292893C3.08004 0.105357 3.33439 0 3.59961 0H19.5996C19.8648 0 20.1192 0.105357 20.3067 0.292893C20.4943 0.48043 20.5996 0.734784 20.5996 1V18ZM10.5996 6V4H12.5996V6H14.5996V8H12.5996V10H10.5996V8H8.59961V6H10.5996Z" fill="#DFE3EC"/>
</svg>
