<svg width="70" height="88" viewBox="0 0 70 88" fill="none" xmlns="http://www.w3.org/2000/svg">
<g clip-path="url(#clip0_493_801)">
<path d="M6.33789 64.8459L35.6127 79.3443L63.7758 64.8459V8.15082H6.33789V64.8459Z" fill="white"/>
<path d="M64.3679 8.36722L5.74414 65.8557L36.1307 80.4984L64.3679 66.4328V8.36722Z" fill="#F2F3F2"/>
<path d="M4.41016 27.0492V66.0721L5.44774 66.5771L34.7226 81.0754L35.6119 81.5082L36.5013 81.0754L64.7385 66.5771L65.7761 66.0721V6.27541H4.41016V27.0492ZM6.33711 64.9902V8.15082H63.8492V64.9902L35.6119 79.4885L6.33711 64.9902Z" fill="#DCDEDC"/>
<path d="M35.0934 9.08852C35.3899 9.08852 35.6863 9.08852 35.9828 9.16065L35.0934 10.8197C33.7594 10.7475 32.5736 11.7574 32.4994 13.0557C32.4253 14.3541 33.4629 15.5082 34.797 15.5803H35.0934C35.6863 15.5803 36.2792 15.3639 36.7239 15.0033L37.6874 16.5902C36.9462 17.0951 36.0569 17.3836 35.0934 17.3836C32.7218 17.4557 30.7207 15.7246 30.6466 13.4164C30.5725 11.1082 32.3512 9.16065 34.7228 9.08852H35.0934ZM38.1321 12.6229L39.2438 14.4262L38.1321 16.1574L37.0945 14.4262H34.9452L36.0569 12.6229H38.1321ZM36.3533 11.9738C36.3533 11.6852 36.4275 11.3967 36.5757 11.1803C36.7239 10.9639 37.0204 10.7475 37.2427 10.6033L37.3909 10.5311C37.6874 10.3869 37.7615 10.3148 37.7615 10.1705C37.7615 10.0262 37.5392 9.88196 37.3909 9.88196C37.0945 9.88196 36.8721 10.0262 36.7239 10.3148L36.3533 9.9541C36.4275 9.80983 36.5757 9.66557 36.7239 9.52131C36.9462 9.37705 37.1686 9.37705 37.3909 9.37705C37.6133 9.37705 37.9097 9.44918 38.0579 9.59344C38.2062 9.7377 38.3544 9.9541 38.3544 10.1705C38.3544 10.5311 38.1321 10.8197 37.6874 10.9639L37.465 11.1082C37.2427 11.2525 37.0945 11.3246 37.0204 11.541H38.3544V12.0459L36.3533 11.9738ZM35.0934 20.9902L42.1342 17.0951V6.27541H27.9785V17.0229L35.0934 20.9902Z" fill="#FF492C"/>
<path d="M67.1848 46.5246H3.00249L0.630859 51.5738L3.00249 56.623H67.1848L69.4823 51.5738L67.1848 46.5246Z" fill="#2690CE"/>
<path d="M9.43464 43.2787C9.40993 43.2787 9.39017 43.2691 9.37535 43.2498C9.35558 43.2354 9.3457 43.2162 9.3457 43.1921V38.3161C9.3457 38.292 9.35558 38.2728 9.37535 38.2584C9.39017 38.2391 9.40993 38.2295 9.43464 38.2295H10.3018C10.3265 38.2295 10.3487 38.2391 10.3685 38.2584C10.3833 38.2728 10.3907 38.292 10.3907 38.3161V43.1921C10.3907 43.2162 10.3833 43.2354 10.3685 43.2498C10.3487 43.2691 10.3265 43.2787 10.3018 43.2787H9.43464ZM15.4527 39.5134C15.838 39.5134 16.1394 39.6264 16.3568 39.8524C16.5742 40.0785 16.6829 40.3958 16.6829 40.8046V43.1921C16.6829 43.2162 16.6731 43.2354 16.6533 43.2498C16.6385 43.2691 16.6187 43.2787 16.594 43.2787H15.7269C15.7022 43.2787 15.6799 43.2691 15.6602 43.2498C15.6453 43.2354 15.6379 43.2162 15.6379 43.1921V41.0282C15.6379 40.831 15.5861 40.6747 15.4823 40.5593C15.3785 40.4439 15.2402 40.3862 15.0673 40.3862C14.8943 40.3862 14.7535 40.4439 14.6448 40.5593C14.5361 40.6747 14.4818 40.8286 14.4818 41.021V43.1921C14.4818 43.2162 14.4719 43.2354 14.4521 43.2498C14.4373 43.2691 14.4175 43.2787 14.3928 43.2787H13.5331C13.5084 43.2787 13.4862 43.2691 13.4664 43.2498C13.4516 43.2354 13.4442 43.2162 13.4442 43.1921V41.0282C13.4442 40.8358 13.3898 40.6796 13.2811 40.5593C13.1724 40.4439 13.0316 40.3862 12.8587 40.3862C12.7006 40.3862 12.5672 40.4319 12.4585 40.5233C12.3547 40.6146 12.2929 40.7421 12.2732 40.9056V43.1921C12.2732 43.2162 12.2658 43.2354 12.251 43.2498C12.2312 43.2691 12.209 43.2787 12.1842 43.2787H11.3171C11.2924 43.2787 11.2727 43.2691 11.2578 43.2498C11.2381 43.2354 11.2282 43.2162 11.2282 43.1921V39.6577C11.2282 39.6337 11.2381 39.612 11.2578 39.5928C11.2727 39.5784 11.2924 39.5711 11.3171 39.5711H12.1842C12.209 39.5711 12.2312 39.5784 12.251 39.5928C12.2658 39.612 12.2732 39.6337 12.2732 39.6577V39.939C12.2732 39.9534 12.2781 39.963 12.288 39.9679C12.2979 39.9727 12.3078 39.9679 12.3177 39.9534C12.5202 39.6601 12.834 39.5134 13.2589 39.5134C13.5059 39.5134 13.7209 39.5639 13.9037 39.6649C14.0914 39.7659 14.2347 39.9102 14.3335 40.0977C14.3484 40.1265 14.3657 40.1265 14.3854 40.0977C14.4941 39.9005 14.6399 39.7539 14.8227 39.6577C15.0104 39.5615 15.2204 39.5134 15.4527 39.5134ZM20.8185 40.5665C20.9074 40.8118 20.9519 41.1003 20.9519 41.4321C20.9519 41.7639 20.9049 42.0645 20.8111 42.3338C20.6974 42.6415 20.5195 42.8868 20.2774 43.0695C20.0304 43.2474 19.7265 43.3364 19.3658 43.3364C19.0101 43.3364 18.7334 43.2162 18.5358 42.9757C18.5259 42.9613 18.516 42.9565 18.5061 42.9613C18.4962 42.9661 18.4913 42.9757 18.4913 42.9902V44.5338C18.4913 44.5578 18.4839 44.577 18.4691 44.5915C18.4493 44.6107 18.4271 44.6203 18.4024 44.6203H17.5352C17.5105 44.6203 17.4908 44.6107 17.4759 44.5915C17.4562 44.577 17.4463 44.5578 17.4463 44.5338V39.6577C17.4463 39.6337 17.4562 39.612 17.4759 39.5928C17.4908 39.5784 17.5105 39.5711 17.5352 39.5711H18.4024C18.4271 39.5711 18.4493 39.5784 18.4691 39.5928C18.4839 39.612 18.4913 39.6337 18.4913 39.6577V39.8957C18.4913 39.9102 18.4962 39.9174 18.5061 39.9174C18.516 39.9222 18.5259 39.9198 18.5358 39.9102C18.7433 39.6457 19.0299 39.5134 19.3955 39.5134C19.7364 39.5134 20.0329 39.6072 20.2849 39.7947C20.5319 39.9775 20.7098 40.2347 20.8185 40.5665ZM19.6845 42.1823C19.8081 41.9947 19.8698 41.7399 19.8698 41.4177C19.8698 41.1147 19.8179 40.8743 19.7142 40.6964C19.6005 40.4896 19.4177 40.3862 19.1657 40.3862C18.9385 40.3862 18.768 40.4896 18.6544 40.6964C18.5506 40.8695 18.4987 41.1123 18.4987 41.4249C18.4987 41.7471 18.5531 41.9971 18.6618 42.1751C18.7754 42.3674 18.9434 42.4636 19.1657 42.4636C19.3881 42.4636 19.561 42.3698 19.6845 42.1823ZM21.7152 43.2787C21.6905 43.2787 21.6683 43.2691 21.6485 43.2498C21.6337 43.2354 21.6263 43.2162 21.6263 43.1921V38.3161C21.6263 38.292 21.6337 38.2728 21.6485 38.2584C21.6683 38.2391 21.6905 38.2295 21.7152 38.2295H22.5824C22.6071 38.2295 22.6268 38.2391 22.6417 38.2584C22.6614 38.2728 22.6713 38.292 22.6713 38.3161V43.1921C22.6713 43.2162 22.6614 43.2354 22.6417 43.2498C22.6268 43.2691 22.6071 43.2787 22.5824 43.2787H21.7152ZM26.8068 41.0426C26.8365 41.2253 26.8464 41.4297 26.8365 41.6557C26.8315 41.7134 26.7994 41.7423 26.7401 41.7423H24.45C24.4204 41.7423 24.4105 41.7543 24.4204 41.7783C24.4352 41.8745 24.4624 41.9707 24.5019 42.0669C24.6304 42.3362 24.8922 42.4708 25.2875 42.4708C25.6037 42.466 25.8532 42.341 26.0361 42.0957C26.0558 42.0669 26.0781 42.0524 26.1028 42.0524C26.1176 42.0524 26.1349 42.0621 26.1546 42.0813L26.6883 42.5934C26.713 42.6175 26.7253 42.6391 26.7253 42.6583C26.7253 42.668 26.7154 42.6872 26.6957 42.7161C26.5326 42.9132 26.3226 43.0671 26.0657 43.1777C25.8088 43.2835 25.5271 43.3364 25.2208 43.3364C24.7959 43.3364 24.4377 43.2426 24.1462 43.0551C23.8497 42.8675 23.6372 42.6055 23.5088 42.2688C23.405 42.0284 23.3531 41.7134 23.3531 41.3239C23.3531 41.0594 23.3902 40.8262 23.4643 40.6243C23.578 40.2828 23.7756 40.0111 24.0572 39.8092C24.3438 39.6072 24.6823 39.5062 25.0726 39.5062C25.5667 39.5062 25.9644 39.6457 26.2658 39.9246C26.5623 40.2035 26.7426 40.5762 26.8068 41.0426ZM25.08 40.3862C24.7687 40.3862 24.5637 40.5281 24.4649 40.8118C24.4451 40.8743 24.4278 40.9512 24.413 41.0426C24.413 41.0667 24.4253 41.0787 24.45 41.0787H25.7322C25.7618 41.0787 25.7717 41.0667 25.7618 41.0426C25.7371 40.9032 25.7248 40.8358 25.7248 40.8406C25.6803 40.6964 25.6037 40.5834 25.495 40.5016C25.3814 40.4247 25.243 40.3862 25.08 40.3862ZM31.7057 39.5134C32.0911 39.5134 32.3925 39.6264 32.6099 39.8524C32.8273 40.0785 32.936 40.3958 32.936 40.8046V43.1921C32.936 43.2162 32.9286 43.2354 32.9138 43.2498C32.894 43.2691 32.8718 43.2787 32.8471 43.2787H31.98C31.9553 43.2787 31.9355 43.2691 31.9207 43.2498C31.9009 43.2354 31.891 43.2162 31.891 43.1921V41.0282C31.891 40.831 31.8391 40.6747 31.7354 40.5593C31.6316 40.4439 31.4933 40.3862 31.3203 40.3862C31.1474 40.3862 31.0066 40.4439 30.8979 40.5593C30.7892 40.6747 30.7348 40.8286 30.7348 41.021V43.1921C30.7348 43.2162 30.7274 43.2354 30.7126 43.2498C30.6929 43.2691 30.6706 43.2787 30.6459 43.2787H29.7862C29.7615 43.2787 29.7417 43.2691 29.7269 43.2498C29.7071 43.2354 29.6973 43.2162 29.6973 43.1921V41.0282C29.6973 40.8358 29.6429 40.6796 29.5342 40.5593C29.4255 40.4439 29.2847 40.3862 29.1118 40.3862C28.9537 40.3862 28.8227 40.4319 28.719 40.5233C28.6103 40.6146 28.546 40.7421 28.5263 40.9056V43.1921C28.5263 43.2162 28.5189 43.2354 28.504 43.2498C28.4843 43.2691 28.462 43.2787 28.4373 43.2787H27.5702C27.5455 43.2787 27.5257 43.2691 27.5109 43.2498C27.4911 43.2354 27.4813 43.2162 27.4813 43.1921V39.6577C27.4813 39.6337 27.4911 39.612 27.5109 39.5928C27.5257 39.5784 27.5455 39.5711 27.5702 39.5711H28.4373C28.462 39.5711 28.4843 39.5784 28.504 39.5928C28.5189 39.612 28.5263 39.6337 28.5263 39.6577V39.939C28.5263 39.9534 28.5312 39.963 28.5411 39.9679C28.551 39.9727 28.5609 39.9679 28.5707 39.9534C28.7733 39.6601 29.0871 39.5134 29.512 39.5134C29.759 39.5134 29.9764 39.5639 30.1642 39.6649C30.347 39.7659 30.4878 39.9102 30.5866 40.0977C30.6014 40.1265 30.6187 40.1265 30.6385 40.0977C30.7472 39.9005 30.8954 39.7539 31.0832 39.6577C31.266 39.5615 31.4735 39.5134 31.7057 39.5134ZM37.0197 41.0426C37.0493 41.2253 37.0592 41.4297 37.0493 41.6557C37.0444 41.7134 37.0123 41.7423 36.953 41.7423H34.6629C34.6332 41.7423 34.6233 41.7543 34.6332 41.7783C34.648 41.8745 34.6752 41.9707 34.7147 42.0669C34.8432 42.3362 35.1051 42.4708 35.5003 42.4708C35.8166 42.466 36.0661 42.341 36.2489 42.0957C36.2687 42.0669 36.2909 42.0524 36.3156 42.0524C36.3304 42.0524 36.3477 42.0621 36.3675 42.0813L36.9011 42.5934C36.9258 42.6175 36.9381 42.6391 36.9381 42.6583C36.9381 42.668 36.9283 42.6872 36.9085 42.7161C36.7454 42.9132 36.5355 43.0671 36.2785 43.1777C36.0216 43.2835 35.74 43.3364 35.4336 43.3364C35.0087 43.3364 34.6505 43.2426 34.359 43.0551C34.0625 42.8675 33.8501 42.6055 33.7216 42.2688C33.6179 42.0284 33.566 41.7134 33.566 41.3239C33.566 41.0594 33.603 40.8262 33.6772 40.6243C33.7908 40.2828 33.9909 40.0111 34.2775 39.8092C34.5591 39.6072 34.8951 39.5062 35.2854 39.5062C35.7795 39.5062 36.1772 39.6457 36.4786 39.9246C36.7751 40.2035 36.9554 40.5762 37.0197 41.0426ZM35.2928 40.3862C34.9815 40.3862 34.7765 40.5281 34.6777 40.8118C34.6579 40.8743 34.6406 40.9512 34.6258 41.0426C34.6258 41.0667 34.6382 41.0787 34.6629 41.0787H35.945C35.9747 41.0787 35.9846 41.0667 35.9747 41.0426C35.95 40.9032 35.9376 40.8358 35.9376 40.8406C35.8931 40.6964 35.8166 40.5834 35.7079 40.5016C35.5942 40.4247 35.4559 40.3862 35.2928 40.3862ZM39.6803 39.5134C40.0756 39.5134 40.3943 39.6312 40.6364 39.8669C40.8785 40.1025 40.9996 40.4223 40.9996 40.8262V43.1921C40.9996 43.2162 40.9922 43.2354 40.9773 43.2498C40.9576 43.2691 40.9353 43.2787 40.9106 43.2787H40.0435C40.0188 43.2787 39.999 43.2691 39.9842 43.2498C39.9644 43.2354 39.9546 43.2162 39.9546 43.1921V41.0354C39.9546 40.843 39.9002 40.6868 39.7915 40.5665C39.6779 40.4463 39.5296 40.3862 39.3468 40.3862C39.164 40.3862 39.0183 40.4463 38.9096 40.5665C38.7959 40.6868 38.7391 40.843 38.7391 41.0354V43.1921C38.7391 43.2162 38.7317 43.2354 38.7169 43.2498C38.6971 43.2691 38.6749 43.2787 38.6502 43.2787H37.783C37.7583 43.2787 37.7386 43.2691 37.7237 43.2498C37.704 43.2354 37.6941 43.2162 37.6941 43.1921V39.6577C37.6941 39.6337 37.704 39.612 37.7237 39.5928C37.7386 39.5784 37.7583 39.5711 37.783 39.5711H38.6502C38.6749 39.5711 38.6971 39.5784 38.7169 39.5928C38.7317 39.612 38.7391 39.6337 38.7391 39.6577V39.9102C38.7391 39.9246 38.744 39.9342 38.7539 39.939C38.7638 39.9438 38.7712 39.9414 38.7762 39.9318C38.9787 39.6529 39.2801 39.5134 39.6803 39.5134ZM43.9345 40.2997C43.9345 40.3237 43.927 40.3453 43.9122 40.3646C43.8925 40.379 43.8702 40.3862 43.8455 40.3862H43.134C43.1093 40.3862 43.097 40.3982 43.097 40.4223V41.9515C43.097 42.1102 43.1316 42.228 43.2007 42.3049C43.265 42.3818 43.3712 42.4203 43.5194 42.4203H43.764C43.7887 42.4203 43.8109 42.4275 43.8307 42.442C43.8455 42.4612 43.8529 42.4828 43.8529 42.5069V43.1921C43.8529 43.245 43.8233 43.2763 43.764 43.2859C43.5565 43.2955 43.4083 43.3003 43.3193 43.3003C42.9092 43.3003 42.6029 43.2354 42.4003 43.1056C42.1977 42.9709 42.094 42.7209 42.089 42.3554V40.4223C42.089 40.3982 42.0767 40.3862 42.052 40.3862H41.6295C41.6048 40.3862 41.5851 40.379 41.5702 40.3646C41.5505 40.3453 41.5406 40.3237 41.5406 40.2997V39.6577C41.5406 39.6337 41.5505 39.612 41.5702 39.5928C41.5851 39.5784 41.6048 39.5711 41.6295 39.5711H42.052C42.0767 39.5711 42.089 39.5591 42.089 39.5351V38.6767C42.089 38.6527 42.0989 38.6334 42.1187 38.619C42.1335 38.5998 42.1533 38.5902 42.178 38.5902H43.008C43.0327 38.5902 43.055 38.5998 43.0747 38.619C43.0896 38.6334 43.097 38.6527 43.097 38.6767V39.5351C43.097 39.5591 43.1093 39.5711 43.134 39.5711H43.8455C43.8702 39.5711 43.8925 39.5784 43.9122 39.5928C43.927 39.612 43.9345 39.6337 43.9345 39.6577V40.2997ZM46.0837 39.5134C46.4049 39.5134 46.6915 39.5663 46.9435 39.6721C47.1954 39.7827 47.3906 39.9318 47.529 40.1193C47.6722 40.3069 47.7439 40.5161 47.7439 40.7469V43.1921C47.7439 43.2162 47.734 43.2354 47.7142 43.2498C47.6994 43.2691 47.6797 43.2787 47.655 43.2787H46.7878C46.7631 43.2787 46.7434 43.2691 46.7285 43.2498C46.7088 43.2354 46.6989 43.2162 46.6989 43.1921V42.9541C46.6989 42.9397 46.694 42.93 46.6841 42.9252C46.6742 42.9204 46.6643 42.9252 46.6544 42.9397C46.4469 43.2041 46.1134 43.3364 45.6539 43.3364C45.2685 43.3364 44.9572 43.245 44.7201 43.0623C44.4829 42.8796 44.3643 42.6103 44.3643 42.2544C44.3643 41.8841 44.4977 41.5956 44.7645 41.3888C45.0313 41.1869 45.4118 41.0859 45.9059 41.0859H46.6618C46.6865 41.0859 46.6989 41.0739 46.6989 41.0498V40.8911C46.6989 40.7324 46.6495 40.6074 46.5507 40.5161C46.4518 40.4295 46.3036 40.3862 46.106 40.3862C45.9528 40.3862 45.8268 40.4127 45.728 40.4656C45.6242 40.5185 45.5575 40.593 45.5279 40.6892C45.5131 40.7421 45.481 40.7661 45.4315 40.7613L44.5348 40.6459C44.4755 40.6363 44.4483 40.6146 44.4533 40.581C44.473 40.379 44.5545 40.1963 44.6978 40.0328C44.8461 39.8693 45.0387 39.7418 45.2759 39.6505C45.518 39.5591 45.7873 39.5134 46.0837 39.5134ZM45.9355 42.579C46.148 42.579 46.3283 42.5237 46.4765 42.4131C46.6248 42.3025 46.6989 42.1606 46.6989 41.9875V41.7279C46.6989 41.7038 46.6865 41.6918 46.6618 41.6918H46.1282C45.9059 41.6918 45.7305 41.7327 45.602 41.8144C45.4785 41.8962 45.4167 42.0116 45.4167 42.1606C45.4167 42.2905 45.4637 42.3915 45.5575 42.4636C45.6514 42.5405 45.7774 42.579 45.9355 42.579ZM50.5824 40.2997C50.5824 40.3237 50.575 40.3453 50.5602 40.3646C50.5404 40.379 50.5182 40.3862 50.4935 40.3862H49.782C49.7573 40.3862 49.745 40.3982 49.745 40.4223V41.9515C49.745 42.1102 49.7795 42.228 49.8487 42.3049C49.9129 42.3818 50.0192 42.4203 50.1674 42.4203H50.412C50.4367 42.4203 50.4589 42.4275 50.4787 42.442C50.4935 42.4612 50.5009 42.4828 50.5009 42.5069V43.1921C50.5009 43.245 50.4713 43.2763 50.412 43.2859C50.2045 43.2955 50.0562 43.3003 49.9673 43.3003C49.5572 43.3003 49.2509 43.2354 49.0483 43.1056C48.8457 42.9709 48.7419 42.7209 48.737 42.3554V40.4223C48.737 40.3982 48.7247 40.3862 48.7 40.3862H48.2775C48.2528 40.3862 48.2306 40.379 48.2108 40.3646C48.196 40.3453 48.1886 40.3237 48.1886 40.2997V39.6577C48.1886 39.6337 48.196 39.612 48.2108 39.5928C48.2306 39.5784 48.2528 39.5711 48.2775 39.5711H48.7C48.7247 39.5711 48.737 39.5591 48.737 39.5351V38.6767C48.737 38.6527 48.7469 38.6334 48.7667 38.619C48.7815 38.5998 48.8012 38.5902 48.8259 38.5902H49.656C49.6807 38.5902 49.703 38.5998 49.7227 38.619C49.7375 38.6334 49.745 38.6527 49.745 38.6767V39.5351C49.745 39.5591 49.7573 39.5711 49.782 39.5711H50.4935C50.5182 39.5711 50.5404 39.5784 50.5602 39.5928C50.575 39.612 50.5824 39.6337 50.5824 39.6577V40.2997ZM51.7757 39.1528C51.6077 39.1528 51.4693 39.0975 51.3606 38.9869C51.247 38.8811 51.1902 38.7464 51.1902 38.5829C51.1902 38.4146 51.2445 38.2776 51.3532 38.1718C51.4619 38.066 51.6027 38.0131 51.7757 38.0131C51.9486 38.0131 52.0894 38.066 52.1981 38.1718C52.3068 38.2776 52.3612 38.4146 52.3612 38.5829C52.3612 38.7464 52.3043 38.8811 52.1907 38.9869C52.082 39.0975 51.9437 39.1528 51.7757 39.1528ZM51.331 43.2787C51.3063 43.2787 51.284 43.2691 51.2643 43.2498C51.2495 43.2354 51.242 43.2162 51.242 43.1921V39.6505C51.242 39.6264 51.2495 39.6048 51.2643 39.5856C51.284 39.5711 51.3063 39.5639 51.331 39.5639H52.1981C52.2228 39.5639 52.245 39.5711 52.2648 39.5856C52.2796 39.6048 52.287 39.6264 52.287 39.6505V43.1921C52.287 43.2162 52.2796 43.2354 52.2648 43.2498C52.245 43.2691 52.2228 43.2787 52.1981 43.2787H51.331ZM54.7847 43.3364C54.3696 43.3364 54.0139 43.2306 53.7174 43.019C53.421 42.8074 53.2184 42.5189 53.1097 42.1534C53.0405 41.9274 53.0059 41.6822 53.0059 41.4177C53.0059 41.134 53.0405 40.8791 53.1097 40.6531C53.2233 40.2973 53.4284 40.0184 53.7248 39.8164C54.0213 39.6144 54.377 39.5134 54.7921 39.5134C55.1972 39.5134 55.5431 39.6144 55.8297 39.8164C56.1162 40.0135 56.3188 40.29 56.4374 40.6459C56.5164 40.8863 56.556 41.1388 56.556 41.4033C56.556 41.6629 56.5214 41.9058 56.4522 42.1318C56.3435 42.5069 56.1409 42.8026 55.8445 43.019C55.553 43.2306 55.1997 43.3364 54.7847 43.3364ZM54.7847 42.4636C54.9477 42.4636 55.0861 42.4155 55.1997 42.3193C55.3133 42.2232 55.3949 42.0909 55.4443 41.9226C55.4838 41.7687 55.5036 41.6004 55.5036 41.4177C55.5036 41.2157 55.4838 41.045 55.4443 40.9056C55.3899 40.7421 55.3059 40.6146 55.1923 40.5233C55.0786 40.4319 54.9403 40.3862 54.7773 40.3862C54.6093 40.3862 54.4684 40.4319 54.3548 40.5233C54.2461 40.6146 54.1671 40.7421 54.1176 40.9056C54.0781 41.021 54.0584 41.1917 54.0584 41.4177C54.0584 41.6341 54.0756 41.8024 54.1102 41.9226C54.1596 42.0909 54.2412 42.2232 54.3548 42.3193C54.4734 42.4155 54.6167 42.4636 54.7847 42.4636ZM59.2166 39.5134C59.6119 39.5134 59.9306 39.6312 60.1727 39.8669C60.4148 40.1025 60.5359 40.4223 60.5359 40.8262V43.1921C60.5359 43.2162 60.526 43.2354 60.5062 43.2498C60.4914 43.2691 60.4716 43.2787 60.4469 43.2787H59.5798C59.5551 43.2787 59.5329 43.2691 59.5131 43.2498C59.4983 43.2354 59.4909 43.2162 59.4909 43.1921V41.0354C59.4909 40.843 59.434 40.6868 59.3204 40.5665C59.2117 40.4463 59.066 40.3862 58.8831 40.3862C58.7003 40.3862 58.5521 40.4463 58.4385 40.5665C58.3298 40.6868 58.2754 40.843 58.2754 41.0354V43.1921C58.2754 43.2162 58.2655 43.2354 58.2458 43.2498C58.2309 43.2691 58.2112 43.2787 58.1865 43.2787H57.3193C57.2946 43.2787 57.2724 43.2691 57.2526 43.2498C57.2378 43.2354 57.2304 43.2162 57.2304 43.1921V39.6577C57.2304 39.6337 57.2378 39.612 57.2526 39.5928C57.2724 39.5784 57.2946 39.5711 57.3193 39.5711H58.1865C58.2112 39.5711 58.2309 39.5784 58.2458 39.5928C58.2655 39.612 58.2754 39.6337 58.2754 39.6577V39.9102C58.2754 39.9246 58.2803 39.9342 58.2902 39.939C58.3001 39.9438 58.3075 39.9414 58.3125 39.9318C58.5151 39.6529 58.8164 39.5134 59.2166 39.5134ZM26.5326 31.8026C26.5326 31.8267 26.5227 31.8459 26.503 31.8603C26.4881 31.8796 26.4684 31.8892 26.4437 31.8892H24.0202C23.9955 31.8892 23.9831 31.9012 23.9831 31.9252V33.0433C23.9831 33.0673 23.9955 33.0793 24.0202 33.0793H25.6136C25.6383 33.0793 25.6581 33.0866 25.6729 33.101C25.6927 33.1202 25.7025 33.1419 25.7025 33.1659V33.8656C25.7025 33.8896 25.6927 33.9113 25.6729 33.9305C25.6581 33.9449 25.6383 33.9521 25.6136 33.9521H24.0202C23.9955 33.9521 23.9831 33.9641 23.9831 33.9882V35.979C23.9831 36.0031 23.9757 36.0223 23.9609 36.0367C23.9411 36.0559 23.9189 36.0656 23.8942 36.0656H23.027C23.0023 36.0656 22.9826 36.0559 22.9678 36.0367C22.948 36.0223 22.9381 36.0031 22.9381 35.979V31.1029C22.9381 31.0789 22.948 31.0597 22.9678 31.0452C22.9826 31.026 23.0023 31.0164 23.027 31.0164H26.4437C26.4684 31.0164 26.4881 31.026 26.503 31.0452C26.5227 31.0597 26.5326 31.0789 26.5326 31.1029V31.8026ZM28.1779 32.3003C28.4991 32.3003 28.7857 32.3532 29.0377 32.459C29.2896 32.5696 29.4873 32.7187 29.6306 32.9062C29.7689 33.0938 29.8381 33.3029 29.8381 33.5338V35.979C29.8381 36.0031 29.8307 36.0223 29.8158 36.0367C29.7961 36.0559 29.7738 36.0656 29.7491 36.0656H28.882C28.8573 36.0656 28.8351 36.0559 28.8153 36.0367C28.8005 36.0223 28.7931 36.0031 28.7931 35.979V35.741C28.7931 35.7265 28.7881 35.7169 28.7783 35.7121C28.7684 35.7073 28.7585 35.7121 28.7486 35.7265C28.5411 35.991 28.2076 36.1233 27.7481 36.1233C27.3627 36.1233 27.0514 36.0319 26.8142 35.8492C26.5771 35.6664 26.4585 35.3972 26.4585 35.0413C26.4585 34.671 26.5919 34.3825 26.8587 34.1757C27.1255 33.9738 27.506 33.8728 28.0001 33.8728H28.756C28.7807 33.8728 28.7931 33.8608 28.7931 33.8367V33.678C28.7931 33.5193 28.7437 33.3943 28.6448 33.3029C28.546 33.2164 28.3978 33.1731 28.2002 33.1731C28.047 33.1731 27.921 33.1996 27.8222 33.2525C27.7184 33.3053 27.6517 33.3799 27.6221 33.4761C27.6073 33.529 27.5751 33.553 27.5257 33.5482L26.629 33.4328C26.5697 33.4232 26.5425 33.4015 26.5474 33.3679C26.5672 33.1659 26.6512 32.9832 26.7994 32.8197C26.9427 32.6562 27.1354 32.5287 27.3775 32.4374C27.6147 32.346 27.8815 32.3003 28.1779 32.3003ZM28.0297 35.3659C28.2422 35.3659 28.4225 35.3106 28.5707 35.2C28.719 35.0894 28.7931 34.9475 28.7931 34.7744V34.5147C28.7931 34.4907 28.7807 34.4787 28.756 34.4787H28.2224C28.0001 34.4787 27.8271 34.5196 27.7036 34.6013C27.5751 34.6831 27.5109 34.7985 27.5109 34.9475C27.5109 35.0774 27.5579 35.1784 27.6517 35.2505C27.7456 35.3274 27.8716 35.3659 28.0297 35.3659ZM32.0911 36.1161C31.7601 36.1161 31.471 36.0704 31.224 35.979C30.977 35.8876 30.7867 35.7602 30.6533 35.5967C30.515 35.4332 30.4458 35.2481 30.4458 35.0413V34.9692C30.4458 34.9451 30.4557 34.9259 30.4755 34.9115C30.4903 34.8922 30.51 34.8826 30.5347 34.8826H31.3574C31.3821 34.8826 31.4019 34.8922 31.4167 34.9115C31.4365 34.9259 31.4463 34.9451 31.4463 34.9692V34.9764C31.4463 35.0822 31.5081 35.1711 31.6316 35.2433C31.7502 35.3202 31.9009 35.3587 32.0837 35.3587C32.2517 35.3587 32.3876 35.3274 32.4913 35.2649C32.5951 35.1976 32.647 35.1158 32.647 35.0197C32.647 34.9331 32.6025 34.8682 32.5136 34.8249C32.4246 34.7816 32.2789 34.7359 32.0763 34.6879C31.8441 34.6302 31.6613 34.5749 31.5279 34.522C31.2116 34.4162 30.9597 34.2863 30.7719 34.1325C30.5842 33.9786 30.4903 33.7574 30.4903 33.4688C30.4903 33.113 30.6336 32.8293 30.9201 32.6177C31.2018 32.4109 31.5773 32.3075 32.0467 32.3075C32.3629 32.3075 32.6396 32.358 32.8767 32.459C33.1139 32.5552 33.2992 32.6922 33.4326 32.8702C33.561 33.0481 33.6253 33.25 33.6253 33.4761C33.6253 33.5001 33.6179 33.5217 33.603 33.541C33.5833 33.5554 33.561 33.5626 33.5363 33.5626H32.7433C32.7186 33.5626 32.6989 33.5554 32.684 33.541C32.6643 33.5217 32.6544 33.5001 32.6544 33.4761C32.6544 33.3703 32.6 33.2813 32.4913 33.2092C32.3777 33.137 32.2295 33.101 32.0467 33.101C31.8836 33.101 31.7502 33.1298 31.6464 33.1875C31.5427 33.2452 31.4908 33.3246 31.4908 33.4256C31.4908 33.5217 31.5427 33.5939 31.6464 33.642C31.7453 33.69 31.9133 33.7405 32.1504 33.7934L32.3357 33.8439C32.4049 33.8584 32.479 33.8776 32.558 33.9016C32.9088 34.0026 33.1855 34.1325 33.3881 34.2911C33.5907 34.4498 33.692 34.6806 33.692 34.9836C33.692 35.3394 33.5487 35.6159 33.2621 35.8131C32.9706 36.0151 32.5803 36.1161 32.0911 36.1161ZM36.4712 33.0865C36.4712 33.1106 36.4638 33.1322 36.449 33.1515C36.4292 33.1659 36.407 33.1731 36.3823 33.1731H35.6708C35.6461 33.1731 35.6337 33.1851 35.6337 33.2092V34.7384C35.6337 34.897 35.6683 35.0149 35.7375 35.0918C35.8017 35.1687 35.908 35.2072 36.0562 35.2072H36.3008C36.3255 35.2072 36.3477 35.2144 36.3675 35.2288C36.3823 35.2481 36.3897 35.2697 36.3897 35.2938V35.979C36.3897 36.0319 36.3601 36.0632 36.3008 36.0728C36.0933 36.0824 35.945 36.0872 35.8561 36.0872C35.446 36.0872 35.1397 36.0223 34.9371 35.8924C34.7345 35.7578 34.6307 35.5078 34.6258 35.1423V33.2092C34.6258 33.1851 34.6135 33.1731 34.5888 33.1731H34.1663C34.1416 33.1731 34.1218 33.1659 34.107 33.1515C34.0872 33.1322 34.0774 33.1106 34.0774 33.0865V32.4446C34.0774 32.4205 34.0872 32.3989 34.107 32.3797C34.1218 32.3652 34.1416 32.358 34.1663 32.358H34.5888C34.6135 32.358 34.6258 32.346 34.6258 32.322V31.4636C34.6258 31.4396 34.6332 31.4203 34.648 31.4059C34.6678 31.3867 34.69 31.377 34.7147 31.377H35.5448C35.5695 31.377 35.5918 31.3867 35.6115 31.4059C35.6263 31.4203 35.6337 31.4396 35.6337 31.4636V32.322C35.6337 32.346 35.6461 32.358 35.6708 32.358H36.3823C36.407 32.358 36.4292 32.3652 36.449 32.3797C36.4638 32.3989 36.4712 32.4205 36.4712 32.4446V33.0865ZM40.4215 33.8295C40.4511 34.0122 40.461 34.2166 40.4511 34.4426C40.4462 34.5003 40.4141 34.5292 40.3548 34.5292H38.0647C38.035 34.5292 38.0251 34.5412 38.035 34.5652C38.0498 34.6614 38.077 34.7576 38.1166 34.8538C38.245 35.1231 38.5069 35.2577 38.9022 35.2577C39.2184 35.2529 39.4679 35.1279 39.6507 34.8826C39.6705 34.8538 39.6927 34.8393 39.7174 34.8393C39.7322 34.8393 39.7495 34.849 39.7693 34.8682L40.3029 35.3803C40.3276 35.4044 40.34 35.426 40.34 35.4452C40.34 35.4549 40.3301 35.4741 40.3103 35.5029C40.1473 35.7001 39.9373 35.854 39.6803 35.9646C39.4234 36.0704 39.1418 36.1233 38.8355 36.1233C38.4105 36.1233 38.0523 36.0295 37.7608 35.842C37.4644 35.6544 37.2519 35.3923 37.1234 35.0557C37.0197 34.8153 36.9678 34.5003 36.9678 34.1108C36.9678 33.8463 37.0049 33.6131 37.079 33.4111C37.1926 33.0697 37.3902 32.798 37.6719 32.5961C37.9584 32.3941 38.2969 32.2931 38.6872 32.2931C39.1813 32.2931 39.5766 32.4326 39.873 32.7115C40.1744 32.9904 40.3572 33.3631 40.4215 33.8295ZM38.6946 33.1731C38.3834 33.1731 38.1783 33.315 38.0795 33.5987C38.0597 33.6612 38.0424 33.7381 38.0276 33.8295C38.0276 33.8535 38.04 33.8656 38.0647 33.8656H39.3468C39.3765 33.8656 39.3864 33.8535 39.3765 33.8295C39.3518 33.69 39.3394 33.6227 39.3394 33.6275C39.295 33.4833 39.2159 33.3703 39.1023 33.2885C38.9936 33.2116 38.8577 33.1731 38.6946 33.1731ZM42.5634 36.1161C42.2323 36.1161 41.9433 36.0704 41.6962 35.979C41.4492 35.8876 41.2565 35.7602 41.1181 35.5967C40.9847 35.4332 40.918 35.2481 40.918 35.0413V34.9692C40.918 34.9451 40.9279 34.9259 40.9477 34.9115C40.9625 34.8922 40.9823 34.8826 41.007 34.8826H41.8296C41.8543 34.8826 41.8741 34.8922 41.8889 34.9115C41.9087 34.9259 41.9186 34.9451 41.9186 34.9692V34.9764C41.9186 35.0822 41.9779 35.1711 42.0964 35.2433C42.22 35.3202 42.3731 35.3587 42.5559 35.3587C42.7239 35.3587 42.8598 35.3274 42.9636 35.2649C43.0673 35.1976 43.1192 35.1158 43.1192 35.0197C43.1192 34.9331 43.0747 34.8682 42.9858 34.8249C42.8969 34.7816 42.7511 34.7359 42.5485 34.6879C42.3163 34.6302 42.1335 34.5749 42.0001 34.522C41.6839 34.4162 41.4319 34.2863 41.2441 34.1325C41.0564 33.9786 40.9625 33.7574 40.9625 33.4688C40.9625 33.113 41.1033 32.8293 41.385 32.6177C41.6715 32.4109 42.0495 32.3075 42.5189 32.3075C42.8351 32.3075 43.1118 32.358 43.349 32.459C43.5861 32.5552 43.7689 32.6922 43.8974 32.8702C44.0308 33.0481 44.0975 33.25 44.0975 33.4761C44.0975 33.5001 44.0901 33.5217 44.0753 33.541C44.0555 33.5554 44.0333 33.5626 44.0086 33.5626H43.2156C43.1909 33.5626 43.1686 33.5554 43.1489 33.541C43.134 33.5217 43.1266 33.5001 43.1266 33.4761C43.1266 33.3703 43.0723 33.2813 42.9636 33.2092C42.8499 33.137 42.7017 33.101 42.5189 33.101C42.3558 33.101 42.2224 33.1298 42.1187 33.1875C42.0149 33.2452 41.963 33.3246 41.963 33.4256C41.963 33.5217 42.0124 33.5939 42.1113 33.642C42.215 33.69 42.3855 33.7405 42.6227 33.7934L42.8079 33.8439C42.8771 33.8584 42.9512 33.8776 43.0303 33.9016C43.3811 34.0026 43.6578 34.1325 43.8603 34.2911C44.0629 34.4498 44.1642 34.6806 44.1642 34.9836C44.1642 35.3394 44.0185 35.6159 43.7269 35.8131C43.4404 36.0151 43.0525 36.1161 42.5634 36.1161ZM46.9435 33.0865C46.9435 33.1106 46.9336 33.1322 46.9138 33.1515C46.899 33.1659 46.8792 33.1731 46.8545 33.1731H46.143C46.1183 33.1731 46.106 33.1851 46.106 33.2092V34.7384C46.106 34.897 46.1381 35.0149 46.2023 35.0918C46.2715 35.1687 46.3802 35.2072 46.5284 35.2072H46.773C46.7977 35.2072 46.8175 35.2144 46.8323 35.2288C46.8521 35.2481 46.8619 35.2697 46.8619 35.2938V35.979C46.8619 36.0319 46.8323 36.0632 46.773 36.0728C46.5655 36.0824 46.4173 36.0872 46.3283 36.0872C45.9182 36.0872 45.6119 36.0223 45.4093 35.8924C45.2067 35.7578 45.103 35.5078 45.098 35.1423V33.2092C45.098 33.1851 45.0857 33.1731 45.061 33.1731H44.6385C44.6138 33.1731 44.5916 33.1659 44.5718 33.1515C44.557 33.1322 44.5496 33.1106 44.5496 33.0865V32.4446C44.5496 32.4205 44.557 32.3989 44.5718 32.3797C44.5916 32.3652 44.6138 32.358 44.6385 32.358H45.061C45.0857 32.358 45.098 32.346 45.098 32.322V31.4636C45.098 31.4396 45.1054 31.4203 45.1203 31.4059C45.14 31.3867 45.1623 31.377 45.187 31.377H46.017C46.0417 31.377 46.0615 31.3867 46.0763 31.4059C46.0961 31.4203 46.106 31.4396 46.106 31.4636V32.322C46.106 32.346 46.1183 32.358 46.143 32.358H46.8545C46.8792 32.358 46.899 32.3652 46.9138 32.3797C46.9336 32.3989 46.9435 32.4205 46.9435 32.4446V33.0865Z" fill="#252530"/>
<path d="M23.4581 54.3869C23.4037 54.3869 23.3691 54.3628 23.3543 54.3148L22.0055 49.4315L21.998 49.4026C21.998 49.3593 22.0252 49.3377 22.0796 49.3377H22.8059C22.8602 49.3377 22.8948 49.3618 22.9096 49.4098L23.7545 52.699C23.7595 52.7134 23.7669 52.7207 23.7768 52.7207C23.7867 52.7207 23.7941 52.7134 23.799 52.699L24.6068 49.4098C24.6217 49.3618 24.6538 49.3377 24.7032 49.3377H25.4147C25.469 49.3377 25.5036 49.3618 25.5184 49.4098L26.3782 52.7062C26.3831 52.7207 26.3905 52.7279 26.4004 52.7279C26.4103 52.7279 26.4177 52.7207 26.4226 52.7062L27.2527 49.4098C27.2675 49.3618 27.3021 49.3377 27.3565 49.3377H28.0457C28.1149 49.3377 28.1421 49.369 28.1272 49.4315L26.8451 54.3148C26.8302 54.3628 26.7957 54.3869 26.7413 54.3869H26.0521C25.9977 54.3869 25.9631 54.3628 25.9483 54.3148L25.0812 50.8741C25.0762 50.8597 25.0688 50.8501 25.0589 50.8452C25.0491 50.8452 25.0416 50.8549 25.0367 50.8741L24.2066 54.3148C24.1918 54.3628 24.1597 54.3869 24.1103 54.3869H23.4581ZM28.9499 54.3869C28.9252 54.3869 28.903 54.3773 28.8832 54.358C28.8684 54.3436 28.861 54.3244 28.861 54.3003V49.4243C28.861 49.4002 28.8684 49.381 28.8832 49.3666C28.903 49.3473 28.9252 49.3377 28.9499 49.3377H29.6317C29.6564 49.3377 29.6762 49.3473 29.691 49.3666C29.7108 49.381 29.7207 49.4002 29.7207 49.4243V54.3003C29.7207 54.3244 29.7108 54.3436 29.691 54.358C29.6762 54.3773 29.6564 54.3869 29.6317 54.3869H28.9499ZM33.8191 49.4243C33.8191 49.4002 33.8266 49.381 33.8414 49.3666C33.8611 49.3473 33.8834 49.3377 33.9081 49.3377H34.5899C34.6146 49.3377 34.6344 49.3473 34.6492 49.3666C34.669 49.381 34.6789 49.4002 34.6789 49.4243V54.3003C34.6789 54.3244 34.669 54.3436 34.6492 54.358C34.6344 54.3773 34.6146 54.3869 34.5899 54.3869H33.9303C33.8809 54.3869 33.8463 54.3677 33.8266 54.3292L31.6921 50.9246C31.6822 50.9102 31.6723 50.903 31.6624 50.903C31.6526 50.9078 31.6476 50.9198 31.6476 50.939L31.6624 54.3003C31.6624 54.3244 31.6526 54.3436 31.6328 54.358C31.618 54.3773 31.5982 54.3869 31.5735 54.3869H30.8917C30.867 54.3869 30.8447 54.3773 30.825 54.358C30.8101 54.3436 30.8027 54.3244 30.8027 54.3003V49.4243C30.8027 49.4002 30.8101 49.381 30.825 49.3666C30.8447 49.3473 30.867 49.3377 30.8917 49.3377H31.5513C31.6007 49.3377 31.6353 49.3569 31.655 49.3954L33.7821 52.8C33.792 52.8144 33.8019 52.8192 33.8117 52.8144C33.8216 52.8144 33.8266 52.8048 33.8266 52.7856L33.8191 49.4243ZM39.1701 49.3377C39.1948 49.3377 39.2146 49.3473 39.2294 49.3666C39.2492 49.381 39.2591 49.4002 39.2591 49.4243V49.9797C39.2591 50.0037 39.2492 50.023 39.2294 50.0374C39.2146 50.0566 39.1948 50.0662 39.1701 50.0662H37.8065C37.7817 50.0662 37.7694 50.0783 37.7694 50.1023V54.3003C37.7694 54.3244 37.762 54.3436 37.7472 54.358C37.7274 54.3773 37.7052 54.3869 37.6805 54.3869H36.9986C36.9739 54.3869 36.9541 54.3773 36.9393 54.358C36.9196 54.3436 36.9097 54.3244 36.9097 54.3003V50.1023C36.9097 50.0783 36.8973 50.0662 36.8726 50.0662H35.5608C35.5361 50.0662 35.5139 50.0566 35.4941 50.0374C35.4793 50.023 35.4719 50.0037 35.4719 49.9797V49.4243C35.4719 49.4002 35.4793 49.381 35.4941 49.3666C35.5139 49.3473 35.5361 49.3377 35.5608 49.3377H39.1701ZM43.5651 49.9725C43.5651 49.9965 43.5552 50.0157 43.5354 50.0302C43.5206 50.0494 43.5008 50.059 43.4761 50.059H40.9489C40.9242 50.059 40.9118 50.071 40.9118 50.0951V51.4439C40.9118 51.468 40.9242 51.48 40.9489 51.48H42.6461C42.6708 51.48 42.693 51.4872 42.7128 51.5016C42.7276 51.5209 42.735 51.5425 42.735 51.5666V52.1148C42.735 52.1388 42.7276 52.1604 42.7128 52.1797C42.693 52.1941 42.6708 52.2013 42.6461 52.2013H40.9489C40.9242 52.2013 40.9118 52.2133 40.9118 52.2374V53.6295C40.9118 53.6536 40.9242 53.6656 40.9489 53.6656H43.4761C43.5008 53.6656 43.5206 53.6752 43.5354 53.6944C43.5552 53.7089 43.5651 53.7281 43.5651 53.7521V54.3003C43.5651 54.3244 43.5552 54.3436 43.5354 54.358C43.5206 54.3773 43.5008 54.3869 43.4761 54.3869H40.141C40.1163 54.3869 40.0941 54.3773 40.0743 54.358C40.0595 54.3436 40.0521 54.3244 40.0521 54.3003V49.4243C40.0521 49.4002 40.0595 49.381 40.0743 49.3666C40.0941 49.3473 40.1163 49.3377 40.141 49.3377H43.4761C43.5008 49.3377 43.5206 49.3473 43.5354 49.3666C43.5552 49.381 43.5651 49.4002 43.5651 49.4243V49.9725ZM47.3523 54.3869C47.3029 54.3869 47.2683 54.3652 47.2485 54.322L46.2702 52.2446C46.2603 52.2254 46.2455 52.2157 46.2257 52.2157H45.3364C45.3117 52.2157 45.2993 52.2278 45.2993 52.2518V54.3003C45.2993 54.3244 45.2894 54.3436 45.2697 54.358C45.2549 54.3773 45.2351 54.3869 45.2104 54.3869H44.5285C44.5038 54.3869 44.4816 54.3773 44.4618 54.358C44.447 54.3436 44.4396 54.3244 44.4396 54.3003V49.4243C44.4396 49.4002 44.447 49.381 44.4618 49.3666C44.4816 49.3473 44.5038 49.3377 44.5285 49.3377H46.5667C46.8681 49.3377 47.1349 49.3978 47.3671 49.518C47.5993 49.6431 47.7797 49.8162 47.9081 50.0374C48.0366 50.2634 48.1008 50.5207 48.1008 50.8092C48.1008 51.141 48.0119 51.4223 47.834 51.6531C47.6611 51.8887 47.419 52.0522 47.1077 52.1436C47.0978 52.1436 47.0904 52.1484 47.0855 52.158C47.0805 52.1676 47.0805 52.1773 47.0855 52.1869L48.1305 54.2859C48.1403 54.3051 48.1453 54.3196 48.1453 54.3292C48.1453 54.3677 48.1181 54.3869 48.0638 54.3869H47.3523ZM45.3364 50.059C45.3117 50.059 45.2993 50.071 45.2993 50.0951V51.5305C45.2993 51.5545 45.3117 51.5666 45.3364 51.5666H46.4481C46.6852 51.5666 46.8779 51.4968 47.0262 51.3574C47.1695 51.2227 47.2411 51.0424 47.2411 50.8164C47.2411 50.5904 47.1695 50.4077 47.0262 50.2682C46.8779 50.1287 46.6852 50.059 46.4481 50.059H45.3364Z" fill="white"/>
<path d="M25.3627 67.4138C25.3479 67.4282 25.3429 67.4426 25.3479 67.457C25.3577 67.4715 25.3726 67.4787 25.3923 67.4787H28.305C28.3396 67.4787 28.3692 67.4907 28.3939 67.5148C28.4236 67.5388 28.4384 67.5677 28.4384 67.6013V68.6184C28.4384 68.652 28.4236 68.6809 28.3939 68.7049C28.3692 68.729 28.3396 68.741 28.305 68.741H23.4728C23.4333 68.741 23.4012 68.729 23.3764 68.7049C23.3517 68.6809 23.3394 68.652 23.3394 68.6184V67.6518C23.3394 67.5893 23.3616 67.5364 23.4061 67.4931C23.7569 67.1613 24.1151 66.7983 24.4807 66.4039C24.8464 66.0096 25.0761 65.7644 25.17 65.6682C25.3676 65.4374 25.5702 65.2162 25.7777 65.0046C26.4299 64.3025 26.756 63.7808 26.756 63.4393C26.756 63.1941 26.6671 62.9921 26.4892 62.8334C26.3113 62.6796 26.0791 62.6026 25.7925 62.6026C25.506 62.6026 25.2738 62.6796 25.0959 62.8334C24.9131 62.9921 24.8217 63.2013 24.8217 63.461V63.7207C24.8217 63.7543 24.8093 63.7832 24.7846 63.8072C24.7599 63.8313 24.7303 63.8433 24.6957 63.8433H23.4283C23.3937 63.8433 23.3641 63.8313 23.3394 63.8072C23.3097 63.7832 23.2949 63.7543 23.2949 63.7207V63.2302C23.3196 62.8551 23.4431 62.5209 23.6655 62.2275C23.8878 61.939 24.1818 61.7178 24.5474 61.5639C24.918 61.4101 25.333 61.3331 25.7925 61.3331C26.3015 61.3331 26.7437 61.4269 27.1192 61.6144C27.4947 61.7972 27.7837 62.0448 27.9863 62.3574C28.1938 62.6748 28.2976 63.0234 28.2976 63.4033C28.2976 63.6966 28.221 63.9972 28.0678 64.3049C27.9196 64.6127 27.6948 64.9445 27.3934 65.3003C27.1711 65.5696 26.9314 65.8389 26.6745 66.1082C26.4176 66.3727 26.0347 66.755 25.5257 67.2551L25.3627 67.4138ZM31.9291 68.8564C31.1386 68.8564 30.516 68.6424 30.0615 68.2144C29.602 67.7865 29.3722 67.2022 29.3722 66.4616V63.699C29.3722 62.9729 29.602 62.3983 30.0615 61.9751C30.516 61.5471 31.1386 61.3331 31.9291 61.3331C32.7147 61.3331 33.3398 61.5471 33.8042 61.9751C34.2637 62.3983 34.4935 62.9729 34.4935 63.699V66.4616C34.4935 67.2022 34.2637 67.7865 33.8042 68.2144C33.3398 68.6424 32.7147 68.8564 31.9291 68.8564ZM31.9291 67.5941C32.2503 67.5941 32.5048 67.4979 32.6925 67.3056C32.8852 67.1132 32.9816 66.856 32.9816 66.5338V63.6557C32.9816 63.3384 32.8852 63.0835 32.6925 62.8912C32.5048 62.6988 32.2503 62.6026 31.9291 62.6026C31.6129 62.6026 31.3609 62.6988 31.1732 62.8912C30.9805 63.0835 30.8841 63.3384 30.8841 63.6557V66.5338C30.8841 66.856 30.9805 67.1132 31.1732 67.3056C31.3609 67.4979 31.6129 67.5941 31.9291 67.5941ZM37.5025 67.4138C37.4877 67.4282 37.4852 67.4426 37.4951 67.457C37.5 67.4715 37.5148 67.4787 37.5395 67.4787H40.4522C40.4868 67.4787 40.5164 67.4907 40.5411 67.5148C40.5658 67.5388 40.5782 67.5677 40.5782 67.6013V68.6184C40.5782 68.652 40.5658 68.6809 40.5411 68.7049C40.5164 68.729 40.4868 68.741 40.4522 68.741H35.6126C35.578 68.741 35.5483 68.729 35.5236 68.7049C35.4989 68.6809 35.4866 68.652 35.4866 68.6184V67.6518C35.4866 67.5893 35.5064 67.5364 35.5459 67.4931C35.9016 67.1613 36.2598 66.7983 36.6205 66.4039C36.9861 66.0096 37.2159 65.7644 37.3098 65.6682C37.5124 65.4374 37.7174 65.2162 37.9249 65.0046C38.5771 64.3025 38.9032 63.7808 38.9032 63.4393C38.9032 63.1941 38.8143 62.9921 38.6364 62.8334C38.4536 62.6796 38.2189 62.6026 37.9323 62.6026C37.6458 62.6026 37.4135 62.6796 37.2357 62.8334C37.0578 62.9921 36.9689 63.2013 36.9689 63.461V63.7207C36.9689 63.7543 36.9565 63.7832 36.9318 63.8072C36.9071 63.8313 36.875 63.8433 36.8355 63.8433H35.5681C35.5335 63.8433 35.5039 63.8313 35.4792 63.8072C35.4545 63.7832 35.4421 63.7543 35.4421 63.7207V63.2302C35.4619 62.8551 35.5829 62.5209 35.8053 62.2275C36.0276 61.939 36.3241 61.7178 36.6946 61.5639C37.0652 61.4101 37.4778 61.3331 37.9323 61.3331C38.4412 61.3331 38.8835 61.4269 39.259 61.6144C39.6394 61.7972 39.9309 62.0448 40.1335 62.3574C40.3361 62.6748 40.4374 63.0234 40.4374 63.4033C40.4374 63.6966 40.3633 63.9972 40.215 64.3049C40.0619 64.6127 39.8346 64.9445 39.5332 65.3003C39.3108 65.5696 39.0712 65.8389 38.8143 66.1082C38.5574 66.3727 38.1744 66.755 37.6655 67.2551L37.5025 67.4138ZM43.5205 67.4138C43.5057 67.4282 43.5032 67.4426 43.5131 67.457C43.518 67.4715 43.5328 67.4787 43.5575 67.4787H46.4702C46.5048 67.4787 46.5344 67.4907 46.5591 67.5148C46.5838 67.5388 46.5962 67.5677 46.5962 67.6013V68.6184C46.5962 68.652 46.5838 68.6809 46.5591 68.7049C46.5344 68.729 46.5048 68.741 46.4702 68.741H41.6306C41.596 68.741 41.5664 68.729 41.5417 68.7049C41.517 68.6809 41.5046 68.652 41.5046 68.6184V67.6518C41.5046 67.5893 41.5244 67.5364 41.5639 67.4931C41.9196 67.1613 42.2779 66.7983 42.6385 66.4039C43.0042 66.0096 43.2339 65.7644 43.3278 65.6682C43.5304 65.4374 43.7354 65.2162 43.9429 65.0046C44.5951 64.3025 44.9212 63.7808 44.9212 63.4393C44.9212 63.1941 44.8323 62.9921 44.6544 62.8334C44.4716 62.6796 44.2369 62.6026 43.9503 62.6026C43.6638 62.6026 43.4316 62.6796 43.2537 62.8334C43.0758 62.9921 42.9869 63.2013 42.9869 63.461V63.7207C42.9869 63.7543 42.9745 63.7832 42.9498 63.8072C42.9251 63.8313 42.893 63.8433 42.8535 63.8433H41.5861C41.5515 63.8433 41.5219 63.8313 41.4972 63.8072C41.4725 63.7832 41.4601 63.7543 41.4601 63.7207V63.2302C41.4799 62.8551 41.6009 62.5209 41.8233 62.2275C42.0456 61.939 42.3421 61.7178 42.7127 61.5639C43.0832 61.4101 43.4958 61.3331 43.9503 61.3331C44.4593 61.3331 44.9015 61.4269 45.277 61.6144C45.6574 61.7972 45.9489 62.0448 46.1515 62.3574C46.3541 62.6748 46.4554 63.0234 46.4554 63.4033C46.4554 63.6966 46.3813 63.9972 46.233 64.3049C46.0799 64.6127 45.8526 64.9445 45.5512 65.3003C45.3289 65.5696 45.0892 65.8389 44.8323 66.1082C44.5754 66.3727 44.1925 66.755 43.6835 67.2551L43.5205 67.4138Z" fill="#252530"/>
</g>
<defs>
<clipPath id="clip0_493_801">
<rect width="69.6667" height="88" fill="white" transform="translate(0.333984)"/>
</clipPath>
</defs>
</svg>
