<svg width="28" height="36" viewBox="0 0 28 36" fill="none" xmlns="http://www.w3.org/2000/svg">
<path d="M10.6214 27H12.333V18.6666H15.6664V27H17.378C17.598 24.9966 18.6197 23.3433 20.278 21.5383C20.4664 21.335 21.6647 20.0933 21.8064 19.9166C22.9835 18.446 23.7213 16.6728 23.9349 14.8012C24.1484 12.9297 23.829 11.0359 23.0134 9.33786C22.1978 7.63986 20.9192 6.20676 19.3249 5.20359C17.7305 4.20041 15.8852 3.66797 14.0015 3.66756C12.1178 3.66716 10.2723 4.19882 8.67746 5.20131C7.08266 6.20381 5.80344 7.63636 4.98712 9.33401C4.17081 11.0317 3.85059 12.9253 4.06334 14.797C4.2761 16.6687 5.01317 18.4422 6.18969 19.9133C6.33302 20.0916 7.53469 21.335 7.71969 21.5366C9.37969 23.3433 10.4014 24.9966 10.6214 27ZM10.6664 30.3333V32H17.333V30.3333H10.6664ZM3.58969 22C2.02001 20.0388 1.03627 17.6741 0.751796 15.1782C0.467324 12.6824 0.89369 10.157 1.98178 7.89286C3.06987 5.62876 4.77541 3.71808 6.90195 2.38093C9.02848 1.04378 11.4895 0.334559 14.0015 0.334961C16.5135 0.335363 18.9743 1.04537 21.1004 2.3832C23.2265 3.72103 24.9314 5.63226 26.0188 7.89671C27.1061 10.1612 27.5317 12.6867 27.2464 15.1825C26.9612 17.6782 25.9767 20.0426 24.4064 22.0033C23.373 23.29 20.6664 25.3333 20.6664 27.8333V32C20.6664 32.884 20.3152 33.7319 19.69 34.357C19.0649 34.9821 18.2171 35.3333 17.333 35.3333H10.6664C9.7823 35.3333 8.93445 34.9821 8.30933 34.357C7.68421 33.7319 7.33302 32.884 7.33302 32V27.8333C7.33302 25.3333 4.62469 23.29 3.58969 22Z" fill="#07081B"/>
</svg>
