<svg width="32" height="32" viewBox="0 0 32 32" fill="none" xmlns="http://www.w3.org/2000/svg">
<path d="M2.66602 15.9991C2.66602 14.8458 2.81268 13.7284 3.08735 12.6604C3.82397 12.6992 4.55695 12.5334 5.20527 12.1816C5.85359 11.8298 6.39199 11.3055 6.76096 10.6668C7.12993 10.028 7.31509 9.29972 7.29598 8.56233C7.27687 7.82494 7.05424 7.1072 6.65268 6.48844C8.26461 4.90253 10.2537 3.7531 12.4327 3.14844C12.7673 3.8064 13.2775 4.35893 13.9068 4.74485C14.5361 5.13078 15.2598 5.33504 15.998 5.33504C16.7362 5.33504 17.46 5.13078 18.0892 4.74485C18.7185 4.35893 19.2287 3.8064 19.5634 3.14844C21.7423 3.7531 23.7314 4.90253 25.3433 6.48844C24.9413 7.10731 24.7184 7.82533 24.6991 8.56306C24.6799 9.30078 24.8651 10.0295 25.2343 10.6685C25.6035 11.3075 26.1422 11.8319 26.7909 12.1837C27.4397 12.5355 28.1731 12.7009 28.91 12.6618C29.1847 13.7284 29.3314 14.8458 29.3314 15.9991C29.3314 17.1524 29.1847 18.2698 28.91 19.3378C28.1733 19.2988 27.4401 19.4643 26.7916 19.8161C26.1431 20.1678 25.6045 20.692 25.2354 21.3308C24.8662 21.9696 24.6809 22.698 24.7 23.4355C24.7191 24.173 24.9417 24.8909 25.3433 25.5098C23.7314 27.0957 21.7423 28.2451 19.5634 28.8498C19.2287 28.1918 18.7185 27.6393 18.0892 27.2534C17.46 26.8674 16.7362 26.6632 15.998 26.6632C15.2598 26.6632 14.5361 26.8674 13.9068 27.2534C13.2775 27.6393 12.7673 28.1918 12.4327 28.8498C10.2537 28.2451 8.26461 27.0957 6.65268 25.5098C7.05469 24.8909 7.27766 24.1729 7.29691 23.4352C7.31616 22.6974 7.13095 21.9688 6.76176 21.3298C6.39258 20.6908 5.85382 20.1663 5.20509 19.8145C4.55636 19.4627 3.82295 19.2973 3.08602 19.3364C2.81268 18.2711 2.66602 17.1538 2.66602 15.9991ZM9.07135 19.9991C9.91135 21.4538 10.1513 23.1271 9.82335 24.6978C10.3673 25.0844 10.946 25.4191 11.5527 25.6978C12.7749 24.6029 14.3584 23.998 15.9993 23.9991C17.6793 23.9991 19.25 24.6271 20.446 25.6978C21.0527 25.4191 21.6313 25.0844 22.1754 24.6978C21.8386 23.0924 22.1064 21.4192 22.9273 19.9991C23.7469 18.5783 25.062 17.51 26.6207 16.9991C26.6823 16.3339 26.6823 15.6643 26.6207 14.9991C25.0615 14.4885 23.7458 13.4202 22.926 11.9991C22.105 10.579 21.8373 8.90582 22.174 7.30044C21.6302 6.91367 21.0512 6.57886 20.4447 6.30044C19.2228 7.39501 17.6398 7.99992 15.9993 7.9991C14.3584 8.00024 12.7749 7.39532 11.5527 6.30044C10.9462 6.57887 10.3672 6.91367 9.82335 7.30044C10.1601 8.90582 9.89231 10.579 9.07135 11.9991C8.25184 13.4199 6.93666 14.4882 5.37802 14.9991C5.31635 15.6643 5.31635 16.3339 5.37802 16.9991C6.93716 17.5097 8.25285 18.578 9.07268 19.9991H9.07135ZM15.9993 19.9991C14.9385 19.9991 13.9211 19.5777 13.1709 18.8275C12.4208 18.0774 11.9993 17.06 11.9993 15.9991C11.9993 14.9382 12.4208 13.9208 13.1709 13.1707C13.9211 12.4205 14.9385 11.9991 15.9993 11.9991C17.0602 11.9991 18.0776 12.4205 18.8278 13.1707C19.5779 13.9208 19.9993 14.9382 19.9993 15.9991C19.9993 17.06 19.5779 18.0774 18.8278 18.8275C18.0776 19.5777 17.0602 19.9991 15.9993 19.9991ZM15.9993 17.3324C16.353 17.3324 16.6921 17.192 16.9422 16.9419C17.1922 16.6919 17.3327 16.3527 17.3327 15.9991C17.3327 15.6455 17.1922 15.3063 16.9422 15.0563C16.6921 14.8062 16.353 14.6658 15.9993 14.6658C15.6457 14.6658 15.3066 14.8062 15.0565 15.0563C14.8065 15.3063 14.666 15.6455 14.666 15.9991C14.666 16.3527 14.8065 16.6919 15.0565 16.9419C15.3066 17.192 15.6457 17.3324 15.9993 17.3324Z" fill="white"/>
</svg>
