<svg width="31" height="34" viewBox="0 0 31 34" fill="none" xmlns="http://www.w3.org/2000/svg">
<path d="M13.3333 0.333008C20.1133 0.333008 25.71 5.39301 26.5567 11.9413L30.3067 17.8397C30.5533 18.228 30.5033 18.8063 29.9317 19.053L26.6667 20.4497V25.333C26.6667 27.1747 25.175 28.6663 23.3333 28.6663H20.0017L20 33.6663H5V27.5097C5 25.543 4.27333 23.6813 2.92667 22.0013C1.095 19.718 0 16.8197 0 13.6663C0 6.30301 5.97 0.333008 13.3333 0.333008ZM13.3333 3.66634C7.81 3.66634 3.33333 8.14301 3.33333 13.6663C3.33333 15.9747 4.11333 18.1547 5.52667 19.9163C7.35 22.1897 8.33333 24.778 8.33333 27.5097V30.333H16.6667L16.67 25.333H23.3333V18.253L25.9167 17.1463L23.345 13.1047L23.25 12.368C22.61 7.41801 18.3733 3.66634 13.3333 3.66634Z" fill="black"/>
</svg>
