<svg width="20" height="20" viewBox="0 0 20 20" fill="none" xmlns="http://www.w3.org/2000/svg">
<path d="M12.5 3.33268H4.16667V16.666H15.8333V6.66602H12.5V3.33268ZM2.5 2.49268C2.5 2.03602 2.8725 1.66602 3.3325 1.66602H13.3333L17.5 5.83268V17.4935C17.5008 17.603 17.48 17.7115 17.4388 17.8129C17.3976 17.9143 17.3369 18.0066 17.2601 18.0845C17.1832 18.1624 17.0918 18.2244 16.991 18.267C16.8902 18.3096 16.7819 18.3319 16.6725 18.3327H3.3275C3.10865 18.3312 2.89918 18.2436 2.74435 18.0889C2.58951 17.9342 2.50175 17.7249 2.5 17.506V2.49268ZM10 9.58268C9.44747 9.58268 8.91756 9.36319 8.52686 8.97249C8.13616 8.58179 7.91667 8.05188 7.91667 7.49935C7.91667 6.94682 8.13616 6.41691 8.52686 6.02621C8.91756 5.63551 9.44747 5.41602 10 5.41602C10.5525 5.41602 11.0824 5.63551 11.4731 6.02621C11.8638 6.41691 12.0833 6.94682 12.0833 7.49935C12.0833 8.05188 11.8638 8.58179 11.4731 8.97249C11.0824 9.36319 10.5525 9.58268 10 9.58268ZM6.2725 14.166C6.37352 13.248 6.80974 12.3996 7.49757 11.7833C8.1854 11.167 9.07646 10.8262 10 10.8262C10.9235 10.8262 11.8146 11.167 12.5024 11.7833C13.1903 12.3996 13.6265 13.248 13.7275 14.166H6.2725Z" fill="#DFE3EC"/>
</svg>
