<svg width="34" height="38" viewBox="0 0 34 38" fill="none" xmlns="http://www.w3.org/2000/svg">
<path d="M29.7209 7.46221C29.6942 7.2721 29.5244 7.16702 29.384 7.15548C29.2439 7.14394 26.2784 6.92862 26.2784 6.92862C26.2784 6.92862 24.2189 4.92515 23.9929 4.70345C23.7667 4.48175 23.325 4.54917 23.1536 4.59867C23.1282 4.60596 22.7036 4.73443 22.0009 4.94732C21.3129 3.00762 20.0989 1.22493 17.9628 1.22493C17.9039 1.22493 17.8431 1.22736 17.7824 1.2307C17.1749 0.443523 16.4224 0.101562 15.7724 0.101562C10.7967 0.101562 8.41945 6.19641 7.67405 9.2938C5.74065 9.88084 4.367 10.2981 4.19158 10.3522C3.11237 10.6838 3.07828 10.7172 2.93664 11.7136C2.82971 12.468 0.00585938 33.8664 0.00585938 33.8664L22.0099 37.9061L33.9326 35.3787C33.9326 35.3787 29.7472 7.65233 29.7209 7.46221ZM20.7847 5.316C20.2321 5.48364 19.6039 5.67406 18.923 5.88057C18.9236 5.75211 18.9242 5.62547 18.9242 5.48729C18.9242 4.28162 18.7534 3.31101 18.4794 2.54145C19.58 2.67689 20.313 3.90382 20.7847 5.316ZM17.1142 2.78045C17.4201 3.5318 17.619 4.60991 17.619 6.06491C17.619 6.13932 17.6184 6.20735 17.6178 6.27629C16.4069 6.64376 15.0912 7.04281 13.7724 7.44308C14.5128 4.64301 15.9007 3.29066 17.1142 2.78045ZM15.6357 1.40927C15.8505 1.40927 16.0669 1.48064 16.2739 1.62034C14.6793 2.35559 12.97 4.20752 12.2481 7.90561C11.1931 8.2257 10.1619 8.53851 9.20855 8.82793C10.0541 6.00721 12.0618 1.40927 15.6357 1.40927Z" fill="#95BF46"/>
<path d="M29.3845 7.15562C29.2444 7.14408 26.279 6.92876 26.279 6.92876C26.279 6.92876 24.2194 4.92528 23.9935 4.70359C23.9089 4.62098 23.7948 4.57877 23.6755 4.56055L22.0117 37.9059L33.9332 35.3789C33.9332 35.3789 29.7478 7.65246 29.7214 7.46235C29.6948 7.27224 29.5249 7.16716 29.3845 7.15562Z" fill="#5E8E3E"/>
<path d="M17.9637 13.6105L16.4936 17.8953C16.4936 17.8953 15.2055 17.2217 13.6267 17.2217C11.3121 17.2217 11.1955 18.6451 11.1955 19.0038C11.1955 20.9608 16.4019 21.7106 16.4019 26.2946C16.4019 29.901 14.0674 32.2233 10.9197 32.2233C7.14247 32.2233 5.21094 29.9198 5.21094 29.9198L6.22227 26.6457C6.22227 26.6457 8.20773 28.316 9.88326 28.316C10.978 28.316 11.4233 27.4714 11.4233 26.8543C11.4233 24.3014 7.15208 24.1876 7.15208 19.9929C7.15208 16.4625 9.73821 13.0459 14.9585 13.0459C16.97 13.0459 17.9637 13.6105 17.9637 13.6105Z" fill="white"/>
</svg>
