<svg width="18" height="17" viewBox="0 0 18 17" fill="none" xmlns="http://www.w3.org/2000/svg">
<path d="M1.63371 1.72418C2.60043 0.757288 3.89705 0.191754 5.26338 0.141057C6.62971 0.0903607 7.96467 0.558253 9.00038 1.45085C10.0352 0.55974 11.3684 0.092374 12.7331 0.142317C14.0977 0.192259 15.3932 0.755825 16.3601 1.72019C17.327 2.68455 17.894 3.97854 17.9475 5.34309C18.001 6.70764 17.5371 8.04206 16.6487 9.07918L10.1779 15.5708C9.88059 15.8682 9.48186 16.0423 9.06165 16.058C8.64143 16.0738 8.23079 15.9301 7.91205 15.6558L7.82038 15.5717L1.35038 9.07918C0.462455 8.04296 -0.00163637 6.70977 0.0508931 5.34617C0.103423 3.98256 0.668702 2.68903 1.63371 1.72418ZM2.81205 2.90251C2.13058 3.58417 1.73776 4.50205 1.7151 5.46566C1.69245 6.42926 2.0417 7.36459 2.69038 8.07751L2.81205 8.20585L8.99955 14.3933L13.4187 9.97335L10.4729 7.02751L9.58955 7.91085C9.35744 8.14307 9.08186 8.3273 8.77855 8.45302C8.47524 8.57874 8.15014 8.64348 7.8218 8.64356C7.15871 8.64372 6.52271 8.38045 6.05371 7.91168C5.58472 7.44291 5.32116 6.80703 5.321 6.14394C5.32085 5.48084 5.58411 4.84484 6.05288 4.37585L7.80455 2.62335C7.10744 2.06699 6.23489 1.77726 5.34345 1.80612C4.45202 1.83498 3.60004 2.18056 2.94038 2.78085L2.81205 2.90251ZM9.88372 5.25918C10.04 5.10296 10.2519 5.01519 10.4729 5.01519C10.6939 5.01519 10.9058 5.10296 11.062 5.25918L14.597 8.79418L15.187 8.20585C15.8799 7.51346 16.2744 6.57745 16.2861 5.59798C16.2978 4.61852 15.9257 3.67336 15.2496 2.96464C14.5734 2.25592 13.6468 1.83991 12.6678 1.80556C11.6889 1.77121 10.7354 2.12126 10.0112 2.78085L9.88372 2.90251L7.23205 5.55418C7.08761 5.69853 7.00119 5.89088 6.98921 6.09474C6.97723 6.29859 7.04051 6.49974 7.16705 6.66002L7.23205 6.73251C7.37639 6.87696 7.56875 6.96337 7.7726 6.97535C7.97645 6.98733 8.17761 6.92405 8.33788 6.79751L8.41038 6.73251L9.88372 5.25918Z" fill="#878CA6"/>
</svg>
