<svg width="150" height="70" viewBox="0 0 150 70" fill="none" xmlns="http://www.w3.org/2000/svg">
<path d="M90.0105 30.4286H86.2723C86.1961 30.119 86.1375 29.7595 86.1 29.3513C86.0239 28.5575 86.0239 27.758 86.1 26.9642C86.1381 26.5573 86.1955 26.1989 86.2723 25.8863H95.5904V55.7591C95.1239 55.8413 94.6536 55.8993 94.1812 55.9329C93.7122 55.9693 93.2419 55.9885 92.7715 55.9905C92.3208 55.9876 91.8703 55.9684 91.4209 55.9329C90.9487 55.8991 90.4786 55.8409 90.0123 55.7585V30.428L90.0105 30.4286ZM122.448 37.9412C122.448 36.8538 122.304 35.8156 122.017 34.825C121.731 33.8343 121.307 32.9723 120.752 32.2344C120.197 31.4964 119.486 30.9056 118.623 30.4589C117.76 30.0122 116.735 29.7885 115.546 29.7885C113.207 29.7885 111.415 30.5075 110.168 31.9437C108.921 33.3799 108.164 35.3784 107.896 37.9412H122.448ZM107.839 42.2497C107.915 45.5106 108.749 47.8984 110.341 49.4117C111.932 50.925 114.281 51.6837 117.386 51.6837C120.108 51.6837 122.696 51.1973 125.15 50.2273C125.456 50.8099 125.705 51.5182 125.897 52.3529C126.085 53.1654 126.201 53.9936 126.242 54.8272C124.978 55.3729 123.587 55.7781 122.073 56.0504C120.56 56.3227 118.88 56.4579 117.041 56.4579C114.356 56.4579 112.061 56.0783 110.139 55.3219C108.217 54.5656 106.639 53.4966 105.393 52.1185C104.146 50.7405 103.236 49.1109 102.66 47.2268C102.084 45.3428 101.797 43.2772 101.797 41.0253C101.797 38.8126 102.075 36.7452 102.631 34.8232C103.187 32.9012 104.041 31.233 105.19 29.8164C106.339 28.3998 107.788 27.2733 109.533 26.4392C111.278 25.6051 113.337 25.1875 115.716 25.1875C117.748 25.1875 119.53 25.5434 121.065 26.2357C122.6 26.928 123.884 27.8956 124.919 29.1188C125.954 30.342 126.74 31.7978 127.277 33.4849C127.813 35.172 128.082 37.0086 128.082 38.9888C128.082 39.5322 128.062 40.104 128.024 40.7062C127.992 41.221 127.954 41.7353 127.909 42.2491L107.837 42.2503L107.839 42.2497ZM134.356 25.8863C134.756 25.8127 135.159 25.7546 135.564 25.7119C135.965 25.6729 136.368 25.6537 136.771 25.6544C137.193 25.6544 137.615 25.674 138.037 25.7119C138.459 25.7499 138.842 25.8098 139.188 25.8863C139.302 26.4689 139.416 27.2365 139.532 28.1862C139.647 29.136 139.705 29.9422 139.705 30.603C140.51 29.2837 141.58 28.1376 142.897 27.1671C144.213 26.1966 145.916 25.7113 147.987 25.7113C148.293 25.7113 148.61 25.7214 148.936 25.741C149.215 25.756 149.493 25.7849 149.77 25.8276C149.849 26.1928 149.907 26.5624 149.943 26.9345C149.981 27.3225 149.999 27.7295 149.999 28.1566C149.999 28.6228 149.97 29.1087 149.914 29.6123C149.859 30.0992 149.792 30.5846 149.713 31.0681C149.402 30.9907 149.084 30.9517 148.764 30.9518H147.987C146.952 30.9518 145.964 31.0978 145.025 31.3884C144.086 31.6791 143.242 32.1952 142.494 32.9308C141.745 33.6664 141.146 34.6784 140.712 35.9598C140.279 37.2412 140.05 38.8903 140.05 40.909V55.7585C139.584 55.8408 139.113 55.899 138.641 55.9329C138.124 55.9721 137.654 55.9905 137.232 55.9905C136.762 55.9886 136.292 55.9694 135.823 55.9329C135.332 55.8968 134.842 55.8388 134.356 55.7591V25.8863ZM93.9902 9.93581C93.9903 10.6329 93.8661 11.3242 93.6234 11.9765C92.9789 12.2223 92.2959 12.3483 91.6072 12.3484H91.599C90.9103 12.3486 90.2273 12.2228 89.5828 11.9771C89.3398 11.3247 89.2153 10.6331 89.2154 9.93581V9.92692C89.2154 9.20912 89.3455 8.52098 89.5816 7.88624C90.2262 7.64019 90.9095 7.51438 91.5984 7.51488H91.6061C92.2948 7.51423 92.9779 7.64005 93.6223 7.88624C93.8652 8.53868 93.9895 9.23025 93.9891 9.92751V9.93641H93.9902V9.93581ZM101.018 8.31988H95.4457L99.3861 4.33048C98.7665 3.44951 98.0059 2.67958 97.1355 2.05251L93.1945 6.04192V0.399798C92.6706 0.310536 92.1403 0.265494 91.609 0.265137L91.599 0.265137C91.0582 0.265137 90.5291 0.312594 90.0129 0.399798V6.04251L86.0713 2.05251C85.6371 2.36526 85.2297 2.71431 84.8531 3.09598L84.8514 3.09776C84.4748 3.47924 84.1303 3.89177 83.8213 4.33107L87.7629 8.32048H82.1889C82.1889 8.32048 82.0564 9.38056 82.0564 9.9281V9.93404C82.0564 10.4822 82.1021 11.0196 82.1895 11.5357H87.7635L83.8213 15.5245C84.4414 16.4054 85.2022 17.1755 86.0725 17.8031L90.0135 13.8137V19.4564C90.5291 19.5436 91.0576 19.5899 91.5973 19.5905H91.6107C92.1414 19.59 92.6712 19.5452 93.1945 19.4564V13.8202L97.1361 17.8102C97.5702 17.4972 97.9779 17.1481 98.3549 16.7667H98.356C98.7323 16.385 99.0766 15.9722 99.3855 15.5328L95.4451 11.5423H101.019C101.105 11.0202 101.151 10.4845 101.151 9.93819V9.92395C101.151 9.38649 101.106 8.85615 101.019 8.32048L101.018 8.31988ZM0 54.9446L15.5291 30.4862H1.83984C1.725 29.7873 1.66816 29.012 1.66816 28.1572C1.66816 27.3421 1.72676 26.5851 1.84102 25.8851H23.9836L24.2719 26.6433L8.62734 51.1581H23.2934C23.4094 51.9482 23.4672 52.7459 23.4662 53.5446C23.4662 54.3218 23.4088 55.0591 23.2939 55.7573H0.288281L0 54.944V54.9446ZM44.8043 41.7312C44.2289 41.6541 43.5006 41.577 42.6188 41.4987C41.7369 41.4204 40.9898 41.3824 40.3764 41.3824C37.9986 41.3824 36.1869 41.8291 34.9418 42.7219C33.6967 43.6147 33.0668 44.9732 33.0668 46.7973C33.0668 47.9618 33.2766 48.8736 33.6996 49.5339C34.1227 50.1941 34.6488 50.6984 35.2816 51.0478C35.9145 51.3972 36.6135 51.6113 37.3793 51.6884C38.1451 51.7656 38.8746 51.8047 39.5648 51.8047C40.4774 51.8031 41.3894 51.7543 42.2971 51.6588C43.2363 51.5627 44.0701 51.4156 44.799 51.2222V41.7306L44.8043 41.7312ZM44.8043 36.0838C44.8043 33.7922 44.2289 32.2012 43.0793 31.3084C41.9297 30.4156 40.2668 29.9689 38.0754 29.9689C36.7324 29.9689 35.4773 30.0756 34.3078 30.2892C33.1509 30.4995 32.0077 30.7812 30.8848 31.1328C30.1559 29.8514 29.7926 28.3191 29.7926 26.5323C31.0945 26.1052 32.5324 25.776 34.1051 25.5428C35.6777 25.3097 37.1912 25.1869 38.649 25.1869C42.4828 25.1869 45.3973 26.0767 47.3912 27.8368C49.3852 29.5969 50.3824 32.4284 50.3824 36.3098V54.9962C49.0395 55.3065 47.4105 55.6268 45.4934 55.9573C43.5551 56.2887 41.5927 56.4544 39.627 56.4526C37.7484 56.4526 36.051 56.2788 34.5369 55.9288C33.0229 55.5788 31.7373 55.017 30.6832 54.2393C29.6357 53.4722 28.795 52.4514 28.2381 51.2702C27.6639 50.066 27.3756 48.6108 27.3756 46.9023C27.3756 45.2336 27.7107 43.7678 28.3822 42.5054C29.0416 41.2583 29.9767 40.1823 31.1145 39.3613C32.2646 38.5278 33.5871 37.9056 35.083 37.4986C36.5789 37.0917 38.1504 36.8864 39.7998 36.8864C41.0268 36.8864 42.0334 36.9161 42.8197 36.9742C43.6061 37.0323 44.267 37.1 44.8037 37.1777V36.0779L44.8043 36.0838ZM62.2887 50.8728C63.0148 51.1443 63.7666 51.3395 64.5322 51.4553C65.2998 51.5722 66.2959 51.6303 67.5234 51.6303C68.9033 51.6303 70.1684 51.4078 71.3186 50.9612C72.4565 50.5243 73.4729 49.815 74.2811 48.8938C75.1055 47.9624 75.7576 46.789 76.2363 45.3701C76.715 43.9511 76.9559 42.2758 76.9559 40.3277C76.9559 37.2222 76.3893 34.7514 75.259 32.9326C74.1287 31.1138 72.2766 30.1961 69.709 30.1961C68.7504 30.1961 67.8293 30.3705 66.9551 30.7205C66.0809 31.0705 65.2863 31.5943 64.5961 32.2925C63.9059 32.9907 63.3504 33.8752 62.9285 34.9424C62.5066 36.0096 62.2957 37.2809 62.2957 38.7568V50.8668L62.2887 50.8728ZM56.5945 25.8923C56.9848 25.8151 57.3773 25.7558 57.7734 25.7178C58.1846 25.6794 58.5974 25.6602 59.0103 25.6603C59.3924 25.6603 59.7955 25.6805 60.2174 25.7178C60.6393 25.7552 61.0412 25.8157 61.4244 25.8923C61.4619 25.9712 61.5105 26.2126 61.5686 26.6207L61.7408 27.9306L61.9131 29.2701C61.9705 29.6972 61.9992 29.9701 61.9992 30.0857C62.3818 29.4652 62.843 28.8637 63.3791 28.2806C63.9152 27.6974 64.5592 27.1742 65.3127 26.7085C66.0662 26.2428 66.9035 25.8739 67.8439 25.6016C68.7844 25.3293 69.8279 25.1923 70.9787 25.1923C72.7037 25.1923 74.3051 25.4841 75.7816 26.0667C77.2462 26.6415 78.5493 27.5712 79.5768 28.7741C80.6314 29.9973 81.4547 31.5504 82.0494 33.4327C82.6441 35.315 82.94 37.539 82.94 40.1005C82.94 45.2247 81.5689 49.2337 78.8268 52.1251C76.0846 55.0164 72.2033 56.4627 67.1807 56.4627C66.3152 56.4612 65.4506 56.403 64.5926 56.2883C63.7102 56.1714 62.9437 56.0154 62.2916 55.8226V69.507C61.8057 69.587 61.3166 69.6452 60.8256 69.6814C60.3076 69.7194 59.8371 69.739 59.4158 69.739C58.9458 69.737 58.4759 69.7178 58.0072 69.6814C57.5351 69.6476 57.0649 69.5894 56.5986 69.507V25.8923H56.5945Z" fill="#FF4A00"/>
</svg>
