<svg width="34" height="34" viewBox="0 0 34 34" fill="none" xmlns="http://www.w3.org/2000/svg">
<path d="M17.0007 33.6667C7.79565 33.6667 0.333984 26.205 0.333984 17C0.333984 7.795 7.79565 0.333336 17.0007 0.333336C26.2057 0.333336 33.6673 7.795 33.6673 17C33.6673 26.205 26.2057 33.6667 17.0007 33.6667ZM17.0007 30.3333C20.5369 30.3333 23.9283 28.9286 26.4287 26.4281C28.9292 23.9276 30.334 20.5362 30.334 17C30.334 13.4638 28.9292 10.0724 26.4287 7.57191C23.9283 5.07143 20.5369 3.66667 17.0007 3.66667C13.4644 3.66667 10.073 5.07143 7.57256 7.57191C5.07208 10.0724 3.66732 13.4638 3.66732 17C3.66732 20.5362 5.07208 23.9276 7.57256 26.4281C10.073 28.9286 13.4644 30.3333 17.0007 30.3333ZM11.1673 20.3333H20.334C20.555 20.3333 20.767 20.2455 20.9232 20.0893C21.0795 19.933 21.1673 19.721 21.1673 19.5C21.1673 19.279 21.0795 19.067 20.9232 18.9107C20.767 18.7545 20.555 18.6667 20.334 18.6667H13.6673C12.5622 18.6667 11.5024 18.2277 10.721 17.4463C9.93964 16.6649 9.50065 15.6051 9.50065 14.5C9.50065 13.3949 9.93964 12.3351 10.721 11.5537C11.5024 10.7723 12.5622 10.3333 13.6673 10.3333H15.334V7H18.6673V10.3333H22.834V13.6667H13.6673C13.4463 13.6667 13.2343 13.7545 13.0781 13.9107C12.9218 14.067 12.834 14.279 12.834 14.5C12.834 14.721 12.9218 14.933 13.0781 15.0893C13.2343 15.2455 13.4463 15.3333 13.6673 15.3333H20.334C21.4391 15.3333 22.4989 15.7723 23.2803 16.5537C24.0617 17.3351 24.5007 18.3949 24.5007 19.5C24.5007 20.6051 24.0617 21.6649 23.2803 22.4463C22.4989 23.2277 21.4391 23.6667 20.334 23.6667H18.6673V27H15.334V23.6667H11.1673V20.3333Z" fill="#07081B"/>
</svg>
