<svg width="40" height="40" viewBox="0 0 40 40" fill="none" xmlns="http://www.w3.org/2000/svg">
<path d="M33.333 26.6666H36.6663V36.6666H26.6663V33.3333H13.333V36.6666H3.33301V26.6666H6.66634V13.3333H3.33301V3.33325H13.333V6.66659H26.6663V3.33325H36.6663V13.3333H33.333V26.6666ZM29.9997 26.6666V13.3333H26.6663V9.99992H13.333V13.3333H9.99967V26.6666H13.333V29.9999H26.6663V26.6666H29.9997ZM6.66634 6.66659V9.99992H9.99967V6.66659H6.66634ZM6.66634 29.9999V33.3333H9.99967V29.9999H6.66634ZM29.9997 6.66659V9.99992H33.333V6.66659H29.9997ZM29.9997 29.9999V33.3333H33.333V29.9999H29.9997Z" fill="#07081B"/>
</svg>
