<svg width="19" height="17" viewBox="0 0 19 17" fill="none" xmlns="http://www.w3.org/2000/svg">
<path d="M2.57657 5.72086L3.64824 14.8334H15.6849L16.7566 5.72086L13.4149 7.94836L9.66657 2.70086L5.91824 7.94836L2.57657 5.72086ZM2.00074 3.33336L5.4999 5.6667L8.98824 0.783361C9.06532 0.675336 9.1671 0.587282 9.28508 0.52653C9.40307 0.465777 9.53386 0.434082 9.66657 0.434082C9.79928 0.434082 9.93007 0.465777 10.0481 0.52653C10.166 0.587282 10.2678 0.675336 10.3449 0.783361L13.8332 5.6667L17.3332 3.33336C17.4657 3.24523 17.6206 3.19687 17.7797 3.19397C17.9388 3.19108 18.0953 3.23379 18.2309 3.31705C18.3665 3.4003 18.4754 3.52063 18.5448 3.66381C18.6142 3.80699 18.6411 3.96703 18.6224 4.12503L17.2532 15.7642C17.2294 15.9669 17.1319 16.1538 16.9794 16.2894C16.8269 16.4251 16.6298 16.5 16.4257 16.5H2.9074C2.70329 16.5 2.50629 16.4251 2.35376 16.2894C2.20123 16.1538 2.10379 15.9669 2.0799 15.7642L0.710738 4.1242C0.692238 3.96626 0.719309 3.80634 0.788755 3.66329C0.858201 3.52025 0.967123 3.40006 1.10266 3.31691C1.2382 3.23377 1.3947 3.19113 1.55369 3.19405C1.71267 3.19696 1.8675 3.2453 1.9999 3.33336H2.00074ZM9.66657 11.5C9.22454 11.5 8.80062 11.3244 8.48806 11.0119C8.1755 10.6993 7.9999 10.2754 7.9999 9.83336C7.9999 9.39133 8.1755 8.96741 8.48806 8.65485C8.80062 8.34229 9.22454 8.16669 9.66657 8.16669C10.1086 8.16669 10.5325 8.34229 10.8451 8.65485C11.1576 8.96741 11.3332 9.39133 11.3332 9.83336C11.3332 10.2754 11.1576 10.6993 10.8451 11.0119C10.5325 11.3244 10.1086 11.5 9.66657 11.5Z" fill="#878CA6"/>
</svg>
