<svg width="34" height="34" viewBox="0 0 34 34" fill="none" xmlns="http://www.w3.org/2000/svg">
<path d="M18.6663 30V33.3333H15.333V30H1.99967C1.55765 30 1.13372 29.8244 0.821163 29.5118C0.508602 29.1993 0.333008 28.7754 0.333008 28.3333V1.66667C0.333008 1.22464 0.508602 0.800721 0.821163 0.48816C1.13372 0.175599 1.55765 4.68107e-06 1.99967 4.68107e-06H11.9997C12.9457 -0.00111767 13.881 0.199598 14.7432 0.58875C15.6054 0.977902 16.3747 1.54653 16.9997 2.25667C17.6246 1.54653 18.3939 0.977902 19.2561 0.58875C20.1184 0.199598 21.0537 -0.00111767 21.9997 4.68107e-06H31.9997C32.4417 4.68107e-06 32.8656 0.175599 33.1782 0.48816C33.4907 0.800721 33.6663 1.22464 33.6663 1.66667V28.3333C33.6663 28.7754 33.4907 29.1993 33.1782 29.5118C32.8656 29.8244 32.4417 30 31.9997 30H18.6663ZM30.333 26.6667V3.33334H21.9997C21.1156 3.33334 20.2678 3.68453 19.6427 4.30965C19.0175 4.93477 18.6663 5.78262 18.6663 6.66667V26.6667H30.333ZM15.333 26.6667V6.66667C15.333 5.78262 14.9818 4.93477 14.3567 4.30965C13.7316 3.68453 12.8837 3.33334 11.9997 3.33334H3.66634V26.6667H15.333Z" fill="black"/>
</svg>
