<svg width="19" height="18" viewBox="0 0 19 18" fill="none" xmlns="http://www.w3.org/2000/svg">
<path d="M0.94987 0.75H17.4499C17.693 0.75 17.9261 0.846577 18.0981 1.01849C18.27 1.19039 18.3665 1.42355 18.3665 1.66667V16.3333C18.3665 16.5764 18.27 16.8096 18.0981 16.9815C17.9261 17.1534 17.693 17.25 17.4499 17.25H0.94987C0.706755 17.25 0.473597 17.1534 0.301689 16.9815C0.12978 16.8096 0.0332031 16.5764 0.0332031 16.3333V1.66667C0.0332031 1.42355 0.12978 1.19039 0.301689 1.01849C0.473597 0.846577 0.706755 0.75 0.94987 0.75ZM16.5332 8.08333H1.86654V15.4167H16.5332V8.08333ZM16.5332 6.25V2.58333H1.86654V6.25H16.5332ZM11.9499 3.5H15.6165V5.33333H11.9499V3.5Z" fill="white"/>
</svg>
