<svg width="18" height="18" viewBox="0 0 18 18" fill="none" xmlns="http://www.w3.org/2000/svg">
<path d="M9.00033 17.3333C4.39783 17.3333 0.666992 13.6025 0.666992 8.99996C0.666992 4.39746 4.39783 0.666626 9.00033 0.666626C13.6028 0.666626 17.3337 4.39746 17.3337 8.99996C17.3337 13.6025 13.6028 17.3333 9.00033 17.3333ZM9.00033 11.5C9.66337 11.5 10.2993 11.2366 10.7681 10.7677C11.2369 10.2989 11.5003 9.663 11.5003 8.99996C11.5003 8.33692 11.2369 7.70103 10.7681 7.23219C10.2993 6.76335 9.66337 6.49996 9.00033 6.49996C8.33728 6.49996 7.7014 6.76335 7.23256 7.23219C6.76372 7.70103 6.50033 8.33692 6.50033 8.99996C6.50033 9.663 6.76372 10.2989 7.23256 10.7677C7.7014 11.2366 8.33728 11.5 9.00033 11.5Z" fill="white"/>
</svg>
