<svg width="70" height="88" viewBox="0 0 70 88" fill="none" xmlns="http://www.w3.org/2000/svg">
<g clip-path="url(#clip0_493_784)">
<path d="M6.20312 64.8459L35.4779 79.3443L63.6411 64.8459V8.15082H6.20312V64.8459Z" fill="white"/>
<path d="M64.2331 8.36722L5.60938 65.8557L35.9959 80.4984L64.2331 66.4328V8.36722Z" fill="#F2F3F2"/>
<path d="M4.27539 27.0492V66.0721L5.31298 66.5771L34.5878 81.0754L35.4772 81.5082L36.3665 81.0754L64.6038 66.5771L65.6413 66.0721V6.27541H4.27539V27.0492ZM6.20234 64.9902V8.15082H63.7144V64.9902L35.4772 79.4885L6.20234 64.9902Z" fill="#DCDEDC"/>
<path d="M34.9586 9.08852C35.2551 9.08852 35.5516 9.08852 35.848 9.16065L34.9586 10.8197C33.6246 10.7475 32.4388 11.7574 32.3647 13.0557C32.2906 14.3541 33.3281 15.5082 34.6622 15.5803H34.9586C35.5516 15.5803 36.1445 15.3639 36.5891 15.0033L37.5526 16.5902C36.8115 17.0951 35.9221 17.3836 34.9586 17.3836C32.587 17.4557 30.586 15.7246 30.5118 13.4164C30.4377 11.1082 32.2164 9.16065 34.5881 9.08852H34.9586ZM37.9973 12.6229L39.109 14.4262L37.9973 16.1574L36.9597 14.4262H34.8104L35.9221 12.6229H37.9973ZM36.2186 11.9738C36.2186 11.6852 36.2927 11.3967 36.4409 11.1803C36.5891 10.9639 36.8856 10.7475 37.1079 10.6033L37.2562 10.5311C37.5526 10.3869 37.6267 10.3148 37.6267 10.1705C37.6267 10.0262 37.4044 9.88196 37.2562 9.88196C36.9597 9.88196 36.7374 10.0262 36.5891 10.3148L36.2186 9.9541C36.2927 9.80983 36.4409 9.66557 36.5891 9.52131C36.8115 9.37705 37.0338 9.37705 37.2562 9.37705C37.4785 9.37705 37.775 9.44918 37.9232 9.59344C38.0714 9.7377 38.2196 9.9541 38.2196 10.1705C38.2196 10.5311 37.9973 10.8197 37.5526 10.9639L37.3303 11.1082C37.1079 11.2525 36.9597 11.3246 36.8856 11.541H38.2196V12.0459L36.2186 11.9738ZM34.9586 20.9902L41.9994 17.0951V6.27541H27.8438V17.0229L34.9586 20.9902Z" fill="#FF492C"/>
<path d="M67.05 46.5246H2.86772L0.496094 51.5738L2.86772 56.623H67.05L69.3475 51.5738L67.05 46.5246Z" fill="#FFD200"/>
<path d="M12.8288 43.2787C12.7794 43.2787 12.7423 43.2546 12.7176 43.2066L11.7022 41.0066C11.6874 40.9873 11.6701 40.9777 11.6504 40.9777H10.8944C10.8648 40.9777 10.8499 40.9921 10.8499 41.021V43.1849C10.8499 43.209 10.84 43.2306 10.8203 43.2498C10.8055 43.2691 10.7832 43.2787 10.7536 43.2787H9.79752C9.77281 43.2787 9.75058 43.2691 9.73082 43.2498C9.71105 43.2306 9.70117 43.209 9.70117 43.1849V37.8184C9.70117 37.7943 9.71105 37.7727 9.73082 37.7534C9.75058 37.7342 9.77281 37.7246 9.79752 37.7246H12.1321C12.478 37.7246 12.7843 37.7943 13.0511 37.9338C13.313 38.0684 13.5155 38.2632 13.6588 38.518C13.8021 38.7729 13.8738 39.0662 13.8738 39.398C13.8738 39.7587 13.7824 40.0664 13.5995 40.3213C13.4118 40.581 13.1524 40.7637 12.8213 40.8695C12.7966 40.8791 12.7892 40.896 12.7991 40.92L13.9108 43.1705C13.9207 43.1897 13.9256 43.2042 13.9256 43.2138C13.9256 43.257 13.896 43.2787 13.8367 43.2787H12.8288ZM10.8944 38.6839C10.8648 38.6839 10.8499 38.6984 10.8499 38.7272V40.0833C10.8499 40.1073 10.8648 40.1193 10.8944 40.1193H11.9616C12.1889 40.1193 12.3742 40.0544 12.5175 39.9246C12.6608 39.7899 12.7324 39.6168 12.7324 39.4052C12.7324 39.1937 12.6608 39.0205 12.5175 38.8859C12.3742 38.7513 12.1889 38.6839 11.9616 38.6839H10.8944ZM18.2835 40.819C18.3181 41.021 18.3305 41.247 18.3206 41.497C18.3156 41.5596 18.2786 41.5908 18.2094 41.5908H15.697C15.6624 41.5908 15.65 41.6028 15.6599 41.6269C15.6747 41.7327 15.7044 41.8385 15.7488 41.9443C15.8921 42.2424 16.1812 42.3915 16.616 42.3915C16.9618 42.3867 17.236 42.2496 17.4386 41.9803C17.4584 41.9467 17.4831 41.9298 17.5127 41.9298C17.5276 41.9298 17.5473 41.9395 17.572 41.9587L18.1575 42.5285C18.1822 42.5526 18.1946 42.5742 18.1946 42.5934C18.1946 42.6079 18.1847 42.6295 18.1649 42.6584C17.9871 42.8748 17.7548 43.0431 17.4683 43.1633C17.1866 43.2835 16.8778 43.3436 16.5418 43.3436C16.0725 43.3436 15.6772 43.2402 15.356 43.0334C15.0299 42.8267 14.7977 42.5381 14.6594 42.1679C14.5457 41.9034 14.4889 41.5572 14.4889 41.1292C14.4889 40.8358 14.5284 40.5786 14.6075 40.3574C14.7359 39.9823 14.9558 39.6842 15.2671 39.4629C15.5784 39.2417 15.9489 39.1311 16.3788 39.1311C16.9223 39.1311 17.3596 39.285 17.6906 39.5928C18.0167 39.8957 18.2143 40.3045 18.2835 40.819ZM16.3862 40.0977C16.0453 40.0977 15.8205 40.254 15.7118 40.5666C15.6871 40.6339 15.6673 40.718 15.6525 40.819C15.6525 40.8479 15.6673 40.8623 15.697 40.8623H17.1051C17.1348 40.8623 17.1446 40.8479 17.1348 40.819C17.11 40.6651 17.0977 40.5906 17.0977 40.5954C17.0483 40.4367 16.9618 40.3141 16.8383 40.2275C16.7148 40.141 16.5641 40.0977 16.3862 40.0977ZM21.626 39.297C21.626 39.2682 21.6359 39.2442 21.6557 39.2249C21.6754 39.2105 21.7001 39.2033 21.7298 39.2033H22.6784C22.7081 39.2033 22.7328 39.2105 22.7526 39.2249C22.7674 39.2442 22.7748 39.2682 22.7748 39.297V44.6564C22.7748 44.6852 22.7674 44.7093 22.7526 44.7285C22.7328 44.7478 22.7081 44.7574 22.6784 44.7574H21.7298C21.7001 44.7574 21.6754 44.7478 21.6557 44.7285C21.6359 44.7093 21.626 44.6852 21.626 44.6564V42.9613C21.626 42.9469 21.6211 42.9373 21.6112 42.9325C21.6013 42.9277 21.5914 42.9325 21.5816 42.9469C21.3642 43.2114 21.0603 43.3436 20.67 43.3436C20.2698 43.3436 19.9362 43.245 19.6694 43.0479C19.3977 42.8459 19.2 42.5766 19.0765 42.24C18.9777 41.9611 18.9283 41.6293 18.9283 41.2446C18.9283 40.8887 18.9752 40.5714 19.0691 40.2925C19.1877 39.9318 19.3853 39.6481 19.662 39.4413C19.9338 39.2393 20.2599 39.1384 20.6403 39.1384C21.0405 39.1384 21.3543 39.2826 21.5816 39.5711C21.5914 39.5856 21.6013 39.5904 21.6112 39.5856C21.6211 39.5808 21.626 39.5711 21.626 39.5567V39.297ZM21.4407 42.0669C21.5593 41.8697 21.6186 41.5932 21.6186 41.2374C21.6186 40.9008 21.5643 40.6339 21.4556 40.4367C21.3222 40.2107 21.1319 40.0977 20.8849 40.0977C20.6181 40.0977 20.418 40.2107 20.2846 40.4367C20.1709 40.6483 20.1141 40.9128 20.1141 41.2302C20.1141 41.586 20.1808 41.8673 20.3142 42.0741C20.4526 42.2809 20.6453 42.3843 20.8923 42.3843C21.1344 42.3843 21.3172 42.2785 21.4407 42.0669ZM26.1025 39.297C26.1025 39.2682 26.1124 39.2442 26.1321 39.2249C26.1519 39.2105 26.1741 39.2033 26.1988 39.2033H27.1549C27.1845 39.2033 27.2092 39.2105 27.229 39.2249C27.2438 39.2442 27.2512 39.2682 27.2512 39.297V43.1849C27.2512 43.209 27.2438 43.2306 27.229 43.2498C27.2092 43.2691 27.1845 43.2787 27.1549 43.2787H26.1988C26.1741 43.2787 26.1519 43.2691 26.1321 43.2498C26.1124 43.2306 26.1025 43.209 26.1025 43.1849V42.9108C26.1025 42.8964 26.0975 42.8892 26.0877 42.8892C26.0778 42.8844 26.0679 42.8892 26.058 42.9036C25.8406 43.1921 25.5022 43.3364 25.0427 43.3364C24.6326 43.3364 24.2941 43.2138 24.0273 42.9685C23.7605 42.7281 23.6271 42.3867 23.6271 41.9443V39.297C23.6271 39.2682 23.637 39.2442 23.6567 39.2249C23.6765 39.2105 23.6987 39.2033 23.7234 39.2033H24.6721C24.6968 39.2033 24.719 39.2105 24.7388 39.2249C24.7586 39.2442 24.7684 39.2682 24.7684 39.297V41.6702C24.7684 41.8817 24.8277 42.0525 24.9463 42.1823C25.06 42.3169 25.2205 42.3843 25.4281 42.3843C25.6109 42.3843 25.764 42.329 25.8876 42.2184C26.0061 42.1126 26.0778 41.9707 26.1025 41.7928V39.297ZM28.7187 38.7416C28.5359 38.7416 28.3827 38.6815 28.2592 38.5613C28.1357 38.4411 28.0739 38.292 28.0739 38.1141C28.0739 37.9266 28.1357 37.7751 28.2592 37.6597C28.3778 37.5443 28.5309 37.4866 28.7187 37.4866C28.9114 37.4866 29.067 37.5443 29.1856 37.6597C29.3042 37.7751 29.3635 37.9266 29.3635 38.1141C29.3635 38.292 29.3042 38.4411 29.1856 38.5613C29.0621 38.6815 28.9064 38.7416 28.7187 38.7416ZM28.2295 43.2787C28.2048 43.2787 28.1826 43.2691 28.1628 43.2498C28.1431 43.2306 28.1332 43.209 28.1332 43.1849V39.2898C28.1332 39.261 28.1431 39.2369 28.1628 39.2177C28.1826 39.1985 28.2048 39.1889 28.2295 39.1889H29.1856C29.2153 39.1889 29.2375 39.1985 29.2523 39.2177C29.2721 39.2369 29.282 39.261 29.282 39.2898V43.1849C29.282 43.209 29.2721 43.2306 29.2523 43.2498C29.2375 43.2691 29.2153 43.2787 29.1856 43.2787H28.2295ZM32.2687 39.1456C32.4614 39.1456 32.6171 39.1816 32.7356 39.2538C32.7752 39.2778 32.79 39.3187 32.7801 39.3764L32.6096 40.278C32.6047 40.3405 32.5677 40.3598 32.4985 40.3357C32.4145 40.3069 32.3181 40.2925 32.2094 40.2925C32.165 40.2925 32.1057 40.2997 32.0316 40.3141C31.8339 40.3285 31.6684 40.3983 31.535 40.5233C31.3967 40.6483 31.3275 40.8142 31.3275 41.021V43.1849C31.3275 43.209 31.3201 43.2306 31.3053 43.2498C31.2855 43.2691 31.2608 43.2787 31.2311 43.2787H30.2751C30.2504 43.2787 30.2281 43.2691 30.2084 43.2498C30.1886 43.2306 30.1787 43.209 30.1787 43.1849V39.297C30.1787 39.2682 30.1886 39.2442 30.2084 39.2249C30.2281 39.2105 30.2504 39.2033 30.2751 39.2033H31.2311C31.2608 39.2033 31.2855 39.2105 31.3053 39.2249C31.3201 39.2442 31.3275 39.2682 31.3275 39.297V39.6C31.3275 39.6144 31.3349 39.624 31.3497 39.6289C31.3596 39.6337 31.367 39.6313 31.372 39.6216C31.5943 39.3043 31.8932 39.1456 32.2687 39.1456ZM36.9082 40.819C36.9379 41.021 36.9478 41.247 36.9379 41.497C36.9329 41.5596 36.8983 41.5908 36.8341 41.5908H34.3143C34.2797 41.5908 34.2698 41.6028 34.2846 41.6269C34.2994 41.7327 34.3291 41.8385 34.3735 41.9443C34.5119 42.2424 34.7985 42.3915 35.2333 42.3915C35.5841 42.3867 35.8583 42.2496 36.0559 41.9803C36.0806 41.9467 36.1053 41.9298 36.13 41.9298C36.1498 41.9298 36.1696 41.9395 36.1893 41.9587L36.7748 42.5285C36.8045 42.5526 36.8193 42.5742 36.8193 42.5934C36.8193 42.6079 36.8069 42.6295 36.7822 42.6584C36.6044 42.8748 36.3746 43.0431 36.093 43.1633C35.8113 43.2835 35.5001 43.3436 35.1591 43.3436C34.6947 43.3436 34.2994 43.2402 33.9733 43.0334C33.6522 42.8267 33.42 42.5381 33.2767 42.1679C33.163 41.9034 33.1062 41.5572 33.1062 41.1292C33.1062 40.8358 33.1482 40.5786 33.2322 40.3574C33.3557 39.9823 33.5731 39.6842 33.8844 39.4629C34.1957 39.2417 34.5662 39.1311 34.9961 39.1311C35.5396 39.1311 35.9769 39.285 36.3079 39.5928C36.634 39.8957 36.8341 40.3045 36.9082 40.819ZM35.0035 40.0977C34.6626 40.0977 34.4378 40.254 34.3291 40.5666C34.3093 40.6339 34.2896 40.718 34.2698 40.819C34.2698 40.8479 34.2846 40.8623 34.3143 40.8623H35.7224C35.757 40.8623 35.7694 40.8479 35.7595 40.819C35.7298 40.6651 35.715 40.5906 35.715 40.5954C35.6656 40.4367 35.5816 40.3141 35.463 40.2275C35.3395 40.141 35.1863 40.0977 35.0035 40.0977ZM42.2963 39.1384C42.7212 39.1384 43.0522 39.2634 43.2894 39.5134C43.5266 39.7587 43.6451 40.1073 43.6451 40.5593V43.1849C43.6451 43.209 43.6377 43.2306 43.6229 43.2498C43.6031 43.2691 43.5784 43.2787 43.5488 43.2787H42.6001C42.5705 43.2787 42.5458 43.2691 42.526 43.2498C42.5063 43.2306 42.4964 43.209 42.4964 43.1849V40.8046C42.4964 40.5882 42.4396 40.4151 42.3259 40.2852C42.2123 40.1602 42.0616 40.0977 41.8738 40.0977C41.6811 40.0977 41.5255 40.1602 41.4069 40.2852C41.2883 40.4151 41.229 40.5858 41.229 40.7974V43.1849C41.229 43.209 41.2192 43.2306 41.1994 43.2498C41.1796 43.2691 41.1574 43.2787 41.1327 43.2787H40.184C40.1544 43.2787 40.1322 43.2691 40.1173 43.2498C40.0976 43.2306 40.0877 43.209 40.0877 43.1849V40.8046C40.0877 40.593 40.0284 40.4223 39.9098 40.2925C39.7863 40.1626 39.6307 40.0977 39.4429 40.0977C39.27 40.0977 39.1242 40.1482 39.0056 40.2492C38.8871 40.3502 38.8179 40.4896 38.7981 40.6675V43.1849C38.7981 43.209 38.7882 43.2306 38.7685 43.2498C38.7487 43.2691 38.7265 43.2787 38.7018 43.2787H37.7457C37.721 43.2787 37.6988 43.2691 37.679 43.2498C37.6592 43.2306 37.6494 43.209 37.6494 43.1849V39.297C37.6494 39.2682 37.6592 39.2442 37.679 39.2249C37.6988 39.2105 37.721 39.2033 37.7457 39.2033H38.7018C38.7265 39.2033 38.7487 39.2105 38.7685 39.2249C38.7882 39.2442 38.7981 39.2682 38.7981 39.297V39.6072C38.7981 39.6216 38.8031 39.6313 38.8129 39.6361C38.8228 39.6409 38.8352 39.6361 38.85 39.6216C39.0723 39.2995 39.4157 39.1384 39.8802 39.1384C40.1519 39.1384 40.3916 39.1937 40.5991 39.3043C40.8017 39.4149 40.9573 39.5736 41.066 39.7803C41.0808 39.8092 41.0981 39.8092 41.1179 39.7803C41.2414 39.5639 41.4044 39.4028 41.607 39.297C41.8096 39.1913 42.0394 39.1384 42.2963 39.1384ZM48.1438 40.819C48.1735 41.021 48.1834 41.247 48.1735 41.497C48.1685 41.5596 48.1339 41.5908 48.0697 41.5908H45.5499C45.5153 41.5908 45.5029 41.6028 45.5128 41.6269C45.5326 41.7327 45.5622 41.8385 45.6017 41.9443C45.745 42.2424 46.0341 42.3915 46.4689 42.3915C46.8147 42.3867 47.089 42.2496 47.2915 41.9803C47.3162 41.9467 47.3409 41.9298 47.3656 41.9298C47.3805 41.9298 47.4002 41.9395 47.4249 41.9587L48.0104 42.5285C48.0351 42.5526 48.0475 42.5742 48.0475 42.5934C48.0475 42.6079 48.0376 42.6295 48.0178 42.6584C47.84 42.8748 47.6102 43.0431 47.3286 43.1633C47.042 43.2835 46.7307 43.3436 46.3948 43.3436C45.9303 43.3436 45.535 43.2402 45.2089 43.0334C44.8878 42.8267 44.6556 42.5381 44.5123 42.1679C44.3986 41.9034 44.3418 41.5572 44.3418 41.1292C44.3418 40.8358 44.3813 40.5786 44.4604 40.3574C44.5889 39.9823 44.8087 39.6842 45.12 39.4629C45.4313 39.2417 45.8018 39.1311 46.2317 39.1311C46.7752 39.1311 47.2125 39.285 47.5435 39.5928C47.8696 39.8957 48.0697 40.3045 48.1438 40.819ZM46.2391 40.0977C45.8982 40.0977 45.6734 40.254 45.5647 40.5666C45.5449 40.6339 45.5252 40.718 45.5054 40.819C45.5054 40.8479 45.5202 40.8623 45.5499 40.8623H46.958C46.9926 40.8623 47.0025 40.8479 46.9877 40.819C46.963 40.6651 46.9506 40.5906 46.9506 40.5954C46.9012 40.4367 46.8147 40.3141 46.6912 40.2275C46.5726 40.141 46.4219 40.0977 46.2391 40.0977ZM51.0639 39.1384C51.4987 39.1384 51.8495 39.2682 52.1163 39.5279C52.3831 39.7875 52.5165 40.1386 52.5165 40.581V43.1849C52.5165 43.209 52.5066 43.2306 52.4869 43.2498C52.4721 43.2691 52.4498 43.2787 52.4202 43.2787H51.4641C51.4394 43.2787 51.4172 43.2691 51.3974 43.2498C51.3777 43.2306 51.3678 43.209 51.3678 43.1849V40.8118C51.3678 40.6002 51.306 40.4271 51.1825 40.2925C51.0639 40.1626 50.9033 40.0977 50.7007 40.0977C50.4982 40.0977 50.3376 40.1626 50.219 40.2925C50.0955 40.4271 50.0337 40.6002 50.0337 40.8118V43.1849C50.0337 43.209 50.0238 43.2306 50.0041 43.2498C49.9843 43.2691 49.9621 43.2787 49.9374 43.2787H48.9813C48.9517 43.2787 48.9294 43.2691 48.9146 43.2498C48.8949 43.2306 48.885 43.209 48.885 43.1849V39.297C48.885 39.2682 48.8949 39.2442 48.9146 39.2249C48.9294 39.2105 48.9517 39.2033 48.9813 39.2033H49.9374C49.9621 39.2033 49.9843 39.2105 50.0041 39.2249C50.0238 39.2442 50.0337 39.2682 50.0337 39.297V39.5711C50.0337 39.5904 50.0387 39.6024 50.0485 39.6072C50.0584 39.612 50.0658 39.6096 50.0708 39.6C50.2931 39.2922 50.6242 39.1384 51.0639 39.1384ZM55.7479 40.0039C55.7479 40.028 55.738 40.0496 55.7182 40.0689C55.6985 40.0881 55.6762 40.0977 55.6515 40.0977H54.8659C54.8412 40.0977 54.8289 40.1097 54.8289 40.1338V41.8216C54.8289 41.9948 54.8635 42.1246 54.9326 42.2111C55.0067 42.2929 55.1253 42.3338 55.2884 42.3338H55.5626C55.5873 42.3338 55.6095 42.3434 55.6293 42.3626C55.6491 42.3819 55.6589 42.4035 55.6589 42.4275V43.1849C55.6589 43.2426 55.6268 43.2763 55.5626 43.2859C55.3304 43.2955 55.1673 43.3003 55.0734 43.3003C54.6189 43.3003 54.2804 43.2282 54.0581 43.0839C53.8357 42.9397 53.7221 42.6656 53.7172 42.2616V40.1338C53.7172 40.1097 53.7023 40.0977 53.6727 40.0977H53.2132C53.1835 40.0977 53.1588 40.0881 53.1391 40.0689C53.1243 40.0496 53.1168 40.028 53.1168 40.0039V39.297C53.1168 39.2682 53.1243 39.2442 53.1391 39.2249C53.1588 39.2105 53.1835 39.2033 53.2132 39.2033H53.6727C53.7023 39.2033 53.7172 39.1889 53.7172 39.16V38.2151C53.7172 38.191 53.727 38.1694 53.7468 38.1502C53.7666 38.1309 53.7888 38.1213 53.8135 38.1213H54.7251C54.7548 38.1213 54.7795 38.1309 54.7992 38.1502C54.819 38.1694 54.8289 38.191 54.8289 38.2151V39.16C54.8289 39.1889 54.8412 39.2033 54.8659 39.2033H55.6515C55.6762 39.2033 55.6985 39.2105 55.7182 39.2249C55.738 39.2442 55.7479 39.2682 55.7479 39.297V40.0039ZM58.1121 43.3364C57.7465 43.3364 57.4278 43.2859 57.156 43.1849C56.8843 43.0839 56.6743 42.9445 56.5261 42.7666C56.3778 42.5838 56.3037 42.3795 56.3037 42.1534V42.0741C56.3037 42.0452 56.3136 42.0212 56.3334 42.002C56.3482 41.9875 56.3704 41.9803 56.4001 41.9803H57.3043C57.329 41.9803 57.3512 41.9875 57.371 42.002C57.3907 42.0212 57.4006 42.0452 57.4006 42.0741V42.0813C57.4006 42.1967 57.4673 42.2953 57.6007 42.377C57.7341 42.4588 57.9021 42.4997 58.1047 42.4997C58.2875 42.4997 58.4357 42.4636 58.5494 42.3915C58.663 42.3193 58.7198 42.2328 58.7198 42.1318C58.7198 42.0356 58.6729 41.9635 58.579 41.9154C58.4802 41.8673 58.3196 41.8168 58.0973 41.7639C57.8403 41.7014 57.6378 41.6413 57.4895 41.5836C57.1437 41.4634 56.867 41.3191 56.6595 41.1508C56.452 40.9825 56.3482 40.7397 56.3482 40.4223C56.3482 40.0328 56.5063 39.7226 56.8225 39.4918C57.1338 39.261 57.5464 39.1456 58.0602 39.1456C58.411 39.1456 58.7149 39.1985 58.9718 39.3043C59.2337 39.4149 59.4363 39.5687 59.5795 39.7659C59.7278 39.9583 59.8019 40.1795 59.8019 40.4295C59.8019 40.4584 59.792 40.48 59.7722 40.4944C59.7525 40.5137 59.7278 40.5233 59.6981 40.5233H58.831C58.8013 40.5233 58.7766 40.5137 58.7569 40.4944C58.7371 40.48 58.7272 40.4584 58.7272 40.4295C58.7272 40.3141 58.6679 40.2155 58.5494 40.1338C58.4258 40.0568 58.2628 40.0184 58.0602 40.0184C57.8823 40.0184 57.7366 40.0496 57.6229 40.1121C57.5093 40.1746 57.4525 40.2612 57.4525 40.3718C57.4525 40.4776 57.5068 40.5569 57.6155 40.6098C57.7292 40.6627 57.9169 40.7204 58.1788 40.783C58.2381 40.7974 58.3048 40.8142 58.3789 40.8334C58.458 40.8527 58.5395 40.8743 58.6235 40.8984C59.0089 41.009 59.3127 41.1508 59.5351 41.3239C59.7574 41.5019 59.8686 41.7567 59.8686 42.0885C59.8686 42.478 59.7105 42.7834 59.3943 43.0046C59.078 43.2258 58.6507 43.3364 58.1121 43.3364ZM18.4984 32.4518C18.4639 32.4662 18.4639 32.4807 18.4984 32.4951C19.0123 32.7548 19.2692 33.1851 19.2692 33.7862C19.2692 34.3008 19.0889 34.6903 18.7282 34.9548C18.3724 35.2144 17.9031 35.3443 17.32 35.3443H15.2078C15.1831 35.3443 15.1609 35.3346 15.1411 35.3154C15.1213 35.2962 15.1115 35.2745 15.1115 35.2505V29.8839C15.1115 29.8599 15.1213 29.8382 15.1411 29.819C15.1609 29.7998 15.1831 29.7902 15.2078 29.7902H17.2533C18.5429 29.7902 19.1877 30.2975 19.1877 31.3121C19.1877 31.8411 18.9579 32.221 18.4984 32.4518ZM16.3047 30.7495C16.275 30.7495 16.2602 30.7639 16.2602 30.7928V32.0262C16.2602 32.0551 16.275 32.0695 16.3047 32.0695H17.2533C17.5103 32.0695 17.7104 32.0094 17.8537 31.8892C17.992 31.7738 18.0612 31.6175 18.0612 31.4203C18.0612 31.2136 17.992 31.0501 17.8537 30.9298C17.7104 30.8096 17.5103 30.7495 17.2533 30.7495H16.3047ZM17.32 34.3777C17.572 34.3777 17.7672 34.3152 17.9055 34.1902C18.0488 34.0651 18.1205 33.8944 18.1205 33.678C18.1205 33.4616 18.0488 33.2909 17.9055 33.1659C17.7672 33.0409 17.5696 32.9784 17.3126 32.9784H16.3047C16.275 32.9784 16.2602 32.9928 16.2602 33.0216V34.3344C16.2602 34.3633 16.275 34.3777 16.3047 34.3777H17.32ZM23.805 32.8846C23.8346 33.0866 23.8445 33.3126 23.8346 33.5626C23.8297 33.6251 23.7951 33.6564 23.7309 33.6564H21.211C21.1764 33.6564 21.1641 33.6684 21.1739 33.6925C21.1937 33.7982 21.2258 33.904 21.2703 34.0098C21.4086 34.308 21.6952 34.457 22.13 34.457C22.4808 34.4522 22.755 34.3152 22.9527 34.0459C22.9774 34.0122 23.0021 33.9954 23.0268 33.9954C23.0416 33.9954 23.0614 34.005 23.0861 34.0243L23.6716 34.5941C23.7012 34.6181 23.716 34.6398 23.716 34.659C23.716 34.6734 23.7037 34.6951 23.679 34.7239C23.5011 34.9403 23.2713 35.1086 22.9897 35.2289C22.7031 35.3491 22.3919 35.4092 22.0559 35.4092C21.5914 35.4092 21.1962 35.3058 20.8701 35.099C20.5489 34.8922 20.3167 34.6037 20.1734 34.2334C20.0598 33.969 20.0029 33.6227 20.0029 33.1948C20.0029 32.9014 20.0449 32.6442 20.1289 32.4229C20.2525 32.0479 20.4699 31.7497 20.7811 31.5285C21.0924 31.3073 21.463 31.1967 21.8928 31.1967C22.4363 31.1967 22.8736 31.3506 23.2046 31.6584C23.5307 31.9613 23.7309 32.3701 23.805 32.8846ZM21.9003 32.1633C21.5593 32.1633 21.3345 32.3196 21.2258 32.6321C21.2061 32.6995 21.1863 32.7836 21.1665 32.8846C21.1665 32.9134 21.1813 32.9279 21.211 32.9279H22.6192C22.6537 32.9279 22.6661 32.9134 22.6562 32.8846C22.6266 32.7307 22.6117 32.6562 22.6117 32.661C22.5623 32.5023 22.4759 32.3797 22.3523 32.2931C22.2338 32.2066 22.0831 32.1633 21.9003 32.1633ZM26.1618 35.402C25.7961 35.402 25.4775 35.3515 25.2057 35.2505C24.934 35.1495 24.724 35.0101 24.5757 34.8321C24.4226 34.6494 24.346 34.445 24.346 34.219V34.1397C24.346 34.1108 24.3559 34.0868 24.3756 34.0675C24.3954 34.0531 24.4201 34.0459 24.4498 34.0459H25.3539C25.3786 34.0459 25.4009 34.0531 25.4206 34.0675C25.4404 34.0868 25.4503 34.1108 25.4503 34.1397V34.1469C25.4503 34.2623 25.517 34.3609 25.6504 34.4426C25.7838 34.5244 25.9493 34.5652 26.147 34.5652C26.3347 34.5652 26.4854 34.5292 26.599 34.457C26.7127 34.3849 26.7695 34.2984 26.7695 34.1974C26.7695 34.1012 26.7201 34.0291 26.6213 33.981C26.5225 33.9329 26.3619 33.8824 26.1395 33.8295C25.8876 33.767 25.6874 33.7069 25.5392 33.6492C25.1934 33.529 24.9167 33.3847 24.7092 33.2164C24.5016 33.0481 24.3979 32.8052 24.3979 32.4879C24.3979 32.0984 24.5535 31.7882 24.8648 31.5574C25.1761 31.3266 25.5911 31.2111 26.1099 31.2111C26.4558 31.2111 26.7596 31.264 27.0215 31.3698C27.2834 31.4804 27.4859 31.6343 27.6292 31.8315C27.7725 32.0238 27.8442 32.245 27.8442 32.4951C27.8442 32.5239 27.8343 32.5456 27.8145 32.56C27.7997 32.5792 27.7774 32.5889 27.7478 32.5889H26.8733C26.8486 32.5889 26.8263 32.5792 26.8066 32.56C26.7868 32.5456 26.7769 32.5239 26.7769 32.4951C26.7769 32.3797 26.7152 32.2811 26.5916 32.1993C26.4731 32.1224 26.3125 32.0839 26.1099 32.0839C25.932 32.0839 25.7863 32.1152 25.6726 32.1777C25.554 32.2402 25.4948 32.3268 25.4948 32.4374C25.4948 32.5432 25.5516 32.6225 25.6652 32.6754C25.7789 32.7283 25.9641 32.786 26.2211 32.8485L26.4286 32.899L26.6732 32.9639C27.0585 33.0745 27.3624 33.2164 27.5848 33.3895C27.8071 33.5674 27.9183 33.8223 27.9183 34.1541C27.9183 34.5436 27.7602 34.849 27.4439 35.0702C27.1228 35.2914 26.6954 35.402 26.1618 35.402ZM30.9792 32.0695C30.9792 32.0935 30.9693 32.1152 30.9495 32.1344C30.9297 32.1537 30.905 32.1633 30.8754 32.1633H30.0972C30.0676 32.1633 30.0527 32.1753 30.0527 32.1993V33.8872C30.0527 34.0603 30.0898 34.1902 30.1639 34.2767C30.238 34.3585 30.3566 34.3993 30.5196 34.3993H30.7865C30.8161 34.3993 30.8408 34.409 30.8606 34.4282C30.8803 34.4474 30.8902 34.4691 30.8902 34.4931V35.2505C30.8902 35.3082 30.8556 35.3419 30.7865 35.3515C30.5592 35.3611 30.3961 35.3659 30.2973 35.3659C29.8477 35.3659 29.5117 35.2938 29.2894 35.1495C29.067 35.0052 28.9534 34.7311 28.9484 34.3272V32.1993C28.9484 32.1753 28.9336 32.1633 28.904 32.1633H28.4445C28.4148 32.1633 28.3901 32.1537 28.3704 32.1344C28.3506 32.1152 28.3407 32.0935 28.3407 32.0695V31.3626C28.3407 31.3338 28.3506 31.3097 28.3704 31.2905C28.3901 31.2761 28.4148 31.2688 28.4445 31.2688H28.904C28.9336 31.2688 28.9484 31.2544 28.9484 31.2256V30.2807C28.9484 30.2566 28.9583 30.235 28.9781 30.2157C28.9929 30.1965 29.0151 30.1869 29.0448 30.1869H29.9564C29.986 30.1869 30.0107 30.1965 30.0305 30.2157C30.0453 30.235 30.0527 30.2566 30.0527 30.2807V31.2256C30.0527 31.2544 30.0676 31.2688 30.0972 31.2688H30.8754C30.905 31.2688 30.9297 31.2761 30.9495 31.2905C30.9693 31.3097 30.9792 31.3338 30.9792 31.3626V32.0695ZM37.0416 29.8551C37.0713 29.8118 37.1083 29.7902 37.1528 29.7902H38.1089C38.1385 29.7902 38.1632 29.7998 38.183 29.819C38.1978 29.8382 38.2052 29.8599 38.2052 29.8839V35.2505C38.2052 35.2745 38.1978 35.2962 38.183 35.3154C38.1632 35.3346 38.1385 35.3443 38.1089 35.3443H37.1528C37.1281 35.3443 37.1059 35.3346 37.0861 35.3154C37.0663 35.2962 37.0565 35.2745 37.0565 35.2505V31.7521C37.0565 31.7281 37.0515 31.7161 37.0416 31.7161C37.0318 31.7161 37.0219 31.7257 37.012 31.7449L36.1449 33.0577C36.1202 33.101 36.0831 33.1226 36.0337 33.1226H35.552C35.5025 33.1226 35.463 33.101 35.4334 33.0577L34.5737 31.7449C34.5638 31.7257 34.5514 31.7185 34.5366 31.7233C34.5267 31.7233 34.5218 31.7353 34.5218 31.7593V35.2505C34.5218 35.2745 34.5119 35.2962 34.4921 35.3154C34.4724 35.3346 34.4501 35.3443 34.4254 35.3443H33.4694C33.4447 35.3443 33.4224 35.3346 33.4027 35.3154C33.3829 35.2962 33.373 35.2745 33.373 35.2505V29.8839C33.373 29.8599 33.3829 29.8382 33.4027 29.819C33.4224 29.7998 33.4447 29.7902 33.4694 29.7902H34.4254C34.4748 29.7902 34.5119 29.8118 34.5366 29.8551L35.7595 31.7016C35.7792 31.7353 35.7965 31.7353 35.8113 31.7016L37.0416 29.8551ZM42.8373 32.8846C42.8719 33.0866 42.8842 33.3126 42.8744 33.5626C42.8645 33.6251 42.8274 33.6564 42.7632 33.6564H40.2433C40.2137 33.6564 40.2038 33.6684 40.2137 33.6925C40.2285 33.7982 40.2582 33.904 40.3026 34.0098C40.4459 34.308 40.735 34.457 41.1698 34.457C41.5156 34.4522 41.7898 34.3152 41.9924 34.0459C42.0122 34.0122 42.0369 33.9954 42.0665 33.9954C42.0814 33.9954 42.0986 34.005 42.1184 34.0243L42.7113 34.5941C42.736 34.6181 42.7484 34.6398 42.7484 34.659C42.7484 34.6734 42.7385 34.6951 42.7187 34.7239C42.5359 34.9403 42.3037 35.1086 42.0221 35.2289C41.7404 35.3491 41.4316 35.4092 41.0956 35.4092C40.6263 35.4092 40.231 35.3058 39.9098 35.099C39.5837 34.8922 39.3515 34.6037 39.2132 34.2334C39.0995 33.969 39.0427 33.6227 39.0427 33.1948C39.0427 32.9014 39.0822 32.6442 39.1613 32.4229C39.2848 32.0479 39.5047 31.7497 39.8209 31.5285C40.1322 31.3073 40.5027 31.1967 40.9326 31.1967C41.4761 31.1967 41.9109 31.3506 42.237 31.6584C42.568 31.9613 42.7681 32.3701 42.8373 32.8846ZM40.94 32.1633C40.5991 32.1633 40.3743 32.3196 40.2656 32.6321C40.2409 32.6995 40.2211 32.7836 40.2063 32.8846C40.2063 32.9134 40.2186 32.9279 40.2433 32.9279H41.6589C41.6885 32.9279 41.6984 32.9134 41.6885 32.8846C41.6638 32.7307 41.6515 32.6562 41.6515 32.661C41.6021 32.5023 41.5156 32.3797 41.3921 32.2931C41.2686 32.2066 41.1179 32.1633 40.94 32.1633ZM47.2915 32.8846C47.3212 33.0866 47.3311 33.3126 47.3212 33.5626C47.3162 33.6251 47.2816 33.6564 47.2174 33.6564H44.6976C44.663 33.6564 44.6531 33.6684 44.6679 33.6925C44.6827 33.7982 44.7124 33.904 44.7568 34.0098C44.8952 34.308 45.1818 34.457 45.6166 34.457C45.9674 34.4522 46.2416 34.3152 46.4392 34.0459C46.4639 34.0122 46.4886 33.9954 46.5133 33.9954C46.5331 33.9954 46.5529 34.005 46.5726 34.0243L47.1581 34.5941C47.1878 34.6181 47.2026 34.6398 47.2026 34.659C47.2026 34.6734 47.1902 34.6951 47.1655 34.7239C46.9877 34.9403 46.7579 35.1086 46.4763 35.2289C46.1946 35.3491 45.8834 35.4092 45.5424 35.4092C45.078 35.4092 44.6827 35.3058 44.3566 35.099C44.0355 34.8922 43.8033 34.6037 43.66 34.2334C43.5463 33.969 43.4895 33.6227 43.4895 33.1948C43.4895 32.9014 43.5315 32.6442 43.6155 32.4229C43.739 32.0479 43.9564 31.7497 44.2677 31.5285C44.579 31.3073 44.9495 31.1967 45.3794 31.1967C45.9229 31.1967 46.3602 31.3506 46.6912 31.6584C47.0173 31.9613 47.2174 32.3701 47.2915 32.8846ZM45.3868 32.1633C45.0459 32.1633 44.8211 32.3196 44.7124 32.6321C44.6926 32.6995 44.6729 32.7836 44.6531 32.8846C44.6531 32.9134 44.6679 32.9279 44.6976 32.9279H46.1057C46.1403 32.9279 46.1527 32.9134 46.1428 32.8846C46.1131 32.7307 46.0983 32.6562 46.0983 32.661C46.0489 32.5023 45.9649 32.3797 45.8463 32.2931C45.7228 32.2066 45.5696 32.1633 45.3868 32.1633ZM50.3376 32.0695C50.3376 32.0935 50.3277 32.1152 50.3079 32.1344C50.2931 32.1537 50.2709 32.1633 50.2412 32.1633H49.4556C49.4309 32.1633 49.4186 32.1753 49.4186 32.1993V33.8872C49.4186 34.0603 49.4556 34.1902 49.5298 34.2767C49.6039 34.3585 49.7225 34.3993 49.8855 34.3993H50.1523C50.177 34.3993 50.1992 34.409 50.219 34.4282C50.2388 34.4474 50.2487 34.4691 50.2487 34.4931V35.2505C50.2487 35.3082 50.2165 35.3419 50.1523 35.3515C49.925 35.3611 49.762 35.3659 49.6632 35.3659C49.2135 35.3659 48.8751 35.2938 48.6478 35.1495C48.4255 35.0052 48.3118 34.7311 48.3069 34.3272V32.1993C48.3069 32.1753 48.2945 32.1633 48.2698 32.1633H47.8029C47.7782 32.1633 47.756 32.1537 47.7362 32.1344C47.7164 32.1152 47.7066 32.0935 47.7066 32.0695V31.3626C47.7066 31.3338 47.7164 31.3097 47.7362 31.2905C47.756 31.2761 47.7782 31.2688 47.8029 31.2688H48.2698C48.2945 31.2688 48.3069 31.2544 48.3069 31.2256V30.2807C48.3069 30.2566 48.3168 30.235 48.3365 30.2157C48.3563 30.1965 48.3785 30.1869 48.4032 30.1869H49.3222C49.3469 30.1869 49.3692 30.1965 49.3889 30.2157C49.4087 30.235 49.4186 30.2566 49.4186 30.2807V31.2256C49.4186 31.2544 49.4309 31.2688 49.4556 31.2688H50.2412C50.2709 31.2688 50.2931 31.2761 50.3079 31.2905C50.3277 31.3097 50.3376 31.3338 50.3376 31.3626V32.0695ZM52.7018 35.402C52.3411 35.402 52.0224 35.3515 51.7458 35.2505C51.474 35.1495 51.264 35.0101 51.1158 34.8321C50.9676 34.6494 50.8934 34.445 50.8934 34.219V34.1397C50.8934 34.1108 50.9033 34.0868 50.9231 34.0675C50.9429 34.0531 50.9651 34.0459 50.9898 34.0459H51.894C51.9236 34.0459 51.9483 34.0531 51.9681 34.0675C51.9829 34.0868 51.9903 34.1108 51.9903 34.1397V34.1469C51.9903 34.2623 52.057 34.3609 52.1904 34.4426C52.3238 34.5244 52.4918 34.5652 52.6944 34.5652C52.8772 34.5652 53.0279 34.5292 53.1465 34.457C53.2601 34.3849 53.317 34.2984 53.317 34.1974C53.317 34.1012 53.2675 34.0291 53.1687 33.981C53.0699 33.9329 52.9093 33.8824 52.687 33.8295C52.4301 33.767 52.23 33.7069 52.0867 33.6492C51.7359 33.529 51.4567 33.3847 51.2492 33.2164C51.0466 33.0481 50.9453 32.8052 50.9453 32.4879C50.9453 32.0984 51.101 31.7882 51.4122 31.5574C51.7235 31.3266 52.1385 31.2111 52.6573 31.2111C53.0032 31.2111 53.3071 31.264 53.5689 31.3698C53.8308 31.4804 54.0334 31.6343 54.1767 31.8315C54.32 32.0238 54.3916 32.245 54.3916 32.4951C54.3916 32.5239 54.3817 32.5456 54.362 32.56C54.3422 32.5792 54.32 32.5889 54.2952 32.5889H53.4207C53.3911 32.5889 53.3688 32.5792 53.354 32.56C53.3342 32.5456 53.3244 32.5239 53.3244 32.4951C53.3244 32.3797 53.2626 32.2811 53.1391 32.1993C53.0156 32.1224 52.855 32.0839 52.6573 32.0839C52.4745 32.0839 52.3263 32.1152 52.2127 32.1777C52.099 32.2402 52.0422 32.3268 52.0422 32.4374C52.0422 32.5432 52.099 32.6225 52.2127 32.6754C52.3214 32.7283 52.5066 32.786 52.7685 32.8485C52.8278 32.8629 52.8945 32.8798 52.9686 32.899C53.0477 32.9182 53.1292 32.9399 53.2132 32.9639C53.6035 33.0745 53.9099 33.2164 54.1322 33.3895C54.3545 33.5674 54.4657 33.8223 54.4657 34.1541C54.4657 34.5436 54.3051 34.849 53.984 35.0702C53.6678 35.2914 53.2404 35.402 52.7018 35.402Z" fill="#252530"/>
<path d="M23.3233 54.3869C23.269 54.3869 23.2344 54.3628 23.2196 54.3148L21.8707 49.4315L21.8633 49.4026C21.8633 49.3593 21.8905 49.3377 21.9448 49.3377H22.6711C22.7255 49.3377 22.7601 49.3618 22.7749 49.4098L23.6198 52.699C23.6247 52.7134 23.6321 52.7207 23.642 52.7207C23.6519 52.7207 23.6593 52.7134 23.6642 52.699L24.4721 49.4098C24.4869 49.3618 24.519 49.3377 24.5684 49.3377H25.2799C25.3343 49.3377 25.3688 49.3618 25.3837 49.4098L26.2434 52.7062C26.2483 52.7207 26.2557 52.7279 26.2656 52.7279C26.2755 52.7279 26.2829 52.7207 26.2879 52.7062L27.1179 49.4098C27.1327 49.3618 27.1673 49.3377 27.2217 49.3377H27.9109C27.9801 49.3377 28.0073 49.369 27.9925 49.4315L26.7103 54.3148C26.6955 54.3628 26.6609 54.3869 26.6065 54.3869H25.9173C25.8629 54.3869 25.8284 54.3628 25.8135 54.3148L24.9464 50.8741C24.9415 50.8597 24.9341 50.8501 24.9242 50.8452C24.9143 50.8452 24.9069 50.8549 24.9019 50.8741L24.0719 54.3148C24.057 54.3628 24.0249 54.3869 23.9755 54.3869H23.3233ZM28.8151 54.3869C28.7904 54.3869 28.7682 54.3773 28.7484 54.358C28.7336 54.3436 28.7262 54.3244 28.7262 54.3003V49.4243C28.7262 49.4002 28.7336 49.381 28.7484 49.3666C28.7682 49.3473 28.7904 49.3377 28.8151 49.3377H29.497C29.5217 49.3377 29.5414 49.3473 29.5563 49.3666C29.576 49.381 29.5859 49.4002 29.5859 49.4243V54.3003C29.5859 54.3244 29.576 54.3436 29.5563 54.358C29.5414 54.3773 29.5217 54.3869 29.497 54.3869H28.8151ZM33.6844 49.4243C33.6844 49.4002 33.6918 49.381 33.7066 49.3666C33.7264 49.3473 33.7486 49.3377 33.7733 49.3377H34.4552C34.4799 49.3377 34.4996 49.3473 34.5145 49.3666C34.5342 49.381 34.5441 49.4002 34.5441 49.4243V54.3003C34.5441 54.3244 34.5342 54.3436 34.5145 54.358C34.4996 54.3773 34.4799 54.3869 34.4552 54.3869H33.7956C33.7461 54.3869 33.7116 54.3677 33.6918 54.3292L31.5573 50.9246C31.5474 50.9102 31.5376 50.903 31.5277 50.903C31.5178 50.9078 31.5129 50.9198 31.5129 50.939L31.5277 54.3003C31.5277 54.3244 31.5178 54.3436 31.498 54.358C31.4832 54.3773 31.4634 54.3869 31.4387 54.3869H30.7569C30.7322 54.3869 30.71 54.3773 30.6902 54.358C30.6754 54.3436 30.668 54.3244 30.668 54.3003V49.4243C30.668 49.4002 30.6754 49.381 30.6902 49.3666C30.71 49.3473 30.7322 49.3377 30.7569 49.3377H31.4165C31.4659 49.3377 31.5005 49.3569 31.5203 49.3954L33.6473 52.8C33.6572 52.8144 33.6671 52.8192 33.677 52.8144C33.6869 52.8144 33.6918 52.8048 33.6918 52.7856L33.6844 49.4243ZM39.0354 49.3377C39.0601 49.3377 39.0798 49.3473 39.0947 49.3666C39.1144 49.381 39.1243 49.4002 39.1243 49.4243V49.9797C39.1243 50.0037 39.1144 50.023 39.0947 50.0374C39.0798 50.0566 39.0601 50.0662 39.0354 50.0662H37.6717C37.647 50.0662 37.6346 50.0783 37.6346 50.1023V54.3003C37.6346 54.3244 37.6272 54.3436 37.6124 54.358C37.5926 54.3773 37.5704 54.3869 37.5457 54.3869H36.8638C36.8391 54.3869 36.8194 54.3773 36.8046 54.358C36.7848 54.3436 36.7749 54.3244 36.7749 54.3003V50.1023C36.7749 50.0783 36.7626 50.0662 36.7379 50.0662H35.426C35.4013 50.0662 35.3791 50.0566 35.3593 50.0374C35.3445 50.023 35.3371 50.0037 35.3371 49.9797V49.4243C35.3371 49.4002 35.3445 49.381 35.3593 49.3666C35.3791 49.3473 35.4013 49.3377 35.426 49.3377H39.0354ZM43.4303 49.9725C43.4303 49.9965 43.4204 50.0157 43.4007 50.0302C43.3858 50.0494 43.3661 50.059 43.3414 50.059H40.8141C40.7894 50.059 40.777 50.071 40.777 50.0951V51.4439C40.777 51.468 40.7894 51.48 40.8141 51.48H42.5113C42.536 51.48 42.5582 51.4872 42.578 51.5016C42.5928 51.5209 42.6002 51.5425 42.6002 51.5666V52.1148C42.6002 52.1388 42.5928 52.1604 42.578 52.1797C42.5582 52.1941 42.536 52.2013 42.5113 52.2013H40.8141C40.7894 52.2013 40.777 52.2133 40.777 52.2374V53.6295C40.777 53.6536 40.7894 53.6656 40.8141 53.6656H43.3414C43.3661 53.6656 43.3858 53.6752 43.4007 53.6944C43.4204 53.7089 43.4303 53.7281 43.4303 53.7521V54.3003C43.4303 54.3244 43.4204 54.3436 43.4007 54.358C43.3858 54.3773 43.3661 54.3869 43.3414 54.3869H40.0063C39.9816 54.3869 39.9593 54.3773 39.9396 54.358C39.9247 54.3436 39.9173 54.3244 39.9173 54.3003V49.4243C39.9173 49.4002 39.9247 49.381 39.9396 49.3666C39.9593 49.3473 39.9816 49.3377 40.0063 49.3377H43.3414C43.3661 49.3377 43.3858 49.3473 43.4007 49.3666C43.4204 49.381 43.4303 49.4002 43.4303 49.4243V49.9725ZM47.2175 54.3869C47.1681 54.3869 47.1335 54.3652 47.1137 54.322L46.1354 52.2446C46.1256 52.2254 46.1107 52.2157 46.091 52.2157H45.2016C45.1769 52.2157 45.1646 52.2278 45.1646 52.2518V54.3003C45.1646 54.3244 45.1547 54.3436 45.1349 54.358C45.1201 54.3773 45.1003 54.3869 45.0756 54.3869H44.3938C44.3691 54.3869 44.3468 54.3773 44.3271 54.358C44.3123 54.3436 44.3048 54.3244 44.3048 54.3003V49.4243C44.3048 49.4002 44.3123 49.381 44.3271 49.3666C44.3468 49.3473 44.3691 49.3377 44.3938 49.3377H46.4319C46.7333 49.3377 47.0001 49.3978 47.2323 49.518C47.4645 49.6431 47.6449 49.8162 47.7734 50.0374C47.9018 50.2634 47.966 50.5207 47.966 50.8092C47.966 51.141 47.8771 51.4223 47.6992 51.6531C47.5263 51.8887 47.2842 52.0522 46.9729 52.1436C46.963 52.1436 46.9556 52.1484 46.9507 52.158C46.9458 52.1676 46.9458 52.1773 46.9507 52.1869L47.9957 54.2859C48.0056 54.3051 48.0105 54.3196 48.0105 54.3292C48.0105 54.3677 47.9833 54.3869 47.929 54.3869H47.2175ZM45.2016 50.059C45.1769 50.059 45.1646 50.071 45.1646 50.0951V51.5305C45.1646 51.5545 45.1769 51.5666 45.2016 51.5666H46.3133C46.5505 51.5666 46.7432 51.4968 46.8914 51.3574C47.0347 51.2227 47.1063 51.0424 47.1063 50.8164C47.1063 50.5904 47.0347 50.4077 46.8914 50.2682C46.7432 50.1287 46.5505 50.059 46.3133 50.059H45.2016Z" fill="#242530"/>
<path d="M25.2279 67.4138C25.2131 67.4282 25.2082 67.4426 25.2131 67.457C25.223 67.4715 25.2378 67.4787 25.2576 67.4787H28.1702C28.2048 67.4787 28.2345 67.4907 28.2592 67.5148C28.2888 67.5388 28.3036 67.5677 28.3036 67.6013V68.6184C28.3036 68.652 28.2888 68.6809 28.2592 68.7049C28.2345 68.729 28.2048 68.741 28.1702 68.741H23.338C23.2985 68.741 23.2664 68.729 23.2417 68.7049C23.217 68.6809 23.2046 68.652 23.2046 68.6184V67.6518C23.2046 67.5893 23.2269 67.5364 23.2713 67.4931C23.6221 67.1613 23.9803 66.7983 24.346 66.4039C24.7116 66.0096 24.9413 65.7644 25.0352 65.6682C25.2329 65.4374 25.4354 65.2162 25.643 65.0046C26.2952 64.3025 26.6213 63.7808 26.6213 63.4393C26.6213 63.1941 26.5323 62.9921 26.3544 62.8334C26.1766 62.6796 25.9444 62.6026 25.6578 62.6026C25.3712 62.6026 25.139 62.6796 24.9611 62.8334C24.7783 62.9921 24.6869 63.2013 24.6869 63.461V63.7207C24.6869 63.7543 24.6745 63.7832 24.6498 63.8072C24.6251 63.8313 24.5955 63.8433 24.5609 63.8433H23.2936C23.259 63.8433 23.2293 63.8313 23.2046 63.8072C23.175 63.7832 23.1602 63.7543 23.1602 63.7207V63.2302C23.1849 62.8551 23.3084 62.5209 23.5307 62.2275C23.7531 61.939 24.047 61.7178 24.4127 61.5639C24.7832 61.4101 25.1983 61.3331 25.6578 61.3331C26.1667 61.3331 26.6089 61.4269 26.9844 61.6144C27.3599 61.7972 27.649 62.0448 27.8515 62.3574C28.0591 62.6748 28.1628 63.0234 28.1628 63.4033C28.1628 63.6966 28.0862 63.9972 27.9331 64.3049C27.7848 64.6127 27.56 64.9445 27.2586 65.3003C27.0363 65.5696 26.7967 65.8389 26.5397 66.1082C26.2828 66.3727 25.8999 66.755 25.391 67.2551L25.2279 67.4138ZM31.7944 68.8564C31.0038 68.8564 30.3813 68.6424 29.9267 68.2144C29.4672 67.7865 29.2375 67.2022 29.2375 66.4616V63.699C29.2375 62.9729 29.4672 62.3983 29.9267 61.9751C30.3813 61.5471 31.0038 61.3331 31.7944 61.3331C32.58 61.3331 33.205 61.5471 33.6694 61.9751C34.129 62.3983 34.3587 62.9729 34.3587 63.699V66.4616C34.3587 67.2022 34.129 67.7865 33.6694 68.2144C33.205 68.6424 32.58 68.8564 31.7944 68.8564ZM31.7944 67.5941C32.1155 67.5941 32.37 67.4979 32.5577 67.3056C32.7504 67.1132 32.8468 66.856 32.8468 66.5338V63.6557C32.8468 63.3384 32.7504 63.0835 32.5577 62.8912C32.37 62.6988 32.1155 62.6026 31.7944 62.6026C31.4782 62.6026 31.2262 62.6988 31.0384 62.8912C30.8457 63.0835 30.7494 63.3384 30.7494 63.6557V66.5338C30.7494 66.856 30.8457 67.1132 31.0384 67.3056C31.2262 67.4979 31.4782 67.5941 31.7944 67.5941ZM37.3677 67.4138C37.3529 67.4282 37.3504 67.4426 37.3603 67.457C37.3652 67.4715 37.3801 67.4787 37.4048 67.4787H40.3174C40.352 67.4787 40.3817 67.4907 40.4064 67.5148C40.4311 67.5388 40.4434 67.5677 40.4434 67.6013V68.6184C40.4434 68.652 40.4311 68.6809 40.4064 68.7049C40.3817 68.729 40.352 68.741 40.3174 68.741H35.4778C35.4432 68.741 35.4136 68.729 35.3889 68.7049C35.3642 68.6809 35.3518 68.652 35.3518 68.6184V67.6518C35.3518 67.5893 35.3716 67.5364 35.4111 67.4931C35.7669 67.1613 36.1251 66.7983 36.4858 66.4039C36.8514 66.0096 37.0811 65.7644 37.175 65.6682C37.3776 65.4374 37.5826 65.2162 37.7902 65.0046C38.4424 64.3025 38.7685 63.7808 38.7685 63.4393C38.7685 63.1941 38.6795 62.9921 38.5016 62.8334C38.3188 62.6796 38.0841 62.6026 37.7976 62.6026C37.511 62.6026 37.2788 62.6796 37.1009 62.8334C36.923 62.9921 36.8341 63.2013 36.8341 63.461V63.7207C36.8341 63.7543 36.8217 63.7832 36.797 63.8072C36.7723 63.8313 36.7402 63.8433 36.7007 63.8433H35.4333C35.3988 63.8433 35.3691 63.8313 35.3444 63.8072C35.3197 63.7832 35.3074 63.7543 35.3074 63.7207V63.2302C35.3271 62.8551 35.4482 62.5209 35.6705 62.2275C35.8929 61.939 36.1893 61.7178 36.5599 61.5639C36.9304 61.4101 37.343 61.3331 37.7976 61.3331C38.3065 61.3331 38.7487 61.4269 39.1242 61.6144C39.5046 61.7972 39.7962 62.0448 39.9987 62.3574C40.2013 62.6748 40.3026 63.0234 40.3026 63.4033C40.3026 63.6966 40.2285 63.9972 40.0803 64.3049C39.9271 64.6127 39.6998 64.9445 39.3984 65.3003C39.1761 65.5696 38.9364 65.8389 38.6795 66.1082C38.4226 66.3727 38.0397 66.755 37.5308 67.2551L37.3677 67.4138ZM43.3857 67.4138C43.3709 67.4282 43.3684 67.4426 43.3783 67.457C43.3833 67.4715 43.3981 67.4787 43.4228 67.4787H46.3354C46.37 67.4787 46.3997 67.4907 46.4244 67.5148C46.4491 67.5388 46.4614 67.5677 46.4614 67.6013V68.6184C46.4614 68.652 46.4491 68.6809 46.4244 68.7049C46.3997 68.729 46.37 68.741 46.3354 68.741H41.4958C41.4612 68.741 41.4316 68.729 41.4069 68.7049C41.3822 68.6809 41.3698 68.652 41.3698 68.6184V67.6518C41.3698 67.5893 41.3896 67.5364 41.4291 67.4931C41.7849 67.1613 42.1431 66.7983 42.5038 66.4039C42.8694 66.0096 43.0991 65.7644 43.193 65.6682C43.3956 65.4374 43.6007 65.2162 43.8082 65.0046C44.4604 64.3025 44.7865 63.7808 44.7865 63.4393C44.7865 63.1941 44.6975 62.9921 44.5197 62.8334C44.3368 62.6796 44.1022 62.6026 43.8156 62.6026C43.529 62.6026 43.2968 62.6796 43.1189 62.8334C42.941 62.9921 42.8521 63.2013 42.8521 63.461V63.7207C42.8521 63.7543 42.8398 63.7832 42.815 63.8072C42.7903 63.8313 42.7582 63.8433 42.7187 63.8433H41.4514C41.4168 63.8433 41.3871 63.8313 41.3624 63.8072C41.3377 63.7832 41.3254 63.7543 41.3254 63.7207V63.2302C41.3451 62.8551 41.4662 62.5209 41.6885 62.2275C41.9109 61.939 42.2073 61.7178 42.5779 61.5639C42.9485 61.4101 43.361 61.3331 43.8156 61.3331C44.3245 61.3331 44.7667 61.4269 45.1422 61.6144C45.5227 61.7972 45.8142 62.0448 46.0168 62.3574C46.2193 62.6748 46.3206 63.0234 46.3206 63.4033C46.3206 63.6966 46.2465 63.9972 46.0983 64.3049C45.9451 64.6127 45.7178 64.9445 45.4164 65.3003C45.1941 65.5696 44.9545 65.8389 44.6975 66.1082C44.4406 66.3727 44.0577 66.755 43.5488 67.2551L43.3857 67.4138Z" fill="#252530"/>
</g>
<defs>
<clipPath id="clip0_493_784">
<rect width="69.6667" height="88" fill="white" transform="translate(0.199219)"/>
</clipPath>
</defs>
</svg>
