<svg width="34" height="33" viewBox="0 0 34 33" fill="none" xmlns="http://www.w3.org/2000/svg">
<path d="M21.084 26.6667L17.0007 32.5L12.9173 26.6667H2.00065C1.55862 26.6667 1.1347 26.4911 0.82214 26.1785C0.509579 25.866 0.333984 25.442 0.333984 25V1.66667C0.333984 1.22464 0.509579 0.800716 0.82214 0.488155C1.1347 0.175595 1.55862 0 2.00065 0H32.0007C32.4427 0 32.8666 0.175595 33.1792 0.488155C33.4917 0.800716 33.6673 1.22464 33.6673 1.66667V25C33.6673 25.442 33.4917 25.866 33.1792 26.1785C32.8666 26.4911 32.4427 26.6667 32.0007 26.6667H21.084ZM19.349 23.3333H30.334V3.33333H3.66732V23.3333H14.6523L17.0007 26.6867L19.349 23.3333Z" fill="white"/>
</svg>
