<svg width="34" height="34" viewBox="0 0 34 34" fill="none" xmlns="http://www.w3.org/2000/svg">
<path d="M30.334 17.0002C30.3337 14.0283 29.3405 11.1417 27.5122 8.79882C25.6839 6.45591 23.1252 4.79097 20.2425 4.06839C17.3598 3.34581 14.3184 3.607 11.6011 4.8105C8.88385 6.01401 6.64654 8.09081 5.24446 10.7111C3.84239 13.3315 3.35592 16.3451 3.86231 19.2735C4.36869 22.2019 5.83891 24.8772 8.03949 26.8746C10.2401 28.8719 13.0449 30.0768 16.0085 30.298C18.9721 30.5191 21.9247 29.7438 24.3973 28.0952L26.2473 30.8685C23.511 32.698 20.2922 33.6721 17.0007 33.6668C7.79565 33.6668 0.333984 26.2052 0.333984 17.0002C0.333984 7.79516 7.79565 0.333496 17.0007 0.333496C26.2057 0.333496 33.6673 7.79516 33.6673 17.0002V19.5002C33.6675 20.7481 33.2675 21.9632 32.526 22.9669C31.7845 23.9707 30.7407 24.7102 29.5479 25.0769C28.3551 25.4435 27.0761 25.418 25.8988 25.004C24.7216 24.59 23.7081 23.8094 23.0073 22.7768C21.8949 23.9335 20.4722 24.7444 18.9102 25.112C17.3481 25.4797 15.7131 25.3885 14.2016 24.8495C12.6901 24.3104 11.3664 23.3464 10.3895 22.0732C9.41261 20.8 8.82412 19.2719 8.69472 17.6723C8.56532 16.0728 8.90051 14.4699 9.66002 13.0563C10.4195 11.6426 11.5711 10.4784 12.9763 9.70333C14.3815 8.9283 15.9806 8.57548 17.5814 8.68727C19.1823 8.79906 20.7168 9.37069 22.0007 10.3335H25.334V19.5002C25.334 20.1632 25.5974 20.7991 26.0662 21.2679C26.5351 21.7368 27.1709 22.0002 27.834 22.0002C28.497 22.0002 29.1329 21.7368 29.6018 21.2679C30.0706 20.7991 30.334 20.1632 30.334 19.5002V17.0002ZM17.0007 12.0002C15.6746 12.0002 14.4028 12.5269 13.4651 13.4646C12.5274 14.4023 12.0007 15.6741 12.0007 17.0002C12.0007 18.3262 12.5274 19.598 13.4651 20.5357C14.4028 21.4734 15.6746 22.0002 17.0007 22.0002C18.3267 22.0002 19.5985 21.4734 20.5362 20.5357C21.4739 19.598 22.0007 18.3262 22.0007 17.0002C22.0007 15.6741 21.4739 14.4023 20.5362 13.4646C19.5985 12.5269 18.3267 12.0002 17.0007 12.0002Z" fill="#07081B"/>
</svg>
