<svg width="28" height="28" viewBox="0 0 28 28" fill="none" xmlns="http://www.w3.org/2000/svg">
<path d="M0.733755 15.3333H3.41642C3.7418 17.9108 4.99653 20.281 6.94519 21.9991C8.89384 23.7172 11.4025 24.6652 14.0004 24.6652C16.5984 24.6652 19.107 23.7172 21.0557 21.9991C23.0043 20.281 24.259 17.9108 24.5844 15.3333H27.2684C26.5991 22.0707 20.9138 27.3333 14.0004 27.3333C7.08709 27.3333 1.40176 22.0707 0.733755 15.3333ZM0.733755 12.6667C1.40042 5.92932 7.08576 0.666656 14.0004 0.666656C20.9151 0.666656 26.5991 5.92932 27.2671 12.6667H24.5844C24.259 10.0892 23.0043 7.71902 21.0557 6.00089C19.107 4.28276 16.5984 3.33476 14.0004 3.33476C11.4025 3.33476 8.89384 4.28276 6.94519 6.00089C4.99653 7.71902 3.7418 10.0892 3.41642 12.6667H0.732422H0.733755ZM14.0004 16.6667C13.2932 16.6667 12.6149 16.3857 12.1148 15.8856C11.6147 15.3855 11.3338 14.7072 11.3338 14C11.3338 13.2927 11.6147 12.6145 12.1148 12.1144C12.6149 11.6143 13.2932 11.3333 14.0004 11.3333C14.7077 11.3333 15.3859 11.6143 15.886 12.1144C16.3861 12.6145 16.6671 13.2927 16.6671 14C16.6671 14.7072 16.3861 15.3855 15.886 15.8856C15.3859 16.3857 14.7077 16.6667 14.0004 16.6667Z" fill="white"/>
</svg>
