<svg width="46" height="48" viewBox="0 0 46 48" fill="none" xmlns="http://www.w3.org/2000/svg">
<g clip-path="url(#clip0_913_2539)">
<path d="M45.4362 22.6722L24.7257 2.26279L22.7188 0.285156L7.12847 15.6489L-0.000646174 22.6722C-0.356742 23.0249 -0.556641 23.5022 -0.556641 23.9998C-0.556641 24.4974 -0.356742 24.9747 -0.000646174 25.3274L14.2425 39.3635L22.7188 47.7144L38.3071 32.3507L38.5499 32.1136L45.4362 25.338C45.6147 25.1634 45.7563 24.9558 45.8529 24.727C45.9496 24.4982 45.9994 24.2529 45.9994 24.0051C45.9994 23.7573 45.9496 23.5119 45.8529 23.2832C45.7563 23.0544 45.6147 22.8468 45.4362 22.6722ZM22.7188 31.0126L15.6026 23.9998L22.7188 16.987L29.8329 23.9998L22.7188 31.0126Z" fill="#2684FF"/>
<path d="M22.7203 16.9865C20.4822 14.7815 19.2206 11.7933 19.2109 8.67464C19.2013 5.55595 20.4444 2.56023 22.6687 0.341797L7.09766 15.6801L15.5718 24.031L22.7203 16.9865Z" fill="url(#paint0_linear_913_2539)"/>
<path d="M29.8522 23.9805L22.7188 31.0123C24.9653 33.2267 26.2273 36.2298 26.2273 39.3611C26.2273 42.4924 24.9653 45.4955 22.7188 47.7099L38.3328 32.3314L29.8522 23.9805Z" fill="url(#paint1_linear_913_2539)"/>
</g>
<defs>
<linearGradient id="paint0_linear_913_2539" x1="21.4461" y1="9.89118" x2="11.6543" y2="19.8254" gradientUnits="userSpaceOnUse">
<stop offset="0.18" stop-color="#0052CC"/>
<stop offset="1" stop-color="#2684FF"/>
</linearGradient>
<linearGradient id="paint1_linear_913_2539" x1="1812.86" y1="2059.26" x2="2818.72" y2="2720.97" gradientUnits="userSpaceOnUse">
<stop offset="0.18" stop-color="#0052CC"/>
<stop offset="1" stop-color="#2684FF"/>
</linearGradient>
<clipPath id="clip0_913_2539">
<rect width="46" height="48" fill="white"/>
</clipPath>
</defs>
</svg>
