<svg width="36" height="54" viewBox="0 0 36 54" fill="none" xmlns="http://www.w3.org/2000/svg">
<path d="M0.178963 0L0.607767 0.295833C1.94202 1.20769 33.2588 22.6451 34.1324 23.2873C35.3692 24.14 36 25.1945 36 26.4179V27.0252C35.9858 27.9701 35.6403 29.2996 34.1324 30.4116L34.1271 30.4151C33.4006 30.925 26.0064 35.9559 18.1781 41.2843C17.4888 41.7534 16.7917 42.2278 16.093 42.7034L15.627 43.0205C8.71309 47.7261 1.77466 52.4499 0.836344 53.102V53.9495L0.32426 53.1037C0.299454 53.0602 0.276419 53.0237 0.302997 52.9645H0.28705V48.5409C0.28705 47.0322 0.457154 46.3065 2.16705 45.1876C2.89542 44.7279 9.13216 40.4982 15.4672 36.193L16.2126 35.6864C22.0503 31.7186 27.7912 27.8097 29.2012 26.8512C26.2243 24.8204 3.90884 9.60586 2.37968 8.50606L2.19895 8.37729C1.06846 7.57332 0.178963 6.93989 0.178963 5.26582V0ZM3.07427 15.3798C4.58394 16.3334 19.1845 26.2839 19.3316 26.3865L19.6629 26.611L19.3263 26.832C19.3263 26.832 18.3393 27.4776 17.2443 28.2294C16.3069 28.9046 15.4298 29.2422 14.5581 29.2422C13.7837 29.2422 13.0165 28.9777 12.2085 28.4504C11.3478 27.8861 8.92311 26.2434 6.46882 24.5745L6.1341 24.3469C3.12259 22.2986 0.171486 20.283 0.116946 20.2454L0 20.1654V16.7859C0 16.0098 0.340208 15.3955 0.937343 15.0979C1.577 14.7777 2.37614 14.8821 3.07427 15.3798Z" fill="#004CFF"/>
</svg>
