<svg width="30" height="38" viewBox="0 0 30 38" fill="none" xmlns="http://www.w3.org/2000/svg">
<path d="M17.9365 0.927734C13.7266 0.927734 11.2855 2.7519 10.118 3.96801C9.97652 2.88702 9.23359 1.50201 6.33261 1.50201H0V7.78524H2.58257C3.00711 7.78524 3.14862 7.92036 3.14862 8.32573V37.0732H10.6487V25.5202C11.8162 26.5336 14.045 27.9524 17.5473 27.9524C24.8705 27.9524 30.0003 22.4123 30.0003 14.4401C30.0357 6.36645 25.1536 0.927734 17.9365 0.927734ZM16.4153 21.7029C12.3822 21.7029 10.5426 18.0208 10.5426 14.5752C10.5426 9.17025 13.6204 7.24475 16.5214 7.24475C20.0592 7.24475 22.4649 10.1499 22.4649 14.5076C22.4295 19.5072 19.387 21.7029 16.4153 21.7029Z" fill="#203232"/>
</svg>
