<svg width="48" height="48" viewBox="0 0 48 48" fill="none" xmlns="http://www.w3.org/2000/svg">
<path d="M47.4056 19.813H33.3244L43.2191 9.91828C42.4579 8.77678 41.6966 8.01553 40.9354 6.87328C39.8401 6.0817 38.821 5.18985 37.8911 4.20928L27.9979 14.1048V0.404534C26.7552 0.0899801 25.4727 -0.0381694 24.1924 0.024284C22.9111 -0.0583179 21.625 0.0701429 20.3854 0.404534V14.4858L10.1104 4.21078C8.92891 4.88798 7.89385 5.79327 7.06536 6.87403C6.30411 8.01553 5.16261 8.77678 4.40136 9.91903L14.2954 19.813H0.595862L0.215612 23.6185C0.133176 24.8993 0.261635 26.1849 0.595862 27.424H14.6779L4.40286 37.699C5.90635 39.9631 7.8471 41.9038 10.1111 43.4073L20.0059 33.5125V47.5945C21.2485 47.9091 22.531 48.0372 23.8114 47.9748C25.0921 48.0572 26.3777 47.9288 27.6169 47.5945V33.514L37.5109 43.4095C38.6921 42.732 39.7269 41.8265 40.5551 40.7455C41.5357 39.8157 42.4275 38.7965 43.2191 37.7013L33.3244 27.805H47.4056C47.7204 26.5624 47.8488 25.2799 47.7866 23.9995C47.8672 22.5929 47.7391 21.1821 47.4064 19.813H47.4056ZM29.8991 23.6185C29.8613 25.2938 29.6054 26.9571 29.1379 28.5663C27.5652 29.1829 25.8754 29.4429 24.1901 29.3275C22.5148 29.2897 20.8516 29.0338 19.2424 28.5663C18.6257 26.9937 18.3657 25.3038 18.4811 23.6185C18.5189 21.9432 18.7748 20.28 19.2424 18.6708C20.815 18.0541 22.5049 17.7941 24.1901 17.9095C25.8654 17.9474 27.5287 18.2033 29.1379 18.6708C29.5768 20.2862 29.8322 21.9459 29.8991 23.6185Z" fill="#FF4A00"/>
</svg>
