<svg width="72" height="52" viewBox="0 0 72 52" fill="none" xmlns="http://www.w3.org/2000/svg">
<path d="M29.9672 5.67714C32.287 3.19442 35.5166 1.6547 39.0884 1.6547C43.8364 1.6547 47.979 4.37421 50.185 8.41139C52.102 7.53155 54.224 7.04216 56.4566 7.04216C65.0204 7.04216 71.9632 14.2356 71.9632 23.1088C71.9632 31.983 65.0204 39.1764 56.4566 39.1764C55.4115 39.1764 54.39 39.0691 53.4022 38.8639C51.4596 42.4232 47.7576 44.8281 43.5086 44.8281C41.7298 44.8281 40.0474 44.406 38.5494 43.6557C36.5801 48.4138 31.9919 51.75 26.6444 51.75C21.0756 51.75 16.3296 48.1306 14.5078 43.0547C13.7117 43.2284 12.8869 43.3189 12.0406 43.3189C5.41029 43.3189 0.0351562 37.7409 0.0351562 30.859C0.0351562 26.2472 2.45017 22.2205 6.03838 20.0662C5.29963 18.3202 4.88876 16.3931 4.88876 14.3672C4.88876 6.45279 11.144 0.0370865 18.8594 0.0370865C23.3892 0.0370865 27.4149 2.24933 29.9672 5.67714Z" fill="#00A1E0"/>
<path d="M10.4538 26.8542C10.4087 26.9752 10.4701 27.0005 10.4845 27.0215C10.6197 27.1226 10.757 27.1952 10.8954 27.2762C11.629 27.6761 12.3216 27.793 13.046 27.793C14.5215 27.793 15.4375 26.9868 15.4375 25.6891V25.6639C15.4375 24.4641 14.4036 24.0284 13.4333 23.7137L13.3073 23.6716C12.5757 23.4274 11.9446 23.2169 11.9446 22.7223V22.696C11.9446 22.2729 12.3134 21.9614 12.8852 21.9614C13.5204 21.9614 14.2745 22.1782 14.7602 22.4539C14.7602 22.4539 14.9026 22.5486 14.9549 22.4066C14.9836 22.3308 15.2295 21.6509 15.2551 21.5772C15.2828 21.4972 15.2336 21.4383 15.1834 21.4067C14.6291 21.0605 13.8626 20.8237 13.0696 20.8237L12.9221 20.8247C11.5716 20.8247 10.629 21.6625 10.629 22.8633V22.8886C10.629 24.1547 11.6689 24.5651 12.6434 24.8514L12.8001 24.9009C13.5102 25.125 14.1219 25.3176 14.1219 25.8312V25.8565C14.1219 26.3259 13.7243 26.6753 13.0829 26.6753C12.8339 26.6753 12.0399 26.67 11.1823 26.1133C11.0788 26.0512 11.0183 26.0059 10.9384 25.9565C10.8964 25.9291 10.7909 25.8817 10.7447 26.0249L10.4538 26.8542Z" fill="white"/>
<path d="M32.0534 26.8542C32.0083 26.9752 32.0698 27.0005 32.0841 27.0215C32.2194 27.1226 32.3567 27.1952 32.495 27.2762C33.2286 27.6761 33.9212 27.793 34.6456 27.793C36.1211 27.793 37.0371 26.9868 37.0371 25.6891V25.6639C37.0371 24.4641 36.0033 24.0284 35.0329 23.7137L34.9069 23.6716C34.1753 23.4274 33.5442 23.2169 33.5442 22.7223V22.696C33.5442 22.2729 33.913 21.9614 34.4848 21.9614C35.12 21.9614 35.8742 22.1782 36.3598 22.4539C36.3598 22.4539 36.5022 22.5486 36.5545 22.4066C36.5832 22.3308 36.8291 21.6509 36.8547 21.5772C36.8824 21.4972 36.8332 21.4383 36.783 21.4067C36.2287 21.0605 35.4623 20.8237 34.6692 20.8237L34.5217 20.8247C33.1712 20.8247 32.2286 21.6625 32.2286 22.8633V22.8886C32.2286 24.1547 33.2686 24.5651 34.243 24.8514L34.3997 24.9009C35.1098 25.125 35.7225 25.3176 35.7225 25.8312V25.8565C35.7225 26.3259 35.3239 26.6753 34.6825 26.6753C34.4335 26.6753 33.6395 26.67 32.7819 26.1133C32.6784 26.0512 32.6169 26.008 32.539 25.9565C32.5124 25.9386 32.3874 25.8891 32.3444 26.0249L32.0534 26.8542Z" fill="white"/>
<path d="M46.7979 24.3113C46.7979 25.0449 46.6647 25.6227 46.4024 26.031C46.1432 26.4352 45.7507 26.632 45.2036 26.632C44.6554 26.632 44.265 26.4362 44.0099 26.031C43.7517 25.6237 43.6206 25.0449 43.6206 24.3113C43.6206 23.5788 43.7517 23.0021 44.0099 22.598C44.265 22.198 44.6554 22.0033 45.2036 22.0033C45.7507 22.0033 46.1432 22.198 46.4034 22.598C46.6647 23.0021 46.7979 23.5788 46.7979 24.3113ZM48.0295 22.9516C47.9086 22.5317 47.72 22.1612 47.469 21.8528C47.218 21.5434 46.9003 21.295 46.5233 21.114C46.1473 20.9341 45.7026 20.8425 45.2036 20.8425C44.7036 20.8425 44.2589 20.9341 43.8829 21.114C43.5058 21.295 43.1882 21.5434 42.9361 21.8528C42.6861 22.1623 42.4976 22.5327 42.3756 22.9516C42.2558 23.3694 42.1953 23.8262 42.1953 24.3113C42.1953 24.7965 42.2558 25.2543 42.3756 25.6711C42.4976 26.09 42.6851 26.4604 42.9371 26.7699C43.1882 27.0793 43.5068 27.3266 43.8829 27.5024C44.2599 27.6781 44.7036 27.7676 45.2036 27.7676C45.7026 27.7676 46.1462 27.6781 46.5233 27.5024C46.8993 27.3266 47.218 27.0793 47.469 26.7699C47.72 26.4615 47.9086 26.091 48.0295 25.6711C48.1504 25.2533 48.2108 24.7955 48.2108 24.3113C48.2108 23.8272 48.1504 23.3694 48.0295 22.9516Z" fill="white"/>
<path d="M58.1433 26.4374C58.1024 26.3143 57.9866 26.3606 57.9866 26.3606C57.8073 26.4311 57.6167 26.4964 57.4138 26.529C57.2079 26.5616 56.9814 26.5785 56.7386 26.5785C56.1423 26.5785 55.6689 26.3964 55.3297 26.0365C54.9896 25.6765 54.799 25.0945 54.801 24.3073C54.8031 23.5906 54.9711 23.0517 55.2734 22.6413C55.5736 22.2329 56.0306 22.0235 56.6402 22.0235C57.1484 22.0235 57.5357 22.0835 57.9415 22.215C57.9415 22.215 58.0388 22.2582 58.0849 22.1277C58.1925 21.8204 58.2724 21.6004 58.3872 21.2626C58.42 21.1668 58.3401 21.1258 58.3114 21.1142C58.1515 21.05 57.7745 20.9458 57.4896 20.9016C57.2232 20.8595 56.9118 20.8374 56.5654 20.8374C56.048 20.8374 55.5869 20.9279 55.1924 21.1089C54.799 21.2889 54.465 21.5373 54.2006 21.8467C53.9363 22.1561 53.7354 22.5266 53.6012 22.9454C53.468 23.3632 53.4004 23.8221 53.4004 24.3073C53.4004 25.3566 53.676 26.2049 54.2201 26.8258C54.7652 27.4488 55.5839 27.7656 56.6515 27.7656C57.2827 27.7656 57.9302 27.6341 58.3954 27.4457C58.3954 27.4457 58.4845 27.4015 58.4456 27.2952L58.1433 26.4374Z" fill="white"/>
<path d="M60.2988 23.6092C60.3572 23.2019 60.4668 22.863 60.6359 22.5989C60.891 22.1979 61.2804 21.9779 61.8275 21.9779C62.3747 21.9779 62.7364 22.1989 62.9956 22.5989C63.1677 22.863 63.2425 23.2166 63.2722 23.6092H60.2988ZM64.4454 22.7136C64.3409 22.3084 64.0817 21.899 63.9116 21.7116C63.6431 21.4149 63.3808 21.2075 63.1206 21.0918C62.7804 20.9423 62.3726 20.8434 61.9259 20.8434C61.4054 20.8434 60.933 20.9328 60.5498 21.1181C60.1656 21.3033 59.8428 21.5559 59.5898 21.8706C59.3367 22.1842 59.1461 22.5578 59.0252 22.9819C58.9033 23.404 58.8418 23.8639 58.8418 24.3491C58.8418 24.8427 58.9053 25.3026 59.0313 25.7162C59.1584 26.133 59.3613 26.5003 59.6359 26.8044C59.9094 27.1107 60.2619 27.3507 60.6841 27.518C61.1031 27.6843 61.6124 27.7706 62.1974 27.7695C63.4013 27.7653 64.0356 27.4896 64.2969 27.3412C64.343 27.3149 64.387 27.2686 64.3317 27.136L64.0591 26.3519C64.0182 26.2351 63.9024 26.2782 63.9024 26.2782C63.6042 26.3919 63.18 26.596 62.1913 26.5939C61.5447 26.5929 61.0652 26.3971 60.765 26.0909C60.4566 25.7772 60.306 25.3163 60.2793 24.6659L64.4485 24.6701C64.4485 24.6701 64.5581 24.668 64.5694 24.5585C64.5735 24.5122 64.7128 23.6787 64.4454 22.7136Z" fill="white"/>
<path d="M26.9101 23.6092C26.9696 23.2019 27.0782 22.863 27.2472 22.5989C27.5024 22.1979 27.8917 21.9779 28.4389 21.9779C28.986 21.9779 29.3477 22.1989 29.6079 22.5989C29.7791 22.863 29.8539 23.2166 29.8836 23.6092H26.9101ZM31.0557 22.7136C30.9512 22.3084 30.693 21.899 30.5229 21.7116C30.2545 21.4149 29.9922 21.2075 29.7319 21.0918C29.3918 20.9423 28.984 20.8434 28.5372 20.8434C28.0177 20.8434 27.5444 20.9328 27.1612 21.1181C26.7769 21.3033 26.4542 21.5559 26.2011 21.8706C25.948 22.1842 25.7574 22.5578 25.6365 22.9819C25.5156 23.404 25.4531 23.8639 25.4531 24.3491C25.4531 24.8427 25.5167 25.3026 25.6427 25.7162C25.7697 26.133 25.9726 26.5003 26.2472 26.8044C26.5208 27.1107 26.8732 27.3507 27.2954 27.518C27.7145 27.6843 28.2237 27.7706 28.8087 27.7695C30.0127 27.7653 30.6469 27.4896 30.9082 27.3412C30.9543 27.3149 30.9984 27.2686 30.943 27.136L30.6715 26.3519C30.6295 26.2351 30.5137 26.2782 30.5137 26.2782C30.2155 26.3919 29.7924 26.596 28.8016 26.5939C28.1561 26.5929 27.6765 26.3971 27.3763 26.0909C27.0679 25.7772 26.9173 25.3163 26.8907 24.6659L31.0598 24.6701C31.0598 24.6701 31.1695 24.668 31.1807 24.5585C31.1848 24.5122 31.3242 23.6787 31.0557 22.7136Z" fill="white"/>
<path d="M17.8979 26.414C17.735 26.2803 17.7124 26.2466 17.6571 26.1603C17.5751 26.0288 17.5331 25.8415 17.5331 25.6036C17.5331 25.2268 17.654 24.9563 17.905 24.7743C17.902 24.7753 18.2637 24.4533 19.1141 24.4649C19.7114 24.4733 20.2453 24.5638 20.2453 24.5638V26.5108H20.2463C20.2463 26.5108 19.7166 26.6276 19.1202 26.6645C18.2719 26.7171 17.8948 26.4129 17.8979 26.414ZM19.5567 23.405C19.3877 23.3924 19.1684 23.385 18.9061 23.385C18.5485 23.385 18.2032 23.4314 17.8794 23.5208C17.5536 23.6103 17.2606 23.7502 17.0085 23.9355C16.7554 24.1218 16.5515 24.3596 16.404 24.6417C16.2564 24.9237 16.1816 25.2563 16.1816 25.6289C16.1816 26.0077 16.2452 26.3372 16.3722 26.6066C16.4993 26.8771 16.6827 27.1023 16.9163 27.2759C17.1479 27.4496 17.4337 27.5769 17.7657 27.6538C18.0925 27.7306 18.4635 27.7695 18.8692 27.7695C19.2965 27.7695 19.7227 27.7337 20.1356 27.6611C20.5444 27.5896 21.0465 27.4854 21.1859 27.4527C21.3242 27.4191 21.4779 27.3759 21.4779 27.3759C21.5814 27.3496 21.5732 27.2359 21.5732 27.2359L21.5711 23.3198C21.5711 22.461 21.3477 21.8243 20.9082 21.4296C20.4707 21.036 19.8262 20.8371 18.9932 20.8371C18.6807 20.8371 18.1776 20.8813 17.8764 20.9434C17.8764 20.9434 16.9655 21.1244 16.5905 21.4254C16.5905 21.4254 16.5085 21.478 16.5536 21.5959L16.8487 22.4105C16.8856 22.5157 16.9849 22.4799 16.9849 22.4799C16.9849 22.4799 17.0167 22.4673 17.0536 22.4452C17.8559 21.9969 18.8702 22.0106 18.8702 22.0106C19.3211 22.0106 19.6674 22.1032 19.901 22.2873C20.1285 22.4663 20.2442 22.7367 20.2442 23.3072V23.4882C19.8856 23.4356 19.5567 23.405 19.5567 23.405Z" fill="white"/>
<path d="M53.1835 21.1974C53.2152 21.1006 53.1486 21.0543 53.121 21.0438C53.0503 21.0153 52.6957 20.9385 52.4222 20.9206C51.8986 20.888 51.6076 20.9785 51.3473 21.0985C51.0891 21.2185 50.8023 21.4121 50.6424 21.6321V21.1111C50.6424 21.0385 50.5922 20.9806 50.5225 20.9806H49.4539C49.3842 20.9806 49.334 21.0385 49.334 21.1111V27.4984C49.334 27.57 49.3914 27.6289 49.461 27.6289H50.5563C50.626 27.6289 50.6824 27.57 50.6824 27.4984V24.3074C50.6824 23.879 50.7285 23.4518 50.8207 23.1834C50.9109 22.9182 51.0338 22.7056 51.1855 22.553C51.3381 22.4014 51.5113 22.2951 51.7008 22.2351C51.8945 22.1741 52.1086 22.1541 52.2603 22.1541C52.4785 22.1541 52.7183 22.212 52.7183 22.212C52.7982 22.2214 52.8433 22.1709 52.8699 22.0962C52.9416 21.9005 53.1445 21.3142 53.1835 21.1974Z" fill="white"/>
<path d="M42.903 18.2383C42.7698 18.1962 42.6489 18.1678 42.4911 18.1373C42.3313 18.1078 42.1407 18.093 41.9245 18.093C41.1704 18.093 40.5761 18.312 40.1591 18.7435C39.7442 19.1729 39.4624 19.8264 39.321 20.6863L39.2698 20.9757H38.323C38.323 20.9757 38.2082 20.9715 38.1837 21.0999L38.0289 21.9913C38.0177 22.0755 38.0535 22.1292 38.1642 22.1292H39.0853L38.1509 27.4882C38.0781 27.9197 37.9941 28.2744 37.9009 28.5438C37.8097 28.809 37.7205 29.0079 37.6099 29.1532C37.5033 29.2921 37.4029 29.3952 37.2287 29.4552C37.0853 29.5047 36.9193 29.5278 36.7379 29.5278C36.6375 29.5278 36.5033 29.511 36.4039 29.49C36.3055 29.47 36.2533 29.4479 36.1785 29.4152C36.1785 29.4152 36.0709 29.3731 36.0279 29.4836C35.9941 29.5752 35.7481 30.2688 35.7184 30.354C35.6897 30.4393 35.7307 30.5056 35.783 30.5256C35.9059 30.5698 35.9971 30.5992 36.1641 30.6403C36.3957 30.6961 36.5914 30.6992 36.7748 30.6992C37.158 30.6992 37.5084 30.6434 37.7984 30.5361C38.0894 30.4277 38.3435 30.2393 38.5689 29.9846C38.8117 29.7089 38.9644 29.4205 39.1099 29.0258C39.2544 28.6364 39.3784 28.1523 39.4767 27.5882L40.4163 22.1292H41.7893C41.7893 22.1292 41.9051 22.1334 41.9286 22.0039L42.0844 21.1136C42.0946 21.0283 42.0598 20.9757 41.9481 20.9757H40.6151C40.6222 20.9452 40.6827 20.4632 40.8354 20.0095C40.9009 19.817 41.0239 19.6601 41.1274 19.5528C41.2298 19.4475 41.3477 19.3728 41.4768 19.3297C41.609 19.2855 41.7596 19.2644 41.9245 19.2644C42.0495 19.2644 42.1735 19.2792 42.2668 19.2991C42.3959 19.3276 42.4461 19.3423 42.4799 19.3528C42.6161 19.3949 42.6346 19.3539 42.6612 19.2865L42.9799 18.3877C43.0127 18.2909 42.9317 18.2499 42.903 18.2383Z" fill="white"/>
<path d="M24.2779 27.4995C24.2779 27.571 24.2277 27.6289 24.158 27.6289H23.0524C22.9828 27.6289 22.9336 27.571 22.9336 27.4995V18.36C22.9336 18.2885 22.9828 18.2306 23.0524 18.2306H24.158C24.2277 18.2306 24.2779 18.2885 24.2779 18.36V27.4995Z" fill="white"/>
</svg>
