<svg width="42" height="48" viewBox="0 0 42 48" fill="none" xmlns="http://www.w3.org/2000/svg">
<path d="M36.7127 9.42657C36.6797 9.18643 36.4699 9.0537 36.2965 9.03912C36.1234 9.02454 32.4602 8.75256 32.4602 8.75256C32.4602 8.75256 29.916 6.22185 29.6369 5.94182C29.3574 5.66178 28.8119 5.74694 28.6001 5.80947C28.5687 5.81868 28.0442 5.98094 27.1763 6.24986C26.3263 3.79971 24.8266 1.5479 22.1879 1.5479C22.1152 1.5479 22.0401 1.55097 21.9651 1.55518C21.2147 0.560856 20.2851 0.128906 19.4822 0.128906C13.3357 0.128906 10.3991 7.82766 9.47832 11.7401C7.09001 12.4817 5.39315 13.0088 5.17645 13.077C3.84332 13.496 3.8012 13.5381 3.62623 14.7968C3.49414 15.7497 0.00585938 42.7792 0.00585938 42.7792L27.1874 47.882L41.9154 44.6896C41.9154 44.6896 36.7452 9.66671 36.7127 9.42657ZM25.6739 6.71557C24.9913 6.92732 24.2152 7.16785 23.374 7.42871C23.3748 7.26644 23.3756 7.10647 23.3756 6.93192C23.3756 5.40898 23.1646 4.18294 22.8262 3.21087C24.1857 3.38196 25.0912 4.93176 25.6739 6.71557ZM21.1396 3.51277C21.5175 4.46183 21.7633 5.82366 21.7633 7.66156C21.7633 7.75555 21.7626 7.84148 21.7618 7.92856C20.2659 8.39273 18.6407 8.8968 17.0116 9.4024C17.9262 5.86548 19.6407 4.15724 21.1396 3.51277ZM19.3134 1.78075C19.5787 1.78075 19.8459 1.8709 20.1017 2.04736C18.1318 2.97609 16.0203 5.31537 15.1286 9.98665C13.8254 10.391 12.5516 10.7861 11.3739 11.1517C12.4183 7.58867 14.8985 1.78075 19.3134 1.78075Z" fill="#95BF46"/>
<path d="M36.297 9.0397C36.124 9.02513 32.4607 8.75314 32.4607 8.75314C32.4607 8.75314 29.9166 6.22244 29.6375 5.9424C29.533 5.83806 29.3921 5.78474 29.2447 5.76172L27.1895 47.8822L41.916 44.6901C41.916 44.6901 36.7458 9.6673 36.7132 9.42715C36.6803 9.18701 36.4705 9.05428 36.297 9.0397Z" fill="#5E8E3E"/>
<path d="M22.187 17.1936L20.371 22.606C20.371 22.606 18.7798 21.7552 16.8295 21.7552C13.9703 21.7552 13.8263 23.5532 13.8263 24.0062C13.8263 26.4782 20.2577 27.4254 20.2577 33.2157C20.2577 37.7711 17.374 40.7046 13.4856 40.7046C8.81961 40.7046 6.43359 37.7949 6.43359 37.7949L7.68288 33.6591C7.68288 33.6591 10.1355 35.769 12.2053 35.769C13.5576 35.769 14.1077 34.7022 14.1077 33.9227C14.1077 30.698 8.83148 30.5541 8.83148 25.2557C8.83148 20.7961 12.0261 16.4805 18.4747 16.4805C20.9595 16.4805 22.187 17.1936 22.187 17.1936Z" fill="white"/>
</svg>
