<svg width="140" height="20" viewBox="0 0 140 20" fill="none" xmlns="http://www.w3.org/2000/svg">
<path d="M5.96063 10.626L13.7626 2.83244C14.8595 1.74088 16.6322 1.74088 17.7297 2.83244L18.3362 3.43888L19.5517 2.22355L18.9451 1.61422C17.1751 -0.152005 14.3089 -0.152005 12.5384 1.61422L4.74219 9.41044L5.96063 10.626Z" fill="#07081B"/>
<path d="M16.3757 5.39879L15.1602 4.18346L7.35574 11.9883C6.25797 13.0846 4.47863 13.0846 3.3813 11.9866C2.28419 10.889 2.28508 9.10946 3.38286 8.01212L10.116 1.27879L8.90063 0.0632324L2.1673 6.79657C0.377744 8.54457 0.343966 11.4123 2.09197 13.2015C3.83997 14.9915 6.70774 15.0246 8.49752 13.2763C8.52219 13.2528 8.54663 13.2275 8.5713 13.2032L16.3757 5.39879ZM24.1442 6.79679C22.3735 5.03212 19.5089 5.03212 17.7375 6.79679L9.93308 14.6015L11.1486 15.8175L18.9531 8.01235C20.0517 6.91612 21.8311 6.91746 22.9273 8.01657C23.4531 8.54301 23.7482 9.25612 23.7486 10.0003C23.7515 10.7475 23.452 11.4648 22.918 11.9886L16.1929 18.7215L17.4111 19.9363L24.1442 13.2035C25.9106 11.433 25.9106 8.56723 24.1442 6.79679Z" fill="#07081B"/>
<path d="M20.352 9.37427L12.5476 17.1756C11.4487 18.2718 9.67022 18.2718 8.57178 17.1756L7.96533 16.5667L6.75 17.7825L7.35622 18.3918C9.12689 20.1563 11.992 20.1563 13.7629 18.3918L21.5673 10.5843L20.352 9.37427Z" fill="#07081B"/>
<path d="M32.5966 12.099C32.6764 12.5617 32.9284 12.9768 33.3022 13.2619C33.7315 13.5583 34.246 13.705 34.7666 13.6797C35.2624 13.7112 35.7533 13.5648 36.1509 13.267C36.4722 12.9999 36.652 12.599 36.6382 12.1821C36.6435 11.989 36.5991 11.7977 36.508 11.6281C36.4173 11.4737 36.2922 11.3414 36.1429 11.2432C35.9644 11.1252 35.7706 11.0317 35.5664 10.9663L34.7969 10.7343L34.0631 10.5341C33.6564 10.4265 33.2606 10.2814 32.8811 10.0999C32.5549 9.94566 32.2535 9.7441 31.9869 9.50188C31.7486 9.28077 31.5604 9.01188 31.4331 8.71321C31.2977 8.38366 31.2317 8.03033 31.2393 7.67477C31.2351 7.28077 31.3209 6.89055 31.4884 6.53366C31.6504 6.18677 31.89 5.88188 32.1889 5.64255C32.5177 5.37944 32.8937 5.18122 33.2962 5.0581C33.7671 4.90899 34.2589 4.83722 34.7524 4.84499C35.7693 4.84499 36.5753 5.08499 37.1693 5.56499C37.7649 6.04366 38.142 6.74255 38.2157 7.50277L36.5549 7.6381C36.4724 7.25699 36.2586 6.91722 35.9511 6.67788C35.5782 6.42877 35.1337 6.30788 34.686 6.33455C34.2633 6.30988 33.8449 6.43322 33.504 6.68344C33.2273 6.89899 33.0689 7.23233 33.0775 7.58277C33.0706 7.76744 33.114 7.94988 33.2024 8.11188C33.2911 8.26144 33.4137 8.38855 33.5595 8.48299C33.7371 8.59855 33.9286 8.69166 34.13 8.75966C34.3537 8.84277 34.6086 8.93144 34.8909 9.02277L35.5942 9.24166C36.0317 9.37966 36.4275 9.5241 36.782 9.67344C37.1082 9.81166 37.4109 9.99877 37.6817 10.2277C37.9255 10.4334 38.1206 10.6919 38.2522 10.9832C38.3946 11.327 38.4622 11.6963 38.4513 12.0679C38.4562 12.5028 38.3613 12.9328 38.1742 13.3252C37.9944 13.7014 37.7311 14.033 37.4046 14.2943C37.054 14.5712 36.6551 14.7812 36.228 14.9139C35.742 15.0657 35.2346 15.1394 34.7246 15.1332C33.8237 15.1663 32.9346 14.9163 32.1837 14.4179C31.474 13.9048 31.0142 13.115 30.918 12.2454L32.5966 12.099ZM45.4566 4.87299C46.1529 4.86388 46.8442 4.99188 47.4913 5.24944C48.0824 5.48588 48.616 5.84633 49.0555 6.30677C49.4973 6.77588 49.8389 7.32966 50.0604 7.93477C50.3042 8.59988 50.4251 9.30344 50.4175 10.0112C50.4277 10.7325 50.2986 11.4485 50.0384 12.121C49.7955 12.7319 49.4291 13.2865 48.9618 13.7488L50.2795 15.2912V15.7699H48.6184L47.6964 14.643C47.3624 14.8028 47.0129 14.9272 46.6526 15.0145C46.2642 15.0974 45.8677 15.1383 45.4706 15.1359C44.7662 15.1397 44.068 15.0045 43.4164 14.7374C42.8284 14.499 42.2991 14.1374 41.8629 13.6772C41.4271 13.2097 41.0906 12.6583 40.8749 12.0565C40.636 11.3983 40.5171 10.703 40.5229 10.0028C40.516 9.29766 40.6353 8.59766 40.8749 7.93455C41.0924 7.33099 41.4315 6.77922 41.8711 6.31188C42.31 5.85188 42.8413 5.48944 43.4302 5.24922C44.0729 4.98833 44.7622 4.86055 45.4566 4.87299ZM45.4424 6.35655C44.9853 6.34966 44.5326 6.4441 44.1164 6.63322C43.7338 6.8101 43.396 7.07033 43.1275 7.39477C42.8489 7.73499 42.638 8.1261 42.5075 8.54699C42.3635 9.01455 42.292 9.5021 42.2975 9.99188C42.2924 10.4859 42.3664 10.977 42.5162 11.4474C42.6502 11.8725 42.8624 12.2674 43.1418 12.6137C43.4095 12.9419 43.7471 13.2065 44.1302 13.389C44.5462 13.5797 44.9991 13.6739 45.4566 13.6659C45.9133 13.6701 46.3658 13.5757 46.7826 13.389C47.1642 13.2165 47.502 12.9588 47.7711 12.6383C48.0535 12.2977 48.2662 11.9045 48.3969 11.4819C48.5482 10.9997 48.6226 10.4963 48.6182 9.99188C48.6224 9.49388 48.5475 8.99877 48.3969 8.52433C48.2646 8.10366 48.0518 7.71299 47.7711 7.37255C47.4989 7.05166 47.1597 6.79477 46.7771 6.61944C46.3566 6.43566 45.9009 6.3461 45.4424 6.35655ZM56.9431 13.7352C57.5658 13.7737 58.1742 13.5341 58.6042 13.0814C58.9975 12.6481 59.194 11.9821 59.194 11.083V5.06366H60.9186V11.1381C60.9326 11.7601 60.8389 12.381 60.642 12.9703C60.4833 13.4437 60.2144 13.873 59.8584 14.2221C59.5055 14.5568 59.0771 14.801 58.6098 14.9363C57.5229 15.2377 56.3746 15.2377 55.2875 14.9363C54.8218 14.8012 54.3958 14.5568 54.0444 14.2221C53.6893 13.8719 53.4211 13.4428 53.2609 12.9703C53.0642 12.381 52.9706 11.7601 52.9842 11.1381V5.06366H54.7146V11.0828C54.7146 11.9801 54.912 12.6461 55.3069 13.0812C55.7309 13.5274 56.3286 13.767 56.9431 13.7352ZM62.6464 14.4605L66.1486 5.07455H68.7455L72.2086 14.4605V14.9314H70.5062L69.5151 12.1119H65.2433L64.2406 14.9314H62.6353L62.6464 14.4605ZM65.7638 10.6397H69.0226L68.4855 9.07233C68.2749 8.46099 68.1062 7.96544 67.9762 7.57499C67.846 7.1841 67.7353 6.8521 67.6329 6.55899H67.2091L67.0431 7.02677C66.9875 7.18144 66.9271 7.35588 66.8575 7.54722C66.7884 7.7381 66.7135 7.95944 66.6304 8.20877C66.5475 8.4581 66.4475 8.74322 66.3291 9.07255L65.7638 10.6397ZM81.8829 14.9314H80.2213L77.2115 11.055H76.104V14.9314H74.3989V5.06366H77.6024C78.0822 5.06277 78.5615 5.09722 79.0355 5.16633C79.4769 5.23033 79.8991 5.39299 80.2689 5.64255C81.0473 6.15566 81.4364 6.92855 81.4364 7.96233C81.4446 8.36322 81.3762 8.76144 81.2346 9.13633C81.1146 9.45188 80.9349 9.74121 80.7053 9.98899C80.4871 10.221 80.2295 10.415 79.9446 10.5599C79.6589 10.7045 79.3566 10.8154 79.0444 10.8888L81.8826 14.4603L81.8829 14.9314ZM76.0991 9.57077H77.5958C78.1398 9.59966 78.6798 9.47499 79.1555 9.21099C79.5458 8.95033 79.7635 8.49922 79.7253 8.03166C79.7718 7.56655 79.5469 7.11633 79.1462 6.87433C78.6658 6.63522 78.1326 6.52277 77.5958 6.54722H76.0991V9.57077ZM84.0807 5.06366H90.4702V6.57522H85.764V9.15833H90.132V10.643H85.772V13.411H90.5671V14.9317H84.0807V5.06366ZM94.388 12.099C94.4678 12.5617 94.7204 12.9768 95.0933 13.2619C95.5233 13.5574 96.0378 13.705 96.5586 13.6797C97.054 13.7112 97.5446 13.5648 97.9429 13.267C98.2642 12.9999 98.4435 12.599 98.4304 12.1821C98.4351 11.989 98.3907 11.7977 98.3002 11.6281C98.2089 11.4737 98.0833 11.3414 97.9344 11.2432C97.756 11.1252 97.5622 11.0317 97.3587 10.9663L96.588 10.7343L95.8471 10.529C95.4398 10.4217 95.0442 10.2757 94.6649 10.0939C94.3389 9.94033 94.0378 9.73855 93.7706 9.49633C93.5329 9.27544 93.3438 9.00633 93.2171 8.70721C92.94 8.00321 92.9602 7.21722 93.2724 6.52855C93.4351 6.18188 93.6746 5.87677 93.9724 5.63655C94.3015 5.37344 94.6769 5.17522 95.08 5.05255C95.5504 4.90344 96.0426 4.83166 96.5362 4.83944C97.5533 4.83944 98.3595 5.07899 98.9566 5.55899C99.5502 6.03855 99.9264 6.73722 99.9998 7.49677L98.3382 7.63299C98.2575 7.25233 98.0458 6.91255 97.7407 6.6721C97.3675 6.42255 96.9229 6.30188 96.4751 6.32855C96.0524 6.30388 95.6349 6.42722 95.2935 6.67766C95.0173 6.8941 94.8602 7.22744 94.8702 7.57766C94.862 7.76144 94.9042 7.94388 94.9915 8.1061C95.0802 8.25544 95.2022 8.38255 95.3489 8.47744C95.5264 8.59321 95.7178 8.68588 95.9191 8.75366C96.1429 8.83677 96.3978 8.92544 96.6829 9.01699L97.3833 9.23566C97.8229 9.3741 98.2189 9.5181 98.5704 9.66744C98.8969 9.80633 99.2006 9.99299 99.4713 10.2208C99.7146 10.4279 99.9095 10.6859 100.041 10.9765C100.184 11.3203 100.251 11.6908 100.24 12.063C100.245 12.4972 100.15 12.9272 99.9638 13.3194C99.784 13.6965 99.522 14.0288 99.1942 14.2877C98.8426 14.5628 98.4435 14.7717 98.0178 14.9032C97.5298 15.0543 97.022 15.1281 96.5118 15.1214C95.6102 15.155 94.7218 14.9048 93.9695 14.4072C93.2651 13.895 92.8082 13.1101 92.7107 12.2452L94.388 12.099ZM102.699 5.06366H106.298C106.869 5.04922 107.437 5.12855 107.981 5.29899C108.395 5.42655 108.774 5.64722 109.089 5.9441C109.366 6.21322 109.573 6.54588 109.692 6.91299C109.819 7.30055 109.882 7.70655 109.878 8.11433C109.889 8.57433 109.802 9.03099 109.623 9.45433C109.462 9.82455 109.21 10.1483 108.89 10.3959C108.54 10.6543 108.143 10.843 107.72 10.9488C107.214 11.079 106.691 11.1419 106.168 11.1348H104.424V14.9312H102.704L102.699 5.06366ZM104.418 9.65388H106.066C106.344 9.6561 106.623 9.63077 106.897 9.57921C107.13 9.53544 107.353 9.4501 107.555 9.32721C107.742 9.21055 107.893 9.0461 107.995 8.85055C108.106 8.6221 108.16 8.36899 108.153 8.11433C108.161 7.85344 108.106 7.59477 107.995 7.35899C107.897 7.16099 107.747 6.99366 107.561 6.87433C107.362 6.74988 107.141 6.66522 106.909 6.6221C106.636 6.57033 106.358 6.54477 106.079 6.54722H104.405L104.418 9.65388ZM110.354 14.4605L113.859 5.07455H116.456L119.917 14.4605V14.9314H118.228L117.239 12.1119H112.951L111.963 14.9314H110.354V14.4605ZM113.474 10.6397H116.73L116.193 9.07233C115.983 8.46099 115.814 7.96544 115.687 7.57499L115.343 6.55899H114.906L114.74 7.02677C114.684 7.18144 114.624 7.35588 114.554 7.54722C114.485 7.7381 114.41 7.95944 114.327 8.20877C114.244 8.4581 114.145 8.74322 114.026 9.07255L113.474 10.6397ZM130.388 12.3203C130.231 12.7065 130.026 13.0712 129.779 13.4054C129.521 13.7488 129.212 14.0494 128.862 14.297C128.483 14.5632 128.064 14.7668 127.619 14.9005C127.109 15.0534 126.579 15.1277 126.046 15.1219C125.359 15.1325 124.677 15.0017 124.042 14.7377C123.461 14.495 122.937 14.1323 122.506 13.6741C122.072 13.2052 121.737 12.6528 121.523 12.0521C121.288 11.3974 121.171 10.7065 121.176 10.0112C121.171 9.31588 121.288 8.62499 121.523 7.97055C121.737 7.36633 122.074 6.81233 122.511 6.34277C122.945 5.87988 123.471 5.51188 124.056 5.26344C124.692 4.99522 125.378 4.86233 126.068 4.87299C127.029 4.83855 127.977 5.10255 128.782 5.62855C129.497 6.11588 130.039 6.81788 130.329 7.63321L128.582 7.97655C128.365 7.49677 128.02 7.08588 127.587 6.78855C127.127 6.49122 126.588 6.34077 126.041 6.35677C125.593 6.34677 125.148 6.44166 124.742 6.63344C124.37 6.81677 124.041 7.08055 123.782 7.4061C123.51 7.75299 123.306 8.14855 123.184 8.57188C123.042 9.03722 122.972 9.52166 122.976 10.0088C122.972 10.4983 123.044 10.9859 123.189 11.4541C123.319 11.8728 123.529 12.263 123.807 12.6025C124.078 12.9219 124.415 13.1774 124.795 13.3534C125.209 13.5432 125.66 13.6377 126.115 13.6305C126.682 13.6532 127.239 13.4883 127.702 13.1621C128.11 12.8634 128.442 12.4723 128.671 12.0212L130.388 12.3203ZM132.71 5.06366H139.1V6.57522H134.394V9.15833H138.77V10.643H134.402V13.411H139.197V14.9317H132.71V5.06366Z" fill="#07081B"/>
</svg>
